<?xml version="1.0" standalone="no"?>
<!DOCTYPE svg PUBLIC "-//W3C//DTD SVG 1.1//EN" "http://www.w3.org/Graphics/SVG/1.1/DTD/svg11.dtd" >
<svg xmlns="http://www.w3.org/2000/svg" xmlns:xlink="http://www.w3.org/1999/xlink" version="1.1">
<metadata></metadata>
<defs>
<font id="sachikoregular" horiz-adv-x="1200" >
<font-face units-per-em="2048" ascent="1638" descent="-410" />
<missing-glyph horiz-adv-x="508" />
<glyph horiz-adv-x="0" />
<glyph unicode="&#xd;" horiz-adv-x="508" />
<glyph unicode=" "  horiz-adv-x="508" />
<glyph unicode="&#x09;" horiz-adv-x="508" />
<glyph unicode="&#xa0;" horiz-adv-x="508" />
<glyph unicode="!" horiz-adv-x="251" d="M40 1340q0 85 10 124q39 50 79 50q39 0 73 -50q9 -35 9 -117q-10 -360 -82 -1079q-79 708 -89 1072zM57 53q0 12 3 25q9 33 34 56.5t52 23.5q28 0 40 -23q9 -15 9 -32q0 -12 -3 -25q-9 -33 -34 -56.5t-52 -23.5q-28 0 -40 23q-9 15 -9 32z" />
<glyph unicode="&#x22;" horiz-adv-x="445" d="M40 1437q0 24 8 35q31 42 62 42t58 -42q7 -10 7 -33q0 -73 -65 -275q-70 199 -70 273zM270 1437q0 24 8 35q31 42 62 42t58 -42q7 -10 7 -33q0 -73 -65 -275q-70 199 -70 273z" />
<glyph unicode="#" d="M84 377l9 48h284l56 286h-284l10 48h283l74 376h49l-74 -376h291l74 376h49l-74 -376h284l-9 -48h-284l-56 -286h284l-10 -48h-283l-74 -377h-49l74 377h-291l-74 -377h-49l74 377h-284zM426 425h291l56 286h-291z" />
<glyph unicode="$" horiz-adv-x="889" d="M33 310q0 208 125 262q-35 -81 -35 -179q0 -76 20 -162q26 -110 115 -156v828q-183 166 -183 293q0 34 14 67q56 125 169 155v69l67 60v-120h9q23 0 48 -3q11 -2 22 -3v66l67 60v-140q133 -37 163 -130q10 -30 10 -55q0 -78 -96 -109q-29 -9 -51 -9q-14 0 -26 3v-208 q53 -37 115 -78q269 -176 269 -394q0 -81 -38 -169q-115 -262 -346 -281v-58l-67 -60v117q-20 2 -41 5q-19 2 -38 6v-68l-67 -60v144q-213 64 -224 265q-1 22 -1 42zM199 1218q0 -12 2 -26q5 -47 57 -109v255q-59 -39 -59 -120zM325 51q36 -8 79 -9v743q-42 30 -79 60v-794z M325 1015q35 -31 79 -66v244q-3 10 -4 22q2 -1 4 -3v162h-12q-31 0 -67 -9v-350zM471 43h2q260 13 293 232q3 17 3 34q0 188 -298 425v-691zM471 1177q6 -1 12 -1q34 0 51 41q10 24 10 46q0 49 -52 83q-11 6 -21 11v-180z" />
<glyph unicode="%" d="M8 854q0 79 41.5 151.5t115 111.5t151.5 39t151.5 -39t115 -111.5t41.5 -151.5t-40 -150t-114 -111.5t-154 -40.5t-153.5 40.5t-114 111.5t-40.5 150zM88 803q0 -45 15 -86q20 -60 68 -92q43 -29 95 -29h12q58 3 117 39.5t97 99.5q25 40 38 81q7 24 11 48q3 22 3 42 q0 45 -14 87q-22 60 -69 91q-45 28 -97 28h-10q-56 -2 -114.5 -38t-97.5 -99q-27 -43 -40 -86q-7 -23 -11 -45q-3 -21 -3 -41zM195 -29l748 1163h67l-746 -1163h-69zM575 280q0 79 41.5 151t115 111.5t151.5 39.5q77 0 151 -39.5t115.5 -111.5t41.5 -151q0 -80 -40 -151 t-114 -111t-154 -40t-153.5 40t-114 111t-40.5 151zM655 228q0 -45 14 -86q20 -60 69 -92q45 -28 97 -28h10q58 2 116.5 38.5t97.5 99.5q24 40 37 82q8 23 11 47q4 23 4 46q0 43 -14 84q-22 60 -70 90q-44 28 -96 28h-10q-56 -2 -114.5 -38t-97.5 -99q-27 -42 -40 -86 q-7 -22 -11 -45q-3 -21 -3 -41z" />
<glyph unicode="&#x26;" horiz-adv-x="1026" d="M10 331q0 5 1 10v22q0 373 464 496q-307 83 -317 284v17q0 25 4 52q62 256 336 295q32 4 61 4q211 0 211 -174v-2q-67 112 -253 112q-12 0 -23 -1q-195 -56 -195 -212v-13q-1 -2 -1 -3q10 -210 291 -353q-441 -181 -441 -462v-18q1 -14 4 -28q39 -313 322 -327 q14 -1 28 -1q258 0 299 258q7 39 7 72q0 12 -1 22q-6 124 -49 166q-136 -51 -183 -118q-22 -33 -25 -67l1 -20q4 -78 71 -129l-22 -33q-84 72 -107 190q-4 24 -5 46q-1 14 -1 26q4 49 28 85q46 66 161 88q210 56 251 114q6 11 9 21q1 7 2 15v22q-3 55 -44 81q-9 5 -18 9 l15 22q16 -7 31 -16q60 -38 89 -115q4 -14 5 -28v-13q-1 -26 -18 -50q-40 -58 -171 -106q113 -63 122 -238v-20q0 -21 -1 -44q-12 -260 -350 -305q-40 -5 -78 -5h-22q-469 0 -488 372z" />
<glyph unicode="'" horiz-adv-x="215" d="M40 1437q0 24 8 35q31 42 62 42t58 -42q7 -10 7 -33q0 -73 -65 -275q-70 199 -70 273z" />
<glyph unicode="(" horiz-adv-x="672" d="M73 639q0 121 20 262q48 340 214 567q163 223 195 223h1q-259 -419 -293 -797q-7 -69 -7 -135q0 -297 129 -538q154 -292 322 -292h4q-47 -79 -124 -79q-11 0 -24 1q-93 14 -210.5 129.5t-186.5 348.5q-40 136 -40 310z" />
<glyph unicode=")" horiz-adv-x="672" d="M14 1611q47 80 123 80q12 0 24 -2q94 -14 211.5 -129.5t186.5 -347.5q40 -137 40 -310q0 -122 -20 -263q-48 -339 -214 -567q-163 -222 -195 -222h-1q258 419 293 797q6 69 6 135q0 296 -128 538q-155 291 -322 291h-4z" />
<glyph unicode="*" horiz-adv-x="731" d="M45 1254q0 8 3 16q11 29 59 40q3 1 7 1q11 0 27 -6q62 -23 135 -78q29 -23 42 -23q11 0 11 15q0 13 -8 36q-28 84 -28 151q0 24 8 35q31 42 62 42t58 -42q7 -10 7 -33q0 -65 -23 -151q-6 -21 -6 -33q0 -19 13 -19q14 0 43 22q73 55 136 78q15 6 26 6q4 0 7 -1 q49 -11 59 -40q3 -8 3 -17q0 -24 -21 -56q-8 -11 -30 -19q-61 -23 -146 -25q-49 -1 -49 -21q0 -15 28 -40q63 -59 96 -115q10 -18 10 -31v-2q-2 -49 -29 -65q-12 -6 -27 -6q-21 0 -48 11q-12 6 -24 27q-34 59 -57 145q-11 43 -23 43t-24 -44q-24 -88 -58 -148 q-12 -21 -24 -27q-27 -11 -48 -11q-15 0 -27 6q-27 16 -29 65v2q0 13 10 31q34 57 99 118q28 26 28 41q0 20 -49 21q-86 2 -147 25q-23 8 -31 19q-21 32 -21 57z" />
<glyph unicode="+" d="M179 629v48h396v396h49v-396h396v-48h-396v-397h-48v397h-397z" />
<glyph unicode="," horiz-adv-x="263" d="M59 53q0 12 3 25q8 33 33.5 56.5t51.5 23.5q28 0 41 -23q9 -15 9 -32q0 -4 -1 -9h1l-1 -4q-1 -6 -3 -12q-1 -6 -3 -11l-54 -213h-43l36 148q-10 -4 -21 -4q-28 0 -41 23q-8 15 -8 32z" />
<glyph unicode="-" horiz-adv-x="545" d="M48 541l61 67h388l-60 -67h-389z" />
<glyph unicode="." horiz-adv-x="255" d="M59 53q0 12 3 25q9 33 34 56.5t52 23.5q28 0 40 -23q9 -15 9 -32q0 -12 -3 -25q-9 -33 -34 -56.5t-52 -23.5q-28 0 -40 23q-9 15 -9 32z" />
<glyph unicode="/" horiz-adv-x="689" d="M0 0l640 1422h49l-640 -1422h-49z" />
<glyph unicode="0" d="M96 557q0 151 68 289t188 213.5t248 75.5q126 0 247 -75.5t189 -213.5t68 -289q0 -154 -65.5 -290t-186.5 -212.5t-252 -76.5t-251 76.5t-186.5 212.5t-66.5 290zM217 520q0 -32 3 -62q9 -86 41 -165q46 -115 136 -176q83 -54 172 -54h17q99 4 192 74t147 191 q34 76 48 157q9 44 9 90q1 17 1 33q0 28 -3 55q-9 82 -40 161q-50 115 -138 172q-82 54 -170 54h-17q-96 -4 -189.5 -73t-147.5 -190q-38 -80 -51 -164q-7 -43 -10 -87v-16z" />
<glyph unicode="1" d="M457 1083v51h286v-1132h-140v1081h-146z" />
<glyph unicode="2" d="M255 770q12 110 113 237t272 127q169 0 251 -163q30 -58 30 -119q0 -48 -18 -97q-39 -113 -279 -377q-224 -245 -244 -305h565l-61 -67h-607q92 147 270 329q208 213 217 404v23q0 171 -119 230q-45 24 -90 29h-23q-71 0 -141 -54.5t-136 -196.5z" />
<glyph unicode="3" d="M225 1028q141 121 295 121q152 0 226 -80q46 -50 46 -112q0 -40 -18 -85q-27 -66 -146 -146q212 -23 293 -133q53 -73 53 -163q0 -58 -21 -124q-55 -168 -244 -271q-87 -48 -191 -48q-123 0 -271 66v36q167 -60 286 -60q74 0 130 24q144 61 162 176q3 22 3 44q6 37 6 71 q0 237 -273 321l-163 -68v3l-12 -5l-9 52l163 58q112 62 123 114q3 15 3 30q10 31 10 60q0 90 -99 153q-55 34 -120 34q-88 0 -195 -64z" />
<glyph unicode="4" d="M266 302l4 5l-4 -1l504 828v-776h164l-61 -56h-103v-302h-140v302h-364zM365 358h265v453z" />
<glyph unicode="5" d="M232 775l4 3l84 288l61 61h541l-60 -57h-500l-75 -266q91 10 170 10q368 0 470 -232q41 -95 41 -181q0 -174 -171 -307q-131 -102 -275 -102q-136 0 -284 92q119 -41 219 -41q153 0 258 101q107 104 107 241q0 79 -36 169q-87 215 -521 215h-32l2 6h-3z" />
<glyph unicode="6" d="M215 504q0 76 15 164q35 213 156 355q120 139 143 139h2q-191 -262 -215 -499q-6 -43 -6 -84q0 -143 56 -265q3 12 6 25q39 138 154 236t239 98q123 0 183 -96q37 -60 37 -134q0 -48 -15 -102q-39 -138 -154 -236t-239 -98q-57 0 -101 22q-44 21 -95 63q-87 72 -137 218 q-29 85 -29 194zM433 267q0 -100 60 -155q22 -21 47 -31l15 -4q20 -6 43 -6q24 0 51 7q91 24 156 114q13 18 23 35q18 31 28 65q15 46 16 95v3q0 101 -62 158q-23 21 -48 32l-14 3q-21 7 -45 7q-23 0 -49 -7q-91 -24 -157 -115q-11 -17 -21 -35q-18 -31 -28 -64 q-15 -46 -15 -95v-7z" />
<glyph unicode="7" d="M311 0l437 1091h-437v43h577l-437 -1134h-140z" />
<glyph unicode="8" d="M234 330v16q0 74 43 144q69 111 213 142q11 3 23 5q-10 5 -22 10q-118 60 -158 172q-12 38 -14 74l-1 12q1 65 39 126q62 97 189 125q15 3 32 5q24 3 47 3q85 0 166 -40q120 -60 159 -172q13 -38 15 -74v-11q0 -66 -39 -126q-63 -99 -188 -126l-9 -1q20 -9 39 -17 q133 -69 178 -198q15 -41 18 -81v-15q0 -74 -43 -144q-71 -111 -213 -143q-19 -4 -38 -7q-26 -3 -52 -3q-97 0 -188 46q-134 68 -179 197q-14 41 -17 81zM369 268q1 -24 9 -47q4 -17 11 -33q39 -84 127 -106q25 -7 50 -7q14 0 28 2q10 1 21 3l16 4q31 10 60 30 q86 53 120 150q15 46 15 89v13q-2 23 -8 46q-5 17 -12 32q-38 86 -126 108q-24 6 -49 6q-14 0 -28 -2q-11 -1 -21 -3q-7 -1 -16 -5q-31 -10 -62 -29q-86 -53 -119 -150q-16 -45 -16 -88v-13zM435 853l1 -10q1 -21 6 -43q4 -14 11 -29q34 -73 111 -93q25 -7 48 -7q12 0 24 2 q9 1 16 3t15 4q27 8 53 25q76 46 107 132q13 40 13 77v9q-1 22 -7 44q-4 14 -10 28q-34 74 -111 94q-23 6 -46 6q-12 0 -25 -2q-9 -1 -18 -3q-6 -1 -13 -3q-27 -10 -54 -26q-77 -46 -108 -132q-13 -36 -13 -71v-5z" />
<glyph unicode="9" d="M215 672q0 50 15 106q39 143 154 244.5t239 101.5q59 0 104 -25q42 -19 89 -56q88 -70 139 -209q30 -82 30 -186q0 -73 -15 -157q-35 -204 -159 -341q-121 -133 -145 -133h-1q192 251 218 478q5 41 5 81q0 131 -52 244q-4 -20 -9 -40q-38 -143 -153.5 -244.5 t-239.5 -101.5q-122 0 -182 100q-37 62 -37 138zM319 711q0 -96 59 -149q23 -20 50 -30l12 -4q18 -4 37 -4q28 0 59 8q93 30 160 124q13 18 24 37q18 32 29 66q16 47 18 97v13q0 96 -58 149q-21 20 -48 29l-14 4q-17 4 -36 4q-28 0 -60 -9q-92 -28 -161 -123 q-13 -18 -23 -37q-19 -32 -30 -67q-16 -47 -18 -96v-12z" />
<glyph unicode=":" horiz-adv-x="263" d="M59 53q0 12 3 25q9 33 34 56.5t52 23.5q28 0 40 -23q9 -15 9 -32q0 -12 -3 -25q-9 -33 -34 -56.5t-52 -23.5q-28 0 -40 23q-9 15 -9 32zM59 564q0 11 3 24q9 33 34 57t52 24q28 0 40 -24q9 -14 9 -32q0 -11 -3 -25q-9 -33 -34 -56.5t-52 -23.5q-28 0 -40 24q-9 14 -9 32z " />
<glyph unicode=";" horiz-adv-x="266" d="M59 564q0 11 3 24q9 33 34 57t52 24q28 0 40 -24q9 -14 9 -32q0 -11 -3 -25q-9 -33 -34 -56.5t-52 -23.5q-28 0 -40 24q-9 14 -9 32zM62 53q0 12 3 25q8 33 33.5 56.5t51.5 23.5q28 0 41 -23q9 -15 9 -32q0 -4 -1 -9h1l-1 -4q-1 -6 -3 -12q-1 -6 -3 -11l-54 -213h-43 l36 148q-10 -4 -21 -4q-28 0 -41 23q-8 15 -8 32z" />
<glyph unicode="&#x3c;" d="M179 541v54l841 378v-48l-794 -357l794 -357v-48z" />
<glyph unicode="=" d="M179 427v48h841v-48h-841zM179 661v48h841v-48h-841z" />
<glyph unicode="&#x3e;" d="M179 163v48l794 357l-794 357v48l841 -378v-54z" />
<glyph unicode="?" horiz-adv-x="690" d="M56 1145q0 41 17 86q59 148 274 148h4q219 -2 272 -247q10 -48 10 -92q0 -183 -176 -301q-242 -184 -251 -281q-1 -10 -1 -20q0 -115 73 -119q5 -1 8 -1q65 0 65 68q0 16 -6 34q-16 24 -38 24t-50 -23q23 67 76 67q8 0 17 -1q66 -12 66 -71q0 -18 -6 -40 q-26 -93 -127 -94h-2q-101 0 -148 123q-8 25 -8 51q0 128 213 310q227 194 227 354q0 7 -1 15q-12 166 -179 174h-19q-153 0 -207 -105q-30 -57 -30 -122q0 -61 26 -127q-99 89 -99 190zM224 53q0 12 3 25q8 33 33.5 56.5t52.5 23.5t40 -23q8 -15 8 -32q0 -12 -2 -25 q-9 -33 -34.5 -56.5t-51.5 -23.5q-28 0 -41 23q-8 15 -8 32z" />
<glyph unicode="@" horiz-adv-x="1084" d="M40 417q0 222 157.5 379.5t379.5 157.5q344 -10 433 -258q34 -96 34 -177q0 -128 -85 -216q-63 -88 -133 -121q-25 -13 -52 -17q-17 -3 -35 -3h-20l2 5q-50 15 -50 86v10q-16 -18 -34 -36q-71 -65 -146 -65t-112 64q-23 41 -23 92q0 32 8 67q25 94 95.5 160t146.5 66 q73 -3 73 -65q0 -18 -6 -41l57 69q-2 -56 -2 -103q0 -183 18 -238l2 5q13 -8 20 -8q72 0 139 100q75 76 75 190q0 66 -25 147q-66 218 -380 227q-197 0 -337 -140t-140 -337q0 -198 140 -337t337 -139q198 0 344 146l43 -42q-165 -165 -387 -165t-379.5 157.5t-157.5 379.5z M418 399q0 -51 26 -97q32 -58 85 -76q18 -6 36 -6q33 0 61 22q32 25 45 67v183q-8 -26 -24 -59q-9 119 -83 119q-12 0 -25 -2q-98 -21 -120 -127q-1 -12 -1 -24z" />
<glyph unicode="A" horiz-adv-x="1280" d="M29 575v24q0 303 182 565q188 273 538 307q240 -14 325 -196q43 -91 43 -213q0 -121 -41 -272v-643q9 -60 55 -60q53 8 158 208v-40q-98 -255 -210 -255q-18 0 -32 7q-70 22 -70 117v190l-8 -35q0 1 1 6q-98 -299 -362 -307h-28q-246 0 -391 137q-153 144 -160 460z M151 634q0 -264 118 -386q138 -142 317 -147h13q168 0 245 113q138 159 138 497q-72 -125 -249 -133q-50 0 -100 24q-125 59 -125 181q0 39 13 85q-106 39 -106 112q0 47 41.5 85t65.5 38q35 0 35 -31q0 -8 -2 -18q-6 -24 -6 -39q0 -26 17 -26q3 0 8 2q72 185 218 230 q29 9 51 9q69 0 69 -88q0 -25 -5 -57q-32 -181 -304 -228q53 -132 183 -132h18q144 9 213 183q38 96 38 187q0 73 -24 143q-54 156 -268 156h-4q-220 0 -397 -160q-184 -167 -208 -506q-3 -49 -3 -94zM644 985q150 49 177 120q7 16 7 27q0 17 -18 17q-16 0 -46 -14 q-86 -39 -120 -150z" />
<glyph unicode="B" horiz-adv-x="1478" d="M14 237q0 176 152 263q66 37 112 37q64 0 92 -70q13 -35 13 -66q0 -79 -88 -136l1 30q0 169 -98 169h-2q-95 -2 -95 -137q0 -20 3 -43q28 -178 198 -222q23 -6 43 -6q130 0 148 246v991q-58 -24 -184.5 -25.5t-126.5 -68.5q0 -22 11 -49q-66 0 -73 122v8q0 112 175 112h8 q4 -1 8 -1q177 0 293 96v-171q93 114 212 148q60 17 114 17q97 0 175 -56q119 -89 121 -240v-3q0 -150 -152 -248q-11 -7 -23 -14q196 -4 285 -111q112 -135 112 -314q0 -67 -16 -141q-58 -268 -327 -341q-73 -19 -149 -19q-193 0 -411 126q-38 -54 -102 -86 q-51 -40 -135 -40q-53 0 -118 16q-172 38 -175 220q-1 3 -1 7zM580 181q173 -120 320 -120q68 0 129 25q197 81 221 292q4 39 4 76q0 164 -85 293q-73 110 -259 110q-18 0 -37 -1q-115 -26 -269 -31v-498q0 -83 -24 -146zM604 873q46 -3 88 -3h27v2q110 28 202 40 q55 26 93 66q83 87 83 181q0 45 -19 92q-57 136 -218 136q-9 0 -19 -1q-164 -8 -237 -179v-334z" />
<glyph unicode="C" horiz-adv-x="1104" d="M29 643q0 200 102 384q162 293 416 383q132 46 229 46q93 0 157 -41q104 -67 110 -165v-7q0 -21 -4 -44q-24 -132 -129 -210q-92 -69 -196 -69q-14 0 -27 2q-119 9 -158 91q-8 20 -9 39v7q0 54 57 93q49 33 85 33q22 0 41 -14q18 -14 19 -38v-4q0 -36 -34 -91 q31 -22 64 -22q60 0 131 69q68 67 68 137v9q-2 39 -25 80q-48 82 -167 82q-53 0 -121 -17q-218 -53 -376 -324q-98 -170 -98 -362q0 -21 1 -43q5 -96 35 -196q95 -331 417 -364q35 -4 69 -4q272 0 423 247l5 -26q-115 -232 -295 -299q-95 -27 -197 -27q-112 0 -233 32 q-231 62 -325 393q-28 99 -34 193q-1 24 -1 47z" />
<glyph unicode="D" horiz-adv-x="1214" d="M14 -22q42 148 217 157v1037q-32 7 -57 7q-103 0 -103 -108v-2q-12 43 -12 79q0 150 212 167q148 195 408 195t365 -82q100 -80 100 -172v-8q-4 -96 -73 -170q110 -153 114 -420v-10q0 -261 -171 -482q-136 -176 -387 -176q-18 0 -36 1q-279 14 -281 17q-50 12 -100 12 q-95 0 -196 -42zM310 129q190 -33 375 -33q118 0 210 67q223 164 223 424q0 15 -1 29q-13 281 -173 422q-73 -10 -143 -10q-172 0 -328 58q-11 -27 -11 -70q0 -62 25 -161q42 -167 136 -167q95 0 95 64q0 63 -95 73q0 54 93 75q13 3 24 3q68 0 68 -104q0 -121 -171 -168 q-33 -9 -62 -9q-120 0 -164 161q-30 107 -30 196q0 77 22 142l-93 15v-1007zM329 1289l142 -63q97 115 242 115q152 0 274 -121l40 -61q17 46 17 85q0 146 -250 185q-66 10 -123 10q-224 0 -342 -150zM524 1199q152 -69 379 -78q-105 102 -222 109q-18 1 -35 1 q-89 0 -122 -32z" />
<glyph unicode="E" horiz-adv-x="981" d="M29 376q0 175 155 375q-57 107 -57 206q0 58 18 119q47 175 284 308q-50 97 -140 151q-33 20 -52 21q-12 0 -25 -17q-20 -26 -20 -58q0 -45 27 -69q-35 -9 -64 -9h-8q-91 5 -91 66q0 9 1 19q14 99 184 99q15 0 31 -1l25 -1q218 -20 277 -142h8q14 0 47 -2q120 -5 206 -55 q109 -63 115 -153v-15q0 -78 -78 -99q-30 -8 -67 -8h-11q-66 4 -152 37q-136 49 -181 161q-74 -33 -148 -168q-39 -70 -39 -140q0 -77 47 -146q32 -51 59 -52q60 -21 108 -21q53 0 91 27v-8q0 -112 -161 -112q-20 0 -43 1q-8 0 -18 1q-47 2 -72 10q-123 -113 -123 -293 q0 -34 6 -69q29 -211 271 -252q22 -4 44 -4q15 -1 29 -1q323 0 476 227l3 -30q-121 -151 -232.5 -226t-281.5 -75h-35q-41 2 -86 9q-252 39 -313 283q-14 52 -14 106zM587 1376q77 -155 203 -180q23 -4 37 -5q13 0 13 30q0 29 -25 65q-56 82 -228 90z" />
<glyph unicode="F" horiz-adv-x="1399" d="M29 362q0 32 4 62q15 98 75 196q129 210 304 232q22 3 43 3q138 0 195 -116h265q-55 227 -55 363q0 40 5 72q7 50 27 81q-131 51 -228 51q-47 0 -85 -11q-119 -37 -147 -123q27 175 150 232q57 27 135 27q87 0 198 -33q136 135 270 135q45 0 89 -14q125 -42 125 -120 q0 -8 -2 -16q-3 -27 -22 -58q-67 -116 -282 -116q-34 0 -71 3q-21 -25 -28 -74q-3 -27 -3 -60q0 -122 51 -336v-3h267l-42 -65h-211q24 -122 24 -223q0 -56 -7 -105q-15 -104 -63 -179q-120 -187 -471 -187q-12 0 -24 1q-372 7 -454 217q-32 83 -32 164zM143 459 q0 -120 78 -239q112 -173 332 -186h31q198 0 309 147q45 60 59 155q6 44 6 95q0 106 -28 243h-262q3 -60 3 -96q0 -29 -2 -44q-16 -107 -100 -145q-33 -16 -58 -16q-60 0 -81 83q-7 25 -7 48q0 12 2 23q12 77 94 143q-28 111 -120 111q-24 0 -51 -7q-137 -35 -188 -208 q-8 -26 -12 -53q-5 -27 -5 -54zM480 501q0 -5 1 -10q4 -24 17 -24q11 0 28 16q20 19 25 54q2 14 2 30q0 20 -3 45q-63 -64 -70 -104v-7zM1035 1387q39 -21 85 -21q51 0 112 28q52 24 55 40v2q0 16 -63 25q-18 2 -35 2q-98 0 -154 -76z" />
<glyph unicode="G" horiz-adv-x="1133" d="M29 575v24q0 303 181 565q189 273 539 307q240 -14 325 -196q42 -91 42 -214q0 -122 -41 -274l-5 -28l2 2v-560q36 43 75 90v-36q-40 -49 -75 -95v-13l-3 -17v-420q0 -260 -140 -260q-16 0 -32 4q-172 31 -186 170v8q0 112 258 442l8 10q-4 18 -4 40v140 q-110 -278 -366 -286h-27q-246 0 -391 137q-153 144 -160 460zM150 634q0 -264 118 -386q139 -142 317 -147h14q167 0 245 113q137 159 137 497q-72 -125 -248 -133q-51 0 -100 24q-126 59 -126 181q0 39 14 85q-106 39 -106 112q0 47 45 110q38 13 61 13q35 0 35 -31 q0 -8 -2 -18q-6 -24 -6 -39q0 -26 17 -26q4 0 8 2q72 185 219 230q28 9 51 9q68 0 68 -88q0 -25 -5 -57q-32 -181 -304 -228q53 -132 184 -132h17q144 9 213 183q39 96 39 187q0 73 -24 143q-55 156 -268 156h-5q-219 0 -396 -160q-185 -167 -208 -506q-4 -49 -4 -94z M643 985q150 49 178 120q6 16 6 27q0 17 -17 17q-16 0 -47 -14q-86 -39 -120 -150zM812 -342q0 -53 29 -85q48 -53 78 -53q50 0 50 148v348q-157 -235 -157 -358z" />
<glyph unicode="H" horiz-adv-x="1580" d="M29 1284q0 135 103 219q127 103 275 103h7q152 -3 298.5 -149t199 -332.5t58.5 -334.5q308 243 308 292v308l99 21v-1264q9 -60 55 -60q54 8 158 208l1 -40q-99 -255 -210 -255q-19 0 -33 7q-70 22 -70 117v859q0 -58 -314 -286q0 -377 -102 -584t-239 -306 q-91 -67 -176 -67q-43 0 -83 17q-123 49 -123 212q0 162 136 335t298.5 271.5t189.5 133.5q0 245 -139 487t-270 299q-68 29 -132 29q-57 0 -111 -24q-89 -41 -89 -148q0 -27 6 -59q28 -156 105 -183q20 -8 37 -8q49 0 75 59q6 14 6 27q0 62 -135 116q39 122 122 122 q126 -68 126 -181q0 -14 -2 -27q-16 -133 -205 -165q-27 -5 -52 -5q-142 0 -171 162q-7 38 -7 74zM333 11q0 -139 128 -139q2 0 5 1q138 2 269 216q124 205 124 489v26q-131 -54 -325 -238t-200 -340q-1 -8 -1 -15z" />
<glyph unicode="I" horiz-adv-x="649" d="M29 237q0 176 152 263q66 37 112 37q64 0 92 -70q13 -35 13 -66q0 -79 -88 -136q1 16 1 30q0 169 -98 169h-2q-95 -2 -95 -137q0 -20 3 -43q28 -178 198 -222q23 -6 43 -6q130 0 148 246v991q-58 -24 -180.5 -69.5t-203.5 -181.5q19 262 199 305.5t296 139.5v-1160 q0 -211 -161 -293q-51 -40 -135 -40q-53 0 -118 16q-172 38 -175 220q-1 3 -1 7z" />
<glyph unicode="J" horiz-adv-x="695" d="M29 828q0 258 249 387q291 151 358 272v-1280q34 40 70 84v-36q-37 -46 -70 -88v-457q0 -260 -148 -260q-16 0 -32 4q-172 31 -186 170v8q0 111 254 437v1119q-67 -4 -239 -115q-148 -95 -148 -294q0 -33 4 -68q28 -252 285 -415q-340 112 -390 440q-7 49 -7 92z M371 -342q0 -53 29 -85q48 -53 78 -53q46 0 46 148v342q-153 -231 -153 -352z" />
<glyph unicode="K" horiz-adv-x="1323" d="M29 237q0 176 152 263q66 37 112 37q64 0 92 -70q13 -35 13 -66q0 -79 -88 -136q1 16 1 30q0 169 -98 169h-2q-95 -2 -95 -137q0 -20 3 -43q28 -178 198 -222q23 -6 43 -6q130 0 148 246v991q-58 -24 -184.5 -25.5t-126.5 -68.5q0 -22 11 -49q-66 0 -73 122v8 q0 112 175 112h8q4 -1 8 -1q177 0 293 96v-712q87 78 172 323q105 305 281 346q38 9 70 9q117 0 157 -115q0 -113 -102 -148q-26 -9 -44 -9q-30 0 -30 30q0 17 10 44q8 24 8 43q0 58 -91 60h-1q-120 0 -187 -277q-66 -271 -243 -363q138 64 236 64q204 0 233 -280 q41 -415 88 -415q53 8 157 208l1 -40q-99 -255 -210 -255q-19 0 -33 7q-70 22 -114 430q-29 264 -171 264q-77 0 -187 -77v-297q0 -211 -161 -293q-51 -40 -135 -40q-53 0 -118 16q-172 38 -175 220q-1 3 -1 7z" />
<glyph unicode="L" horiz-adv-x="1076" d="M29 147q0 27 7 59q24 100 159 100q83 0 205 -37q11 37 11 75q0 138 -146 299q-187 205 -212 303q-23 67 -23 132q0 121 79 239q123 181 407 199q18 1 35 1q250 0 268 -257q1 -23 1 -44q0 -235 -198 -267q-42 -7 -78 -7q-149 0 -201 117q-1 14 -1 27q0 160 146 192 l-61 -140q73 72 123 72q39 0 64 -43q16 -27 16 -54q0 -69 -108 -132q186 0 186 182q0 21 -2 46q-25 227 -254 227q-230 0 -264 -214q-5 -31 -5 -63q0 -191 174 -418q146 -190 146 -371q0 -71 -23 -142q166 -124 308 -136q15 -1 31 -1q90 0 150.5 49t115.5 155l1 -40 q-23 -60 -90.5 -156t-114.5 -99q-52 -17 -120 -22q-174 9 -330 134q-85 -134 -200 -134q-34 0 -72 12q-130 43 -130 157zM95 133q0 -11 7 -25q28 -59 125 -66h10q88 0 127 105q-79 40 -153 40q-22 0 -43 -4q-73 -12 -73 -50zM428 1051q9 -1 18 -1q77 0 101 42l1 2 q10 19 10 31q0 15 -13 21q-5 3 -13 4q-3 1 -6 1q-40 0 -98 -100z" />
<glyph unicode="M" horiz-adv-x="2352" d="M40 921q0 237 212 389q154 110 330 110q69 0 141 -17q257 -59 311 -394q132 350 298 421q52 22 92 22h4q173 0 173 -432q125 343 281 410q52 22 92 22h4q160 0 173 -321l1 1v-985q0 -60 56 -60q53 8 157 208l1 -40q-98 -255 -210 -255q-19 0 -33 7q-70 22 -70 117v895 q0 290 -102 296q-51 0 -127 -79q-118 -124 -222 -399v-837h-99v1019q0 290 -102 296q-51 0 -127 -79q-108 -114 -205 -356v-878h-105v883q-26 300 -136 403q-87 81 -215 81q-33 0 -69 -5q-174 -27 -288 -179q-81 -107 -81 -238q0 -52 13 -108q46 -194 133 -243t173 -49 q85 0 190 76q-41 -122 -207 -151q-33 -6 -65 -6q-127 0 -234 93q-135 115 -137 356q-1 3 -1 6z" />
<glyph unicode="N" horiz-adv-x="1864" d="M29 921q0 237 212 389q154 110 330 110q69 0 141 -17q257 -59 346 -359q143 306 331 386q51 22 91 22h5q159 0 173 -321l1 1v-985q0 -60 55 -60q54 8 158 208l1 -40q-99 -255 -210 -255q-19 0 -33 7q-70 22 -70 117v895q0 290 -103 296q-51 0 -126 -79 q-147 -154 -273 -543v-691h-105v883q-81 309 -194 400q-94 75 -207 75q-24 0 -49 -3q-144 -20 -257 -172q-82 -107 -82 -238q0 -52 13 -108q46 -194 133 -243t173 -49q85 0 190 76q-41 -122 -207 -151q-33 -6 -65 -6q-127 0 -234 93q-135 115 -137 356q-1 3 -1 6z" />
<glyph unicode="O" horiz-adv-x="1193" d="M29 573q0 252 126 515.5t386 332.5q74 20 140 20q161 0 264 -122q104 -123 104 -308q0 -73 -16 -157q27 33 68 50q62 -26 62 -168q0 -280 -179 -519q-179 -240 -421 -240v1q-243 0 -388.5 172t-145.5 423zM141 590q0 -206 96 -333q132 -174 353 -177h6q216 0 334 196 q120 197 120 371l-23 190q-136 -456 -423 -456q-28 0 -59 4q-154 57 -154 257q0 26 3 54q-62 70 -62 142q0 95 112 192q-53 -68 -53 -146q0 -62 35 -132q102 148 227 154h11q87 0 87 -70q0 -21 -8 -47q-34 -123 -266 -163v-11q0 -110 113 -124q202 0 288 293q40 136 40 241 q0 120 -52 198q-99 146 -263 151h-10q-159 0 -275 -156q-120 -162 -166 -475q-11 -81 -11 -153zM500 736q170 16 170 112q-109 -20 -170 -112z" />
<glyph unicode="P" horiz-adv-x="1233" d="M14 237q0 176 152 263q66 37 112 37q64 0 92 -70q13 -35 13 -66q0 -79 -88 -136q1 16 1 30q0 169 -98 169h-2q-95 -2 -95 -137q0 -20 3 -43q28 -178 198 -222q23 -6 43 -6q130 0 148 246v991q-58 -24 -184.5 -25.5t-126.5 -68.5q0 -22 11 -49q-66 0 -73 122v8 q0 112 175 112h8q4 -1 8 -1q177 0 293 96v-171q93 114 212 148q60 17 114 17q97 0 175 -56q98 -74 98 -258q0 -39 -4 -83q-25 -251 -179 -354q-101 -68 -253 -68q-75 0 -163 17v-352q0 -211 -161 -293q-51 -40 -135 -40q-53 0 -118 16q-172 38 -175 220q-1 3 -1 7zM604 726 q92 -33 165 -33q116 0 191 81q98 105 98 279q0 46 -7 98q-32 235 -198 235h-12q-164 -8 -237 -179v-481z" />
<glyph unicode="Q" horiz-adv-x="1197" d="M29 924q0 218 174 397t423 183h10q241 0 392 -201q140 -188 140 -408q0 -20 -1 -40q-15 -243 -109 -385.5t-239.5 -220.5t-256.5 -134q33 -32 81 -103t110 -83q6 -2 12 -2q56 0 124 104q-16 -157 -146 -168q-12 -1 -24 -1q-112 0 -170 98q-64 109 -112 124q-22 0 -87 -76 q-27 -31 -45 -31q-26 0 -34 63q0 56 158.5 109t325 154.5t236.5 244.5q62 129 62 307v36q-7 201 -151 362t-331 161q-188 0 -340 -161q-135 -142 -135 -344q0 -26 3 -54q20 -237 184 -304q45 -19 85 -19q111 0 195 136q83 135 83 226q0 33 -10 60q-41 100 -97 100 q-57 0 -82 -76q-15 -46 -45 -46q-18 0 -43 19q-29 24 -29 54q0 34 35 76q51 58 126 58q25 0 54 -7q113 -27 133 -167q4 -25 4 -51q0 -121 -79 -267q-96 -177 -251 -194q-18 -2 -35 -2q-130 0 -208 119q-90 135 -90 354z" />
<glyph unicode="R" horiz-adv-x="1457" d="M29 237q0 176 152 263q66 37 112 37q64 0 92 -70q13 -35 13 -66q0 -79 -88 -136q1 16 1 30q0 169 -98 169h-2q-95 -2 -95 -137q0 -20 3 -43q28 -178 198 -222q23 -6 43 -6q130 0 148 246v991q-58 -24 -184.5 -25.5t-126.5 -68.5q0 -22 11 -49q-66 0 -73 122v8 q0 112 175 112h8q4 -1 8 -1q177 0 293 96v-191q94 128 212 166q60 19 113 19q98 0 176 -64q119 -100 121 -269v-3q0 -169 -152 -280q-84 -61 -220 -91q217 -116 380 -627h4q9 -60 55 -60q54 8 158 208l1 -40q-99 -255 -210 -255q-19 0 -33 7q-45 14 -61 59l-2 -1 q-219 658 -462 658q-39 0 -80 -17v-379q0 -211 -161 -293q-51 -40 -135 -40q-53 0 -118 16q-172 38 -175 220q-1 3 -1 7zM619 800h181q150 22 229 116q83 97 83 202q0 51 -19 105q-57 152 -218 152h-19q-164 -9 -237 -203v-372z" />
<glyph unicode="S" horiz-adv-x="963" d="M29 333q0 204 149 255q97 34 174 34q58 0 104 -19q21 1 38 1q90 0 118 -45l-81 -50v-4q8 -22 8 -51q0 -39 -14 -90q-25 -91 -107 -99h-11q-73 0 -108 101q-10 29 -10 57q0 76 74 143q-195 -6 -195 -185q0 -42 11 -94q54 -258 312 -258q14 0 28 1q283 14 319 245 q2 18 2 36q0 219 -395 503q-357 255 -357 434q0 37 15 71q78 173 266 173q25 0 52 -3q230 -26 274 -156q10 -31 10 -57q0 -82 -104 -115q-31 -10 -56 -10q-87 0 -105 118q54 -41 91 -41q36 0 55 43q11 25 11 49q0 51 -57 87q-47 29 -108 29q-46 0 -99 -17 q-111 -34 -111 -147q0 -13 2 -27q15 -136 418 -393q292 -186 292 -416q0 -86 -41 -179q-135 -298 -416 -298q-38 0 -78 5q-341 45 -366 305q-4 34 -4 64zM412 355q0 -5 1 -9q5 -24 18 -24q11 0 27 15q20 19 25 54q2 14 2 30q0 20 -3 45q-63 -63 -70 -104v-7z" />
<glyph unicode="T" horiz-adv-x="1399" d="M29 362q0 32 4 62q15 98 75 196q129 210 304 232q22 3 43 3q138 0 185 -128q5 1 10 1q54 0 212 -54q-143 -15 -190 -68q1 -12 1 -23q0 -25 -4 -49q-16 -107 -100 -145q-33 -16 -58 -16q-60 0 -81 83q-7 25 -7 48q0 12 2 23q12 77 94 143q-28 111 -120 111q-24 0 -51 -7 q-137 -35 -188 -208q-8 -26 -12 -53q-5 -27 -5 -54q0 -120 78 -239q112 -173 332 -186h31q198 0 309 147q45 60 59 155q6 44 6 95q0 130 -43 308q-55 227 -55 363q0 40 5 72q7 50 27 81q-317 105 -495 105q-52 0 -92 -9q-178 -40 -211 -255q-1 15 -1 30q0 54 7 98 q27 176 207 237q60 20 146 20q175 0 462 -83q136 135 270 135q45 0 89 -14q125 -42 125 -120q0 -8 -2 -16q-3 -27 -22 -58q-67 -116 -282 -116q-34 0 -71 3q-21 -25 -28 -74q-3 -27 -3 -60q0 -122 51 -336q38 -163 38 -291q0 -56 -7 -105q-15 -104 -63 -179 q-120 -187 -471 -187q-12 0 -24 1q-372 7 -454 217q-32 83 -32 164zM480 501q0 -5 1 -10q4 -24 17 -24q11 0 28 16q20 19 25 54q2 14 2 30q0 20 -3 45q-63 -64 -70 -104v-7zM1035 1387q39 -21 85 -21q51 0 112 28q52 24 55 40v2q0 16 -63 25q-18 2 -35 2q-98 0 -154 -76z " />
<glyph unicode="U" horiz-adv-x="1267" d="M29 1388q44 92 120 92q12 0 24 -2q93 -17 93 -199v-763q0 -208 76 -315q109 -154 313 -159h6q199 0 309 307v358q0 117 101 117v-639q2 -98 49 -98q53 8 157 208l1 -40q-99 -255 -210 -255q-19 0 -33 7q-65 22 -65 117v72q-200 -235 -404 -235q-22 0 -42 3 q-225 26 -305 171q-53 98 -53 283v886q0 105 -66 105q-29 0 -71 -21z" />
<glyph unicode="V" horiz-adv-x="1355" d="M23 1070q0 86 39 179q88 200 363 272q18 4 34 7q39 7 74 7q182 0 237 -210q6 -21 10 -42q8 -44 8 -81q0 -162 -153 -218q-40 -15 -75 -22q-24 -4 -46 -4q-109 0 -154 120q-16 41 -16 75q0 86 98 129q-51 -64 -51 -153q0 -16 2 -32q73 121 123 130q6 2 12 2q31 0 59 -33 q20 -24 25 -50q-9 -120 -128 -155q200 35 200 175q0 20 -4 44q-4 21 -11 45q-56 183 -222 183q-33 0 -70 -8q-219 -41 -219 -247v-13q1 -31 6 -63q36 -187 193 -398t243 -357q57 -99 77 -233q20 134 78 233q84 146 241.5 357t192.5 398q6 32 7 63v10q0 210 -267 341 q275 -72 362 -272q41 -93 41 -180q0 -35 -7 -69q-12 -65 -48 -127q-43 -91 -201.5 -275t-249.5 -314.5t-149 -297.5q-58 167 -149 297.5t-249.5 314.5t-201.5 275q-35 62 -47 127q-7 34 -7 70zM426 1047q9 1 18 3q75 14 91 60v3q6 14 6 25q0 4 -1 7q-3 14 -17 18q-6 1 -14 1 q-1 1 -3 1q-1 0 -3 -1q-39 -7 -77 -117z" />
<glyph unicode="W" horiz-adv-x="1763" d="M14 1070q0 86 39 179q88 200 363 272q18 4 34 7q39 7 74 7q182 0 237 -210q6 -21 10 -42q8 -44 8 -81q0 -162 -153 -218q-40 -15 -75 -22q-24 -4 -46 -4q-109 0 -154 120q-16 41 -16 75q0 86 98 129q-51 -64 -51 -153q0 -16 2 -32q73 121 123 130q6 2 12 2q31 0 59 -33 q20 -24 25 -50q-9 -120 -128 -155q200 35 200 175q0 20 -4 44q-4 21 -11 45q-56 183 -222 183q-33 0 -70 -8q-219 -41 -219 -247v-13q1 -31 6 -63q36 -187 193 -398t243 -357q57 -99 77 -233q20 134 78 233l77 133q-25 41 -25 84q0 47 30 97q245 -413 266 -547 q20 134 78 233q84 146 241 357t193 398q6 32 7 63v10q0 210 -267 341q275 -72 362 -272q40 -93 40 -180q0 -35 -6 -69q-13 -65 -48 -127q-43 -91 -202 -275t-249.5 -314.5t-148.5 -297.5q-40 115 -208 396q-163 -239 -218 -396q-58 167 -149 297.5t-249.5 314.5t-201.5 275 q-35 62 -47 127q-7 34 -7 70zM417 1047q9 1 18 3q75 14 91 60v3q6 14 6 25q0 4 -1 7q-3 14 -17 18q-6 1 -14 1q-1 1 -3 1q-1 0 -3 -1q-39 -7 -77 -117z" />
<glyph unicode="X" horiz-adv-x="1696" d="M14 1133q0 122 71 209q77 92 204 92q37 0 79 -7q183 -35 403 -568q207 491 313 553q78 45 138 45q22 0 41 -5v-6q0 -72 -132 -99q-96 -52 -136 -130t-188 -467q391 -702 537 -737q34 -8 63 -8q96 0 138 87q25 52 25 95q0 51 -36 89q-33 35 -73 35q-41 0 -91 -37 q31 67 117 67q29 0 63 -6q132 -28 132 -166v-15q-7 -152 -228 -198q-38 -8 -75 -8q-179 0 -334 186q-188 224 -301 438q-195 -515 -278 -567q-56 -36 -89 -36q-15 0 -25 8q-33 25 -33 61t133 78q89 46 246 570q-206 509 -327 592q-61 42 -118 42q-54 0 -103 -40 q-75 -59 -75 -147q0 -31 9 -66q28 -103 90 -103q18 0 39 9q78 33 78 90q0 11 -2 23q-4 14 -4 27q0 46 52 48h2q63 0 63 -120q-28 -176 -184 -186h-15q-143 0 -178 179q-11 52 -11 99z" />
<glyph unicode="Y" horiz-adv-x="1125" d="M14 1388q44 92 120 92q12 0 24 -2q93 -17 93 -199v-763q0 -208 76 -315q109 -154 313 -159h6q199 0 309 307v358q0 117 101 117v-624l74 76l4 -16l-78 -113q0 -581 -54 -623q-26 -14 -54 -14q-58 0 -131 59q-69 86 -69 186q-2 7 -2 16q0 80 209 338v87 q-200 -235 -404 -235q-22 0 -42 3q-225 26 -305 171q-53 98 -53 283v886q0 105 -66 105q-29 0 -71 -21zM822 -204q0 -55 47 -117q18 -12 31 -12q55 0 55 391q-76 -121 -112 -199q-21 -33 -21 -63z" />
<glyph unicode="Z" horiz-adv-x="1320" d="M29 1016q0 106 64 225q96 177 319 207q48 6 93 6q168 0 308 -86q179 -111 195 -378q1 -8 1 -15q0 -268 -546 -808q183 94 321 94q71 0 130 -25q169 -73 169 -229v-8l141 11q42 0 68 -49q0 -69 -227 -69h-23q-29 -95 -164 -220q-110 -102 -226 -102q-27 0 -54 5 q-146 29 -146 119q64 199 504 281q4 31 4 57q0 136 -120 160q-45 8 -87 8q-95 0 -180 -42q-125 -63 -169 -118q-24 -31 -52 -31q-22 0 -45 19q-7 6 -7 17q0 73 306 384q344 349 344 536v8q-8 188 -141 275t-303 87q-169 0 -254.5 -54.5t-129.5 -159.5q-22 -52 -22 -105 q0 -54 23 -108q45 -110 189 -129q21 -3 41 -3q116 0 189 96q51 66 51 114q0 33 -24 58q-21 20 -41 20q-38 0 -73 -75q-45 26 -45 65q0 27 22 60q37 56 98 56q27 0 58 -10q104 -36 104 -141q0 -106 -151 -219q-110 -83 -220 -83q-40 0 -79 11q-150 40 -198 188 q-15 49 -15 100zM601 -268q0 -20 50 -31q9 -2 18 -2q87 0 223 166q-189 -51 -260 -97q-31 -21 -31 -36z" />
<glyph unicode="[" horiz-adv-x="557" d="M29 -528v1950h498v-47h-382v-1856h382v-47h-498z" />
<glyph unicode="\" horiz-adv-x="689" d="M0 1422h49l640 -1422h-49z" />
<glyph unicode="]" horiz-adv-x="557" d="M29 -481h382v1856h-382v47h498v-1950h-498v47z" />
<glyph unicode="^" d="M195 760l378 841h54l378 -841h-48l-357 794l-357 -794h-48z" />
<glyph unicode="_" horiz-adv-x="1134" d="M-40 -85h1214v-48h-1214v48z" />
<glyph unicode="`" horiz-adv-x="307" d="M37 1189h190l43 -306h-96z" />
<glyph unicode="a" horiz-adv-x="857" d="M29 260q0 54 15 113q40 156 157.5 266.5t244.5 110.5q122 -6 122 -109q0 -30 -10 -68l95 115v-541q9 -60 55 -60q54 8 158 208l1 -40q-99 -255 -210 -255q-19 0 -33 7q-70 22 -70 117v46q-25 -31 -56 -60q-118 -110 -244 -110q-125 0 -186 109q-39 67 -39 151zM133 405 q0 -85 43 -161q53 -97 142 -126q30 -11 59 -11q55 0 103 36q53 42 74 112v305q-13 -44 -39 -98q-15 199 -140 199q-19 0 -40 -4q-163 -35 -200 -212q-2 -20 -2 -40z" />
<glyph unicode="b" horiz-adv-x="690" d="M-11 255q42 70 79 134q1 30 3 62v676q0 104 8.5 233t107.5 135h13q108 0 154 -127q40 -117 40 -232v-40q-9 -136 -78 -325q-43 -115 -148 -283q17 -182 52 -244q53 -97 142 -126q30 -11 59 -11q55 0 102 36q72 55 85 162q2 20 2 41q-4 170 -153 231q-50 20 -95 20 q-89 0 -159 -79q73 180 215 180q27 0 59 -8q184 -43 184 -254v-2q-1 -214 -119 -324t-245 -110q-124 0 -186 109q-41 61 -43 226q-29 -43 -62 -88zM167 578q115 237 124 381q6 96 6 165q0 96 -12 140q-19 68 -61 68q-5 0 -9 -1q-41 -4 -44.5 -73t-3.5 -157v-523z" />
<glyph unicode="c" horiz-adv-x="610" d="M29 260q0 54 15 113q40 156 157.5 266.5t244.5 110.5q122 -6 122 -109q0 -69 -53 -179q-9 200 -142 200q-17 0 -36 -4q-169 -29 -202 -213q-2 -20 -2 -40q0 -85 43 -161q53 -97 142 -126q30 -11 59 -11q55 0 103 36q62 48 119 136h22q-44 -95 -123 -169 q-118 -110 -244 -110q-125 0 -186 109q-39 67 -39 151z" />
<glyph unicode="d" horiz-adv-x="841" d="M29 263q0 54 15 113q40 156 157.5 266t244.5 110q90 0 148 -96v570q0 301 111 302q109 -12 131 -246q9 -101 9 -194q0 -125 -16 -238q-29 -197 -169 -501l1 -157q7 -93 61 -93h3q58 4 126 190l-3 -54q-73 -232 -154 -232q-4 0 -7 1q-86 11 -93 151v96q-41 -88 -96 -136 q-118 -112 -244 -112q-125 0 -186 109q-39 67 -39 151zM133 408q0 -85 43 -161q53 -97 142 -127q30 -11 59 -11q55 0 103 37q64 59 114 176v202q-45 -69 -102 -100q20 43 20 78q0 28 -12 51q-29 53 -118 82q-32 11 -61 11q-54 0 -101 -36q-71 -55 -85 -162q-2 -20 -2 -40z M660 424q82 259 105 391q20 111 20 267q0 29 -1 60q-4 195 -72 199h-7q-45 0 -45 -63v-854z" />
<glyph unicode="e" horiz-adv-x="595" d="M29 182q0 94 79 185q25 26 51 48q-68 37 -74 110q-1 7 -1 14q0 68 58 130q63 68 159 90q35 8 67 8q55 0 101 -24q35 -23 35 -63q0 -61 -76 -159q3 19 3 38q0 40 -16 79q-24 58 -70 82q-22 11 -43 11q-23 0 -43 -12q-42 -24 -54 -83q-5 -20 -5 -40q0 -38 16 -77 q13 -29 30 -49l24 -24l1 1q7 -6 15 -9q23 -12 45 -12t43 12q1 1 3 2q6 -3 10 -6l-12 -23q-21 -8 -44 -14q-34 -7 -63 -7q-22 0 -41 4q-35 -42 -41 -68q-8 -32 -8 -64q0 -46 17 -91q27 -75 84 -105q22 -12 50 -12q41 0 95 27q88 45 179 223l3 -25q-81 -209 -238 -253 q-78 -22 -139 -22q-62 0 -107 23q-89 46 -92 146q-1 4 -1 9z" />
<glyph unicode="f" horiz-adv-x="468" d="M14 628l71 67h49v437q0 105 8.5 234t106.5 134h14q107 0 153 -127q49 -136 49 -241q0 -189 -49 -322q-30 -84 -69 -115h121l-71 -67h-165v-995l-99 -97v1092h-119zM230 709q2 -3 2 -9v-4h67q28 0 48.5 125.5t20.5 284.5q0 88 -20 163q-19 68 -61 68q-5 0 -9 -1 q-41 -4 -44.5 -73t-3.5 -157v-397z" />
<glyph unicode="g" horiz-adv-x="721" d="M29 260q0 54 15 113q40 156 157.5 266.5t244.5 110.5q122 -6 122 -109q0 -34 -13 -79l98 119l2 -496l77 91l-1 -21l-78 -121v-427q0 -259 -140 -259q-15 0 -32 3q-172 31 -185 170q-1 4 -1 8q0 143 259 438v103q-25 -31 -56 -60q-118 -110 -244 -110q-125 0 -186 109 q-39 67 -39 151zM133 405q0 -85 43 -161q53 -97 142 -126q30 -11 59 -11q55 0 103 36q53 42 74 112v305q-13 -44 -39 -98q-15 199 -140 199q-19 0 -40 -4q-163 -35 -200 -212q-2 -20 -2 -40zM396 -351q0 -54 30 -88q47 -57 77 -57q51 0 51 161v351q-158 -187 -158 -367z" />
<glyph unicode="h" horiz-adv-x="875" d="M-8 274l77 153v929q0 122 116 127q7 1 15 1q106 0 152 -121q48 -129 48 -233q0 -189 -48 -322q-23 -64 -66 -123q95 75 168 75q130 0 175.5 -83.5t45.5 -184.5v-362q12 -43 52 -43q53 8 157 208l1 -40q-98 -255 -210 -255q-19 0 -33 7q-70 22 -70 117v346q-9 102 -45 148 q-40 51 -110 51q-15 0 -33 -3q-87 -13 -218 -142v-524h-97v362l-76 -113zM166 591q97 129 117.5 241.5t20.5 271.5q0 88 -20 163q-19 68 -62 68q-4 0 -8 -1q-48 -4 -48 -73v-670z" />
<glyph unicode="i" horiz-adv-x="347" d="M-11 262l55 180v243l100 76v-614q8 -60 55 -60q53 8 157 208l1 -40q-98 -255 -210 -255q-19 0 -33 7q-70 22 -70 117v232l-38 -105zM29 863q0 11 3 24q8 33 33.5 57t51.5 24q28 0 41 -24q9 -14 9 -32q0 -12 -4 -25q-8 -33 -33.5 -56.5t-51.5 -23.5q-28 0 -41 23 q-8 15 -8 33z" />
<glyph unicode="j" horiz-adv-x="210" d="M-217 -368q0 112 259 442q3 5 7 10q-4 18 -4 40v232l-38 -105l-2 1v-1l-17 11l57 187v236l100 76v-560q35 43 75 90l-1 -36q-39 -49 -74 -95v-13l-4 -17v-420q0 -260 -140 -260q-15 0 -32 4q-172 31 -185 170q-1 4 -1 8zM-116 -342q0 -53 29 -85q49 -53 78 -53 q51 0 51 148v348q-158 -235 -158 -358zM33 863q0 11 3 24q8 33 33.5 57t51.5 24q28 0 41 -24q9 -14 9 -32q0 -12 -4 -25q-8 -33 -33.5 -56.5t-51.5 -23.5q-28 0 -41 23q-8 15 -8 33z" />
<glyph unicode="k" horiz-adv-x="732" d="M-11 262l60 194v676q0 105 8.5 234t107.5 134h14q107 0 153 -127q48 -136 48 -241q0 -189 -71 -350q-19 -43 -40 -81q47 38 103 57q29 9 51 9q82 0 82 -122v-15q-6 -166 -262 -166h-17q179 -51 257 -208q31 -63 42.5 -116.5t56.5 -53.5q3 0 6 1q50 4 154 204l1 -41 q-99 -254 -210 -254q-19 0 -33 6q-67 21 -78 83.5t-28 111.5q-56 157 -247 262v-457h-98v366l-43 -117zM147 491q259 5 269 127q1 11 1 21q0 65 -40 65q-18 0 -46 -15q-95 -50 -184 -198zM147 570q72 100 104.5 238.5t32.5 297.5q0 88 -21 163q-19 68 -61 68q-5 0 -9 -1 q-46 -4 -46 -73v-693z" />
<glyph unicode="l" horiz-adv-x="358" d="M-11 262l66 216v654q0 105 9 234t107 134q118 -6 142 -191q10 -76 10 -153q0 -108 -20 -215q-33 -184 -149 -401v-397q9 -60 56 -60q53 8 157 208l1 -41q-98 -254 -210 -254q-19 0 -33 6q-70 22 -70 118v266l-49 -135zM154 623q68 144 98 328q20 119 20 205q0 47 -6 84 q-15 97 -60 97q-3 0 -6 -1q-46 -4 -46 -73v-640z" />
<glyph unicode="m" horiz-adv-x="1263" d="M-11 262l64 208v211l104 76v-211q151 216 248 216q118 0 159 -83q30 -61 38 -131q151 214 248 214q117 0 158.5 -83.5t41.5 -184.5v-353q3 -55 54 -55q3 0 7 1q57 4 161 204l1 -41q-99 -254 -210 -254q-19 0 -33 6q-66 21 -70 107v278q0 171 -44 234q-36 50 -100 50 q-13 0 -29 -2q-72 -12 -182 -191v-476h-93v385q0 171 -43 234q-34 50 -97 50q-14 0 -29 -2q-74 -12 -186 -196v-471h-104v378l-47 -129z" />
<glyph unicode="n" horiz-adv-x="812" d="M-11 262l64 208v211l104 76v-211q151 216 248 216q118 0 159 -83.5t41 -184.5v-359q8 -48 52 -48h8q53 4 157 204l1 -41q-98 -254 -210 -254q-19 0 -33 6q-67 21 -67 91v3h-1v291q0 171 -43 234q-34 50 -97 50q-14 0 -29 -2q-74 -12 -186 -196v-471h-104v378l-47 -129z " />
<glyph unicode="o" horiz-adv-x="699" d="M29 260q0 54 15 113q40 156 157.5 266.5t244.5 110.5q125 0 187 -108q38 -68 38 -151q0 -54 -16 -115q-39 -156 -157 -266t-244 -110q-125 0 -186 109q-39 67 -39 151zM125 355q0 -14 1 -28q8 -115 79 -183q24 -23 52 -36q34 -16 73 -16q20 0 41 4q92 21 152 117 q10 18 20 38q33 70 33 151q0 11 -1 22q-9 114 -81 181q-25 25 -53 38q-32 15 -68 15q-22 0 -44 -5q-92 -21 -153 -116q-10 -18 -19 -37q-32 -68 -32 -145z" />
<glyph unicode="p" horiz-adv-x="752" d="M-11 255l76 257v169l96 76v-231q38 62 93 113q118 111 245 111q125 0 186 -108q38 -68 38 -151q0 -54 -15 -115q-40 -156 -157.5 -266t-244.5 -110q-88 0 -145 55v-517l-96 -74v954l-59 -167zM185 355q0 -14 1 -28q8 -115 79 -183q24 -23 52 -36q34 -16 73 -16q20 0 41 4 q92 21 152 117q10 18 20 38q33 70 33 151q0 11 -1 22q-9 114 -81 181q-25 25 -53 38q-32 15 -68 15q-22 0 -44 -5q-92 -21 -153 -116q-10 -18 -19 -37q-32 -68 -32 -145z" />
<glyph unicode="q" horiz-adv-x="691" d="M29 260q0 54 15 113q40 156 157.5 266.5t244.5 110.5q106 -6 120 -84v15l96 76v-1219l-96 -74v721q-30 -40 -68 -75q-118 -110 -244 -110q-125 0 -186 109q-39 67 -39 151zM133 405q0 -85 43 -161q53 -97 142 -126q30 -11 59 -11q55 0 103 36q62 48 80 136h6v333 q-9 -62 -51 -150q-15 199 -140 199q-19 0 -40 -4q-163 -35 -200 -212q-2 -20 -2 -40z" />
<glyph unicode="r" horiz-adv-x="720" d="M-11 262l102 278h-12l32 89q176 0 222 59q23 142 100 159q12 3 23 3q38 0 38 -41q0 -12 -3 -27q-19 -83 -94 -113q-48 -28 -62 -180q-3 -37 -3 -70q0 -101 32 -159q54 -118 142 -148q30 -11 60 -11q54 0 152 168l12 -18q-137 -256 -288 -256q-125 0 -186 109 q-39 89 -39 173q0 53 24.5 161.5t68.5 179.5q-74 -62 -179 -75l-125 -292z" />
<glyph unicode="s" horiz-adv-x="677" d="M-12 233l1 29q255 251 331 482q22 121 60 121q10 0 21 -7q27 -20 27 -60q0 -37 -22 -90q21 -37 127 -130q99 -87 99 -241v-17q-5 -166 -128 -267q-74 -62 -163 -62q-57 0 -120 25q-161 66 -183 215q78 -181 227 -181q18 0 36 2q175 24 204 198q3 20 3 40q0 152 -190 290 q-38 -82 -330 -347z" />
<glyph unicode="t" horiz-adv-x="361" d="M-11 262l69 225v145h-48l45 67h3v274l99 75v-349h186l-45 -67h-141v-489q9 -60 56 -60q53 8 157 208l1 -41q-98 -254 -210 -254q-19 0 -33 6q-70 22 -70 118v274l-52 -143z" />
<glyph unicode="u" horiz-adv-x="871" d="M-11 262l64 208v211l104 76v-370l2 2q-1 -21 -1 -39q0 -139 43 -194q40 -51 110 -51q16 0 33 2q86 13 219 218v356l104 76v-614q0 -57 48 -57q3 0 7 1q54 4 159 204v-41q-98 -254 -210 -254q-19 0 -32 6q-76 21 -76 110v170q-26 -62 -75 -138q-84 -130 -214 -130 q-179 0 -221 207v159l-47 -129z" />
<glyph unicode="v" horiz-adv-x="717" d="M-11 262l57 184q-4 16 -4 34q0 94 107 205q-41 73 -41 92q0 5 4 5q21 0 139 -129q-80 -121 -80 -213q0 -62 35 -112q89 -124 176 -246q79 83 137 194t58 228t-135 240q246 -99 246 -309q0 -9 -1 -19q0 -86 -55 -159q-124 -164 -257 -290q-143 164 -215 256 q-64 80 -100 177l-54 -149z" />
<glyph unicode="w" horiz-adv-x="1132" d="M-11 262l56 182q-3 15 -3 31q0 95 103 206q-40 73 -40 91q0 6 4 6q21 0 137 -130q-79 -120 -79 -213q0 -62 35 -111q87 -125 194 -288q96 34 130 114q15 36 25 70q-1 2 -2 3q-72 92 -107 207q-8 24 -8 50q0 95 103 205q-40 73 -40 92q0 5 4 5q21 0 137 -129 q-79 -121 -79 -213q0 -62 35 -112q87 -124 198 -272q70 26 144 133q65 95 65 210q0 14 -1 29q-9 132 -59 301q142 -97 159 -261q3 -26 3 -51q0 -133 -76 -237q-90 -124 -268 -213q-97 114 -161 194q-24 -121 -231 -199q-140 165 -211 257q-62 80 -97 177l-53 -145z" />
<glyph unicode="x" horiz-adv-x="698" d="M-11 262q55 147 55 309q0 39 -3 78v5l1 -2l60 73l203 -312l155 228q52 94 148 94q29 0 62 -9q-68 -9 -123 -108l-191 -283l119 -184q39 -60 86 -60q3 -1 7 -1q65 0 130 213l10 -45q-68 -251 -156 -254q-19 0 -36 6q-81 22 -129 118l-85 128l-172 -254h-105l226 331 l-163 245q-1 -181 -90 -320z" />
<glyph unicode="y" horiz-adv-x="719" d="M-11 262l64 208v211l104 76v-370l2 2l-1 -39q0 -139 43 -194q40 -51 110 -51q16 0 33 2q83 13 211 204v374l99 76v-600q36 83 75 130l-1 -36q-39 -49 -78 -155v-390q0 -260 -140 -260q-15 0 -32 4q-172 31 -185 170q-1 4 -1 8q0 112 259 442q4 5 7 10q-3 18 -3 40v139 q-25 -55 -67 -119q-84 -130 -214 -130t-175 84q-32 57 -41 123h-5v159l-47 -129zM394 -342q0 -53 29 -85q48 -53 78 -53q50 0 50 148v348q-157 -235 -157 -358z" />
<glyph unicode="z" horiz-adv-x="674" d="M-11 262q148 493 410 493h19q126 0 187 -108q38 -68 38 -151q0 -54 -15 -115q-40 -156 -157 -266q-15 -13 -29 -24q25 -9 52 -22q112 -56 143 -174q8 -30 8 -62q0 -92 -69 -193q-65 -94 -163 -94q-44 0 -95 20q14 -2 27 -2q142 0 171 198q7 49 7 89q0 136 -83 168 q-49 18 -94 18q-52 0 -97 -26q-21 34 -21 55q0 19 16 27q34 19 106 19q55 0 102 36q71 56 84 162q3 20 3 41q0 84 -43 162q-53 95 -199 98h-4q-144 0 -239 -227l-48 -133z" />
<glyph unicode="{" horiz-adv-x="351" d="M22 497v43h12q54 0 104 88q5 9 9 19q12 26 12 65q0 100 -82 288q-43 84 -43 167q0 90 50 178q23 41 57 82q84 100 173 134v-51q-67 -21 -120 -102q-5 -7 -9 -14q-40 -71 -40 -166q0 -107 50 -246q51 -141 51 -240q0 -76 -30 -127q-13 -24 -34 -45q-37 -34 -72 -52 q35 -17 72 -51q21 -21 34 -45q30 -52 30 -127q0 -99 -51 -240q-50 -139 -50 -246q0 -95 40 -166q4 -7 9 -14q53 -81 120 -103v-50q-89 34 -173 134q-34 41 -57 82q-50 88 -50 178q0 83 43 167q82 188 82 288q0 39 -12 65q-4 10 -9 19q-50 88 -104 88h-12z" />
<glyph unicode="|" horiz-adv-x="158" d="M54 -528v1950h49v-1950h-49z" />
<glyph unicode="}" horiz-adv-x="351" d="M22 -474q67 22 120 103q5 7 9 14q39 71 39 166q0 107 -49 246q-51 141 -51 240q0 75 30 127q13 24 33 45q37 34 72 51q-35 18 -72 52q-20 21 -33 45q-30 51 -30 127q0 99 51 240q49 139 49 246q0 95 -39 166q-4 7 -9 14q-53 81 -120 102v51q88 -34 173 -134 q33 -41 57 -82q50 -88 50 -178q0 -83 -44 -167q-81 -188 -81 -288q0 -39 12 -65q4 -10 9 -19q50 -88 104 -88h12v-43h-12q-54 0 -104 -88q-5 -9 -9 -19q-12 -26 -12 -65q0 -100 81 -288q44 -84 44 -167q0 -90 -50 -178q-24 -41 -57 -82q-85 -100 -173 -134v50z" />
<glyph unicode="~" d="M213 623q17 82 105 147q30 21 59 34q44 19 88 19q80 0 161 -62q160 -106 232 -106q13 0 23 3q7 2 14 5q64 27 64 71q0 7 -2 15h27q3 -13 3 -26q0 -53 -51 -104q-14 -13 -32 -20q-23 -11 -52 -11q-81 0 -213 78q-134 78 -226 78q-40 0 -71 -13l-10 -6q-71 -36 -79 -102 h-40z" />
<glyph unicode="&#xa1;" horiz-adv-x="304" d="M41 -309q10 360 82 1079q79 -708 89 -1072q0 -85 -10 -124q-39 -50 -79 -50q-39 0 -73 50q-9 35 -9 117zM57 935q0 12 3 25q9 33 34 56.5t52 23.5q28 0 40 -23q9 -15 9 -32q0 -12 -3 -25q-9 -33 -34 -56.5t-52 -23.5q-28 0 -40 23q-9 15 -9 32z" />
<glyph unicode="&#xa8;" horiz-adv-x="430" d="M37 936q0 12 3 25q9 33 34 56.5t52 23.5q28 0 40 -23q9 -15 9 -32q0 -12 -3 -25q-9 -34 -34 -57t-52 -23q-28 0 -40 23q-9 15 -9 32zM256 936q0 12 3 25q8 33 33.5 56.5t52.5 23.5t40 -23q8 -15 8 -32q0 -12 -2 -25q-9 -34 -34 -57t-52 -23q-28 0 -41 23q-8 15 -8 32z " />
<glyph unicode="&#xa9;" d="M58 491q0 225 159 383.5t383 158.5t383 -158.5t159 -383.5q0 -224 -159 -382.5t-383 -158.5t-383 158.5t-159 382.5zM141 491q0 -189 134.5 -323.5t324.5 -134.5q189 0 323.5 134.5t134.5 323.5q0 191 -134.5 325t-323.5 134q-190 0 -324.5 -134t-134.5 -325zM392 411 q0 38 11 80q28 109 110 186t171 77q86 -4 86 -76q0 -48 -38 -125q-6 140 -99 140q-12 0 -25 -3q-118 -20 -141 -149q-2 -14 -2 -28q0 -59 31 -113q37 -67 99 -89q21 -7 41 -7q38 0 72 26q43 33 84 94h15q-31 -66 -86 -118q-83 -76 -171 -76t-131 76q-27 46 -27 105z" />
<glyph unicode="&#xab;" horiz-adv-x="482" d="M29 323l1 3l-1 2h2l142 321h48l-142 -323l142 -324h-48l-142 321h-2zM261 323l1 3l-1 2h2l142 321h48l-142 -323l142 -324h-48l-142 321h-2z" />
<glyph unicode="&#xad;" horiz-adv-x="545" d="M48 541l61 67h388l-60 -67h-389z" />
<glyph unicode="&#xae;" d="M58 491q0 225 159 383.5t383 158.5t383 -158.5t159 -383.5q0 -224 -159 -382.5t-383 -158.5t-383 158.5t-159 382.5zM141 491q0 -189 134.5 -323.5t324.5 -134.5q189 0 323.5 134.5t134.5 323.5q0 191 -134.5 325t-323.5 134q-190 0 -324.5 -134t-134.5 -325zM340 379 l72 195h-8l22 62h8q116 0 148 41q16 100 70 112q8 2 16 2q27 0 27 -28q0 -9 -3 -20q-13 -58 -66 -79q-33 -19 -43 -125q-3 -26 -3 -50q0 -70 23 -111q38 -83 100 -103q21 -8 41 -8q39 0 101 128l14 -23q-96 -179 -202 -179q-87 0 -129 75q-27 63 -27 122q0 37 16.5 113 t48.5 126q-53 -43 -126 -53l-87 -204z" />
<glyph unicode="&#xaf;" horiz-adv-x="492" d="M20 900v90h452v-90h-452z" />
<glyph unicode="&#xb0;" horiz-adv-x="500" d="M37 1212q0 89 62.5 151t151.5 62q88 0 150 -62t62 -151q0 -88 -62 -150.5t-150 -62.5q-89 0 -151.5 62.5t-62.5 150.5zM101 1212q0 -62 44 -105.5t106 -43.5q61 0 104.5 43.5t43.5 105.5t-43.5 105.5t-104.5 43.5q-62 0 -106 -43.5t-44 -105.5z" />
<glyph unicode="&#xb4;" horiz-adv-x="307" d="M37 883l44 306h189l-137 -306h-96z" />
<glyph unicode="&#xb7;" horiz-adv-x="371" d="M59 1057q0 10 3 21q7 28 28.5 48t44.5 20q24 0 34 -19q7 -13 7 -27q0 -11 -2 -22q-8 -28 -29 -48t-44 -20q-24 0 -34 20q-8 13 -8 27z" />
<glyph unicode="&#xbb;" horiz-adv-x="482" d="M29 2l142 324l-142 323h49l141 -321h2l-1 -2l1 -3h-2l-141 -321h-49zM261 2l142 324l-142 323h49l141 -321h2l-1 -2l1 -3h-2l-141 -321h-49z" />
<glyph unicode="&#xbf;" horiz-adv-x="690" d="M56 -2q0 183 176 301q242 184 251 281q1 10 1 20q0 115 -73 119q-5 1 -8 1q-65 0 -65 -68q0 -16 6 -34q16 -24 38 -24t50 23q-23 -67 -76 -67q-8 0 -17 1q-66 12 -66 71q0 18 6 40q26 93 127 94h2q101 0 148 -123q8 -25 8 -51q0 -128 -213 -310q-227 -194 -227 -354 q0 -7 1 -15q12 -166 179 -174h19q153 0 207 105q30 57 30 122q0 61 -26 127q99 -89 99 -190q0 -41 -17 -86q-59 -148 -274 -148h-4q-219 2 -272 247q-10 48 -10 92zM328 935q0 12 2 25q9 33 34.5 56.5t51.5 23.5q28 0 41 -23q8 -15 8 -32q0 -12 -3 -25q-8 -33 -33.5 -56.5 t-52.5 -23.5t-40 23q-8 15 -8 32z" />
<glyph unicode="&#xc0;" horiz-adv-x="1280" d="M29 575v24q0 303 182 565q188 273 538 307q240 -14 325 -196q43 -91 43 -213q0 -121 -41 -272v-643q9 -60 55 -60q53 8 158 208v-40q-98 -255 -210 -255q-18 0 -32 7q-70 22 -70 117v190l-8 -35q0 1 1 6q-98 -299 -362 -307h-28q-246 0 -391 137q-153 144 -160 460z M151 634q0 -264 118 -386q138 -142 317 -147h13q168 0 245 113q138 159 138 497q-72 -125 -249 -133q-50 0 -100 24q-125 59 -125 181q0 39 13 85q-106 39 -106 112q0 47 41.5 85t65.5 38q35 0 35 -31q0 -8 -2 -18q-6 -24 -6 -39q0 -26 17 -26q3 0 8 2q72 185 218 230 q29 9 51 9q69 0 69 -88q0 -25 -5 -57q-32 -181 -304 -228q53 -132 183 -132h18q144 9 213 183q38 96 38 187q0 73 -24 143q-54 156 -268 156h-4q-220 0 -397 -160q-184 -167 -208 -506q-3 -49 -3 -94zM533 1945h190l43 -306h-96zM644 985q150 49 177 120q7 16 7 27 q0 17 -18 17q-16 0 -46 -14q-86 -39 -120 -150z" />
<glyph unicode="&#xc1;" horiz-adv-x="1280" d="M29 575v24q0 303 182 565q188 273 538 307q240 -14 325 -196q43 -91 43 -213q0 -121 -41 -272v-643q9 -60 55 -60q53 8 158 208v-40q-98 -255 -210 -255q-18 0 -32 7q-70 22 -70 117v190l-8 -35q0 1 1 6q-98 -299 -362 -307h-28q-246 0 -391 137q-153 144 -160 460z M151 634q0 -264 118 -386q138 -142 317 -147h13q168 0 245 113q138 159 138 497q-72 -125 -249 -133q-50 0 -100 24q-125 59 -125 181q0 39 13 85q-106 39 -106 112q0 47 41.5 85t65.5 38q35 0 35 -31q0 -8 -2 -18q-6 -24 -6 -39q0 -26 17 -26q3 0 8 2q72 185 218 230 q29 9 51 9q69 0 69 -88q0 -25 -5 -57q-32 -181 -304 -228q53 -132 183 -132h18q144 9 213 183q38 96 38 187q0 73 -24 143q-54 156 -268 156h-4q-220 0 -397 -160q-184 -167 -208 -506q-3 -49 -3 -94zM644 985q150 49 177 120q7 16 7 27q0 17 -18 17q-16 0 -46 -14 q-86 -39 -120 -150zM666 1639l44 306h189l-137 -306h-96z" />
<glyph unicode="&#xc2;" horiz-adv-x="1280" d="M29 575v24q0 303 182 565q188 273 538 307q240 -14 325 -196q43 -91 43 -213q0 -121 -41 -272v-643q9 -60 55 -60q53 8 158 208v-40q-98 -255 -210 -255q-18 0 -32 7q-70 22 -70 117v190l-8 -35q0 1 1 6q-98 -299 -362 -307h-28q-246 0 -391 137q-153 144 -160 460z M151 634q0 -264 118 -386q138 -142 317 -147h13q168 0 245 113q138 159 138 497q-72 -125 -249 -133q-50 0 -100 24q-125 59 -125 181q0 39 13 85q-106 39 -106 112q0 47 41.5 85t65.5 38q35 0 35 -31q0 -8 -2 -18q-6 -24 -6 -39q0 -26 17 -26q3 0 8 2q72 185 218 230 q29 9 51 9q69 0 69 -88q0 -25 -5 -57q-32 -181 -304 -228q53 -132 183 -132h18q144 9 213 183q38 96 38 187q0 73 -24 143q-54 156 -268 156h-4q-220 0 -397 -160q-184 -167 -208 -506q-3 -49 -3 -94zM434 1554v94l226 100l226 -100v-94l-226 100zM644 985q150 49 177 120 q7 16 7 27q0 17 -18 17q-16 0 -46 -14q-86 -39 -120 -150z" />
<glyph unicode="&#xc3;" horiz-adv-x="1280" d="M29 575v24q0 303 182 565q188 273 538 307q240 -14 325 -196q43 -91 43 -213q0 -121 -41 -272v-643q9 -60 55 -60q53 8 158 208v-40q-98 -255 -210 -255q-18 0 -32 7q-70 22 -70 117v190l-8 -35q0 1 1 6q-98 -299 -362 -307h-28q-246 0 -391 137q-153 144 -160 460z M151 634q0 -264 118 -386q138 -142 317 -147h13q168 0 245 113q138 159 138 497q-72 -125 -249 -133q-50 0 -100 24q-125 59 -125 181q0 39 13 85q-106 39 -106 112q0 47 41.5 85t65.5 38q35 0 35 -31q0 -8 -2 -18q-6 -24 -6 -39q0 -26 17 -26q3 0 8 2q72 185 218 230 q29 9 51 9q69 0 69 -88q0 -25 -5 -57q-32 -181 -304 -228q53 -132 183 -132h18q144 9 213 183q38 96 38 187q0 73 -24 143q-54 156 -268 156h-4q-220 0 -397 -160q-184 -167 -208 -506q-3 -49 -3 -94zM451 1597q11 78 57 128q16 17 32 27q26 17 54 17q48 0 92 -50 q72 -70 98 -70h3l4 2q24 16 24 40q0 3 -4 25h50q4 -23 4 -33q0 -41 -27 -81q-9 -12 -20 -19q-16 -10 -37 -10q-47 0 -116 59q-59 51 -97 51q-13 0 -23 -6q-1 -1 -4 -2q-29 -23 -33 -78h-57zM644 985q150 49 177 120q7 16 7 27q0 17 -18 17q-16 0 -46 -14q-86 -39 -120 -150z " />
<glyph unicode="&#xc4;" horiz-adv-x="1280" d="M29 575v24q0 303 182 565q188 273 538 307q240 -14 325 -196q43 -91 43 -213q0 -121 -41 -272v-643q9 -60 55 -60q53 8 158 208v-40q-98 -255 -210 -255q-18 0 -32 7q-70 22 -70 117v190l-8 -35q0 1 1 6q-98 -299 -362 -307h-28q-246 0 -391 137q-153 144 -160 460z M151 634q0 -264 118 -386q138 -142 317 -147h13q168 0 245 113q138 159 138 497q-72 -125 -249 -133q-50 0 -100 24q-125 59 -125 181q0 39 13 85q-106 39 -106 112q0 47 41.5 85t65.5 38q35 0 35 -31q0 -8 -2 -18q-6 -24 -6 -39q0 -26 17 -26q3 0 8 2q72 185 218 230 q29 9 51 9q69 0 69 -88q0 -25 -5 -57q-32 -181 -304 -228q53 -132 183 -132h18q144 9 213 183q38 96 38 187q0 73 -24 143q-54 156 -268 156h-4q-220 0 -397 -160q-184 -167 -208 -506q-3 -49 -3 -94zM488 1692q0 12 3 25q9 33 34 56.5t52 23.5q28 0 40 -23q9 -15 9 -32 q0 -12 -3 -25q-9 -34 -34 -57t-52 -23q-28 0 -40 23q-9 15 -9 32zM644 985q150 49 177 120q7 16 7 27q0 17 -18 17q-16 0 -46 -14q-86 -39 -120 -150zM707 1692q0 12 3 25q8 33 33.5 56.5t52.5 23.5t40 -23q8 -15 8 -32q0 -12 -2 -25q-9 -34 -34 -57t-52 -23q-28 0 -41 23 q-8 15 -8 32z" />
<glyph unicode="&#xc5;" horiz-adv-x="1280" d="M29 575v24q0 303 182 565q188 273 538 307q240 -14 325 -196q43 -91 43 -213q0 -121 -41 -272v-643q9 -60 55 -60q53 8 158 208v-40q-98 -255 -210 -255q-18 0 -32 7q-70 22 -70 117v190l-8 -35q0 1 1 6q-98 -299 -362 -307h-28q-246 0 -391 137q-153 144 -160 460z M151 634q0 -264 118 -386q138 -142 317 -147h13q168 0 245 113q138 159 138 497q-72 -125 -249 -133q-50 0 -100 24q-125 59 -125 181q0 39 13 85q-106 39 -106 112q0 47 41.5 85t65.5 38q35 0 35 -31q0 -8 -2 -18q-6 -24 -6 -39q0 -26 17 -26q3 0 8 2q72 185 218 230 q29 9 51 9q69 0 69 -88q0 -25 -5 -57q-32 -181 -304 -228q53 -132 183 -132h18q144 9 213 183q38 96 38 187q0 73 -24 143q-54 156 -268 156h-4q-220 0 -397 -160q-184 -167 -208 -506q-3 -49 -3 -94zM517 1734q0 62 43.5 106t105.5 44t106 -44t44 -106q0 -61 -44 -104.5 t-106 -43.5t-105.5 43.5t-43.5 104.5zM561 1734q0 -43 31 -73.5t74 -30.5t74 30.5t31 73.5q0 44 -31 74.5t-74 30.5t-74 -30.5t-31 -74.5zM644 985q150 49 177 120q7 16 7 27q0 17 -18 17q-16 0 -46 -14q-86 -39 -120 -150z" />
<glyph unicode="&#xc7;" horiz-adv-x="1116" d="M29 643q0 200 102 384q162 293 416 383q132 46 229 46q93 0 157 -41q104 -67 110 -165v-7q0 -21 -4 -44q-24 -132 -129 -210q-92 -69 -196 -69q-14 0 -27 2q-119 9 -158 91q-8 20 -9 39v7q0 54 57 93q49 33 85 33q22 0 41 -14q18 -14 19 -38v-4q0 -36 -34 -91 q31 -22 64 -22q60 0 131 69q68 67 68 137v9q-2 39 -25 80q-48 82 -167 82q-53 0 -121 -17q-218 -53 -376 -324q-98 -170 -98 -362q0 -21 1 -43q5 -96 35 -196q95 -331 417 -364q35 -4 69 -4q272 0 423 247l5 -26q-115 -232 -295 -299q-95 -27 -197 -27h-23l-19 -33 q16 -6 32 -15q58 -32 77 -84q8 -20 8 -39q0 -31 -20 -57q-32 -43 -96 -50q-9 -1 -18 -1q-55 0 -117 34l26 35q26 -11 44 -11h6q10 0 21 5q33 11 54 40q17 22 17 46q0 5 -1 10q-11 44 -107 44v2h-32l46 80q-64 8 -131 26q-231 62 -325 393q-28 99 -34 193q-1 24 -1 47z" />
<glyph unicode="&#xc8;" horiz-adv-x="981" d="M29 376q0 175 155 375q-57 107 -57 206q0 58 18 119q47 175 284 308q-50 97 -140 151q-33 20 -52 21q-12 0 -25 -17q-20 -26 -20 -58q0 -45 27 -69q-35 -9 -64 -9h-8q-91 5 -91 66q0 9 1 19q14 99 184 99q15 0 31 -1l25 -1q218 -20 277 -142h8q14 0 47 -2q120 -5 206 -55 q109 -63 115 -153v-15q0 -78 -78 -99q-30 -8 -67 -8h-11q-66 4 -152 37q-136 49 -181 161q-74 -33 -148 -168q-39 -70 -39 -140q0 -77 47 -146q32 -51 59 -52q60 -21 108 -21q53 0 91 27v-8q0 -112 -161 -112q-20 0 -43 1q-8 0 -18 1q-47 2 -72 10q-123 -113 -123 -293 q0 -34 6 -69q29 -211 271 -252q22 -4 44 -4q15 -1 29 -1q323 0 476 227l3 -30q-121 -151 -232.5 -226t-281.5 -75h-35q-41 2 -86 9q-252 39 -313 283q-14 52 -14 106zM384 1945h190l43 -306h-96zM587 1376q77 -155 203 -180q23 -4 37 -5q13 0 13 30q0 29 -25 65 q-56 82 -228 90z" />
<glyph unicode="&#xc9;" horiz-adv-x="981" d="M29 376q0 175 155 375q-57 107 -57 206q0 58 18 119q47 175 284 308q-50 97 -140 151q-33 20 -52 21q-12 0 -25 -17q-20 -26 -20 -58q0 -45 27 -69q-35 -9 -64 -9h-8q-91 5 -91 66q0 9 1 19q14 99 184 99q15 0 31 -1l25 -1q218 -20 277 -142h8q14 0 47 -2q120 -5 206 -55 q109 -63 115 -153v-15q0 -78 -78 -99q-30 -8 -67 -8h-11q-66 4 -152 37q-136 49 -181 161q-74 -33 -148 -168q-39 -70 -39 -140q0 -77 47 -146q32 -51 59 -52q60 -21 108 -21q53 0 91 27v-8q0 -112 -161 -112q-20 0 -43 1q-8 0 -18 1q-47 2 -72 10q-123 -113 -123 -293 q0 -34 6 -69q29 -211 271 -252q22 -4 44 -4q15 -1 29 -1q323 0 476 227l3 -30q-121 -151 -232.5 -226t-281.5 -75h-35q-41 2 -86 9q-252 39 -313 283q-14 52 -14 106zM587 1376q77 -155 203 -180q23 -4 37 -5q13 0 13 30q0 29 -25 65q-56 82 -228 90zM618 1639l44 306h189 l-137 -306h-96z" />
<glyph unicode="&#xca;" horiz-adv-x="981" d="M29 376q0 175 155 375q-57 107 -57 206q0 58 18 119q47 175 284 308q-50 97 -140 151q-33 20 -52 21q-12 0 -25 -17q-20 -26 -20 -58q0 -45 27 -69q-35 -9 -64 -9h-8q-91 5 -91 66q0 9 1 19q14 99 184 99q15 0 31 -1l25 -1q218 -20 277 -142h8q14 0 47 -2q120 -5 206 -55 q109 -63 115 -153v-15q0 -78 -78 -99q-30 -8 -67 -8h-11q-66 4 -152 37q-136 49 -181 161q-74 -33 -148 -168q-39 -70 -39 -140q0 -77 47 -146q32 -51 59 -52q60 -21 108 -21q53 0 91 27v-8q0 -112 -161 -112q-20 0 -43 1q-8 0 -18 1q-47 2 -72 10q-123 -113 -123 -293 q0 -34 6 -69q29 -211 271 -252q22 -4 44 -4q15 -1 29 -1q323 0 476 227l3 -30q-121 -151 -232.5 -226t-281.5 -75h-35q-41 2 -86 9q-252 39 -313 283q-14 52 -14 106zM485 1654v94l226 100l226 -100v-94l-226 100zM587 1376q77 -155 203 -180q23 -4 37 -5q13 0 13 30 q0 29 -25 65q-56 82 -228 90z" />
<glyph unicode="&#xcb;" horiz-adv-x="981" d="M29 376q0 175 155 375q-57 107 -57 206q0 58 18 119q47 175 284 308q-50 97 -140 151q-33 20 -52 21q-12 0 -25 -17q-20 -26 -20 -58q0 -45 27 -69q-35 -9 -64 -9h-8q-91 5 -91 66q0 9 1 19q14 99 184 99q15 0 31 -1l25 -1q218 -20 277 -142h8q14 0 47 -2q120 -5 206 -55 q109 -63 115 -153v-15q0 -78 -78 -99q-30 -8 -67 -8h-11q-66 4 -152 37q-136 49 -181 161q-74 -33 -148 -168q-39 -70 -39 -140q0 -77 47 -146q32 -51 59 -52q60 -21 108 -21q53 0 91 27v-8q0 -112 -161 -112q-20 0 -43 1q-8 0 -18 1q-47 2 -72 10q-123 -113 -123 -293 q0 -34 6 -69q29 -211 271 -252q22 -4 44 -4q15 -1 29 -1q323 0 476 227l3 -30q-121 -151 -232.5 -226t-281.5 -75h-35q-41 2 -86 9q-252 39 -313 283q-14 52 -14 106zM440 1692q0 12 3 25q9 33 34 56.5t52 23.5q28 0 40 -23q9 -15 9 -32q0 -12 -3 -25q-9 -34 -34 -57 t-52 -23q-28 0 -40 23q-9 15 -9 32zM587 1376q77 -155 203 -180q23 -4 37 -5q13 0 13 30q0 29 -25 65q-56 82 -228 90zM659 1692q0 12 3 25q8 33 33.5 56.5t52.5 23.5t40 -23q8 -15 8 -32q0 -12 -2 -25q-9 -34 -34 -57t-52 -23q-28 0 -41 23q-8 15 -8 32z" />
<glyph unicode="&#xcc;" horiz-adv-x="649" d="M29 237q0 176 152 263q66 37 112 37q64 0 92 -70q13 -35 13 -66q0 -79 -88 -136q1 16 1 30q0 169 -98 169h-2q-95 -2 -95 -137q0 -20 3 -43q28 -178 198 -222q23 -6 43 -6q130 0 148 246v991q-58 -24 -180.5 -69.5t-203.5 -181.5q19 262 199 305.5t296 139.5v-1160 q0 -211 -161 -293q-51 -40 -135 -40q-53 0 -118 16q-172 38 -175 220q-1 3 -1 7zM191 1945h190l43 -306h-96z" />
<glyph unicode="&#xcd;" horiz-adv-x="687" d="M29 237q0 176 152 263q66 37 112 37q64 0 92 -70q13 -35 13 -66q0 -79 -88 -136q1 16 1 30q0 169 -98 169h-2q-95 -2 -95 -137q0 -20 3 -43q28 -178 198 -222q23 -6 43 -6q130 0 148 246v991q-58 -24 -180.5 -69.5t-203.5 -181.5q19 262 199 305.5t296 139.5v-1160 q0 -211 -161 -293q-51 -40 -135 -40q-53 0 -118 16q-172 38 -175 220q-1 3 -1 7zM325 1639l44 306h189l-137 -306h-96z" />
<glyph unicode="&#xce;" horiz-adv-x="670" d="M29 237q0 176 152 263q66 37 112 37q64 0 92 -70q13 -35 13 -66q0 -79 -88 -136q1 16 1 30q0 169 -98 169h-2q-95 -2 -95 -137q0 -20 3 -43q28 -178 198 -222q23 -6 43 -6q130 0 148 246v991q-58 -24 -180.5 -69.5t-203.5 -181.5q19 262 199 305.5t296 139.5v-1160 q0 -211 -161 -293q-51 -40 -135 -40q-53 0 -118 16q-172 38 -175 220q-1 3 -1 7zM191 1554v94l226 100l226 -100v-94l-226 100z" />
<glyph unicode="&#xcf;" horiz-adv-x="649" d="M29 237q0 176 152 263q66 37 112 37q64 0 92 -70q13 -35 13 -66q0 -79 -88 -136q1 16 1 30q0 169 -98 169h-2q-95 -2 -95 -137q0 -20 3 -43q28 -178 198 -222q23 -6 43 -6q130 0 148 246v991q-58 -24 -180.5 -69.5t-203.5 -181.5q19 262 199 305.5t296 139.5v-1160 q0 -211 -161 -293q-51 -40 -135 -40q-53 0 -118 16q-172 38 -175 220q-1 3 -1 7zM246 1692q0 12 3 25q9 33 34 56.5t52 23.5q28 0 40 -23q9 -15 9 -32q0 -12 -3 -25q-9 -34 -34 -57t-52 -23q-28 0 -40 23q-9 15 -9 32zM465 1692q0 12 3 25q8 33 33.5 56.5t52.5 23.5t40 -23 q8 -15 8 -32q0 -12 -2 -25q-9 -34 -34 -57t-52 -23q-28 0 -41 23q-8 15 -8 32z" />
<glyph unicode="&#xd1;" horiz-adv-x="1864" d="M29 921q0 237 212 389q154 110 330 110q69 0 141 -17q257 -59 346 -359q143 306 331 386q51 22 91 22h5q159 0 173 -321l1 1v-985q0 -60 55 -60q54 8 158 208l1 -40q-99 -255 -210 -255q-19 0 -33 7q-70 22 -70 117v895q0 290 -103 296q-51 0 -126 -79 q-147 -154 -273 -543v-691h-105v883q-81 309 -194 400q-94 75 -207 75q-24 0 -49 -3q-144 -20 -257 -172q-82 -107 -82 -238q0 -52 13 -108q46 -194 133 -243t173 -49q85 0 190 76q-41 -122 -207 -151q-33 -6 -65 -6q-127 0 -234 93q-135 115 -137 356q-1 3 -1 6zM1042 1597 q11 78 57 128q16 17 32 27q26 17 54 17q48 0 92 -50q72 -70 98 -70h3l4 2q24 16 24 40q0 3 -4 25h50q4 -23 4 -33q0 -41 -27 -81q-9 -12 -20 -19q-16 -10 -37 -10q-47 0 -116 59q-59 51 -97 51q-13 0 -23 -6q-1 -1 -4 -2q-29 -23 -33 -78h-57z" />
<glyph unicode="&#xd2;" horiz-adv-x="1193" d="M29 573q0 252 126 515.5t386 332.5q74 20 140 20q161 0 264 -122q104 -123 104 -308q0 -73 -16 -157q27 33 68 50q62 -26 62 -168q0 -280 -179 -519q-179 -240 -421 -240v1q-243 0 -388.5 172t-145.5 423zM141 590q0 -206 96 -333q132 -174 353 -177h6q216 0 334 196 q120 197 120 371l-23 190q-136 -456 -423 -456q-28 0 -59 4q-154 57 -154 257q0 26 3 54q-62 70 -62 142q0 95 112 192q-53 -68 -53 -146q0 -62 35 -132q102 148 227 154h11q87 0 87 -70q0 -21 -8 -47q-34 -123 -266 -163v-11q0 -110 113 -124q202 0 288 293q40 136 40 241 q0 120 -52 198q-99 146 -263 151h-10q-159 0 -275 -156q-120 -162 -166 -475q-11 -81 -11 -153zM363 1945h190l43 -306h-96zM500 736q170 16 170 112q-109 -20 -170 -112z" />
<glyph unicode="&#xd3;" horiz-adv-x="1193" d="M29 573q0 252 126 515.5t386 332.5q74 20 140 20q161 0 264 -122q104 -123 104 -308q0 -73 -16 -157q27 33 68 50q62 -26 62 -168q0 -280 -179 -519q-179 -240 -421 -240v1q-243 0 -388.5 172t-145.5 423zM141 590q0 -206 96 -333q132 -174 353 -177h6q216 0 334 196 q120 197 120 371l-23 190q-136 -456 -423 -456q-28 0 -59 4q-154 57 -154 257q0 26 3 54q-62 70 -62 142q0 95 112 192q-53 -68 -53 -146q0 -62 35 -132q102 148 227 154h11q87 0 87 -70q0 -21 -8 -47q-34 -123 -266 -163v-11q0 -110 113 -124q202 0 288 293q40 136 40 241 q0 120 -52 198q-99 146 -263 151h-10q-159 0 -275 -156q-120 -162 -166 -475q-11 -81 -11 -153zM497 1639l44 306h189l-137 -306h-96zM500 736q170 16 170 112q-109 -20 -170 -112z" />
<glyph unicode="&#xd4;" horiz-adv-x="1193" d="M29 573q0 252 126 515.5t386 332.5q74 20 140 20q161 0 264 -122q104 -123 104 -308q0 -73 -16 -157q27 33 68 50q62 -26 62 -168q0 -280 -179 -519q-179 -240 -421 -240v1q-243 0 -388.5 172t-145.5 423zM141 590q0 -206 96 -333q132 -174 353 -177h6q216 0 334 196 q120 197 120 371l-23 190q-136 -456 -423 -456q-28 0 -59 4q-154 57 -154 257q0 26 3 54q-62 70 -62 142q0 95 112 192q-53 -68 -53 -146q0 -62 35 -132q102 148 227 154h11q87 0 87 -70q0 -21 -8 -47q-34 -123 -266 -163v-11q0 -110 113 -124q202 0 288 293q40 136 40 241 q0 120 -52 198q-99 146 -263 151h-10q-159 0 -275 -156q-120 -162 -166 -475q-11 -81 -11 -153zM363 1554v94l226 100l226 -100v-94l-226 100zM500 736q170 16 170 112q-109 -20 -170 -112z" />
<glyph unicode="&#xd5;" horiz-adv-x="1193" d="M29 573q0 252 126 515.5t386 332.5q74 20 140 20q161 0 264 -122q104 -123 104 -308q0 -73 -16 -157q27 33 68 50q62 -26 62 -168q0 -280 -179 -519q-179 -240 -421 -240v1q-243 0 -388.5 172t-145.5 423zM141 590q0 -206 96 -333q132 -174 353 -177h6q216 0 334 196 q120 197 120 371l-23 190q-136 -456 -423 -456q-28 0 -59 4q-154 57 -154 257q0 26 3 54q-62 70 -62 142q0 95 112 192q-53 -68 -53 -146q0 -62 35 -132q102 148 227 154h11q87 0 87 -70q0 -21 -8 -47q-34 -123 -266 -163v-11q0 -110 113 -124q202 0 288 293q40 136 40 241 q0 120 -52 198q-99 146 -263 151h-10q-159 0 -275 -156q-120 -162 -166 -475q-11 -81 -11 -153zM381 1597q11 78 57 128q16 17 32 27q26 17 54 17q48 0 92 -50q72 -70 98 -70h3l4 2q24 16 24 40q0 3 -4 25h50q4 -23 4 -33q0 -41 -27 -81q-9 -12 -20 -19q-16 -10 -37 -10 q-47 0 -116 59q-59 51 -97 51q-13 0 -23 -6q-1 -1 -4 -2q-29 -23 -33 -78h-57zM500 736q170 16 170 112q-109 -20 -170 -112z" />
<glyph unicode="&#xd6;" horiz-adv-x="1193" d="M29 573q0 252 126 515.5t386 332.5q74 20 140 20q161 0 264 -122q104 -123 104 -308q0 -73 -16 -157q27 33 68 50q62 -26 62 -168q0 -280 -179 -519q-179 -240 -421 -240v1q-243 0 -388.5 172t-145.5 423zM141 590q0 -206 96 -333q132 -174 353 -177h6q216 0 334 196 q120 197 120 371l-23 190q-136 -456 -423 -456q-28 0 -59 4q-154 57 -154 257q0 26 3 54q-62 70 -62 142q0 95 112 192q-53 -68 -53 -146q0 -62 35 -132q102 148 227 154h11q87 0 87 -70q0 -21 -8 -47q-34 -123 -266 -163v-11q0 -110 113 -124q202 0 288 293q40 136 40 241 q0 120 -52 198q-99 146 -263 151h-10q-159 0 -275 -156q-120 -162 -166 -475q-11 -81 -11 -153zM418 1692q0 12 3 25q9 33 34 56.5t52 23.5q28 0 40 -23q9 -15 9 -32q0 -12 -3 -25q-9 -34 -34 -57t-52 -23q-28 0 -40 23q-9 15 -9 32zM500 736q170 16 170 112 q-109 -20 -170 -112zM637 1692q0 12 3 25q8 33 33.5 56.5t52.5 23.5t40 -23q8 -15 8 -32q0 -12 -2 -25q-9 -34 -34 -57t-52 -23q-28 0 -41 23q-8 15 -8 32z" />
<glyph unicode="&#xd9;" horiz-adv-x="1267" d="M29 1388q44 92 120 92q12 0 24 -2q93 -17 93 -199v-763q0 -208 76 -315q109 -154 313 -159h6q199 0 309 307v358q0 117 101 117v-639q2 -98 49 -98q53 8 157 208l1 -40q-99 -255 -210 -255q-19 0 -33 7q-65 22 -65 117v72q-200 -235 -404 -235q-22 0 -42 3 q-225 26 -305 171q-53 98 -53 283v886q0 105 -66 105q-29 0 -71 -21zM428 1945h190l43 -306h-96z" />
<glyph unicode="&#xda;" horiz-adv-x="1267" d="M29 1388q44 92 120 92q12 0 24 -2q93 -17 93 -199v-763q0 -208 76 -315q109 -154 313 -159h6q199 0 309 307v358q0 117 101 117v-639q2 -98 49 -98q53 8 157 208l1 -40q-99 -255 -210 -255q-19 0 -33 7q-65 22 -65 117v72q-200 -235 -404 -235q-22 0 -42 3 q-225 26 -305 171q-53 98 -53 283v886q0 105 -66 105q-29 0 -71 -21zM661 1639l44 306h189l-137 -306h-96z" />
<glyph unicode="&#xdb;" horiz-adv-x="1267" d="M29 1388q44 92 120 92q12 0 24 -2q93 -17 93 -199v-763q0 -208 76 -315q109 -154 313 -159h6q199 0 309 307v358q0 117 101 117v-639q2 -98 49 -98q53 8 157 208l1 -40q-99 -255 -210 -255q-19 0 -33 7q-65 22 -65 117v72q-200 -235 -404 -235q-22 0 -42 3 q-225 26 -305 171q-53 98 -53 283v886q0 105 -66 105q-29 0 -71 -21zM428 1554v94l226 100l226 -100v-94l-226 100z" />
<glyph unicode="&#xdc;" horiz-adv-x="1267" d="M29 1388q44 92 120 92q12 0 24 -2q93 -17 93 -199v-763q0 -208 76 -315q109 -154 313 -159h6q199 0 309 307v358q0 117 101 117v-639q2 -98 49 -98q53 8 157 208l1 -40q-99 -255 -210 -255q-19 0 -33 7q-65 22 -65 117v72q-200 -235 -404 -235q-22 0 -42 3 q-225 26 -305 171q-53 98 -53 283v886q0 105 -66 105q-29 0 -71 -21zM482 1692q0 12 3 25q9 33 34 56.5t52 23.5q28 0 40 -23q9 -15 9 -32q0 -12 -3 -25q-9 -34 -34 -57t-52 -23q-28 0 -40 23q-9 15 -9 32zM701 1692q0 12 3 25q8 33 33.5 56.5t52.5 23.5t40 -23q8 -15 8 -32 q0 -12 -2 -25q-9 -34 -34 -57t-52 -23q-28 0 -41 23q-8 15 -8 32z" />
<glyph unicode="&#xdd;" horiz-adv-x="1125" d="M14 1388q44 92 120 92q12 0 24 -2q93 -17 93 -199v-763q0 -208 76 -315q109 -154 313 -159h6q199 0 309 307v358q0 117 101 117v-624l74 76l4 -16l-78 -113q0 -581 -54 -623q-26 -14 -54 -14q-58 0 -131 59q-69 86 -69 186q-2 7 -2 16q0 80 209 338v87 q-200 -235 -404 -235q-22 0 -42 3q-225 26 -305 171q-53 98 -53 283v886q0 105 -66 105q-29 0 -71 -21zM579 1639l44 306h189l-137 -306h-96zM822 -204q0 -55 47 -117q18 -12 31 -12q55 0 55 391q-76 -121 -112 -199q-21 -33 -21 -63z" />
<glyph unicode="&#xe0;" horiz-adv-x="857" d="M29 260q0 54 15 113q40 156 157.5 266.5t244.5 110.5q122 -6 122 -109q0 -30 -10 -68l95 115v-541q9 -60 55 -60q54 8 158 208l1 -40q-99 -255 -210 -255q-19 0 -33 7q-70 22 -70 117v46q-25 -31 -56 -60q-118 -110 -244 -110q-125 0 -186 109q-39 67 -39 151zM133 405 q0 -85 43 -161q53 -97 142 -126q30 -11 59 -11q55 0 103 36q53 42 74 112v305q-13 -44 -39 -98q-15 199 -140 199q-19 0 -40 -4q-163 -35 -200 -212q-2 -20 -2 -40zM222 1189h190l43 -306h-96z" />
<glyph unicode="&#xe1;" horiz-adv-x="857" d="M29 260q0 54 15 113q40 156 157.5 266.5t244.5 110.5q122 -6 122 -109q0 -30 -10 -68l95 115v-541q9 -60 55 -60q54 8 158 208l1 -40q-99 -255 -210 -255q-19 0 -33 7q-70 22 -70 117v46q-25 -31 -56 -60q-118 -110 -244 -110q-125 0 -186 109q-39 67 -39 151zM133 405 q0 -85 43 -161q53 -97 142 -126q30 -11 59 -11q55 0 103 36q53 42 74 112v305q-13 -44 -39 -98q-15 199 -140 199q-19 0 -40 -4q-163 -35 -200 -212q-2 -20 -2 -40zM355 883l44 306h189l-137 -306h-96z" />
<glyph unicode="&#xe2;" horiz-adv-x="857" d="M29 260q0 54 15 113q40 156 157.5 266.5t244.5 110.5q122 -6 122 -109q0 -30 -10 -68l95 115v-541q9 -60 55 -60q54 8 158 208l1 -40q-99 -255 -210 -255q-19 0 -33 7q-70 22 -70 117v46q-25 -31 -56 -60q-118 -110 -244 -110q-125 0 -186 109q-39 67 -39 151zM133 405 q0 -85 43 -161q53 -97 142 -126q30 -11 59 -11q55 0 103 36q53 42 74 112v305q-13 -44 -39 -98q-15 199 -140 199q-19 0 -40 -4q-163 -35 -200 -212q-2 -20 -2 -40zM223 798v94l226 100l226 -100v-94l-226 100z" />
<glyph unicode="&#xe3;" horiz-adv-x="857" d="M29 260q0 54 15 113q40 156 157.5 266.5t244.5 110.5q122 -6 122 -109q0 -30 -10 -68l95 115v-541q9 -60 55 -60q54 8 158 208l1 -40q-99 -255 -210 -255q-19 0 -33 7q-70 22 -70 117v46q-25 -31 -56 -60q-118 -110 -244 -110q-125 0 -186 109q-39 67 -39 151zM133 405 q0 -85 43 -161q53 -97 142 -126q30 -11 59 -11q55 0 103 36q53 42 74 112v305q-13 -44 -39 -98q-15 199 -140 199q-19 0 -40 -4q-163 -35 -200 -212q-2 -20 -2 -40zM239 841q11 78 57 128q16 17 32 27q26 17 54 17q48 0 92 -50q72 -70 98 -70h3l4 2q24 16 24 40q0 3 -4 25 h50q4 -23 4 -33q0 -41 -27 -81q-9 -12 -20 -19q-16 -10 -37 -10q-47 0 -116 59q-59 51 -97 51q-13 0 -23 -6q-1 -1 -4 -2q-29 -23 -33 -78h-57z" />
<glyph unicode="&#xe4;" horiz-adv-x="857" d="M29 260q0 54 15 113q40 156 157.5 266.5t244.5 110.5q122 -6 122 -109q0 -30 -10 -68l95 115v-541q9 -60 55 -60q54 8 158 208l1 -40q-99 -255 -210 -255q-19 0 -33 7q-70 22 -70 117v46q-25 -31 -56 -60q-118 -110 -244 -110q-125 0 -186 109q-39 67 -39 151zM133 405 q0 -85 43 -161q53 -97 142 -126q30 -11 59 -11q55 0 103 36q53 42 74 112v305q-13 -44 -39 -98q-15 199 -140 199q-19 0 -40 -4q-163 -35 -200 -212q-2 -20 -2 -40zM277 936q0 12 3 25q9 33 34 56.5t52 23.5q28 0 40 -23q9 -15 9 -32q0 -12 -3 -25q-9 -34 -34 -57t-52 -23 q-28 0 -40 23q-9 15 -9 32zM496 936q0 12 3 25q8 33 33.5 56.5t52.5 23.5t40 -23q8 -15 8 -32q0 -12 -2 -25q-9 -34 -34 -57t-52 -23q-28 0 -41 23q-8 15 -8 32z" />
<glyph unicode="&#xe5;" horiz-adv-x="857" d="M29 260q0 54 15 113q40 156 157.5 266.5t244.5 110.5q122 -6 122 -109q0 -30 -10 -68l95 115v-541q9 -60 55 -60q54 8 158 208l1 -40q-99 -255 -210 -255q-19 0 -33 7q-70 22 -70 117v46q-25 -31 -56 -60q-118 -110 -244 -110q-125 0 -186 109q-39 67 -39 151zM133 405 q0 -85 43 -161q53 -97 142 -126q30 -11 59 -11q55 0 103 36q53 42 74 112v305q-13 -44 -39 -98q-15 199 -140 199q-19 0 -40 -4q-163 -35 -200 -212q-2 -20 -2 -40zM248 978q0 62 43.5 106t105.5 44t106 -44t44 -106q0 -61 -44 -104.5t-106 -43.5t-105.5 43.5t-43.5 104.5z M292 978q0 -43 31 -73.5t74 -30.5t74 30.5t31 73.5q0 44 -31 74.5t-74 30.5t-74 -30.5t-31 -74.5z" />
<glyph unicode="&#xe7;" horiz-adv-x="610" d="M29 260q0 54 15 113q40 156 157.5 266.5t244.5 110.5q122 -6 122 -109q0 -69 -53 -179q-9 200 -142 200q-17 0 -36 -4q-169 -29 -202 -213q-2 -20 -2 -40q0 -85 43 -161q53 -97 142 -126q30 -11 59 -11q55 0 103 36q62 48 119 136h22q-44 -95 -123 -169q-64 -60 -130 -87 l-37 -76q17 -7 35 -17q57 -32 76 -84q8 -20 8 -39q0 -31 -19 -57q-32 -43 -97 -50q-8 -1 -18 -1q-54 0 -116 34l25 35q27 -11 45 -11h5q11 0 22 5q33 11 53 40q17 22 17 46v10q-11 44 -107 44v2h-33l56 97q-14 -1 -29 -1q-125 0 -186 109q-39 67 -39 151z" />
<glyph unicode="&#xe8;" horiz-adv-x="595" d="M29 182q0 94 79 185q25 26 51 48q-68 37 -74 110q-1 7 -1 14q0 68 58 130q63 68 159 90q35 8 67 8q55 0 101 -24q35 -23 35 -63q0 -61 -76 -159q3 19 3 38q0 40 -16 79q-24 58 -70 82q-22 11 -43 11q-23 0 -43 -12q-42 -24 -54 -83q-5 -20 -5 -40q0 -38 16 -77 q13 -29 30 -49l24 -24l1 1q7 -6 15 -9q23 -12 45 -12t43 12q1 1 3 2q6 -3 10 -6l-12 -23q-21 -8 -44 -14q-34 -7 -63 -7q-22 0 -41 4q-35 -42 -41 -68q-8 -32 -8 -64q0 -46 17 -91q27 -75 84 -105q22 -12 50 -12q41 0 95 27q88 45 179 223l3 -25q-81 -209 -238 -253 q-78 -22 -139 -22q-62 0 -107 23q-89 46 -92 146q-1 4 -1 9zM92 1189h190l43 -306h-96z" />
<glyph unicode="&#xe9;" horiz-adv-x="595" d="M29 182q0 94 79 185q25 26 51 48q-68 37 -74 110q-1 7 -1 14q0 68 58 130q63 68 159 90q35 8 67 8q55 0 101 -24q35 -23 35 -63q0 -61 -76 -159q3 19 3 38q0 40 -16 79q-24 58 -70 82q-22 11 -43 11q-23 0 -43 -12q-42 -24 -54 -83q-5 -20 -5 -40q0 -38 16 -77 q13 -29 30 -49l24 -24l1 1q7 -6 15 -9q23 -12 45 -12t43 12q1 1 3 2q6 -3 10 -6l-12 -23q-21 -8 -44 -14q-34 -7 -63 -7q-22 0 -41 4q-35 -42 -41 -68q-8 -32 -8 -64q0 -46 17 -91q27 -75 84 -105q22 -12 50 -12q41 0 95 27q88 45 179 223l3 -25q-81 -209 -238 -253 q-78 -22 -139 -22q-62 0 -107 23q-89 46 -92 146q-1 4 -1 9zM225 883l44 306h189l-137 -306h-96z" />
<glyph unicode="&#xea;" horiz-adv-x="595" d="M29 182q0 94 79 185q25 26 51 48q-68 37 -74 110q-1 7 -1 14q0 68 58 130q63 68 159 90q35 8 67 8q55 0 101 -24q35 -23 35 -63q0 -61 -76 -159q3 19 3 38q0 40 -16 79q-24 58 -70 82q-22 11 -43 11q-23 0 -43 -12q-42 -24 -54 -83q-5 -20 -5 -40q0 -38 16 -77 q13 -29 30 -49l24 -24l1 1q7 -6 15 -9q23 -12 45 -12t43 12q1 1 3 2q6 -3 10 -6l-12 -23q-21 -8 -44 -14q-34 -7 -63 -7q-22 0 -41 4q-35 -42 -41 -68q-8 -32 -8 -64q0 -46 17 -91q27 -75 84 -105q22 -12 50 -12q41 0 95 27q88 45 179 223l3 -25q-81 -209 -238 -253 q-78 -22 -139 -22q-62 0 -107 23q-89 46 -92 146q-1 4 -1 9zM92 798v94l226 100l226 -100v-94l-226 100z" />
<glyph unicode="&#xeb;" horiz-adv-x="595" d="M29 182q0 94 79 185q25 26 51 48q-68 37 -74 110q-1 7 -1 14q0 68 58 130q63 68 159 90q35 8 67 8q55 0 101 -24q35 -23 35 -63q0 -61 -76 -159q3 19 3 38q0 40 -16 79q-24 58 -70 82q-22 11 -43 11q-23 0 -43 -12q-42 -24 -54 -83q-5 -20 -5 -40q0 -38 16 -77 q13 -29 30 -49l24 -24l1 1q7 -6 15 -9q23 -12 45 -12t43 12q1 1 3 2q6 -3 10 -6l-12 -23q-21 -8 -44 -14q-34 -7 -63 -7q-22 0 -41 4q-35 -42 -41 -68q-8 -32 -8 -64q0 -46 17 -91q27 -75 84 -105q22 -12 50 -12q41 0 95 27q88 45 179 223l3 -25q-81 -209 -238 -253 q-78 -22 -139 -22q-62 0 -107 23q-89 46 -92 146q-1 4 -1 9zM146 936q0 12 3 25q9 33 34 56.5t52 23.5q28 0 40 -23q9 -15 9 -32q0 -12 -3 -25q-9 -34 -34 -57t-52 -23q-28 0 -40 23q-9 15 -9 32zM365 936q0 12 3 25q8 33 33.5 56.5t52.5 23.5t40 -23q8 -15 8 -32 q0 -12 -2 -25q-9 -34 -34 -57t-52 -23q-28 0 -41 23q-8 15 -8 32z" />
<glyph unicode="&#xec;" horiz-adv-x="378" d="M-27 1189h190l43 -306h-96zM21 262l55 180v243l100 76v-614q8 -60 55 -60q53 8 157 208l1 -40q-98 -255 -210 -255q-19 0 -33 7q-70 22 -70 117v232l-38 -105z" />
<glyph unicode="&#xed;" horiz-adv-x="378" d="M-11 262l55 180v243l100 76v-614q8 -60 55 -60q53 8 157 208l1 -40q-98 -255 -210 -255q-19 0 -33 7q-70 22 -70 117v232l-38 -105zM73 883l44 306h189l-137 -306h-96z" />
<glyph unicode="&#xee;" horiz-adv-x="349" d="M-72 798v94l226 100l226 -100v-94l-226 100zM16 262l55 180v243l100 76v-614q8 -60 55 -60q53 8 157 208l1 -40q-98 -255 -210 -255q-19 0 -33 7q-70 22 -70 117v232l-38 -105z" />
<glyph unicode="&#xef;" horiz-adv-x="347" d="M-55 936q0 12 3 25q9 33 34 56.5t52 23.5q28 0 40 -23q9 -15 9 -32q0 -12 -3 -25q-9 -34 -34 -57t-52 -23q-28 0 -40 23q-9 15 -9 32zM-11 262l55 180v243l100 76v-614q8 -60 55 -60q53 8 157 208l1 -40q-98 -255 -210 -255q-19 0 -33 7q-70 22 -70 117v232l-38 -105z M164 936q0 12 3 25q8 33 33.5 56.5t52.5 23.5t40 -23q8 -15 8 -32q0 -12 -2 -25q-9 -34 -34 -57t-52 -23q-28 0 -41 23q-8 15 -8 32z" />
<glyph unicode="&#xf1;" horiz-adv-x="812" d="M-11 262l64 208v211l104 76v-211q151 216 248 216q118 0 159 -83.5t41 -184.5v-359q8 -48 52 -48h8q53 4 157 204l1 -41q-98 -254 -210 -254q-19 0 -33 6q-67 21 -67 91v3h-1v291q0 171 -43 234q-34 50 -97 50q-14 0 -29 -2q-74 -12 -186 -196v-471h-104v378l-47 -129z M131 841q11 78 57 128q16 17 32 27q26 17 54 17q48 0 92 -50q72 -70 98 -70h3l4 2q24 16 24 40q0 3 -4 25h50q4 -23 4 -33q0 -41 -27 -81q-9 -12 -20 -19q-16 -10 -37 -10q-47 0 -116 59q-59 51 -97 51q-13 0 -23 -6q-1 -1 -4 -2q-29 -23 -33 -78h-57z" />
<glyph unicode="&#xf2;" horiz-adv-x="699" d="M29 260q0 54 15 113q40 156 157.5 266.5t244.5 110.5q125 0 187 -108q38 -68 38 -151q0 -54 -16 -115q-39 -156 -157 -266t-244 -110q-125 0 -186 109q-39 67 -39 151zM116 1189h190l43 -306h-96zM125 355q0 -14 1 -28q8 -115 79 -183q24 -23 52 -36q34 -16 73 -16 q20 0 41 4q92 21 152 117q10 18 20 38q33 70 33 151q0 11 -1 22q-9 114 -81 181q-25 25 -53 38q-32 15 -68 15q-22 0 -44 -5q-92 -21 -153 -116q-10 -18 -19 -37q-32 -68 -32 -145z" />
<glyph unicode="&#xf3;" horiz-adv-x="699" d="M29 260q0 54 15 113q40 156 157.5 266.5t244.5 110.5q125 0 187 -108q38 -68 38 -151q0 -54 -16 -115q-39 -156 -157 -266t-244 -110q-125 0 -186 109q-39 67 -39 151zM125 355q0 -14 1 -28q8 -115 79 -183q24 -23 52 -36q34 -16 73 -16q20 0 41 4q92 21 152 117 q10 18 20 38q33 70 33 151q0 11 -1 22q-9 114 -81 181q-25 25 -53 38q-32 15 -68 15q-22 0 -44 -5q-92 -21 -153 -116q-10 -18 -19 -37q-32 -68 -32 -145zM250 883l44 306h189l-137 -306h-96z" />
<glyph unicode="&#xf4;" horiz-adv-x="699" d="M29 260q0 54 15 113q40 156 157.5 266.5t244.5 110.5q125 0 187 -108q38 -68 38 -151q0 -54 -16 -115q-39 -156 -157 -266t-244 -110q-125 0 -186 109q-39 67 -39 151zM117 798v94l226 100l226 -100v-94l-226 100zM125 355q0 -14 1 -28q8 -115 79 -183q24 -23 52 -36 q34 -16 73 -16q20 0 41 4q92 21 152 117q10 18 20 38q33 70 33 151q0 11 -1 22q-9 114 -81 181q-25 25 -53 38q-32 15 -68 15q-22 0 -44 -5q-92 -21 -153 -116q-10 -18 -19 -37q-32 -68 -32 -145z" />
<glyph unicode="&#xf5;" horiz-adv-x="699" d="M29 260q0 54 15 113q40 156 157.5 266.5t244.5 110.5q125 0 187 -108q38 -68 38 -151q0 -54 -16 -115q-39 -156 -157 -266t-244 -110q-125 0 -186 109q-39 67 -39 151zM125 355q0 -14 1 -28q8 -115 79 -183q24 -23 52 -36q34 -16 73 -16q20 0 41 4q92 21 152 117 q10 18 20 38q33 70 33 151q0 11 -1 22q-9 114 -81 181q-25 25 -53 38q-32 15 -68 15q-22 0 -44 -5q-92 -21 -153 -116q-10 -18 -19 -37q-32 -68 -32 -145zM135 841q11 78 57 128q16 17 32 27q26 17 54 17q48 0 92 -50q72 -70 98 -70h3l4 2q24 16 24 40q0 3 -4 25h50 q4 -23 4 -33q0 -41 -27 -81q-9 -12 -20 -19q-16 -10 -37 -10q-47 0 -116 59q-59 51 -97 51q-13 0 -23 -6q-1 -1 -4 -2q-29 -23 -33 -78h-57z" />
<glyph unicode="&#xf6;" horiz-adv-x="699" d="M29 260q0 54 15 113q40 156 157.5 266.5t244.5 110.5q125 0 187 -108q38 -68 38 -151q0 -54 -16 -115q-39 -156 -157 -266t-244 -110q-125 0 -186 109q-39 67 -39 151zM125 355q0 -14 1 -28q8 -115 79 -183q24 -23 52 -36q34 -16 73 -16q20 0 41 4q92 21 152 117 q10 18 20 38q33 70 33 151q0 11 -1 22q-9 114 -81 181q-25 25 -53 38q-32 15 -68 15q-22 0 -44 -5q-92 -21 -153 -116q-10 -18 -19 -37q-32 -68 -32 -145zM172 936q0 12 3 25q9 33 34 56.5t52 23.5q28 0 40 -23q9 -15 9 -32q0 -12 -3 -25q-9 -34 -34 -57t-52 -23 q-28 0 -40 23q-9 15 -9 32zM391 936q0 12 3 25q8 33 33.5 56.5t52.5 23.5t40 -23q8 -15 8 -32q0 -12 -2 -25q-9 -34 -34 -57t-52 -23q-28 0 -41 23q-8 15 -8 32z" />
<glyph unicode="&#xf9;" horiz-adv-x="871" d="M-11 262l64 208v211l104 76v-370l2 2q-1 -21 -1 -39q0 -139 43 -194q40 -51 110 -51q16 0 33 2q86 13 219 218v356l104 76v-614q0 -57 48 -57q3 0 7 1q54 4 159 204v-41q-98 -254 -210 -254q-19 0 -32 6q-76 21 -76 110v170q-26 -62 -75 -138q-84 -130 -214 -130 q-179 0 -221 207v159l-47 -129zM201 1189h190l43 -306h-96z" />
<glyph unicode="&#xfa;" horiz-adv-x="871" d="M-11 262l64 208v211l104 76v-370l2 2q-1 -21 -1 -39q0 -139 43 -194q40 -51 110 -51q16 0 33 2q86 13 219 218v356l104 76v-614q0 -57 48 -57q3 0 7 1q54 4 159 204v-41q-98 -254 -210 -254q-19 0 -32 6q-76 21 -76 110v170q-26 -62 -75 -138q-84 -130 -214 -130 q-179 0 -221 207v159l-47 -129zM335 883l44 306h189l-137 -306h-96z" />
<glyph unicode="&#xfb;" horiz-adv-x="871" d="M-11 262l64 208v211l104 76v-370l2 2q-1 -21 -1 -39q0 -139 43 -194q40 -51 110 -51q16 0 33 2q86 13 219 218v356l104 76v-614q0 -57 48 -57q3 0 7 1q54 4 159 204v-41q-98 -254 -210 -254q-19 0 -32 6q-76 21 -76 110v170q-26 -62 -75 -138q-84 -130 -214 -130 q-179 0 -221 207v159l-47 -129zM162 798v94l226 100l226 -100v-94l-226 100z" />
<glyph unicode="&#xfc;" horiz-adv-x="871" d="M-11 262l64 208v211l104 76v-370l2 2q-1 -21 -1 -39q0 -139 43 -194q40 -51 110 -51q16 0 33 2q86 13 219 218v356l104 76v-614q0 -57 48 -57q3 0 7 1q54 4 159 204v-41q-98 -254 -210 -254q-19 0 -32 6q-76 21 -76 110v170q-26 -62 -75 -138q-84 -130 -214 -130 q-179 0 -221 207v159l-47 -129zM217 936q0 12 3 25q9 33 34 56.5t52 23.5q28 0 40 -23q9 -15 9 -32q0 -12 -3 -25q-9 -34 -34 -57t-52 -23q-28 0 -40 23q-9 15 -9 32zM436 936q0 12 3 25q8 33 33.5 56.5t52.5 23.5t40 -23q8 -15 8 -32q0 -12 -2 -25q-9 -34 -34 -57t-52 -23 q-28 0 -41 23q-8 15 -8 32z" />
<glyph unicode="&#xfd;" horiz-adv-x="719" d="M-11 262l64 208v211l104 76v-370l2 2l-1 -39q0 -139 43 -194q40 -51 110 -51q16 0 33 2q83 13 211 204v374l99 76v-600q36 83 75 130l-1 -36q-39 -49 -78 -155v-390q0 -260 -140 -260q-15 0 -32 4q-172 31 -185 170q-1 4 -1 8q0 112 259 442q4 5 7 10q-3 18 -3 40v139 q-25 -55 -67 -119q-84 -130 -214 -130t-175 84q-32 57 -41 123h-5v159l-47 -129zM259 883l44 306h189l-137 -306h-96zM394 -342q0 -53 29 -85q48 -53 78 -53q50 0 50 148v348q-157 -235 -157 -358z" />
<glyph unicode="&#xff;" horiz-adv-x="719" d="M-11 262l64 208v211l104 76v-370l2 2l-1 -39q0 -139 43 -194q40 -51 110 -51q16 0 33 2q83 13 211 204v374l99 76v-600q36 83 75 130l-1 -36q-39 -49 -78 -155v-390q0 -260 -140 -260q-15 0 -32 4q-172 31 -185 170q-1 4 -1 8q0 112 259 442q4 5 7 10q-3 18 -3 40v139 q-25 -55 -67 -119q-84 -130 -214 -130t-175 84q-32 57 -41 123h-5v159l-47 -129zM181 936q0 12 3 25q9 33 34 56.5t52 23.5q28 0 40 -23q9 -15 9 -32q0 -12 -3 -25q-9 -34 -34 -57t-52 -23q-28 0 -40 23q-9 15 -9 32zM394 -342q0 -53 29 -85q48 -53 78 -53q50 0 50 148v348 q-157 -235 -157 -358zM400 936q0 12 3 25q8 33 33.5 56.5t52.5 23.5t40 -23q8 -15 8 -32q0 -12 -2 -25q-9 -34 -34 -57t-52 -23q-28 0 -41 23q-8 15 -8 32z" />
<glyph unicode="&#x2c6;" horiz-adv-x="474" d="M29 798v94l226 100l226 -100v-94l-226 100z" />
<glyph unicode="&#x2dc;" horiz-adv-x="434" d="M29 841q11 78 57 128q16 17 32 27q26 17 54 17q48 0 92 -50q72 -70 98 -70h3l4 2q24 16 24 40q0 3 -4 25h50q4 -23 4 -33q0 -41 -27 -81q-9 -12 -20 -19q-16 -10 -37 -10q-47 0 -116 59q-59 51 -97 51q-13 0 -23 -6q-1 -1 -4 -2q-29 -23 -33 -78h-57z" />
<glyph unicode="&#x2000;" horiz-adv-x="972" />
<glyph unicode="&#x2001;" horiz-adv-x="1945" />
<glyph unicode="&#x2002;" horiz-adv-x="972" />
<glyph unicode="&#x2003;" horiz-adv-x="1945" />
<glyph unicode="&#x2004;" horiz-adv-x="648" />
<glyph unicode="&#x2005;" horiz-adv-x="486" />
<glyph unicode="&#x2006;" horiz-adv-x="324" />
<glyph unicode="&#x2007;" horiz-adv-x="324" />
<glyph unicode="&#x2008;" horiz-adv-x="243" />
<glyph unicode="&#x2009;" horiz-adv-x="389" />
<glyph unicode="&#x200a;" horiz-adv-x="108" />
<glyph unicode="&#x2010;" horiz-adv-x="545" d="M48 541l61 67h388l-60 -67h-389z" />
<glyph unicode="&#x2011;" horiz-adv-x="545" d="M48 541l61 67h388l-60 -67h-389z" />
<glyph unicode="&#x2012;" horiz-adv-x="545" d="M48 541l61 67h388l-60 -67h-389z" />
<glyph unicode="&#x2013;" horiz-adv-x="1120" d="M48 541l139 67h885l-137 -67h-887z" />
<glyph unicode="&#x2014;" horiz-adv-x="2144" d="M48 541l278 67h1770l-274 -67h-1774z" />
<glyph unicode="&#x2018;" horiz-adv-x="255" d="M59 1368l1 13q1 6 3 12q1 5 3 10l54 213h43l-36 -147q10 4 21 4q28 0 41 -24q8 -14 8 -32q0 -11 -3 -24q-8 -33 -33.5 -57t-51.5 -24q-28 0 -41 24q-9 14 -9 32z" />
<glyph unicode="&#x2019;" horiz-adv-x="255" d="M59 1511q0 12 3 25q8 33 33.5 56.5t51.5 23.5q28 0 41 -23q9 -15 9 -32l-1 -13q-1 -6 -3 -12q-1 -6 -3 -11l-54 -213h-43l36 148q-10 -4 -21 -4q-28 0 -41 23q-8 15 -8 32z" />
<glyph unicode="&#x201a;" horiz-adv-x="255" d="M59 53q0 12 3 25q8 33 33.5 56.5t51.5 23.5q28 0 41 -23q9 -15 9 -32l-1 -13q-1 -6 -3 -12q-1 -6 -3 -11l-54 -213h-43l36 148q-10 -4 -21 -4q-28 0 -41 23q-8 15 -8 32z" />
<glyph unicode="&#x201c;" horiz-adv-x="452" d="M59 1368q0 4 1 8h-1l1 5q1 6 3 12q1 5 3 10l54 213h43l-36 -147q10 4 21 4q28 0 41 -24q8 -14 8 -32q0 -11 -3 -24q-8 -33 -33.5 -57t-51.5 -24q-28 0 -41 24q-9 14 -9 32zM256 1368q0 4 1 8h-1l1 5l2 12q2 5 3 10l54 213h44l-36 -147q10 4 21 4q27 0 41 -24q8 -14 8 -32 q0 -11 -3 -24q-8 -33 -33.5 -57t-52.5 -24t-40 24q-9 14 -9 32z" />
<glyph unicode="&#x201d;" horiz-adv-x="452" d="M59 1511q0 12 3 25q8 33 33.5 56.5t51.5 23.5q28 0 41 -23q9 -15 9 -32q0 -4 -1 -9h1l-1 -4q-1 -6 -3 -12q-1 -6 -3 -11l-54 -213h-43l36 148q-10 -4 -21 -4q-28 0 -41 23q-8 15 -8 32zM256 1511q0 12 3 25q8 33 33.5 56.5t51.5 23.5q28 0 41 -23q9 -15 9 -32q0 -4 -1 -9 h1l-1 -4q-2 -6 -3 -12t-3 -11l-54 -213h-44l37 148q-10 -4 -21 -4q-28 0 -41 23q-8 15 -8 32z" />
<glyph unicode="&#x201e;" horiz-adv-x="436" d="M59 53q0 12 3 25q8 33 33.5 56.5t51.5 23.5q28 0 41 -23q9 -15 9 -32q0 -4 -1 -9h1l-1 -4q-1 -6 -3 -12q-1 -6 -3 -11l-54 -213h-43l36 148q-10 -4 -21 -4q-28 0 -41 23q-8 15 -8 32zM256 53q0 12 3 25q8 33 33.5 56.5t51.5 23.5q28 0 41 -23q9 -15 9 -32q0 -4 -1 -9h1 l-1 -4q-2 -6 -3 -12t-3 -11l-54 -213h-44l37 148q-10 -4 -21 -4q-28 0 -41 23q-8 15 -8 32z" />
<glyph unicode="&#x2022;" horiz-adv-x="1911" d="M55 473v20q163 45 214 106q54 78 127 78q102 0 102 -57q0 -18 -14 -35q16 -98 81 -98l-51 220l245 286h398l225 -286l-47 -220q92 31 92 98q-15 17 -15 35q0 57 102 57q76 0 154 -102q49 -41 188 -82q0 -20 -15 -20q0 -11 4 -17q-4 -24 -40 -31q-14 -2 -31 -2 q-32 0 -79 7q18 -14 99 -14q16 3 27 3q12 0 20 -3q0 -40 -149 -62l-92 6q84 -41 139 -41h31v-5q-38 -51 -139 -51q-51 0 -117 26q0 -32 117 -72q0 -20 -55 -26q-32 0 -139 47q0 -25 51 -67q-3 -2 -12 -2q-26 0 -100 22l16 -45l-20 -6q-28 0 -98 77l-45 -214h-541l-61 214 q-54 -68 -88 -77l-20 6l10 45q-63 -30 -96 -30l-11 16q46 27 46 55v6q-94 -47 -137 -47q-51 6 -51 26q112 38 112 70v2q-53 -26 -112 -26h-21q-80 0 -118 51v5h31q55 0 96.5 12.5t41.5 28.5l-102 -6q-138 25 -138 62l10 5l36 -5q34 -2 59 -2q49 0 59 6q-62 4 -113 8t-56 24 l5 15zM786 419q35 -53 72 -53q17 0 35 11q54 34 87 44q-33 8 -37 17t-4 13v118q0 29 37 56q12 -27 31 -130q4 -22 4 -45q0 -85 -53 -182q83 73 129 145q37 58 37 113q0 12 -1 25q-10 66 -20 100q-11 35 -19 78l-118 -43q-12 -6 -27 -12v2q-4 51 -22 53q-39 -27 -129 -70 q35 -10 35 -32v-184q0 -4 -8 -9t-29 -15z" />
<glyph unicode="&#x2026;" horiz-adv-x="1864" d="M59 53q0 12 3 25q9 33 34 56.5t52 23.5q28 0 40 -23q9 -15 9 -32q0 -12 -3 -25q-9 -33 -34 -56.5t-52 -23.5q-28 0 -40 23q-9 15 -9 32zM742 53q0 12 3 25q9 33 34 56.5t52 23.5q28 0 40 -23q9 -15 9 -32q0 -12 -3 -25q-9 -33 -34 -56.5t-52 -23.5q-28 0 -40 23 q-9 15 -9 32zM1425 53q0 12 3 25q9 33 34 56.5t52 23.5q28 0 40 -23q9 -15 9 -32q0 -12 -3 -25q-9 -33 -34 -56.5t-52 -23.5q-28 0 -40 23q-9 15 -9 32z" />
<glyph unicode="&#x202f;" horiz-adv-x="389" />
<glyph unicode="&#x2039;" horiz-adv-x="250" d="M29 323l1 3l-1 2h2l142 321h48l-142 -323l142 -324h-48l-142 321h-2z" />
<glyph unicode="&#x203a;" horiz-adv-x="250" d="M29 2l142 324l-142 323h49l141 -321h2l-1 -2l1 -3h-2l-141 -321h-49z" />
<glyph unicode="&#x205f;" horiz-adv-x="486" />
<glyph unicode="&#x25fc;" horiz-adv-x="735" d="M0 0v735h735v-735h-735z" />
</font>
</defs>
</svg>
