<?xml version="1.0" standalone="no"?>
<!DOCTYPE svg PUBLIC "-//W3C//DTD SVG 1.1//EN" "http://www.w3.org/Graphics/SVG/1.1/DTD/svg11.dtd" >
<svg xmlns="http://www.w3.org/2000/svg" xmlns:xlink="http://www.w3.org/1999/xlink" version="1.1">
<metadata></metadata>
<defs>
<font id="da_streetsregular" horiz-adv-x="1014" >
<font-face units-per-em="2048" ascent="1638" descent="-410" />
<missing-glyph horiz-adv-x="508" />
<glyph horiz-adv-x="0" />
<glyph unicode="&#xd;" horiz-adv-x="508" />
<glyph unicode=" "  horiz-adv-x="508" />
<glyph unicode="&#x09;" horiz-adv-x="508" />
<glyph unicode="&#xa0;" horiz-adv-x="508" />
<glyph unicode="!" horiz-adv-x="672" d="M207 136q0 15 16 31l82 84q15 14 29 14q13 0 31 -16l80 -86q12 -16 12 -29q0 -15 -14 -31l-80 -88q-20 -20 -29 -20q-16 0 -29 14l-88 101q-10 13 -10 26zM264 1364q0 46 21 69t62 23q42 0 62.5 -23t20.5 -69l-80 -1036h-37z" />
<glyph unicode="&#x22;" horiz-adv-x="672" d="M101 1500q0 37 20.5 57t59.5 20t60.5 -19.5t21.5 -56.5q0 -8 -4 -34l-62 -359h-30l-62 359q-4 23 -4 33zM413 1500q0 37 20.5 57t59.5 20t60.5 -19.5t21.5 -56.5q0 -8 -4 -34l-62 -359h-30l-62 359q-4 23 -4 33z" />
<glyph unicode="#" horiz-adv-x="1336" d="M117 472l30 98h271l86 290h-295l29 97h295l140 477h93l-141 -477h242l142 477h92l-141 -477h259l-29 -97h-259l-83 -290h279l-30 -98h-280l-140 -472h-92l139 472h-240l-142 -472h-92l140 472h-273zM511 569h242l86 290h-243z" />
<glyph unicode="$" d="M113 1079q0 166 125 271q105 88 266 102v100h73v-102q68 -8 141 -35q10 -6 19 -6q25 0 41 45h50l103 -282h-49q-60 134 -168 179q-74 30 -137 39v-540q241 -93 322.5 -183t81.5 -264q0 -197 -119.5 -300t-284.5 -120v-239h-73v237q-188 3 -266 38q-10 6 -19 6 q-25 0 -41 -45h-50v331h49q50 -183 152.5 -226t174.5 -43v635q-214 67 -299 153q-92 91 -92 249zM219 1139q0 -98 55 -153q52 -54 230 -113v520q-119 -5 -199 -72q-86 -73 -86 -182zM577 45q125 17 211.5 96t86.5 219q0 116 -69 183q-62 59 -229 112v-610z" />
<glyph unicode="%" horiz-adv-x="1610" d="M62 1080q0 100 52 190.5t144.5 139.5t190.5 49t190.5 -49t144.5 -139.5t52 -190.5q0 -99 -50.5 -188.5t-143 -140t-193.5 -50.5q-100 0 -192.5 50.5t-143.5 140t-51 188.5zM202 1128q0 -31 4 -62q13 -92 55.5 -173.5t106.5 -124.5q57 -40 114 -40q7 0 13 1q63 3 115 53 t73 136q13 54 13 111q0 32 -4 65q-12 93 -56 175.5t-107 124.5q-58 38 -115 38h-11q-61 -3 -113 -52t-73 -135q-15 -58 -15 -117zM297 -29l940 1461h84l-938 -1461h-86zM774 359q0 99 52 189.5t144.5 140t190.5 49.5q97 0 190 -49.5t145 -140t52 -189.5q0 -100 -50.5 -189.5 t-143 -139.5t-193.5 -50t-193 50t-143 139.5t-51 189.5zM914 406q0 -31 4 -62q13 -92 55.5 -173.5t106.5 -124.5q59 -39 116 -39h11q63 3 115 53t73 136q13 54 13 111q0 32 -4 65q-12 93 -56 175.5t-107 124.5q-58 38 -115 38h-11q-61 -3 -113 -52t-73 -135 q-15 -58 -15 -117z" />
<glyph unicode="&#x26;" horiz-adv-x="1683" d="M152 520q0 161 76 266.5t225 151.5q-42 61 -62.5 116t-20.5 111q0 105 77 197t182 92q68 0 142 -39q9 -6 18 -6q23 0 38 45h46l96 -281h-46q-55 133 -155 178q-85 37 -141 37q-65 0 -106 -45.5t-41 -117.5q0 -131 102 -267l531 -670q98 146 121 244q17 78 17 130 q0 97 -62 97h-90v50h443v-50h-90q-95 0 -145 -227q-31 -132 -155 -292q109 -136 248 -136h16q143 17 192 128l49 -1l-103 -231h-160q-56 0 -139 25t-167 132q-67 -74 -175 -123.5t-241 -49.5q-229 0 -374.5 150.5t-145.5 385.5zM256 589q0 -91 35.5 -181.5t101.5 -164.5 q72 -83 165 -127t194 -44q88 0 169 33.5t130 90.5l-554 683q-118 0 -179.5 -86t-61.5 -204z" />
<glyph unicode="'" horiz-adv-x="346" d="M101 1500q0 37 20.5 57t59.5 20t60.5 -19.5t21.5 -56.5q0 -8 -4 -34l-62 -359h-30l-62 359q-4 23 -4 33z" />
<glyph unicode="(" horiz-adv-x="758" d="M252 601q2 277 99.5 530t268.5 442h80q-172 -242 -230 -438q-57 -193 -57 -523v-22q0 -330 57 -522q58 -196 230 -438h-80q-171 189 -268.5 441.5t-99.5 529.5z" />
<glyph unicode=")" horiz-adv-x="758" d="M58 -370q172 242 230 438q57 192 57 522v22q0 330 -57 523q-58 196 -230 438h80q171 -189 268.5 -442t99.5 -530q-2 -277 -99.5 -529.5t-268.5 -441.5h-80z" />
<glyph unicode="*" horiz-adv-x="1024" d="M218 1333q0 17 6 36q11 35 36 53q17 12 34 12q9 0 18 -3q20 -6 74 -62q47 -49 112 -75q-4 71 -37 130q-37 66 -37 84q0 32 23.5 51.5t62.5 19.5q37 0 61.5 -18t24.5 -47q0 -21 -36 -89q-33 -61 -37 -130q66 25 113 75q51 55 69 61q11 3 21 3q18 0 35 -10q26 -17 38 -53 q6 -19 6 -36q0 -15 -4 -28q-10 -30 -38 -38q-6 -2 -19 -2q-25 0 -76 9q-28 5 -55 5q-41 0 -81 -11q44 -55 105 -83q68 -32 79 -47q13 -18 13 -38q0 -9 -2 -17q-8 -30 -39 -53q-29 -22 -59 -22q-1 0 -1 1q-31 0 -48 23q-12 17 -22 94q-10 67 -47 125q-38 -58 -46 -124 q-9 -75 -20 -90q-19 -25 -49 -27h-5q-28 0 -57 21q-30 21 -39 51q-4 10 -4 20q0 17 11 32q13 17 83 51q61 29 105 82q-41 11 -80 11q-27 0 -53 -5q-54 -11 -78 -11q-9 0 -14 2q-30 9 -41 38q-6 13 -6 29z" />
<glyph unicode="+" d="M87 647v140h350v369l1 1h139v-370h349l1 -1v-139h-350v-370h-140v370h-350z" />
<glyph unicode="," horiz-adv-x="557" d="M119 91v42l119 125q44 0 88.5 -65.5t44.5 -151.5q0 -109 -71 -226.5t-139 -117.5v43q73 43 87 190q0 119 -129 161z" />
<glyph unicode="-" horiz-adv-x="670" d="M116 437v83q0 29 41 29h356q41 0 41 -29v-83q0 -28 -40 -28h-358q-40 0 -40 28z" />
<glyph unicode="." horiz-adv-x="557" d="M129 136q0 15 16 31l82 84q15 14 29 14q13 0 31 -16l80 -86q12 -16 12 -29q0 -15 -14 -31l-80 -88q-20 -20 -29 -20q-16 0 -29 14l-88 101q-10 13 -10 26z" />
<glyph unicode="/" horiz-adv-x="569" d="M13 -50l541 1484h80l-541 -1484h-80z" />
<glyph unicode="0" d="M77 717q0 194 57.5 372t160.5 274t212 96q108 0 211 -96t161 -274t58 -372t-56.5 -370t-159 -274t-214.5 -98t-214.5 98t-159 274t-56.5 370zM232 814q0 -62 5 -125q14 -180 61.5 -340t118.5 -244q65 -78 129 -78q6 0 12 1q70 7 127.5 104.5t81.5 265.5q15 107 15 220 q0 62 -5 126q-14 181 -62.5 343t-119.5 244q-65 76 -128 76q-6 0 -11 -1q-68 -7 -126 -102.5t-82 -264.5q-16 -110 -16 -225z" />
<glyph unicode="1" d="M218 1208v50q292 63 327 176h50v-1149q0 -235 103 -235h96v-50h-560v50h96q103 0 103 235v794q0 129 -117 129h-98z" />
<glyph unicode="2" d="M114 0l1 50q607 675 607 986q0 148 -86 245t-186 97q-170 0 -275 -131h-22v49q39 50 115 104t185 54q183 0 306.5 -121t123.5 -297q0 -262 -627 -916h422q130 0 209 112h49l-103 -232h-719z" />
<glyph unicode="3" d="M83 105v100h49q0 -83 86 -133t217 -50q151 0 218 116.5t67 280.5q0 104 -44.5 205.5t-176.5 148.5v19q81 45 144 120.5t63 209.5q0 110 -55 189.5t-166 92.5q-68 0 -123.5 -45t-55.5 -111h-42v159q0 20 73.5 33.5t155.5 13.5q155 0 257 -84t102 -249q0 -87 -61 -166 t-193 -139q93 -14 195 -134.5t102 -278.5q0 -163 -144 -294t-325 -131q-152 0 -247.5 39t-95.5 88z" />
<glyph unicode="4" d="M43 338v35l660 1061h34v-996h19q133 0 193 132h49l-103 -232h-158v-171q0 -117 72 -117h76v-50h-442v50h76q81 0 81 120v168h-557zM176 438h424v686z" />
<glyph unicode="5" d="M77 99v106h46q0 -88 86 -135.5t217 -47.5q151 0 217.5 116.5t66.5 347.5q0 159 -110 265t-285 106q-40 0 -86 -5l144 582h396q103 0 112 52h50l-63 -172h-429l-104 -415q226 0 388 -124.5t162 -300.5q0 -234 -143.5 -365t-324.5 -131q-152 0 -248 39q-92 37 -92 82z" />
<glyph unicode="6" d="M77 510q0 320 209 634.5t515 314.5v-48q-177 -12 -326.5 -179.5t-233.5 -467.5q96 93 266 93q108 0 211 -57t161 -162.5t58 -221.5t-56.5 -220.5t-144 -162.5t-169.5 -58q-243 0 -366.5 162.5t-123.5 372.5zM232 469q0 -153 95.5 -305.5t230.5 -152.5q101 0 163 98.5 t62 247.5q0 203 -100 333.5t-216 130.5q-91 0 -163 -101.5t-72 -250.5z" />
<glyph unicode="7" d="M96 1202l103 232h719l-1 -50q-370 -866 -370 -1205q0 -129 67 -129h117v-50h-411v50h67q72 0 72 131q19 296 278 1133h-399q-133 0 -192 -112h-50z" />
<glyph unicode="8" d="M77 403q0 112 57.5 214.5t160.5 158.5q41 21 82 35q-24 9 -48 21q-86 44 -133 123t-47 166t48 167t133.5 123t176.5 43q90 0 176 -43t134 -123t48 -167t-47 -166t-132 -123q-25 -13 -50 -21q42 -14 82 -35q103 -56 161 -158.5t58 -214.5t-56.5 -213.5t-159 -158 t-214.5 -56.5t-214.5 56.5t-159 158t-56.5 213.5zM235 422q0 -18 2 -35q14 -104 61.5 -196.5t118.5 -140.5q64 -44 128 -44h13q70 4 127.5 60t81.5 153q15 62 15 127q0 36 -5 73q-11 112 -73.5 212.5t-231.5 153.5q-114 -21 -181 -157q-56 -115 -56 -206zM278 1165 q0 -28 4 -57q12 -80 51.5 -152t218.5 -126q121 25 156 124q27 75 27 140q0 20 -3 39q-12 81 -52.5 154t-99.5 110q-55 33 -106 33h-9q-57 -3 -105.5 -46t-68.5 -119q-13 -49 -13 -100z" />
<glyph unicode="9" d="M77 1018q0 116 56.5 220.5t144 162.5t169.5 58q243 0 366.5 -162.5t123.5 -372.5q0 -320 -209 -634.5t-515 -314.5v48q177 12 326.5 179.5t233.5 467.5q-95 -93 -266 -93q-108 0 -211 57t-161 162.5t-58 221.5zM232 1077q0 -203 100 -333.5t215 -130.5q91 0 163.5 101.5 t72.5 250.5q0 153 -96 305.5t-231 152.5q-101 0 -162.5 -98.5t-61.5 -247.5z" />
<glyph unicode=":" horiz-adv-x="557" d="M129 136q0 15 16 31l82 84q15 14 29 14q13 0 31 -16l80 -86q12 -16 12 -29q0 -15 -14 -31l-80 -88q-20 -20 -29 -20q-16 0 -29 14l-88 101q-10 13 -10 26zM129 829q0 15 16 31l82 84q15 14 29 14q13 0 31 -16l80 -86q12 -16 12 -29q0 -15 -14 -31l-80 -88 q-20 -20 -29 -20q-16 0 -29 14l-88 101q-10 13 -10 26z" />
<glyph unicode=";" horiz-adv-x="557" d="M119 91v42l119 125q44 0 88.5 -65.5t44.5 -151.5q0 -109 -71 -226.5t-139 -117.5v43q73 43 87 190q0 119 -129 161zM129 828q0 15 16 31l82 84q15 14 29 14q13 0 31 -16l80 -86q12 -16 12 -29q0 -15 -14 -31l-80 -88q-20 -20 -29 -20q-16 0 -29 14l-88 101q-10 13 -10 26 z" />
<glyph unicode="&#x3c;" d="M87 674v83l840 484v-167l-625 -359l625 -355v-167z" />
<glyph unicode="=" d="M87 491v140h840v-140h-840zM87 803v140h840v-140h-840z" />
<glyph unicode="&#x3e;" d="M87 193v167l625 355l-625 359v167l840 -484v-83z" />
<glyph unicode="?" horiz-adv-x="748" d="M132 1266v64q128 104 242 104q132 0 212 -68t80 -182q0 -69 -32.5 -140t-124.5 -186q-90 -113 -141.5 -187.5t-51.5 -142.5q0 -63 35 -189h-47q-50 138 -50 211q0 109 116.5 312t116.5 309q0 82 -47 129t-130 47q-84 0 -178 -81zM207 136q0 15 16 31l82 84q15 14 29 14 q13 0 31 -16l80 -86q12 -16 12 -29q0 -15 -14 -31l-80 -88q-20 -20 -29 -20q-16 0 -29 14l-88 101q-10 13 -10 26z" />
<glyph unicode="@" horiz-adv-x="2019" d="M100 508q0 242 124 464.5t345.5 342t456.5 119.5q362 0 609 -230t247 -566q0 -270 -176 -439q-175 -168 -346 -170q-63 1 -100.5 18t-61.5 54q-29 -37 -82 -64.5t-133 -27.5q-144 0 -256.5 100.5t-112.5 233.5q1 87 53 166.5t132.5 115t173.5 49.5q67 16 110 42.5 t43 74.5q-2 69 -41 125t-129 56q-72 0 -121.5 -59t-50.5 -125h-45v159q0 20 72 40q73 20 178 20q109 -2 193.5 -64.5t84.5 -157.5v-589q0 -117 94 -117q185 35 267 191.5t82 382.5q-20 335 -232 540q-197 188 -480 188q-205 0 -392.5 -137.5t-269.5 -355.5 q-67 -178 -67 -361q0 -313 129.5 -511.5t305 -290.5t318.5 -92q274 0 575 208v-75q-263 -184 -571 -184q-240 0 -461 122.5t-343 342t-122 461.5zM753 343q0 -107 64 -194t183 -87q97 5 126 167v476q-54 -63 -154 -83q-83 -10 -151 -80t-68 -199z" />
<glyph unicode="A" horiz-adv-x="916" d="M-131 164v5q105 253 194 393q0 7 108 179q36 90 86 143q52 73 92 143q39 74 123 159q74 117 179 214q0 19 61 36q8 0 16 -15v-5l-6 -26q31 0 31 -10q-4 -21 -10 -21q0 -7 56 -81q26 -37 51 -225v-67h5q169 93 241 113v-5l10 5h10q46 -20 46 -26l-41 -51q-50 -30 -66 -56 h5l51 36h10q-20 -31 -36 -31l5 -10v-5q-12 0 -56 -51q-51 -33 -51 -36q5 -10 5 -16l-25 -15l5 -10v-5q-8 0 -21 -10h-5q-5 0 -5 5q-17 0 -25 -36l20 10l5 -10q-148 -78 -148 -118q0 -35 -10 -35q0 -6 5 -16q-5 -64 -5 -76q5 -64 5 -72q-21 -61 -26 -215l5 -10q-5 -36 -5 -61 q0 -56 21 -164l-21 -15q-107 22 -107 107q-10 22 -15 154h5l-5 10v36q0 5 5 5q0 5 -5 5q5 160 15 255q-106 -64 -113 -76q0 -12 -91 -46q0 -9 -31 -21q-10 5 -15 5q-21 -26 -113 -71q0 -7 -71 -15q-90 -194 -103 -195q-15 0 -56 -102q-20 -31 -25 -31h-6q-158 94 -158 144z M421 741h5q19 12 61 97l11 -5l-46 -77h5q178 89 214 123l-5 10v31q21 12 21 128v15q0 12 -5 20l5 11l-5 30q0 5 5 5q-5 6 -5 41q-7 -1 -46 -66q5 -10 5 -15l-16 -26v-10q16 0 16 20h10v-5q-92 -128 -92 -143q-31 -42 -31 -51h-10v5q0 3 36 56v5q-44 -47 -133 -199zM656 1083 v16h10v-5q0 -11 -10 -11zM952 848h16l5 11h-5q-10 -6 -16 -6v-5z" />
<glyph unicode="B" horiz-adv-x="1193" d="M0 146q0 7 58 107q0 29 64 132l-5 9q39 90 58 112q20 28 93 210q64 107 87 131q5 9 5 15q-10 0 -10 9v5q15 14 39 112q54 85 54 127q0 21 49 214v19q-20 0 -20 15v10q0 42 419 58q163 -18 214 -58q78 -44 141 -137v-5q-5 0 -5 -4q10 -2 10 -10q-5 -10 -5 -15q5 -9 5 -14 q-13 0 -24 -64q-57 -103 -117 -141q-153 -124 -180 -156q5 -9 5 -14q-49 -33 -73 -59v-4l38 24q0 -5 5 -5q0 -26 -53 -53v-5q80 -17 160 -73q103 -89 103 -137v-9q-31 -74 -93 -112q-21 -15 -87 -34v4l-10 -4l-10 4q-19 -24 -141 -102v-5h10q5 15 29 15v-15 q-40 -35 -102 -63l-20 -19v-5h10v-10q-313 -146 -409 -146q-19 0 -53 29q-85 24 -88 34q-16 16 -63 25q-16 -10 -30 -10q0 21 -53 39zM107 336q10 0 10 10v4q-10 -1 -10 -9v-5zM277 185h5q387 164 575 341q39 43 39 48h-5q-152 0 -268 -48h-19q-9 0 -59 34l-10 -5h-9 q-4 0 -25 24l-9 -5h-15q-16 -49 -63 -126q-72 -178 -137 -263zM365 307v5q2 9 10 9h5q-5 -9 -5 -14h-10zM569 774h10q212 138 399 302q98 101 98 180v19q-6 17 -30 29q-56 -6 -63 -14h-14l-10 5q0 -29 -97 -29q-98 -10 -98 -25q0 -101 -107 -321q-21 -19 -88 -146zM701 204 h5q53 23 53 30h-5q-53 -21 -53 -30zM813 258q0 7 14 15h5v-5q0 -10 -9 -10h-10z" />
<glyph unicode="C" horiz-adv-x="1040" d="M0 338q44 193 149 320q139 188 166 206q82 97 120 109q0 52 252 252q48 40 80 57l-6 12q138 131 195 137l-6 -11h6q37 11 51 11h6q69 -9 166 -109q46 -58 46 -86q0 -20 -178 -114q-183 -133 -309 -241q-412 -380 -463 -646h5q36 0 126 45l12 -5q15 17 183 86h11v-6 q0 -12 -17 -12v-11q71 37 138 57q0 20 40 23q40 -8 40 -17q19 11 34 11q13 0 34 -40q35 -11 35 -23q0 -11 -17 -11v-11q0 -10 40 -23v-12l-12 -17q17 0 17 -11q-61 -29 -183 -115q-91 -38 -177 -91q-40 -35 -80 -35q-58 -17 -126 -17q-92 0 -166 69q-48 59 -109 86 q-103 95 -103 183z" />
<glyph unicode="D" horiz-adv-x="1352" d="M0 169l90 111q10 -5 16 -5q40 49 74 159q44 79 74 79q162 261 190 360v5q-10 0 -10 11q0 5 5 5q-5 11 -5 16q49 123 116 228q0 26 21 26q0 44 53 132q46 138 96 138h5q5 0 5 -5l11 5q120 -58 159 -58q237 -32 381 -95q80 -41 169 -133q111 -113 111 -201v-10 q0 -138 -175 -276q-63 -84 -116 -100q0 -9 -37 -27q0 -14 -27 -26q-5 0 -5 5q-122 -72 -122 -84q-80 -70 -164 -117l-142 -74l-90 -69q-278 -169 -307 -169h-6q-12 11 -21 11l-26 -6q-6 11 -6 16v16q-9 0 -26 32q-14 0 -42 10q-11 -21 -27 -21l-26 5q0 -10 -11 -10h-5 q-23 36 -58 63l-11 -5h-16q-18 21 -37 21h-21q0 8 -37 37zM397 296q33 14 122 80q122 69 439 270v5h-6l-10 -5l-5 10q12 0 111 95q35 22 137 112q28 0 106 169q11 40 11 74q0 12 -148 42q-101 25 -270 37l-37 21q-122 -367 -450 -904v-6z" />
<glyph unicode="E" horiz-adv-x="727" d="M-276 212q25 4 150 163q25 0 181 225q176 284 238 431q12 44 50 81q-7 12 -7 19q42 42 100 219l13 6h6q44 -42 81 -106q330 109 669 181q12 -23 12 -50v-6q-17 -59 -37 -69q-137 -69 -525 -187q-81 -36 -81 -50q0 -4 -69 -182h6q239 69 325 69h25q0 -11 19 -31 q0 -100 -81 -100q-33 -30 -369 -131q-14 -11 -50 -82q-28 0 -69 -106q-47 -61 -93 -106h6l219 62q0 -9 18 -18q54 6 82 6q38 -24 62 -94v-6q-52 -57 -187 -113v-6h12q8 0 75 25l6 -12q-90 -57 -218 -94q-27 0 -332 -125q-21 -19 -68 -25q0 11 -69 56q0 23 -44 63 q-56 59 -56 93zM186 394h7q12 0 12 12v6h-6q-13 -2 -13 -12v-6zM393 219h18v12q-12 -6 -18 -6v-6z" />
<glyph unicode="F" horiz-adv-x="967" d="M-175 141q40 100 301 429q34 63 90 102q125 164 224 365v13l-26 70q90 36 90 90q0 15 51 19q27 -8 64 -32q136 43 416 160q253 71 320 71q0 6 6 6h7q13 -2 13 -13l44 7h7l13 -7q-7 -64 -20 -64l7 -13q0 -48 -199 -96q-438 -153 -569 -230q0 -13 -7 -13q13 -23 13 -51 q0 -55 -102 -192v-7q416 167 505 167v-7l13 7h19q13 -2 13 -13q-50 -134 -102 -134q-205 -109 -576 -269q-46 -39 -109 -51l-13 6h-19q6 12 6 19h-6q-68 -65 -122 -160q-194 -258 -205 -314l-13 -6h-6q-128 103 -128 141z" />
<glyph unicode="G" horiz-adv-x="952" d="M0 355v90q18 0 43 123q137 366 302 582q135 166 237 222q105 62 142 62h10q40 0 56 -57q11 0 24 -47q7 0 14 -14q-92 -63 -99 -76h-10v-10h10q17 15 33 15v-5q0 -6 -80 -62q0 -19 -100 -104q-167 -180 -251 -364q0 -14 -61 -85v-5h-10v14h-9q-100 -241 -100 -355v-33 q0 -91 76 -118q42 -6 52 -10l62 33q74 98 123 223q38 137 47 151v5h-9q-15 -14 -81 -38q-22 0 -123 90v19q22 29 180 90q55 33 142 61q233 115 383 171q55 14 71 14q10 -17 10 -38v-9q0 -27 -48 -52q0 -15 -66 -38q-100 -52 -128 -95q-64 -50 -179 -94v-19l4 -29 q-73 -280 -137 -397q-89 -166 -185 -166q-131 0 -283 151q-62 119 -62 204z" />
<glyph unicode="H" horiz-adv-x="931" d="M-165 81q67 124 156 357q48 120 55 121q0 -6 5 -6l5 11l-5 35q36 32 36 70q11 3 65 161q27 0 111 282q45 89 75 171q0 11 86 116h25q61 -48 116 -166q5 0 5 -5q-111 -192 -192 -438q0 -8 -35 -60q-5 -10 -5 -16q14 0 337 187q116 47 116 90q106 236 151 368q31 65 60 65 q20 10 36 10q25 0 60 -55l-5 -46q10 -1 10 -10q0 -18 -30 -50v-10l15 10h10v-10q-36 -49 -81 -191q-18 -51 -25 -51h-5v5l15 51v5q-8 -4 -100 -201q-24 -26 -126 -262q-34 -66 -45 -71q0 5 -5 5l-5 -10v-5h10v-5l-5 -10l-10 5h-6l-5 -35l5 -10q-16 -45 -35 -45l5 -25 q-33 -74 -55 -81l-45 -136l5 -10q0 -43 -30 -60h-6q-67 19 -105 75q79 232 231 539v5q-224 -176 -256 -176q-119 -66 -171 -66l-36 10h-5v-10h-10l5 10v10q-30 -55 -55 -141h-5q0 5 -5 5q-43 -108 -91 -181q-76 -202 -85 -206q-44 0 -126 81z" />
<glyph unicode="I" horiz-adv-x="703" d="M-75 114q8 12 150 90q0 18 41 73q68 125 68 132q16 0 50 82q13 10 41 91l118 254q0 25 27 27q0 11 -4 19q15 16 72 150v4h-4q-108 -61 -109 -73q-52 -31 -64 -31q-71 43 -104 131q5 0 22 32q263 187 478 259l181 68h9q0 -9 -13 -9v-4h13q14 9 55 18v-5q15 9 23 9 q5 -6 45 -22l5 -23q-9 -1 -9 -9v-9h9v-9l-14 -18h18v-10q-15 -4 -122 -68q-41 -11 -41 -22v-9h9l63 27l5 -9l-241 -109h-4v-9l68 22q0 -10 -59 -32q0 -29 -46 -109q-45 -144 -163 -422h-5l-9 4v-22h-5l5 -10q-20 -8 -68 -131q-5 0 -23 -28l5 -9q-18 -27 -28 -27v-9h9 q0 8 91 50q61 41 128 55q45 -47 45 -64q-23 -29 -23 -36q5 -9 5 -14q-80 -43 -109 -77l-127 -82q-53 -39 -187 -109v-5h5q105 59 113 59v-4q0 -14 -109 -59q-26 -46 -36 -46q-15 9 -23 9q0 -9 -32 -18q0 7 -13 14q-42 -23 -82 -32h-5q-95 86 -95 114zM116 32h9q18 7 18 13 h-9q-11 -9 -18 -9v-4zM902 1422v9q2 0 18 5v-5q0 -9 -9 -9h-9z" />
<glyph unicode="J" horiz-adv-x="864" d="M0 911v4l251 90q67 23 182 91q-4 0 -4 4l8 4v-8q18 19 82 45l17 -4q93 25 160 66h9l-4 8l8 5l4 -9q58 9 58 29h12q0 -8 4 -8q135 54 165 70v4l20 -4q32 23 108 37q23 17 119 37l8 -4q58 33 70 33q2 -8 9 -8q4 16 24 16h5l8 -4q0 9 103 29h12q27 0 54 -12l-4 -21v-4l8 4h4 q6 0 12 -12v-4l-16 -33v-5h8l21 5l4 -9q-10 -20 -21 -20l13 -17q-61 -39 -206 -82q-147 -50 -252 -95v-8q101 41 107 41v-4q0 -8 -29 -17q0 5 -4 5q-38 -35 -284 -112q-8 -1 -8 -8v-4l37 -54l-4 -8l4 -8q-16 -69 -66 -177h-4l-8 4l-124 -268q-55 -124 -132 -256h-8v5l12 20 v13h-8q0 -13 -33 -66v-9l12 9h13v-4q0 -27 -74 -128v4l4 21q-39 -64 -54 -79v-4q17 -17 17 -33l-9 -4q-12 0 -66 25l-20 -4q-129 93 -182 239q-72 109 -123 131v5q8 0 8 8q-8 0 -8 8v4q0 6 12 13h4q101 -20 272 -235q5 19 37 82l-16 -16v12q47 98 66 124h4v-13h8q0 18 33 70 q-4 0 -4 4q6 0 12 13v12l-12 -8v4l8 16l9 -4q5 0 12 13v4h-4l-13 -8l-4 8l21 25v-9h8v9h-8q2 24 12 24l8 -4q0 13 25 46q0 16 46 98q-5 0 -5 5q17 24 66 152q4 3 37 54v8q-8 10 -8 16q4 6 4 21q-483 -202 -544 -202q-45 35 -57 74q-17 0 -25 25q-33 0 -33 62zM503 202 q8 0 8 8v4q-8 -1 -8 -8v-4zM828 1034h4q9 0 9 9h-13v-9z" />
<glyph unicode="K" horiz-adv-x="931" d="M0 59q0 13 34 74q0 13 30 79l-5 10q77 172 113 286l-9 -5h-10q-10 0 -10 10q8 0 20 19q-44 0 -74 10h-35q-21 40 -29 40q-21 0 -25 39q41 32 182 103q94 38 94 109q44 160 84 276h10v-10h5l4 25v5q-5 0 -14 4q5 10 5 15h9v-15h5q35 173 40 257q-5 9 -5 15q11 30 29 34 q97 0 203 -128v-44q-36 -188 -50 -188q-27 -118 -44 -133v-5h5q293 184 483 281l64 40h10q10 0 10 -20h9q18 15 35 15q74 0 74 -59q-28 -26 -173 -104v-5h10v-5q-187 -111 -266 -153l-10 -14q5 0 5 -5q-6 0 -153 -94q-44 -13 -98 -79q-45 -18 -45 -29q12 0 25 -25 q164 -135 232 -370q-5 -8 -5 -19q18 0 49 -163l-25 5q0 -5 -5 -15l-19 10q0 -5 -5 -5l5 -10v-5h-5q-24 25 -40 25l-19 20l-10 -5q-37 0 -54 98q-79 174 -193 375q-17 0 -88 -237q-12 -34 -20 -34h-5v10l44 108q0 5 -4 5l49 177l-10 5q-89 -297 -182 -532q-24 -78 -35 -84 l-10 -39h-15q-8 0 -44 15q0 -8 -20 -20h-5q-27 39 -59 39q-3 11 -44 20zM310 276l5 25h10l-5 -25h-10zM310 862q10 0 10 10v5h-10v-15zM330 325v20h10v-10q0 -10 -10 -10zM355 1040q10 0 15 34h-10q0 -15 -5 -34z" />
<glyph unicode="L" horiz-adv-x="763" d="M0 91v5q0 26 15 45v5l-10 15v10q10 13 10 25h10q0 -13 -10 -30v-5h5q0 15 96 211l35 101q-14 0 -30 -55h-10v5q7 45 50 80q121 289 186 518q11 0 20 66l10 5l-5 10q41 120 81 302q19 25 55 25h15q80 -42 151 -116q0 -5 -5 -5l5 -10q-50 -178 -50 -201q-20 -50 -60 -186 q-23 0 -51 -121q-55 -167 -85 -211q-29 -86 -46 -86q0 10 -10 10q-24 -47 -35 -111l25 21l5 -10q-7 -1 -30 -61q-10 -20 -15 -20q0 5 -5 5l20 50v5h-5q-40 -98 -75 -161q-10 -20 -10 -30h5q129 40 357 86l121 30q5 0 65 -20h25v-15q10 -36 10 -41q0 -19 -221 -80 q-77 -52 -227 -96q0 -25 -75 -40q0 -10 -30 -15q-71 5 -121 5q0 14 -55 20q0 25 -31 25q0 -10 -10 -10q-18 32 -60 51zM35 231v5q2 11 10 11h5q-5 -10 -5 -16h-10zM55 277v15h10v-5q0 -10 -10 -10zM151 518v5q5 10 5 15h10v-5q-5 -9 -5 -15h-10z" />
<glyph unicode="M" horiz-adv-x="1243" d="M-171 77v5q14 13 67 144q223 421 273 556q12 0 36 62q5 0 5 5q-5 10 -5 16q31 21 82 190q-5 0 -5 5q34 44 51 196l21 31l-5 26v5h10v-11q10 0 10 11v10h-10v5q12 0 36 36l26 5q103 0 165 -92q41 -46 41 -52q-21 -50 -21 -72v-31q11 -12 21 -92q0 -6 -5 -6l5 -25v-47 q0 -18 -5 -46q5 -10 5 -15t-5 -5l5 -26v-222h10q66 155 402 572q42 36 108 118v16l-5 61q11 12 72 21q75 -43 87 -103q0 -3 -5 -21q0 -5 5 -5l-5 -25v-16q0 -175 -87 -401h-11v5l11 15q0 11 -11 11q-10 -45 -108 -314h10v-11h-5l-10 5q-190 -422 -190 -499v-5q5 -37 5 -41 q-7 -26 -16 -26q-118 40 -118 46l-10 16v10q0 5 5 5l-5 11v20q44 151 216 546q74 173 134 386v5q-142 -162 -206 -278q-79 -107 -175 -314q-43 -59 -67 -144l-11 -5h-30l-36 -5q0 26 -93 56q-9 103 -21 443q-5 0 -10 26q-14 0 -46 -72q-6 0 -57 -124l-87 -175h-11v10 q72 142 72 175l-87 -164q-10 -50 -93 -150q0 -8 -36 -72l10 5l6 -10q-44 -20 -124 -226h-10l-16 10h-15l-21 -16h-15q0 29 -36 42zM333 654h11q9 10 82 190l-10 5zM1049 1009h10q0 5 5 15v5h-5q0 -8 -10 -20zM1085 1050q10 0 10 10v6q-10 -2 -10 -11v-5zM1106 602v5 q7 21 15 21v-10q-5 -10 -5 -16h-10z" />
<glyph unicode="N" horiz-adv-x="982" d="M-114 68q0 57 245 565q99 217 148 308l-5 11q0 11 34 63q37 141 57 142q0 -5 6 -5l5 11q-17 0 -17 11v12h6l17 -12q0 11 11 40h-11q0 -22 -11 -22v17q45 155 57 211q20 11 45 11h23q39 0 120 -131v-69q27 0 62 -228q-11 -1 -11 -11v-194q0 -11 -11 -11h-17 q-35 -210 -40 -291v-6h5q100 335 240 627q76 166 91 166q44 23 57 23q68 -75 68 -109q6 0 6 -11q-55 -151 -80 -165l6 -12q-76 -132 -142 -319h-6l-17 11q-63 -202 -171 -507l-35 -160q-19 0 -28 -5q-143 40 -143 74q-34 86 -34 239v6q0 13 6 23q0 5 -6 5l46 405 q-9 -1 -57 -131l-12 -6l-5 12l34 85q0 21 11 34v6h-11q0 -37 -80 -171q-14 0 -34 -57v-17q-29 -19 -80 -143q-94 -211 -131 -273q-17 -41 -17 -52v-5l11 -17v-12q0 -26 -80 -34q0 26 -125 68zM325 1021q11 0 11 11v6q-11 -2 -11 -12v-5zM428 787h11l6 28h-12z" />
<glyph unicode="O" horiz-adv-x="918" d="M-106 286q0 101 73 286l9 4v-9q-72 -185 -72 -301q1 -9 9 -9q0 106 49 227q19 92 48 92q31 89 189 349q106 135 121 204l78 82h-5q-9 0 -116 -126h-5v10q60 84 271 295q0 15 58 39q50 0 126 -92h5q9 0 53 10q49 -16 121 -107q73 -101 73 -136q5 -30 5 -67l-5 -44l5 -10 q-24 -129 -44 -164l-9 4h-5q-5 -25 -5 -29l10 5h4v-5l-24 -29q10 -1 10 -9q0 -10 -10 -10v15q-14 0 -29 -68q5 0 5 -5q-10 -2 -10 -10q5 0 5 -5h-5l-9 5v-5l9 -14l-9 -5q0 5 -5 5l5 -10v-5h-5l-10 5q0 -10 -19 -29l5 -10q-21 -14 -92 -135q-11 0 -49 -73 q-118 -166 -276 -300q0 -34 -126 -87q-48 -15 -97 -15h-24q-77 0 -165 87q-47 18 -92 58l10 5q0 -7 19 -19h5q-58 42 -58 155zM59 174l5 -24q154 28 324 223q16 2 126 160q51 87 78 97q1 37 58 92q0 27 72 140q40 86 78 252q10 0 10 10v63q-54 33 -54 43l10 15q0 6 -44 19 q-114 -69 -310 -310q-265 -369 -290 -518q-58 -134 -63 -262zM897 722q6 24 14 24v-10q-5 -9 -5 -14h-9z" />
<glyph unicode="P" horiz-adv-x="1011" d="M-153 81l231 511q47 113 172 371q0 38 205 446q13 0 38 22h10q22 -20 70 -38q59 16 162 27q274 -28 274 -59q35 0 75 -97q6 -4 49 -75q0 -5 -6 -5q17 -44 17 -81v-16q-8 -51 -65 -119h-5v6l10 16v5h-5q-251 -258 -285 -258l-27 -32h5q92 63 92 75h5q11 -2 11 -11 q-62 -56 -248 -183q-16 -16 -102 -91q-143 -87 -210 -113v-5h11v-11q-60 0 -102 81h-27q0 -20 -32 -65q0 -40 -86 -172q0 -18 -81 -183q0 -27 -11 -27l-16 11l-27 -6zM320 689l11 -6h6l-6 11q6 0 119 81h5q8 -22 16 -22q0 3 38 38l-6 11q0 7 16 16l17 -11q32 11 32 38 q10 -6 16 -6v11l-5 11l10 5q11 -5 17 -5l-6 11v5q6 0 16 5q10 -5 22 -5v11h-16v10q269 259 269 286v5h-6q-144 -18 -269 -70q0 -5 -5 -5h-32q-43 23 -43 53h-11q0 -9 -124 -295q5 -11 5 -17l-64 -113l5 -10q-27 -29 -27 -43zM606 586h5q43 33 54 33v10h-16q0 -6 -43 -43z M675 635q87 57 87 64h-6l-81 -53v-11zM745 1146v11l33 5l5 -11l-11 -5h-27z" />
<glyph unicode="Q" horiz-adv-x="887" d="M-155 330q22 109 145 296q62 121 104 182q48 89 270 321q17 33 239 224q96 67 130 67q32 0 88 -36q102 -19 145 -57q99 -121 99 -198q0 -26 -16 -83v-10l11 -16q-64 -171 -120 -233q0 -25 -67 -104v-10l21 15h5v-5q-89 -140 -338 -369l-46 -41q60 -169 103 -400 q18 -19 37 -67l31 -26l-5 -26l5 -21q-38 0 -104 62l-10 -5q-21 1 -73 68q-35 6 -93 114q-26 66 -57 171q-35 -12 -63 -47q-17 0 -62 -31l-62 -15h-37q-67 0 -109 41h16v11q-187 125 -187 228zM37 91q2 -10 10 -10h6q0 10 -11 10h-5zM115 314h5q116 43 488 410 q216 276 260 426l10 5q0 -5 5 -5l-5 -10v-11h5q17 0 26 68v5q0 8 -21 21q-50 -2 -181 -109h5l36 26h11v-5q-287 -245 -390 -395q-43 -43 -181 -270zM811 989q1 -10 10 -10q7 23 21 41v6h-16q0 -32 -15 -32v-5zM842 1046q1 -10 10 -10l5 10h-15zM847 1067l10 -5q16 0 26 52 l-10 5zM852 730q5 -10 5 -16q9 0 37 62q5 0 15 21h-5zM894 735h5q10 0 10 10h-5q-10 -1 -10 -10zM914 761q11 0 11 10v5q-11 -1 -11 -10v-5zM920 823q11 0 15 26q-12 0 -15 -26zM951 885h10l52 120q-6 -1 -62 -120zM1029 1088q1 -11 10 -11v16h-10v-5z" />
<glyph unicode="R" horiz-adv-x="829" d="M-171 324q0 17 95 134l224 314q0 13 59 84q0 19 115 215q0 7 35 24v-10q-10 -16 -10 -24q8 9 134 244q-25 25 -25 44q19 27 75 60l10 -5q18 15 90 20l10 -5q18 10 39 10h10q12 0 20 -5q5 0 5 5q148 -16 209 -55q74 -51 105 -129q35 -74 35 -100q0 -68 -65 -124q0 5 -5 5 q10 16 10 30q-10 0 -60 -65q-132 -101 -144 -105v-10h10v-5q0 -10 -15 -10l5 -10q-104 -84 -120 -84q-104 -75 -104 -80h15v-10q-25 0 -130 -75h-10q0 -11 65 -104q105 -167 105 -194q33 -55 59 -140q55 -106 55 -119q0 -8 10 -20v-15h-5l-10 5q0 -5 -5 -15l-30 15 q-9 -5 -15 -5q0 18 -59 55l-224 428q-27 43 -45 45l-20 -10q-31 0 -55 55h-10q-118 -199 -274 -379h-5q-10 0 -10 10q45 44 45 50q-5 10 -5 15q7 0 15 15v5q-61 -70 -70 -70h-19q-26 20 -30 20l-30 -5q0 21 -40 55zM38 304q6 0 30 35v5q-30 -23 -30 -40zM73 329q7 0 15 15 h-5q-10 -2 -10 -10v-5zM78 354l10 -5q6 0 25 29v5h-5q0 -20 -15 -20h-5l10 15v5h-5q-10 0 -15 -29zM153 463h10q4 16 64 110h10l10 -5q0 7 10 20q-11 0 -20 5l-84 -125v-5zM173 468h5l9 20v5h-4q0 -9 -10 -25zM192 802h5q0 5 5 15v5h-5q0 -6 -5 -15v-5zM202 508q8 0 15 20v5 h-5q0 -8 -10 -20v-5zM441 836q26 6 55 65q195 114 264 184q106 93 120 160h-5l-50 -5l-10 5q-5 0 -5 -5l-35 5h-50v-10h-20l-35 -10q0 5 -5 5q-29 -32 -214 -369q-10 -16 -10 -25zM616 1115v10q1 10 10 10l5 -10zM651 1175v10q10 12 10 20h9v-5q-13 -25 -19 -25zM895 936 q21 30 44 30l5 -10l-44 -30z" />
<glyph unicode="S" horiz-adv-x="877" d="M-442 181v6q0 7 115 49q154 61 687 303q188 90 281 176l-17 10q-13 0 -44 -5q-324 87 -324 198q-47 14 -88 121q-33 20 -33 66v5q0 98 319 237q168 82 297 82h82q65 0 127 -88q0 -16 11 -71l-22 -17h-6q-13 11 -22 11q-37 -11 -104 -16q-6 0 -6 5l-27 -5h-50 q-126 -31 -126 -55h16v-6q-2 -10 -104 -49q-44 -28 -55 -28q-25 -36 -88 -55q-50 -38 -50 -55h6q126 -49 297 -99q159 -97 159 -170q44 -117 44 -126q0 -54 -88 -110h-11l-5 11q25 10 27 22h-5q-74 -52 -127 -72q-51 -52 -291 -148v-6q16 0 16 -11q-22 -11 -33 -11l-5 11h11 v6h-6q-22 -8 -22 -17h11v-11l-104 -44l6 -11q-29 -35 -77 -49v-6h5q22 11 39 11v-11q-12 0 -105 -55q-193 -82 -209 -82q-20 11 -44 11h-5q-10 -10 -66 -17q0 -5 -22 -16q-11 0 -11 11v5q0 10 82 33l11 22h-5q-40 -22 -99 -38q-26 7 -44 38q-44 0 -44 50q-32 41 -55 60z" />
<glyph unicode="T" horiz-adv-x="768" d="M-243 873v18q16 22 186 86q193 77 759 259q162 68 296 105l13 -10q178 50 209 69q9 -5 14 -5q19 9 136 41q5 -9 5 -14q13 0 13 5q59 0 59 -41q-8 -5 -13 -5q27 -17 27 -22v-5q-42 -32 -200 -82v-9h9l141 50l5 -9q-11 -9 -28 -9v-4l5 -10q-20 -12 -64 -22l-91 -37v-4h14 q9 4 14 4v-9q-74 -16 -87 -41q-55 -27 -113 -40q-63 -31 -132 -41q-38 -26 -91 -41q-161 -57 -168 -68q41 -52 41 -82q0 -10 -5 -18q5 -9 5 -14q-85 -190 -182 -318h-14l-68 -123h5l68 109h5q0 -25 -105 -200q-11 0 -73 -118l-77 -109h-4v5q127 201 127 209h-9 q-146 -246 -200 -323q-80 48 -105 77l-23 14v9q38 86 55 100l-5 9q0 25 69 100l-9 23q52 95 72 95q0 14 18 32q-9 0 -9 9q23 10 23 14q-4 9 -4 13q18 25 31 32l-4 9q32 62 36 64q9 -5 14 -5l9 14q-5 0 -5 4l-9 -4h-4v9q35 0 63 86q13 2 55 105q0 28 50 95l-5 9v5l5 9h-5 q-13 0 -91 -45q-12 0 -131 -41q-94 -28 -205 -82q-103 -36 -136 -46q-5 0 -5 5l-22 -5h-10q-7 0 -63 69q-42 27 -77 86q-5 0 -5 5zM184 332q9 4 14 4v23h-5zM979 1318h5q9 0 9 9h-4q-10 -1 -10 -9zM1229 1254q23 6 23 14h-9q-9 -5 -14 -5v-9z" />
<glyph unicode="U" horiz-adv-x="858" d="M-134 169v15q0 116 151 442q31 57 146 302q23 47 84 122q0 11 52 80q17 67 160 264l43 37l28 5h19q98 -82 108 -122q9 -2 9 -10v-5q-116 -126 -150 -216q-104 -175 -193 -311l-132 -292l-38 -94q-80 -164 -80 -207h5q132 48 334 315q230 271 339 471l156 236q0 14 18 14 l-4 9l47 47l4 -9q-4 0 -4 -5h4q84 88 132 151l5 -10q-6 -17 -24 -42h5q48 42 52 42l5 -9v-24q-57 -80 -57 -84v-5l10 5h4v-5l-23 -38h9l24 47q-5 9 -5 14l9 5l10 -5q14 18 23 43q-4 0 -4 5l9 4q9 -1 9 -9q-1 -10 -47 -75l5 -10l-47 -85q-18 -10 -33 -37l5 -10 q-70 -72 -137 -221q-50 -99 -80 -141v-5q24 11 24 38h9v-5q0 -28 -245 -353l-70 -80q-10 0 -10 9q25 19 179 222v4l-216 -263q-12 -3 -24 -33h5q46 51 52 51h4q10 -1 10 -9q-82 -116 -255 -259q0 -9 5 -9h10q-84 -71 -156 -71q-80 0 -150 56q-64 0 -137 113zM723 603h9 q0 6 76 113v4h-5zM874 805v10q1 9 9 9l5 -9zM892 843q5 9 5 14h10v-5q0 -9 -10 -9h-5zM977 1295l10 4l4 -9l-9 -5zM1020 1149q6 0 14 14v5q-7 0 -14 -14v-5zM1048 1210q9 0 9 9l-9 5v-14z" />
<glyph unicode="V" horiz-adv-x="1091" d="M0 180v11q26 0 62 168q23 0 61 146q-5 11 -5 17q38 62 73 314q11 64 11 241h6l-6 11q0 9 -6 202l-5 23h5q0 5 -5 5l5 39q0 7 -5 57q30 22 56 22q25 0 101 -90q78 -82 78 -129v-101q0 -12 6 -22l-6 -11q12 -41 17 -135q-5 -90 -11 -118q0 -5 6 -5q-8 -76 -12 -90 q0 -6 6 -6q-6 -67 -17 -95h6q415 409 454 409q10 13 51 40h5l-22 -28v-6q231 202 376 303h11q11 -6 17 -6q0 11 16 11l-5 12q0 13 39 28q17 -6 17 -11q42 28 62 28h5q11 -2 11 -12q0 -12 -5 -22q5 -11 5 -17h-11v11h-11v-11q13 0 22 -22q-11 -34 -22 -34l6 -11v-6 q-26 -32 -118 -106v-6q22 0 22 -11q-45 -66 -202 -202v-6l12 6h11v-6l-112 -101q-12 0 -12 11q96 72 96 79v11q-171 -151 -185 -151q-34 -25 -34 -45q-124 -90 -140 -135q-8 0 -28 -28v-5q26 23 50 39h6v-6q0 -7 -169 -168h-5v6q0 6 106 117h-11q0 -9 -112 -117v-12 q6 -11 6 -16q-21 -10 -96 -113q-68 -58 -123 -140q-11 0 -23 -17l6 -11q-107 -118 -107 -157h-5q-40 0 -124 62q-13 0 -50 28q-35 0 -101 90zM797 701h11q0 11 11 11v6h-6q-11 -6 -16 -6v-11zM858 1010h17v17q-8 0 -17 -17zM926 836q5 -11 5 -17h6v17h-11zM954 1116l11 6h11 q0 -8 -17 -17zM1055 1206l11 6l5 -12l-11 -5zM1307 1161q2 -11 11 -11l6 22h-17v-11z" />
<glyph unicode="W" horiz-adv-x="1352" d="M-65 156q110 323 138 369l24 17l-6 12l17 23v6l-6 29q17 3 41 80h5l-5 12q8 2 34 98q-5 11 -5 17q11 29 17 29l-6 29q0 44 23 58l-6 11q6 11 6 18l-11 -6h-6q11 48 11 104l-5 11q5 12 17 104l-6 12l6 11q0 6 -6 18q12 132 41 132q41 6 46 6q92 -84 121 -138l17 -18 l-6 -69v-202q0 -21 6 -52q-15 -157 -34 -185h5q202 197 237 197h23q72 -23 87 -58q0 -14 57 -69q32 -43 41 -98q-23 -38 -23 -87v-63q-35 -22 -35 -104v-41h6q192 336 502 716q281 334 334 334l12 -5q35 17 110 17q5 -10 11 -52q-3 0 -34 -35v-5l40 11l6 -11 q-55 -53 -116 -162q-196 -216 -196 -242h12v-6q-39 -72 -173 -219v11q0 6 28 41v5h-11l-110 -161v-12q21 13 58 87h11v-12l-103 -150q-164 -274 -179 -282l5 -12v-6q-90 -165 -132 -202q-166 42 -168 64l-86 63q-29 0 -52 329h-6q-233 -234 -254 -317q-10 0 -86 -93v-5l11 5 h12v-5q-23 -37 -58 -58q-127 75 -161 75zM1337 779q41 27 41 35v11q-6 0 -41 -40v-6zM1383 837h12q0 6 6 17v6h-6q0 -9 -12 -23zM1591 1073v12q0 8 35 34h5v-5q-24 -41 -34 -41h-6z" />
<glyph unicode="X" horiz-adv-x="1124" d="M-184 250v6q133 98 447 400q93 95 125 137q-156 361 -226 441q24 48 36 48q48 -15 95 -60q113 -125 215 -322h6q254 245 381 400q122 130 149 131q18 -6 18 -12l30 6h12l42 -30q95 -80 95 -113v-12q0 -30 -42 -77q0 -31 -351 -358q0 -15 -96 -102q-70 -63 -101 -113 q211 -456 340 -566q0 -15 18 -30v-12l-6 -12q-60 0 -126 78v-6l12 -18v-6h-6q-242 236 -250 292q-22 0 -101 137v12h-6l-454 -435h-12q0 8 -17 18h-6l-42 -12l-6 12q12 0 12 11v12q-14 0 -54 54l-12 -6h-6q-25 36 -35 36q-12 -6 -18 -6q-36 51 -60 77zM645 644q9 0 24 24 q-24 -9 -24 -18v-6zM692 698h12l18 23v6q-21 -23 -30 -23v-6zM740 745h12q0 12 12 12v6h-12zM770 769q24 12 36 36h-6q-12 -24 -30 -24v-12zM883 888h6q12 0 12 12h-6q-12 -2 -12 -12z" />
<glyph unicode="Y" horiz-adv-x="838" d="M0 49v5q84 143 394 488q10 0 10 20q-20 28 -64 212q-69 211 -118 340q-48 117 -119 231v25q13 30 119 59l29 -15q10 5 15 5q6 0 35 -29q0 7 14 15h15l10 -5v9q-5 10 -5 15l20 15h5q51 -69 59 -123q44 -76 98 -252q30 -71 89 -256l10 -5h5q0 10 217 271q89 134 128 242 l25 24h29q45 -17 54 -34q20 0 20 -10v-20l-10 -14v-20h5q5 29 15 29h5v-9q-27 -64 -45 -64l10 -15q-52 -69 -74 -123q-95 -106 -182 -237q-19 -12 -108 -143q-7 0 -25 -25v-9l10 -15v-10q0 -8 -20 -20l-29 5q-28 -7 -173 -187q-51 -38 -167 -187q-39 -31 -138 -168 q-27 0 -50 -49q-8 0 -24 -15h-5q10 16 10 25l-10 5h-15q-74 0 -74 19zM379 1316q43 -99 69 -128v5l-59 133q-10 -2 -10 -10zM473 1109l15 -49h5v4q-10 45 -20 45zM493 1045q5 -10 5 -15h10q-8 20 -15 20v-5zM503 1020q5 -29 14 -29v4q-4 30 -14 30v-5zM542 744q5 -9 5 -15 h10v5q0 7 -15 15v-5z" />
<glyph unicode="Z" horiz-adv-x="1280" d="M-47 179q0 45 92 61l122 35l-5 11q0 5 36 51v5l-10 15q6 0 66 71h-5l-15 -10l-6 10q117 107 306 261l11 -6h5v6h-10v5q72 42 91 66q-5 10 -5 15q27 34 62 36q0 8 51 36q114 117 244 229v10q-739 -249 -755 -249q-20 0 -45 86l5 10q-23 65 -36 87q0 36 143 66 q91 51 627 250q15 0 214 67l189 30h31q66 -63 66 -132q0 -14 -15 -36l10 -15q-6 -16 -107 -51q-21 -11 -21 -16v-56l-132 -173v-5h-10v10q25 31 25 36h-5q-6 0 -97 -102q-53 -49 -178 -138q-3 -11 -97 -87q10 -26 10 -36q-60 0 -133 -81q-159 -134 -291 -225v-5q57 5 67 16 q5 0 5 -5q595 163 617 163h5q10 0 10 -16q8 0 46 11q2 -11 10 -11h11q11 0 20 6q12 -2 36 -31q-36 -51 -97 -61v-5q5 0 5 -5l-26 5h-5v-11h11q-67 -66 -113 -66h-30q0 -6 -56 -30q0 -19 -72 -36q-10 5 -15 5q0 -6 -97 -36l5 -10q0 -10 -25 -10v-5h20v-10q-291 -57 -291 -97 q-52 -21 -336 -82h-16v15h11v5q-51 0 -51 41q-13 0 -41 46q-12 0 -36 72zM616 173h5q27 0 31 16l-31 5q0 -12 -5 -21z" />
<glyph unicode="[" horiz-adv-x="758" />
<glyph unicode="\" horiz-adv-x="569" />
<glyph unicode="]" horiz-adv-x="758" />
<glyph unicode="^" />
<glyph unicode="_" horiz-adv-x="1024" d="M0 -100h1024v-60h-1024v60z" />
<glyph unicode="`" horiz-adv-x="1024" d="M212 1363q0 31 20.5 51t53.5 20q20 0 40.5 -12t55.5 -47l291 -296h-69l-330 202q-31 20 -46.5 40t-15.5 42z" />
<glyph unicode="a" horiz-adv-x="916" d="M-131 164v5q105 253 194 393q0 7 108 179q36 90 86 143q52 73 92 143q39 74 123 159q74 117 179 214q0 19 61 36q8 0 16 -15v-5l-6 -26q31 0 31 -10q-4 -21 -10 -21q0 -7 56 -81q26 -37 51 -225v-67h5q169 93 241 113v-5l10 5h10q46 -20 46 -26l-41 -51q-50 -30 -66 -56 h5l51 36h10q-20 -31 -36 -31l5 -10v-5q-12 0 -56 -51q-51 -33 -51 -36q5 -10 5 -16l-25 -15l5 -10v-5q-8 0 -21 -10h-5q-5 0 -5 5q-17 0 -25 -36l20 10l5 -10q-148 -78 -148 -118q0 -35 -10 -35q0 -6 5 -16q-5 -64 -5 -76q5 -64 5 -72q-21 -61 -26 -215l5 -10q-5 -36 -5 -61 q0 -56 21 -164l-21 -15q-107 22 -107 107q-10 22 -15 154h5l-5 10v36q0 5 5 5q0 5 -5 5q5 160 15 255q-106 -64 -113 -76q0 -12 -91 -46q0 -9 -31 -21q-10 5 -15 5q-21 -26 -113 -71q0 -7 -71 -15q-90 -194 -103 -195q-15 0 -56 -102q-20 -31 -25 -31h-6q-158 94 -158 144z M421 741h5q19 12 61 97l11 -5l-46 -77h5q178 89 214 123l-5 10v31q21 12 21 128v15q0 12 -5 20l5 11l-5 30q0 5 5 5q-5 6 -5 41q-7 -1 -46 -66q5 -10 5 -15l-16 -26v-10q16 0 16 20h10v-5q-92 -128 -92 -143q-31 -42 -31 -51h-10v5q0 3 36 56v5q-44 -47 -133 -199zM656 1083 v16h10v-5q0 -11 -10 -11zM952 848h16l5 11h-5q-10 -6 -16 -6v-5z" />
<glyph unicode="b" horiz-adv-x="1193" d="M0 146q0 7 58 107q0 29 64 132l-5 9q39 90 58 112q20 28 93 210q64 107 87 131q5 9 5 15q-10 0 -10 9v5q15 14 39 112q54 85 54 127q0 21 49 214v19q-20 0 -20 15v10q0 42 419 58q163 -18 214 -58q78 -44 141 -137v-5q-5 0 -5 -4q10 -2 10 -10q-5 -10 -5 -15q5 -9 5 -14 q-13 0 -24 -64q-57 -103 -117 -141q-153 -124 -180 -156q5 -9 5 -14q-49 -33 -73 -59v-4l38 24q0 -5 5 -5q0 -26 -53 -53v-5q80 -17 160 -73q103 -89 103 -137v-9q-31 -74 -93 -112q-21 -15 -87 -34v4l-10 -4l-10 4q-19 -24 -141 -102v-5h10q5 15 29 15v-15 q-40 -35 -102 -63l-20 -19v-5h10v-10q-313 -146 -409 -146q-19 0 -53 29q-85 24 -88 34q-16 16 -63 25q-16 -10 -30 -10q0 21 -53 39zM107 336q10 0 10 10v4q-10 -1 -10 -9v-5zM277 185h5q387 164 575 341q39 43 39 48h-5q-152 0 -268 -48h-19q-9 0 -59 34l-10 -5h-9 q-4 0 -25 24l-9 -5h-15q-16 -49 -63 -126q-72 -178 -137 -263zM365 307v5q2 9 10 9h5q-5 -9 -5 -14h-10zM569 774h10q212 138 399 302q98 101 98 180v19q-6 17 -30 29q-56 -6 -63 -14h-14l-10 5q0 -29 -97 -29q-98 -10 -98 -25q0 -101 -107 -321q-21 -19 -88 -146zM701 204 h5q53 23 53 30h-5q-53 -21 -53 -30zM813 258q0 7 14 15h5v-5q0 -10 -9 -10h-10z" />
<glyph unicode="c" horiz-adv-x="1040" d="M0 338q44 193 149 320q139 188 166 206q82 97 120 109q0 52 252 252q48 40 80 57l-6 12q138 131 195 137l-6 -11h6q37 11 51 11h6q69 -9 166 -109q46 -58 46 -86q0 -20 -178 -114q-183 -133 -309 -241q-412 -380 -463 -646h5q36 0 126 45l12 -5q15 17 183 86h11v-6 q0 -12 -17 -12v-11q71 37 138 57q0 20 40 23q40 -8 40 -17q19 11 34 11q13 0 34 -40q35 -11 35 -23q0 -11 -17 -11v-11q0 -10 40 -23v-12l-12 -17q17 0 17 -11q-61 -29 -183 -115q-91 -38 -177 -91q-40 -35 -80 -35q-58 -17 -126 -17q-92 0 -166 69q-48 59 -109 86 q-103 95 -103 183z" />
<glyph unicode="d" horiz-adv-x="1352" d="M0 169l90 111q10 -5 16 -5q40 49 74 159q44 79 74 79q162 261 190 360v5q-10 0 -10 11q0 5 5 5q-5 11 -5 16q49 123 116 228q0 26 21 26q0 44 53 132q46 138 96 138h5q5 0 5 -5l11 5q120 -58 159 -58q237 -32 381 -95q80 -41 169 -133q111 -113 111 -201v-10 q0 -138 -175 -276q-63 -84 -116 -100q0 -9 -37 -27q0 -14 -27 -26q-5 0 -5 5q-122 -72 -122 -84q-80 -70 -164 -117l-142 -74l-90 -69q-278 -169 -307 -169h-6q-12 11 -21 11l-26 -6q-6 11 -6 16v16q-9 0 -26 32q-14 0 -42 10q-11 -21 -27 -21l-26 5q0 -10 -11 -10h-5 q-23 36 -58 63l-11 -5h-16q-18 21 -37 21h-21q0 8 -37 37zM397 296q33 14 122 80q122 69 439 270v5h-6l-10 -5l-5 10q12 0 111 95q35 22 137 112q28 0 106 169q11 40 11 74q0 12 -148 42q-101 25 -270 37l-37 21q-122 -367 -450 -904v-6z" />
<glyph unicode="e" horiz-adv-x="727" d="M-276 212q25 4 150 163q25 0 181 225q176 284 238 431q12 44 50 81q-7 12 -7 19q42 42 100 219l13 6h6q44 -42 81 -106q330 109 669 181q12 -23 12 -50v-6q-17 -59 -37 -69q-137 -69 -525 -187q-81 -36 -81 -50q0 -4 -69 -182h6q239 69 325 69h25q0 -11 19 -31 q0 -100 -81 -100q-33 -30 -369 -131q-14 -11 -50 -82q-28 0 -69 -106q-47 -61 -93 -106h6l219 62q0 -9 18 -18q54 6 82 6q38 -24 62 -94v-6q-52 -57 -187 -113v-6h12q8 0 75 25l6 -12q-90 -57 -218 -94q-27 0 -332 -125q-21 -19 -68 -25q0 11 -69 56q0 23 -44 63 q-56 59 -56 93zM186 394h7q12 0 12 12v6h-6q-13 -2 -13 -12v-6zM393 219h18v12q-12 -6 -18 -6v-6z" />
<glyph unicode="f" horiz-adv-x="967" d="M-175 141q40 100 301 429q34 63 90 102q125 164 224 365v13l-26 70q90 36 90 90q0 15 51 19q27 -8 64 -32q136 43 416 160q253 71 320 71q0 6 6 6h7q13 -2 13 -13l44 7h7l13 -7q-7 -64 -20 -64l7 -13q0 -48 -199 -96q-438 -153 -569 -230q0 -13 -7 -13q13 -23 13 -51 q0 -55 -102 -192v-7q416 167 505 167v-7l13 7h19q13 -2 13 -13q-50 -134 -102 -134q-205 -109 -576 -269q-46 -39 -109 -51l-13 6h-19q6 12 6 19h-6q-68 -65 -122 -160q-194 -258 -205 -314l-13 -6h-6q-128 103 -128 141z" />
<glyph unicode="g" horiz-adv-x="952" d="M0 355v90q18 0 43 123q137 366 302 582q135 166 237 222q105 62 142 62h10q40 0 56 -57q11 0 24 -47q7 0 14 -14q-92 -63 -99 -76h-10v-10h10q17 15 33 15v-5q0 -6 -80 -62q0 -19 -100 -104q-167 -180 -251 -364q0 -14 -61 -85v-5h-10v14h-9q-100 -241 -100 -355v-33 q0 -91 76 -118q42 -6 52 -10l62 33q74 98 123 223q38 137 47 151v5h-9q-15 -14 -81 -38q-22 0 -123 90v19q22 29 180 90q55 33 142 61q233 115 383 171q55 14 71 14q10 -17 10 -38v-9q0 -27 -48 -52q0 -15 -66 -38q-100 -52 -128 -95q-64 -50 -179 -94v-19l4 -29 q-73 -280 -137 -397q-89 -166 -185 -166q-131 0 -283 151q-62 119 -62 204z" />
<glyph unicode="h" horiz-adv-x="931" d="M-165 81q67 124 156 357q48 120 55 121q0 -6 5 -6l5 11l-5 35q36 32 36 70q11 3 65 161q27 0 111 282q45 89 75 171q0 11 86 116h25q61 -48 116 -166q5 0 5 -5q-111 -192 -192 -438q0 -8 -35 -60q-5 -10 -5 -16q14 0 337 187q116 47 116 90q106 236 151 368q31 65 60 65 q20 10 36 10q25 0 60 -55l-5 -46q10 -1 10 -10q0 -18 -30 -50v-10l15 10h10v-10q-36 -49 -81 -191q-18 -51 -25 -51h-5v5l15 51v5q-8 -4 -100 -201q-24 -26 -126 -262q-34 -66 -45 -71q0 5 -5 5l-5 -10v-5h10v-5l-5 -10l-10 5h-6l-5 -35l5 -10q-16 -45 -35 -45l5 -25 q-33 -74 -55 -81l-45 -136l5 -10q0 -43 -30 -60h-6q-67 19 -105 75q79 232 231 539v5q-224 -176 -256 -176q-119 -66 -171 -66l-36 10h-5v-10h-10l5 10v10q-30 -55 -55 -141h-5q0 5 -5 5q-43 -108 -91 -181q-76 -202 -85 -206q-44 0 -126 81z" />
<glyph unicode="i" horiz-adv-x="703" d="M-75 114q8 12 150 90q0 18 41 73q68 125 68 132q16 0 50 82q13 10 41 91l118 254q0 25 27 27q0 11 -4 19q15 16 72 150v4h-4q-108 -61 -109 -73q-52 -31 -64 -31q-71 43 -104 131q5 0 22 32q263 187 478 259l181 68h9q0 -9 -13 -9v-4h13q14 9 55 18v-5q15 9 23 9 q5 -6 45 -22l5 -23q-9 -1 -9 -9v-9h9v-9l-14 -18h18v-10q-15 -4 -122 -68q-41 -11 -41 -22v-9h9l63 27l5 -9l-241 -109h-4v-9l68 22q0 -10 -59 -32q0 -29 -46 -109q-45 -144 -163 -422h-5l-9 4v-22h-5l5 -10q-20 -8 -68 -131q-5 0 -23 -28l5 -9q-18 -27 -28 -27v-9h9 q0 8 91 50q61 41 128 55q45 -47 45 -64q-23 -29 -23 -36q5 -9 5 -14q-80 -43 -109 -77l-127 -82q-53 -39 -187 -109v-5h5q105 59 113 59v-4q0 -14 -109 -59q-26 -46 -36 -46q-15 9 -23 9q0 -9 -32 -18q0 7 -13 14q-42 -23 -82 -32h-5q-95 86 -95 114zM116 32h9q18 7 18 13 h-9q-11 -9 -18 -9v-4zM902 1422v9q2 0 18 5v-5q0 -9 -9 -9h-9z" />
<glyph unicode="j" horiz-adv-x="864" d="M0 911v4l251 90q67 23 182 91q-4 0 -4 4l8 4v-8q18 19 82 45l17 -4q93 25 160 66h9l-4 8l8 5l4 -9q58 9 58 29h12q0 -8 4 -8q135 54 165 70v4l20 -4q32 23 108 37q23 17 119 37l8 -4q58 33 70 33q2 -8 9 -8q4 16 24 16h5l8 -4q0 9 103 29h12q27 0 54 -12l-4 -21v-4l8 4h4 q6 0 12 -12v-4l-16 -33v-5h8l21 5l4 -9q-10 -20 -21 -20l13 -17q-61 -39 -206 -82q-147 -50 -252 -95v-8q101 41 107 41v-4q0 -8 -29 -17q0 5 -4 5q-38 -35 -284 -112q-8 -1 -8 -8v-4l37 -54l-4 -8l4 -8q-16 -69 -66 -177h-4l-8 4l-124 -268q-55 -124 -132 -256h-8v5l12 20 v13h-8q0 -13 -33 -66v-9l12 9h13v-4q0 -27 -74 -128v4l4 21q-39 -64 -54 -79v-4q17 -17 17 -33l-9 -4q-12 0 -66 25l-20 -4q-129 93 -182 239q-72 109 -123 131v5q8 0 8 8q-8 0 -8 8v4q0 6 12 13h4q101 -20 272 -235q5 19 37 82l-16 -16v12q47 98 66 124h4v-13h8q0 18 33 70 q-4 0 -4 4q6 0 12 13v12l-12 -8v4l8 16l9 -4q5 0 12 13v4h-4l-13 -8l-4 8l21 25v-9h8v9h-8q2 24 12 24l8 -4q0 13 25 46q0 16 46 98q-5 0 -5 5q17 24 66 152q4 3 37 54v8q-8 10 -8 16q4 6 4 21q-483 -202 -544 -202q-45 35 -57 74q-17 0 -25 25q-33 0 -33 62zM503 202 q8 0 8 8v4q-8 -1 -8 -8v-4zM828 1034h4q9 0 9 9h-13v-9z" />
<glyph unicode="k" horiz-adv-x="931" d="M0 59q0 13 34 74q0 13 30 79l-5 10q77 172 113 286l-9 -5h-10q-10 0 -10 10q8 0 20 19q-44 0 -74 10h-35q-21 40 -29 40q-21 0 -25 39q41 32 182 103q94 38 94 109q44 160 84 276h10v-10h5l4 25v5q-5 0 -14 4q5 10 5 15h9v-15h5q35 173 40 257q-5 9 -5 15q11 30 29 34 q97 0 203 -128v-44q-36 -188 -50 -188q-27 -118 -44 -133v-5h5q293 184 483 281l64 40h10q10 0 10 -20h9q18 15 35 15q74 0 74 -59q-28 -26 -173 -104v-5h10v-5q-187 -111 -266 -153l-10 -14q5 0 5 -5q-6 0 -153 -94q-44 -13 -98 -79q-45 -18 -45 -29q12 0 25 -25 q164 -135 232 -370q-5 -8 -5 -19q18 0 49 -163l-25 5q0 -5 -5 -15l-19 10q0 -5 -5 -5l5 -10v-5h-5q-24 25 -40 25l-19 20l-10 -5q-37 0 -54 98q-79 174 -193 375q-17 0 -88 -237q-12 -34 -20 -34h-5v10l44 108q0 5 -4 5l49 177l-10 5q-89 -297 -182 -532q-24 -78 -35 -84 l-10 -39h-15q-8 0 -44 15q0 -8 -20 -20h-5q-27 39 -59 39q-3 11 -44 20zM310 276l5 25h10l-5 -25h-10zM310 862q10 0 10 10v5h-10v-15zM330 325v20h10v-10q0 -10 -10 -10zM355 1040q10 0 15 34h-10q0 -15 -5 -34z" />
<glyph unicode="l" horiz-adv-x="763" d="M0 91v5q0 26 15 45v5l-10 15v10q10 13 10 25h10q0 -13 -10 -30v-5h5q0 15 96 211l35 101q-14 0 -30 -55h-10v5q7 45 50 80q121 289 186 518q11 0 20 66l10 5l-5 10q41 120 81 302q19 25 55 25h15q80 -42 151 -116q0 -5 -5 -5l5 -10q-50 -178 -50 -201q-20 -50 -60 -186 q-23 0 -51 -121q-55 -167 -85 -211q-29 -86 -46 -86q0 10 -10 10q-24 -47 -35 -111l25 21l5 -10q-7 -1 -30 -61q-10 -20 -15 -20q0 5 -5 5l20 50v5h-5q-40 -98 -75 -161q-10 -20 -10 -30h5q129 40 357 86l121 30q5 0 65 -20h25v-15q10 -36 10 -41q0 -19 -221 -80 q-77 -52 -227 -96q0 -25 -75 -40q0 -10 -30 -15q-71 5 -121 5q0 14 -55 20q0 25 -31 25q0 -10 -10 -10q-18 32 -60 51zM35 231v5q2 11 10 11h5q-5 -10 -5 -16h-10zM55 277v15h10v-5q0 -10 -10 -10zM151 518v5q5 10 5 15h10v-5q-5 -9 -5 -15h-10z" />
<glyph unicode="m" horiz-adv-x="1243" d="M-171 77v5q14 13 67 144q223 421 273 556q12 0 36 62q5 0 5 5q-5 10 -5 16q31 21 82 190q-5 0 -5 5q34 44 51 196l21 31l-5 26v5h10v-11q10 0 10 11v10h-10v5q12 0 36 36l26 5q103 0 165 -92q41 -46 41 -52q-21 -50 -21 -72v-31q11 -12 21 -92q0 -6 -5 -6l5 -25v-47 q0 -18 -5 -46q5 -10 5 -15t-5 -5l5 -26v-222h10q66 155 402 572q42 36 108 118v16l-5 61q11 12 72 21q75 -43 87 -103q0 -3 -5 -21q0 -5 5 -5l-5 -25v-16q0 -175 -87 -401h-11v5l11 15q0 11 -11 11q-10 -45 -108 -314h10v-11h-5l-10 5q-190 -422 -190 -499v-5q5 -37 5 -41 q-7 -26 -16 -26q-118 40 -118 46l-10 16v10q0 5 5 5l-5 11v20q44 151 216 546q74 173 134 386v5q-142 -162 -206 -278q-79 -107 -175 -314q-43 -59 -67 -144l-11 -5h-30l-36 -5q0 26 -93 56q-9 103 -21 443q-5 0 -10 26q-14 0 -46 -72q-6 0 -57 -124l-87 -175h-11v10 q72 142 72 175l-87 -164q-10 -50 -93 -150q0 -8 -36 -72l10 5l6 -10q-44 -20 -124 -226h-10l-16 10h-15l-21 -16h-15q0 29 -36 42zM333 654h11q9 10 82 190l-10 5zM1049 1009h10q0 5 5 15v5h-5q0 -8 -10 -20zM1085 1050q10 0 10 10v6q-10 -2 -10 -11v-5zM1106 602v5 q7 21 15 21v-10q-5 -10 -5 -16h-10z" />
<glyph unicode="n" horiz-adv-x="982" d="M-114 68q0 57 245 565q99 217 148 308l-5 11q0 11 34 63q37 141 57 142q0 -5 6 -5l5 11q-17 0 -17 11v12h6l17 -12q0 11 11 40h-11q0 -22 -11 -22v17q45 155 57 211q20 11 45 11h23q39 0 120 -131v-69q27 0 62 -228q-11 -1 -11 -11v-194q0 -11 -11 -11h-17 q-35 -210 -40 -291v-6h5q100 335 240 627q76 166 91 166q44 23 57 23q68 -75 68 -109q6 0 6 -11q-55 -151 -80 -165l6 -12q-76 -132 -142 -319h-6l-17 11q-63 -202 -171 -507l-35 -160q-19 0 -28 -5q-143 40 -143 74q-34 86 -34 239v6q0 13 6 23q0 5 -6 5l46 405 q-9 -1 -57 -131l-12 -6l-5 12l34 85q0 21 11 34v6h-11q0 -37 -80 -171q-14 0 -34 -57v-17q-29 -19 -80 -143q-94 -211 -131 -273q-17 -41 -17 -52v-5l11 -17v-12q0 -26 -80 -34q0 26 -125 68zM325 1021q11 0 11 11v6q-11 -2 -11 -12v-5zM428 787h11l6 28h-12z" />
<glyph unicode="o" horiz-adv-x="918" d="M-106 286q0 101 73 286l9 4v-9q-72 -185 -72 -301q1 -9 9 -9q0 106 49 227q19 92 48 92q31 89 189 349q106 135 121 204l78 82h-5q-9 0 -116 -126h-5v10q60 84 271 295q0 15 58 39q50 0 126 -92h5q9 0 53 10q49 -16 121 -107q73 -101 73 -136q5 -30 5 -67l-5 -44l5 -10 q-24 -129 -44 -164l-9 4h-5q-5 -25 -5 -29l10 5h4v-5l-24 -29q10 -1 10 -9q0 -10 -10 -10v15q-14 0 -29 -68q5 0 5 -5q-10 -2 -10 -10q5 0 5 -5h-5l-9 5v-5l9 -14l-9 -5q0 5 -5 5l5 -10v-5h-5l-10 5q0 -10 -19 -29l5 -10q-21 -14 -92 -135q-11 0 -49 -73 q-118 -166 -276 -300q0 -34 -126 -87q-48 -15 -97 -15h-24q-77 0 -165 87q-47 18 -92 58l10 5q0 -7 19 -19h5q-58 42 -58 155zM59 174l5 -24q154 28 324 223q16 2 126 160q51 87 78 97q1 37 58 92q0 27 72 140q40 86 78 252q10 0 10 10v63q-54 33 -54 43l10 15q0 6 -44 19 q-114 -69 -310 -310q-265 -369 -290 -518q-58 -134 -63 -262zM897 722q6 24 14 24v-10q-5 -9 -5 -14h-9z" />
<glyph unicode="p" horiz-adv-x="1011" d="M-153 81l231 511q47 113 172 371q0 38 205 446q13 0 38 22h10q22 -20 70 -38q59 16 162 27q274 -28 274 -59q35 0 75 -97q6 -4 49 -75q0 -5 -6 -5q17 -44 17 -81v-16q-8 -51 -65 -119h-5v6l10 16v5h-5q-251 -258 -285 -258l-27 -32h5q92 63 92 75h5q11 -2 11 -11 q-62 -56 -248 -183q-16 -16 -102 -91q-143 -87 -210 -113v-5h11v-11q-60 0 -102 81h-27q0 -20 -32 -65q0 -40 -86 -172q0 -18 -81 -183q0 -27 -11 -27l-16 11l-27 -6zM320 689l11 -6h6l-6 11q6 0 119 81h5q8 -22 16 -22q0 3 38 38l-6 11q0 7 16 16l17 -11q32 11 32 38 q10 -6 16 -6v11l-5 11l10 5q11 -5 17 -5l-6 11v5q6 0 16 5q10 -5 22 -5v11h-16v10q269 259 269 286v5h-6q-144 -18 -269 -70q0 -5 -5 -5h-32q-43 23 -43 53h-11q0 -9 -124 -295q5 -11 5 -17l-64 -113l5 -10q-27 -29 -27 -43zM606 586h5q43 33 54 33v10h-16q0 -6 -43 -43z M675 635q87 57 87 64h-6l-81 -53v-11zM745 1146v11l33 5l5 -11l-11 -5h-27z" />
<glyph unicode="q" horiz-adv-x="887" d="M-155 330q22 109 145 296q62 121 104 182q48 89 270 321q17 33 239 224q96 67 130 67q32 0 88 -36q102 -19 145 -57q99 -121 99 -198q0 -26 -16 -83v-10l11 -16q-64 -171 -120 -233q0 -25 -67 -104v-10l21 15h5v-5q-89 -140 -338 -369l-46 -41q60 -169 103 -400 q18 -19 37 -67l31 -26l-5 -26l5 -21q-38 0 -104 62l-10 -5q-21 1 -73 68q-35 6 -93 114q-26 66 -57 171q-35 -12 -63 -47q-17 0 -62 -31l-62 -15h-37q-67 0 -109 41h16v11q-187 125 -187 228zM37 91q2 -10 10 -10h6q0 10 -11 10h-5zM115 314h5q116 43 488 410 q216 276 260 426l10 5q0 -5 5 -5l-5 -10v-11h5q17 0 26 68v5q0 8 -21 21q-50 -2 -181 -109h5l36 26h11v-5q-287 -245 -390 -395q-43 -43 -181 -270zM811 989q1 -10 10 -10q7 23 21 41v6h-16q0 -32 -15 -32v-5zM842 1046q1 -10 10 -10l5 10h-15zM847 1067l10 -5q16 0 26 52 l-10 5zM852 730q5 -10 5 -16q9 0 37 62q5 0 15 21h-5zM894 735h5q10 0 10 10h-5q-10 -1 -10 -10zM914 761q11 0 11 10v5q-11 -1 -11 -10v-5zM920 823q11 0 15 26q-12 0 -15 -26zM951 885h10l52 120q-6 -1 -62 -120zM1029 1088q1 -11 10 -11v16h-10v-5z" />
<glyph unicode="r" horiz-adv-x="829" d="M-171 324q0 17 95 134l224 314q0 13 59 84q0 19 115 215q0 7 35 24v-10q-10 -16 -10 -24q8 9 134 244q-25 25 -25 44q19 27 75 60l10 -5q18 15 90 20l10 -5q18 10 39 10h10q12 0 20 -5q5 0 5 5q148 -16 209 -55q74 -51 105 -129q35 -74 35 -100q0 -68 -65 -124q0 5 -5 5 q10 16 10 30q-10 0 -60 -65q-132 -101 -144 -105v-10h10v-5q0 -10 -15 -10l5 -10q-104 -84 -120 -84q-104 -75 -104 -80h15v-10q-25 0 -130 -75h-10q0 -11 65 -104q105 -167 105 -194q33 -55 59 -140q55 -106 55 -119q0 -8 10 -20v-15h-5l-10 5q0 -5 -5 -15l-30 15 q-9 -5 -15 -5q0 18 -59 55l-224 428q-27 43 -45 45l-20 -10q-31 0 -55 55h-10q-118 -199 -274 -379h-5q-10 0 -10 10q45 44 45 50q-5 10 -5 15q7 0 15 15v5q-61 -70 -70 -70h-19q-26 20 -30 20l-30 -5q0 21 -40 55zM38 304q6 0 30 35v5q-30 -23 -30 -40zM73 329q7 0 15 15 h-5q-10 -2 -10 -10v-5zM78 354l10 -5q6 0 25 29v5h-5q0 -20 -15 -20h-5l10 15v5h-5q-10 0 -15 -29zM153 463h10q4 16 64 110h10l10 -5q0 7 10 20q-11 0 -20 5l-84 -125v-5zM173 468h5l9 20v5h-4q0 -9 -10 -25zM192 802h5q0 5 5 15v5h-5q0 -6 -5 -15v-5zM202 508q8 0 15 20v5 h-5q0 -8 -10 -20v-5zM441 836q26 6 55 65q195 114 264 184q106 93 120 160h-5l-50 -5l-10 5q-5 0 -5 -5l-35 5h-50v-10h-20l-35 -10q0 5 -5 5q-29 -32 -214 -369q-10 -16 -10 -25zM616 1115v10q1 10 10 10l5 -10zM651 1175v10q10 12 10 20h9v-5q-13 -25 -19 -25zM895 936 q21 30 44 30l5 -10l-44 -30z" />
<glyph unicode="s" horiz-adv-x="877" d="M-442 181v6q0 7 115 49q154 61 687 303q188 90 281 176l-17 10q-13 0 -44 -5q-324 87 -324 198q-47 14 -88 121q-33 20 -33 66v5q0 98 319 237q168 82 297 82h82q65 0 127 -88q0 -16 11 -71l-22 -17h-6q-13 11 -22 11q-37 -11 -104 -16q-6 0 -6 5l-27 -5h-50 q-126 -31 -126 -55h16v-6q-2 -10 -104 -49q-44 -28 -55 -28q-25 -36 -88 -55q-50 -38 -50 -55h6q126 -49 297 -99q159 -97 159 -170q44 -117 44 -126q0 -54 -88 -110h-11l-5 11q25 10 27 22h-5q-74 -52 -127 -72q-51 -52 -291 -148v-6q16 0 16 -11q-22 -11 -33 -11l-5 11h11 v6h-6q-22 -8 -22 -17h11v-11l-104 -44l6 -11q-29 -35 -77 -49v-6h5q22 11 39 11v-11q-12 0 -105 -55q-193 -82 -209 -82q-20 11 -44 11h-5q-10 -10 -66 -17q0 -5 -22 -16q-11 0 -11 11v5q0 10 82 33l11 22h-5q-40 -22 -99 -38q-26 7 -44 38q-44 0 -44 50q-32 41 -55 60z" />
<glyph unicode="t" horiz-adv-x="768" d="M-243 873v18q16 22 186 86q193 77 759 259q162 68 296 105l13 -10q178 50 209 69q9 -5 14 -5q19 9 136 41q5 -9 5 -14q13 0 13 5q59 0 59 -41q-8 -5 -13 -5q27 -17 27 -22v-5q-42 -32 -200 -82v-9h9l141 50l5 -9q-11 -9 -28 -9v-4l5 -10q-20 -12 -64 -22l-91 -37v-4h14 q9 4 14 4v-9q-74 -16 -87 -41q-55 -27 -113 -40q-63 -31 -132 -41q-38 -26 -91 -41q-161 -57 -168 -68q41 -52 41 -82q0 -10 -5 -18q5 -9 5 -14q-85 -190 -182 -318h-14l-68 -123h5l68 109h5q0 -25 -105 -200q-11 0 -73 -118l-77 -109h-4v5q127 201 127 209h-9 q-146 -246 -200 -323q-80 48 -105 77l-23 14v9q38 86 55 100l-5 9q0 25 69 100l-9 23q52 95 72 95q0 14 18 32q-9 0 -9 9q23 10 23 14q-4 9 -4 13q18 25 31 32l-4 9q32 62 36 64q9 -5 14 -5l9 14q-5 0 -5 4l-9 -4h-4v9q35 0 63 86q13 2 55 105q0 28 50 95l-5 9v5l5 9h-5 q-13 0 -91 -45q-12 0 -131 -41q-94 -28 -205 -82q-103 -36 -136 -46q-5 0 -5 5l-22 -5h-10q-7 0 -63 69q-42 27 -77 86q-5 0 -5 5zM184 332q9 4 14 4v23h-5zM979 1318h5q9 0 9 9h-4q-10 -1 -10 -9zM1229 1254q23 6 23 14h-9q-9 -5 -14 -5v-9z" />
<glyph unicode="u" horiz-adv-x="858" d="M-134 169v15q0 116 151 442q31 57 146 302q23 47 84 122q0 11 52 80q17 67 160 264l43 37l28 5h19q98 -82 108 -122q9 -2 9 -10v-5q-116 -126 -150 -216q-104 -175 -193 -311l-132 -292l-38 -94q-80 -164 -80 -207h5q132 48 334 315q230 271 339 471l156 236q0 14 18 14 l-4 9l47 47l4 -9q-4 0 -4 -5h4q84 88 132 151l5 -10q-6 -17 -24 -42h5q48 42 52 42l5 -9v-24q-57 -80 -57 -84v-5l10 5h4v-5l-23 -38h9l24 47q-5 9 -5 14l9 5l10 -5q14 18 23 43q-4 0 -4 5l9 4q9 -1 9 -9q-1 -10 -47 -75l5 -10l-47 -85q-18 -10 -33 -37l5 -10 q-70 -72 -137 -221q-50 -99 -80 -141v-5q24 11 24 38h9v-5q0 -28 -245 -353l-70 -80q-10 0 -10 9q25 19 179 222v4l-216 -263q-12 -3 -24 -33h5q46 51 52 51h4q10 -1 10 -9q-82 -116 -255 -259q0 -9 5 -9h10q-84 -71 -156 -71q-80 0 -150 56q-64 0 -137 113zM723 603h9 q0 6 76 113v4h-5zM874 805v10q1 9 9 9l5 -9zM892 843q5 9 5 14h10v-5q0 -9 -10 -9h-5zM977 1295l10 4l4 -9l-9 -5zM1020 1149q6 0 14 14v5q-7 0 -14 -14v-5zM1048 1210q9 0 9 9l-9 5v-14z" />
<glyph unicode="v" horiz-adv-x="1091" d="M0 180v11q26 0 62 168q23 0 61 146q-5 11 -5 17q38 62 73 314q11 64 11 241h6l-6 11q0 9 -6 202l-5 23h5q0 5 -5 5l5 39q0 7 -5 57q30 22 56 22q25 0 101 -90q78 -82 78 -129v-101q0 -12 6 -22l-6 -11q12 -41 17 -135q-5 -90 -11 -118q0 -5 6 -5q-8 -76 -12 -90 q0 -6 6 -6q-6 -67 -17 -95h6q415 409 454 409q10 13 51 40h5l-22 -28v-6q231 202 376 303h11q11 -6 17 -6q0 11 16 11l-5 12q0 13 39 28q17 -6 17 -11q42 28 62 28h5q11 -2 11 -12q0 -12 -5 -22q5 -11 5 -17h-11v11h-11v-11q13 0 22 -22q-11 -34 -22 -34l6 -11v-6 q-26 -32 -118 -106v-6q22 0 22 -11q-45 -66 -202 -202v-6l12 6h11v-6l-112 -101q-12 0 -12 11q96 72 96 79v11q-171 -151 -185 -151q-34 -25 -34 -45q-124 -90 -140 -135q-8 0 -28 -28v-5q26 23 50 39h6v-6q0 -7 -169 -168h-5v6q0 6 106 117h-11q0 -9 -112 -117v-12 q6 -11 6 -16q-21 -10 -96 -113q-68 -58 -123 -140q-11 0 -23 -17l6 -11q-107 -118 -107 -157h-5q-40 0 -124 62q-13 0 -50 28q-35 0 -101 90zM797 701h11q0 11 11 11v6h-6q-11 -6 -16 -6v-11zM858 1010h17v17q-8 0 -17 -17zM926 836q5 -11 5 -17h6v17h-11zM954 1116l11 6h11 q0 -8 -17 -17zM1055 1206l11 6l5 -12l-11 -5zM1307 1161q2 -11 11 -11l6 22h-17v-11z" />
<glyph unicode="w" horiz-adv-x="1352" d="M-65 156q110 323 138 369l24 17l-6 12l17 23v6l-6 29q17 3 41 80h5l-5 12q8 2 34 98q-5 11 -5 17q11 29 17 29l-6 29q0 44 23 58l-6 11q6 11 6 18l-11 -6h-6q11 48 11 104l-5 11q5 12 17 104l-6 12l6 11q0 6 -6 18q12 132 41 132q41 6 46 6q92 -84 121 -138l17 -18 l-6 -69v-202q0 -21 6 -52q-15 -157 -34 -185h5q202 197 237 197h23q72 -23 87 -58q0 -14 57 -69q32 -43 41 -98q-23 -38 -23 -87v-63q-35 -22 -35 -104v-41h6q192 336 502 716q281 334 334 334l12 -5q35 17 110 17q5 -10 11 -52q-3 0 -34 -35v-5l40 11l6 -11 q-55 -53 -116 -162q-196 -216 -196 -242h12v-6q-39 -72 -173 -219v11q0 6 28 41v5h-11l-110 -161v-12q21 13 58 87h11v-12l-103 -150q-164 -274 -179 -282l5 -12v-6q-90 -165 -132 -202q-166 42 -168 64l-86 63q-29 0 -52 329h-6q-233 -234 -254 -317q-10 0 -86 -93v-5l11 5 h12v-5q-23 -37 -58 -58q-127 75 -161 75zM1337 779q41 27 41 35v11q-6 0 -41 -40v-6zM1383 837h12q0 6 6 17v6h-6q0 -9 -12 -23zM1591 1073v12q0 8 35 34h5v-5q-24 -41 -34 -41h-6z" />
<glyph unicode="x" horiz-adv-x="1124" d="M-184 250v6q133 98 447 400q93 95 125 137q-156 361 -226 441q24 48 36 48q48 -15 95 -60q113 -125 215 -322h6q254 245 381 400q122 130 149 131q18 -6 18 -12l30 6h12l42 -30q95 -80 95 -113v-12q0 -30 -42 -77q0 -31 -351 -358q0 -15 -96 -102q-70 -63 -101 -113 q211 -456 340 -566q0 -15 18 -30v-12l-6 -12q-60 0 -126 78v-6l12 -18v-6h-6q-242 236 -250 292q-22 0 -101 137v12h-6l-454 -435h-12q0 8 -17 18h-6l-42 -12l-6 12q12 0 12 11v12q-14 0 -54 54l-12 -6h-6q-25 36 -35 36q-12 -6 -18 -6q-36 51 -60 77zM645 644q9 0 24 24 q-24 -9 -24 -18v-6zM692 698h12l18 23v6q-21 -23 -30 -23v-6zM740 745h12q0 12 12 12v6h-12zM770 769q24 12 36 36h-6q-12 -24 -30 -24v-12zM883 888h6q12 0 12 12h-6q-12 -2 -12 -12z" />
<glyph unicode="y" horiz-adv-x="838" d="M0 49v5q84 143 394 488q10 0 10 20q-20 28 -64 212q-69 211 -118 340q-48 117 -119 231v25q13 30 119 59l29 -15q10 5 15 5q6 0 35 -29q0 7 14 15h15l10 -5v9q-5 10 -5 15l20 15h5q51 -69 59 -123q44 -76 98 -252q30 -71 89 -256l10 -5h5q0 10 217 271q89 134 128 242 l25 24h29q45 -17 54 -34q20 0 20 -10v-20l-10 -14v-20h5q5 29 15 29h5v-9q-27 -64 -45 -64l10 -15q-52 -69 -74 -123q-95 -106 -182 -237q-19 -12 -108 -143q-7 0 -25 -25v-9l10 -15v-10q0 -8 -20 -20l-29 5q-28 -7 -173 -187q-51 -38 -167 -187q-39 -31 -138 -168 q-27 0 -50 -49q-8 0 -24 -15h-5q10 16 10 25l-10 5h-15q-74 0 -74 19zM379 1316q43 -99 69 -128v5l-59 133q-10 -2 -10 -10zM473 1109l15 -49h5v4q-10 45 -20 45zM493 1045q5 -10 5 -15h10q-8 20 -15 20v-5zM503 1020q5 -29 14 -29v4q-4 30 -14 30v-5zM542 744q5 -9 5 -15 h10v5q0 7 -15 15v-5z" />
<glyph unicode="z" horiz-adv-x="1280" d="M-47 179q0 45 92 61l122 35l-5 11q0 5 36 51v5l-10 15q6 0 66 71h-5l-15 -10l-6 10q117 107 306 261l11 -6h5v6h-10v5q72 42 91 66q-5 10 -5 15q27 34 62 36q0 8 51 36q114 117 244 229v10q-739 -249 -755 -249q-20 0 -45 86l5 10q-23 65 -36 87q0 36 143 66 q91 51 627 250q15 0 214 67l189 30h31q66 -63 66 -132q0 -14 -15 -36l10 -15q-6 -16 -107 -51q-21 -11 -21 -16v-56l-132 -173v-5h-10v10q25 31 25 36h-5q-6 0 -97 -102q-53 -49 -178 -138q-3 -11 -97 -87q10 -26 10 -36q-60 0 -133 -81q-159 -134 -291 -225v-5q57 5 67 16 q5 0 5 -5q595 163 617 163h5q10 0 10 -16q8 0 46 11q2 -11 10 -11h11q11 0 20 6q12 -2 36 -31q-36 -51 -97 -61v-5q5 0 5 -5l-26 5h-5v-11h11q-67 -66 -113 -66h-30q0 -6 -56 -30q0 -19 -72 -36q-10 5 -15 5q0 -6 -97 -36l5 -10q0 -10 -25 -10v-5h20v-10q-291 -57 -291 -97 q-52 -21 -336 -82h-16v15h11v5q-51 0 -51 41q-13 0 -41 46q-12 0 -36 72zM616 173h5q27 0 31 16l-31 5q0 -12 -5 -21z" />
<glyph unicode="{" d="M240 638v60q172 5 223 71t51 133v468q0 74 77 141.5t185 67.5h108v-50h-90q-61 0 -107 -33.5t-47 -91.5v-500q0 -83 -60.5 -158.5t-142.5 -76.5v-2q82 -1 143 -76t61 -158l-1 -500q1 -58 47 -91.5t107 -33.5h90v-50h-108q-108 0 -184.5 67.5t-77.5 141.5v468 q0 66 -51 132t-223 71z" />
<glyph unicode="|" d="M427 -418v1995h160v-1995h-160z" />
<glyph unicode="}" d="M130 -192h90q61 0 107 33.5t47 91.5l-1 500q0 83 61 158t144 76v2q-83 1 -143.5 76.5t-60.5 158.5v500q-1 58 -47 91.5t-107 33.5h-90v50h108q108 0 185 -67.5t77 -141.5v-468q0 -67 51 -133t223 -71v-60q-172 -5 -223 -71t-51 -132v-468q-1 -74 -77.5 -141.5 t-184.5 -67.5h-108v50z" />
<glyph unicode="~" d="M94 556v156q64 73 123 99t114 26q64 0 181.5 -49.5t172.5 -49.5q52 0 108.5 28t129.5 112v-156q-63 -72 -122 -97.5t-116 -25.5q-60 0 -177.5 48.5t-176.5 48.5q-51 0 -107.5 -28t-129.5 -112z" />
<glyph unicode="&#xa1;" horiz-adv-x="672" />
<glyph unicode="&#xa2;" horiz-adv-x="1139" />
<glyph unicode="&#xa3;" d="M76 673v60h135q-58 143 -58 253q0 226 123.5 347t306.5 121h4q75 0 185.5 -14t110.5 -34v-161h-58q-5 61 -77 102q-72 31 -160 31h-2q-100 0 -190 -101q-84 -93 -84 -241q0 -15 1 -30q0 -135 53 -273h360v-60h-334q14 -30 31 -60q35 -63 35 -138q0 -161 -162 -375h402 q130 0 189 132l49 -1l-103 -231h-719l1 50q187 238 187 418q0 77 -34 143q-17 32 -31 62h-161z" />
<glyph unicode="&#xa4;" d="M122 413l118 117q-32 46 -48 103q-12 42 -12 84q0 44 13 87q16 55 47 99l-118 118l80 81l118 -118q44 30 99 46q44 14 89 14q41 0 83 -12q57 -17 102 -48l118 118l80 -81l-117 -117q31 -46 48 -102q12 -42 12 -85q0 -42 -12 -85q-17 -56 -48 -102l117 -117l-80 -81 l-118 118q-45 -32 -101 -48q-42 -12 -85 -12q-42 0 -85 12q-57 16 -102 48l-118 -118zM284 716q0 -28 9 -56q16 -59 57 -100q41 -40 99 -57q29 -8 58 -8t58 8q58 17 99 57q40 41 57 99q9 29 9 58t-9 58q-17 58 -57 99q-41 40 -100 57q-29 8 -58 8t-58 -9q-58 -17 -98 -56 q-39 -40 -56 -98q-10 -30 -10 -60z" />
<glyph unicode="&#xa5;" horiz-adv-x="1262" d="M8 1176q0 19 10.5 27.5t32.5 8.5q27 0 123 -8t164 -8h88q33 0 41 -6.5t8 -26.5q0 -8 -15 -14t-38 -6q-6 0 -18.5 2t-18.5 2q-24 0 -37.5 -9.5t-13.5 -25.5q0 -18 16.5 -52t46.5 -77l158 -221q13 -19 33 -53q41 -70 71 -70q9 0 16.5 5t14.5 15l277 396q8 12 13 26.5 t5 24.5q0 18 -10 27t-37 14q-15 2 -41 4q-47 3 -47 25q0 15 8 22.5t25 7.5q3 0 15 -1q56 -7 108 -7h139q30 0 65 1t37 1q11 0 18.5 -4.5t8.5 -11.5q0 -28 -38 -34q-18 -3 -27 -5q-63 -15 -147 -117q-7 -9 -12 -15l-169 -206h323q15 0 24 -6t9 -17q0 -15 -6 -20.5t-23 -5.5 h-366q-46 -57 -96.5 -112.5t-52.5 -59.5h511q18 0 25.5 -5.5t7.5 -17.5q0 -14 -7 -21t-22 -7h-530q0 -11 -1 -30.5t-1 -29.5l2 -215q0 -114 5.5 -150t20.5 -44q30 -17 107.5 -19t77.5 -31q0 -12 -10 -20t-25 -8q-2 0 -35.5 4t-64.5 4q-91 0 -208.5 -4t-142.5 -4q-31 0 -40 4 t-9 16t8 18.5t37 12.5q9 2 25 5q74 16 92 32q17 13 24 47t7 102l-2 242q0 19 -1.5 35t-4.5 32l-484 1q-14 0 -21 6.5t-7 19.5t6.5 19t21.5 6h467l-121 172h-344q-17 0 -23.5 5.5t-6.5 18.5q0 14 6 19.5t22 5.5h307q-43 57 -108 155q-131 197 -227 197q-7 0 -13 5.5t-6 11.5z " />
<glyph unicode="&#xa6;" d="M427 371h160v-789h-160v789zM427 789v789h160v-789h-160z" />
<glyph unicode="&#xa7;" d="M170 1130q0 148 89 237q82 79 216 86q8 1 17 1h3q66 0 163 -16.5t97 -41.5v-194h-51q-5 81 -80 132q-70 47 -149 51h-15q-78 0 -125 -44.5t-47 -117.5q0 -132 287 -269q149 -67 204.5 -143.5t55.5 -187.5q0 -171 -101 -282q-47 -39 -99 -64q108 -56 154 -118 q55 -77 55 -187q0 -171 -101 -283q-124 -102 -277 -105v1q-6 -1 -13 -1h-3q-66 0 -163 16.5t-97 41.5v194h51q5 -81 80 -132q68 -45 145 -50q113 6 185 69q72 64 72 165q0 125 -316 276q-123 64 -175.5 137t-52.5 177q0 148 89 237q67 65 170 82l-40 19q-123 64 -175.5 137 t-52.5 177zM297 571q0 -123 248 -250q56 16 97 53q73 65 73 166q0 5 -1 10h-2q-1 14 -4 27q-22 61 -113 127q-59 29 -126 29q-78 0 -125 -44.5t-47 -117.5z" />
<glyph unicode="&#xa8;" horiz-adv-x="1024" d="M209 1263q0 13 14 26l71 72q13 12 25 12q11 0 27 -14l69 -73q10 -14 10 -25q0 -13 -12 -27l-69 -75q-17 -17 -25 -17q-14 0 -25 12l-76 86q-9 12 -9 23zM574 1263q0 13 14 26l71 72q13 12 25 12q11 0 27 -13l69 -74q10 -14 10 -25q0 -13 -12 -26l-69 -76q-17 -17 -25 -17 q-14 0 -25 12l-76 87q-9 11 -9 22z" />
<glyph unicode="&#xa9;" horiz-adv-x="1674" d="M100 718q0 148 55.5 283t159.5 238q102 104 238.5 160.5t286.5 56.5q145 0 280 -56.5t239 -160.5q102 -101 158.5 -238t56.5 -283q0 -147 -56.5 -282t-162.5 -240q-105 -105 -239 -159.5t-283 -54.5q-146 0 -278 55.5t-238 160.5q-106 104 -161.5 237.5t-55.5 282.5z M160 718q0 -137 51 -259t148 -219q98 -96 219 -147t256 -51q137 0 259.5 50.5t219.5 145.5q97 98 149 221.5t52 258.5q0 134 -52 259.5t-145 219.5q-96 96 -220 147.5t-258 51.5q-137 0 -262 -51.5t-220 -147.5t-146 -219.5t-51 -259.5zM351 719q0 126 65.5 244t187.5 184.5 t254 66.5q38 0 75 -6.5t76 -20.5q5 -1 9 -1q19 0 26 30h42l72 -198h-44q-52 94 -131 124q-72 26 -147 26h-15q-86 -8 -166.5 -71t-121.5 -177q-33 -90 -33 -184q0 -25 2 -50q11 -121 69.5 -224t149.5 -152q72 -40 166 -42q124 0 194 56t70 126h53v-100q0 -46 -96.5 -86.5 t-242.5 -40.5q-142 0 -264 68t-186 185t-64 243z" />
<glyph unicode="&#xaa;" horiz-adv-x="648" />
<glyph unicode="&#xab;" horiz-adv-x="944" d="M174 479l342 303h14v-37l-205 -266l205 -266v-37h-14zM487 479l342 303h14v-37l-205 -266l205 -266v-37h-14z" />
<glyph unicode="&#xac;" d="M87 667v100h840v-491l-1 -1h-98v392h-741z" />
<glyph unicode="&#xad;" horiz-adv-x="670" d="M116 437v83q0 29 41 29h356q41 0 41 -29v-83q0 -28 -40 -28h-358q-40 0 -40 28z" />
<glyph unicode="&#xae;" horiz-adv-x="1674" d="M100 718q0 148 55.5 283t159.5 238q102 104 238.5 160.5t286.5 56.5q145 0 280 -56.5t239 -160.5q102 -101 158.5 -238t56.5 -283q0 -147 -56.5 -282t-162.5 -240q-105 -105 -239 -159.5t-283 -54.5q-146 0 -278 55.5t-238 160.5q-106 104 -161.5 237.5t-55.5 282.5z M160 718q0 -137 51 -259t148 -219q98 -96 219 -147t256 -51q137 0 259.5 50.5t219.5 145.5q97 98 149 221.5t52 258.5q0 134 -52 259.5t-145 219.5q-96 96 -220 147.5t-258 51.5q-137 0 -262 -51.5t-220 -147.5t-146 -219.5t-51 -259.5zM524 269v50h43q37 0 37 121v538 q0 121 -37 121h-43v70h356q64 -1 125 -42q60 -41 92.5 -114t32.5 -152q0 -78 -32 -150.5t-114 -134.5l82 -116q100 -141 150 -141h34v-50h-346v50h45q30 0 30 22q0 29 -69 114l-75 102q-42 0 -84 42v-159q0 -121 36 -121h53v-50h-316zM751 725l3 -8q23 -56 56 -81 q29 -22 56 -22h6q31 4 61.5 38.5t46.5 97.5q13 50 13 103q0 13 -1 27q-4 67 -28 124.5t-56.5 76t-63.5 18.5h-93v-374z" />
<glyph unicode="&#xaf;" horiz-adv-x="670" />
<glyph unicode="&#xb0;" horiz-adv-x="674" d="M60 1164q0 116 81.5 197t197.5 81q115 0 196 -81.5t81 -196.5q0 -114 -82 -196t-197 -82q-117 0 -197 81t-80 197zM130 1163q0 -87 61 -147t148 -60t147 60t60 147t-60.5 148t-146.5 61t-147.5 -61t-61.5 -148z" />
<glyph unicode="&#xb1;" />
<glyph unicode="&#xb2;" />
<glyph unicode="&#xb3;" />
<glyph unicode="&#xb4;" horiz-adv-x="1024" d="M316 1078l291 297q35 35 55.5 47t40.5 12q33 0 53.5 -20t20.5 -51q0 -22 -15.5 -42t-46.5 -40l-330 -203h-69z" />
<glyph unicode="&#xb5;" horiz-adv-x="1180" />
<glyph unicode="&#xb6;" horiz-adv-x="1024" d="M93 1086q0 157 107.5 253t285.5 96h443v-70h-127v-1365h-82v1365h-166v-1365h-84v738q-174 8 -275.5 102.5t-101.5 245.5z" />
<glyph unicode="&#xb7;" horiz-adv-x="508" d="M129 709q0 15 16 31l82 84q15 14 29 14q13 0 31 -16l80 -86q12 -16 12 -29q0 -15 -14 -31l-80 -88q-20 -20 -29 -20q-16 0 -29 14l-88 101q-10 13 -10 26z" />
<glyph unicode="&#xb8;" horiz-adv-x="1024" d="M360 -290q85 -52 152 -52q66 0 94.5 21.5t28.5 66.5t-49 64q-40 16 -102 16q-16 0 -34 -2l48 176h63l-37 -104q32 4 62 5q86 0 134 -40.5t48 -113.5q0 -76 -58.5 -120.5t-160.5 -44.5q-109 0 -189 32v96z" />
<glyph unicode="&#xb9;" />
<glyph unicode="&#xba;" horiz-adv-x="718" />
<glyph unicode="&#xbb;" horiz-adv-x="944" d="M101 176v37l205 266l-205 266v37h14l342 -303l-342 -303h-14zM414 176v37l205 266l-205 266v37h14l342 -303l-342 -303h-14z" />
<glyph unicode="&#xbc;" horiz-adv-x="1708" />
<glyph unicode="&#xbd;" horiz-adv-x="1964" />
<glyph unicode="&#xbe;" horiz-adv-x="1708" />
<glyph unicode="&#xbf;" horiz-adv-x="748" />
<glyph unicode="&#xc0;" horiz-adv-x="1540" />
<glyph unicode="&#xc1;" horiz-adv-x="1540" />
<glyph unicode="&#xc2;" horiz-adv-x="1540" />
<glyph unicode="&#xc3;" horiz-adv-x="1540" />
<glyph unicode="&#xc4;" horiz-adv-x="1540" />
<glyph unicode="&#xc5;" horiz-adv-x="1540" />
<glyph unicode="&#xc6;" horiz-adv-x="2118" />
<glyph unicode="&#xc7;" horiz-adv-x="1399" />
<glyph unicode="&#xc8;" horiz-adv-x="1151" />
<glyph unicode="&#xc9;" horiz-adv-x="1151" />
<glyph unicode="&#xca;" horiz-adv-x="1151" />
<glyph unicode="&#xcb;" horiz-adv-x="1151" />
<glyph unicode="&#xcc;" horiz-adv-x="657" />
<glyph unicode="&#xcd;" horiz-adv-x="657" />
<glyph unicode="&#xce;" horiz-adv-x="657" />
<glyph unicode="&#xcf;" horiz-adv-x="657" />
<glyph unicode="&#xd0;" horiz-adv-x="1518" />
<glyph unicode="&#xd1;" horiz-adv-x="1554" />
<glyph unicode="&#xd2;" horiz-adv-x="1614" />
<glyph unicode="&#xd3;" horiz-adv-x="1614" />
<glyph unicode="&#xd4;" horiz-adv-x="1614" />
<glyph unicode="&#xd5;" horiz-adv-x="1614" />
<glyph unicode="&#xd6;" horiz-adv-x="1614" />
<glyph unicode="&#xd7;" d="M161 470l247 247l-247 248l99 98l247 -247l248 247l98 -99l-247 -247l247 -247l-99 -99l-247 247l-247 -247z" />
<glyph unicode="&#xd8;" horiz-adv-x="1614" />
<glyph unicode="&#xd9;" horiz-adv-x="1501" />
<glyph unicode="&#xda;" horiz-adv-x="1501" />
<glyph unicode="&#xdb;" horiz-adv-x="1501" />
<glyph unicode="&#xdc;" horiz-adv-x="1501" />
<glyph unicode="&#xdd;" horiz-adv-x="1233" />
<glyph unicode="&#xde;" horiz-adv-x="1120" />
<glyph unicode="&#xdf;" horiz-adv-x="1251" />
<glyph unicode="&#xe0;" horiz-adv-x="922" />
<glyph unicode="&#xe1;" horiz-adv-x="922" />
<glyph unicode="&#xe2;" horiz-adv-x="922" />
<glyph unicode="&#xe3;" horiz-adv-x="922" />
<glyph unicode="&#xe4;" horiz-adv-x="922" />
<glyph unicode="&#xe5;" horiz-adv-x="922" />
<glyph unicode="&#xe6;" horiz-adv-x="1454" />
<glyph unicode="&#xe7;" horiz-adv-x="905" />
<glyph unicode="&#xe8;" horiz-adv-x="909" />
<glyph unicode="&#xe9;" horiz-adv-x="909" />
<glyph unicode="&#xea;" horiz-adv-x="909" />
<glyph unicode="&#xeb;" horiz-adv-x="909" />
<glyph unicode="&#xec;" horiz-adv-x="514" />
<glyph unicode="&#xed;" horiz-adv-x="514" />
<glyph unicode="&#xee;" horiz-adv-x="514" />
<glyph unicode="&#xef;" horiz-adv-x="514" />
<glyph unicode="&#xf0;" horiz-adv-x="1139" />
<glyph unicode="&#xf1;" horiz-adv-x="1108" />
<glyph unicode="&#xf2;" horiz-adv-x="1010" />
<glyph unicode="&#xf3;" horiz-adv-x="1010" />
<glyph unicode="&#xf4;" horiz-adv-x="1010" />
<glyph unicode="&#xf5;" horiz-adv-x="1010" />
<glyph unicode="&#xf6;" horiz-adv-x="1010" />
<glyph unicode="&#xf7;" d="M87 647v140h839l1 -1v-139h-840zM382 377q0 15 16 31l82 84q15 14 29 14q13 0 31 -16l80 -86q12 -16 12 -29q0 -15 -14 -31l-80 -88q-20 -20 -29 -20q-16 0 -29 14l-88 101q-10 13 -10 26zM382 1070q0 15 16 31l82 84q15 14 29 14q13 0 31 -16l80 -86q12 -16 12 -29 q0 -15 -14 -31l-80 -88q-20 -20 -29 -20q-16 0 -29 14l-88 101q-10 13 -10 26z" />
<glyph unicode="&#xf8;" horiz-adv-x="1010" />
<glyph unicode="&#xf9;" horiz-adv-x="1059" />
<glyph unicode="&#xfa;" horiz-adv-x="1059" />
<glyph unicode="&#xfb;" horiz-adv-x="1059" />
<glyph unicode="&#xfc;" horiz-adv-x="1059" />
<glyph unicode="&#xfd;" horiz-adv-x="868" />
<glyph unicode="&#xfe;" horiz-adv-x="1010" />
<glyph unicode="&#xff;" horiz-adv-x="868" />
<glyph unicode="&#x2c6;" horiz-adv-x="1024" d="M221 1079l232 355h118l232 -355h-58l-233 216l-233 -216h-58z" />
<glyph unicode="&#x2dc;" horiz-adv-x="1024" d="M234 1132q19 106 68 158.5t129 52.5q46 -1 113 -24q64 -23 112 -23h4q36 0 58 20t36 66h54q-20 -103 -68.5 -154t-126.5 -51h-4q-50 0 -113 23q-66 24 -114 24q-39 0 -60.5 -20.5t-33.5 -71.5h-54z" />
<glyph unicode="&#x2000;" horiz-adv-x="789" />
<glyph unicode="&#x2001;" horiz-adv-x="1579" />
<glyph unicode="&#x2002;" horiz-adv-x="789" />
<glyph unicode="&#x2003;" horiz-adv-x="1579" />
<glyph unicode="&#x2004;" horiz-adv-x="526" />
<glyph unicode="&#x2005;" horiz-adv-x="394" />
<glyph unicode="&#x2006;" horiz-adv-x="263" />
<glyph unicode="&#x2007;" horiz-adv-x="263" />
<glyph unicode="&#x2008;" horiz-adv-x="197" />
<glyph unicode="&#x2009;" horiz-adv-x="315" />
<glyph unicode="&#x200a;" horiz-adv-x="87" />
<glyph unicode="&#x2010;" horiz-adv-x="670" d="M116 437v83q0 29 41 29h356q41 0 41 -29v-83q0 -28 -40 -28h-358q-40 0 -40 28z" />
<glyph unicode="&#x2011;" horiz-adv-x="670" d="M116 437v83q0 29 41 29h356q41 0 41 -29v-83q0 -28 -40 -28h-358q-40 0 -40 28z" />
<glyph unicode="&#x2012;" horiz-adv-x="670" d="M116 437v83q0 29 41 29h356q41 0 41 -29v-83q0 -28 -40 -28h-358q-40 0 -40 28z" />
<glyph unicode="&#x2013;" horiz-adv-x="1108" d="M56 419v120h996v-120h-996z" />
<glyph unicode="&#x2014;" horiz-adv-x="2048" d="M0 419v120h2048v-120h-2048z" />
<glyph unicode="&#x2018;" horiz-adv-x="557" d="M186 1233q0 109 71 226.5t139 117.5v-43q-73 -43 -87 -190q0 -119 129 -161v-42l-119 -125q-44 0 -88.5 65.5t-44.5 151.5z" />
<glyph unicode="&#x2019;" horiz-adv-x="557" d="M119 1410v42l119 125q44 0 88.5 -65.5t44.5 -151.5q0 -109 -71 -226.5t-139 -117.5v43q73 43 87 190q0 119 -129 161z" />
<glyph unicode="&#x201a;" horiz-adv-x="557" d="M119 114v42l119 125q44 0 88.5 -65.5t44.5 -151.5q0 -109 -71 -226.5t-139 -117.5v43q73 43 87 190q0 119 -129 161z" />
<glyph unicode="&#x201c;" horiz-adv-x="910" d="M186 1233q0 109 71 226.5t139 117.5v-43q-73 -43 -87 -190q0 -119 129 -161v-42l-119 -125q-44 0 -88.5 65.5t-44.5 151.5zM539 1233q0 109 71 226.5t139 117.5v-43q-73 -43 -87 -190q0 -119 129 -161v-42l-119 -125q-44 0 -88.5 65.5t-44.5 151.5z" />
<glyph unicode="&#x201d;" horiz-adv-x="910" d="M119 1410v42l119 125q44 0 88.5 -65.5t44.5 -151.5q0 -109 -71 -226.5t-139 -117.5v43q73 43 87 190q0 119 -129 161zM472 1410v42l119 125q44 0 88.5 -65.5t44.5 -151.5q0 -109 -71 -226.5t-139 -117.5v43q73 43 87 190q0 119 -129 161z" />
<glyph unicode="&#x201e;" horiz-adv-x="910" d="M119 114v42l119 125q44 0 88.5 -65.5t44.5 -151.5q0 -109 -71 -226.5t-139 -117.5v43q73 43 87 190q0 119 -129 161zM472 114v42l119 125q44 0 88.5 -65.5t44.5 -151.5q0 -109 -71 -226.5t-139 -117.5v43q73 43 87 190q0 119 -129 161z" />
<glyph unicode="&#x2022;" horiz-adv-x="1024" d="M216 718q0 123 87 209t210 86q122 0 208.5 -86.5t86.5 -208.5t-87.5 -209.5t-209.5 -87.5q-123 0 -209 87t-86 210z" />
<glyph unicode="&#x2026;" horiz-adv-x="2048" d="M129 136q0 15 16 31l82 84q15 14 29 14q13 0 31 -16l80 -86q12 -16 12 -29q0 -15 -14 -31l-80 -88q-20 -20 -29 -20q-16 0 -29 14l-88 101q-10 13 -10 26zM812 136q0 15 16 31l82 84q15 14 29 14q13 0 31 -16l80 -86q12 -16 12 -29q0 -15 -14 -31l-80 -88 q-20 -20 -29 -20q-16 0 -29 14l-88 101q-10 13 -10 26zM1495 136q0 15 16 31l82 84q15 14 29 14q13 0 31 -16l80 -86q12 -16 12 -29q0 -15 -14 -31l-80 -88q-20 -20 -29 -20q-16 0 -29 14l-88 101q-10 13 -10 26z" />
<glyph unicode="&#x202f;" horiz-adv-x="315" />
<glyph unicode="&#x2039;" horiz-adv-x="631" d="M174 479l342 303h14v-37l-205 -266l205 -266v-37h-14z" />
<glyph unicode="&#x203a;" horiz-adv-x="631" d="M101 176v37l205 266l-205 266v37h14l342 -303l-342 -303h-14z" />
<glyph unicode="&#x205f;" horiz-adv-x="394" />
<glyph unicode="&#x20ac;" d="M-44 653l17 60h87v29q0 16 1 31h-71l17 60h58q14 145 76 281q81 178 226 274t298 96q43 0 87 -8q40 -10 82 -29q8 -6 16 -6q20 0 34 45h41l84 -281l-40 -1q-49 134 -138 178q-43 22 -81 32v3q-50 16 -101 16q-17 0 -34 -2q-120 -12 -226 -113.5t-157 -273.5 q-32 -104 -39 -211h706l-17 -60h-692q0 -30 2 -60h674l-17 -60h-652q17 -158 83 -298q74 -157 193 -236q102 -68 216 -69q186 3 256 91q74 91 74 185h48v-143q0 -70 -111 -127q-105 -54 -267 -56q-181 0 -325.5 98t-223.5 274q-62 135 -76 281h-108z" />
<glyph unicode="&#x2122;" horiz-adv-x="1497" />
<glyph unicode="&#x25fc;" horiz-adv-x="1430" d="M0 0v1430h1430v-1430h-1430z" />
</font>
</defs>
</svg>
