<?xml version="1.0" standalone="no"?>
<!DOCTYPE svg PUBLIC "-//W3C//DTD SVG 1.1//EN" "http://www.w3.org/Graphics/SVG/1.1/DTD/svg11.dtd" >
<svg xmlns="http://www.w3.org/2000/svg" xmlns:xlink="http://www.w3.org/1999/xlink" version="1.1">
<metadata></metadata>
<defs>
<font id="fha_nicholson_french_ncvRg" horiz-adv-x="1568" >
<font-face units-per-em="2048" ascent="1475" descent="-573" />
<missing-glyph horiz-adv-x="503" />
<glyph horiz-adv-x="0" />
<glyph unicode="&#xd;" horiz-adv-x="503" />
<glyph unicode=" "  horiz-adv-x="503" />
<glyph unicode="&#x09;" horiz-adv-x="503" />
<glyph unicode="&#xa0;" horiz-adv-x="503" />
<glyph unicode="!" horiz-adv-x="684" d="M102 1366v109h480v-109l-90 -870h-299zM166 0v346h350v-346h-350z" />
<glyph unicode="&#x22;" horiz-adv-x="901" d="M102 1526h295l-57 -559h-186zM504 1526h295l-58 -559h-186z" />
<glyph unicode="#" horiz-adv-x="1630" d="M137 434l41 207h301l39 211h-319l41 207h309l72 418h219l-72 -418h270l70 418h219l-70 -418h302l-41 -207h-293l-39 -211h311l-41 -207h-303l-70 -434h-219l70 434h-266l-72 -434h-219l72 434h-312zM698 641h269l39 211h-269z" />
<glyph unicode="$" horiz-adv-x="1196" d="M96 115v577h111q0 -66 29.5 -138.5t77.5 -138t109.5 -112.5t127.5 -59v350q-59 31 -136 66.5t-147.5 83t-119 108.5t-48.5 143q0 100 38 175t101.5 125.5t144.5 77t167 30.5v119h121v-117q98 -4 179 -35t118 -61l100 63v-475h-115q-27 133 -96.5 231.5t-185.5 124.5v-303 q70 -33 144.5 -71.5t139 -89t109.5 -117t55 -154.5q12 -100 -20.5 -181t-95 -139.5t-148.5 -91t-184 -36.5v-119h-121v119q-123 14 -210 58t-140 87zM440 1147q0 -35 25 -70.5t86 -66.5v243q-47 -8 -79 -37.5t-32 -68.5zM672 242q57 10 80.5 40.5t23.5 71.5q0 49 -29.5 95.5 t-74.5 68.5v-276z" />
<glyph unicode="%" horiz-adv-x="1611" d="M100 1196q0 63 23.5 118.5t64.5 96.5t96.5 64.5t118.5 23.5t119 -23.5t96.5 -64.5t64.5 -96.5t24 -118.5t-24 -118.5t-64.5 -96.5t-96 -64.5t-119.5 -23.5q-63 0 -118.5 23.5t-96.5 64.5t-64.5 96.5t-23.5 118.5zM291 1196q0 -45 32.5 -78t79.5 -33t80 33t33 78 q0 47 -32.5 79t-80.5 32q-47 0 -79.5 -32t-32.5 -79zM406 -14l548 1511h232l-529 -1511h-251zM905 291q0 63 23.5 118.5t64.5 96.5t96.5 65.5t118.5 24.5t118.5 -24.5t96.5 -65.5t64.5 -96.5t23.5 -118.5t-23.5 -118.5t-64.5 -97.5t-96 -65.5t-119 -23.5q-63 0 -118.5 23.5 t-96.5 65.5t-64.5 97t-23.5 119zM1096 293q0 -47 32.5 -80t79.5 -33t79 33t32 80q0 45 -32 77.5t-79 32.5t-79.5 -32.5t-32.5 -77.5z" />
<glyph unicode="&#x26;" horiz-adv-x="1662" d="M92 362q0 98 26.5 183.5t73 156t107.5 128t129 98.5l-207 260q37 76 103.5 138.5t144.5 105.5t161 66.5t154 23.5q72 0 128.5 -5.5t107.5 -17.5t101 -31.5t108 -48.5l10 58h113v-564h-187v134q-29 92 -64.5 153.5t-79.5 98t-96.5 52t-113.5 15.5q-45 0 -88 -38t-59 -85 l526 -692q23 20 36 53t17 70t-2 73.5t-20 67.5h309v-108h-84q6 -92 -31 -176.5t-98 -131.5l211 -290h84v-109h-486l-96 131q-53 -43 -105.5 -75.5t-111.5 -56.5t-127 -35t-151 -11q-102 0 -183.5 29.5t-139.5 84t-89 129t-31 166.5zM447.5 555q1.5 -47 15.5 -92 q18 -57 56 -100.5t86 -69t103.5 -32.5t110.5 9q18 4 41 15.5t39 23.5l-364 482q-29 -25 -49.5 -63t-30 -82t-8 -91z" />
<glyph unicode="'" horiz-adv-x="499" d="M102 1526h295l-57 -559h-186z" />
<glyph unicode="(" horiz-adv-x="772" d="M100 717q0 213 104.5 415.5t272.5 378.5h256q-115 -209 -172 -404.5t-57 -389.5q0 -197 57 -392.5t172 -406.5h-256q-84 88 -153.5 184.5t-118.5 197.5t-77 206.5t-28 210.5z" />
<glyph unicode=")" horiz-adv-x="772" d="M39 -82q117 213 173 411.5t54 397.5q-2 193 -58 386.5t-169 397.5h256q168 -176 272.5 -378.5t104.5 -415.5q0 -104 -28 -210t-77 -207t-118.5 -197.5t-153.5 -184.5h-256z" />
<glyph unicode="*" horiz-adv-x="991" d="M82 1122l307 86l-307 64l135 231l203 -196l-66 280h285l-68 -280l203 196l135 -231l-309 -64l309 -86l-145 -231l-193 196l68 -280h-285l66 280l-191 -196z" />
<glyph unicode="+" horiz-adv-x="1196" d="M102 625v237h371v377h248v-377h373v-237h-373v-379h-248v379h-371z" />
<glyph unicode="," horiz-adv-x="555" d="M102 0v346h351v-346l-125 -201h-88l51 201h-189z" />
<glyph unicode="-" horiz-adv-x="802" d="M102 514v303h598v-303h-598z" />
<glyph unicode="." horiz-adv-x="555" d="M102 0v346h351v-346h-351z" />
<glyph unicode="/" horiz-adv-x="555" d="M0 -49l289 1581h266l-289 -1581h-266z" />
<glyph unicode="0" horiz-adv-x="1478" d="M82 737q0 186 54 333t144.5 247t210 152.5t248.5 52.5t249 -52.5t210 -151.5t144.5 -245.5t54.5 -335.5q0 -186 -54.5 -332.5t-144.5 -247t-210 -152.5t-249 -52t-248.5 52t-210 152.5t-144.5 247t-54 332.5zM532 737q0 -145 16.5 -261t45.5 -196.5t65.5 -123.5t79.5 -43 t80 42t65.5 122.5t45 196.5t16.5 263q0 145 -16.5 261t-45 197t-65.5 124t-80 43t-79.5 -43t-65.5 -124t-45.5 -197t-16.5 -261z" />
<glyph unicode="1" horiz-adv-x="796" d="M92 0v109h105v1196h-105v108q88 0 155.5 14.5t127.5 47.5h233v-1366h105v-109h-621z" />
<glyph unicode="2" horiz-adv-x="1486" d="M70 0l526 733q37 55 80 121t80 132.5t61.5 128t26.5 109.5t-24.5 76.5t-92.5 28.5q-57 0 -129 -32.5t-134.5 -102.5t-104.5 -175.5t-37 -250.5h-168v707h137v-93q88 72 218 106t257 34q70 0 167 -14.5t187 -50.5t159 -99.5t83 -161.5q8 -59 -3 -117.5t-59 -103.5 l-720 -674q27 -45 78 -69.5t112 -29.5t129 6t129.5 37.5t111.5 65.5t77 90v381h151v-782h-151v98q-49 -43 -106.5 -70.5t-119 -44t-124 -23.5t-124.5 -7q-61 0 -115.5 12t-97.5 32.5t-73.5 45.5t-44.5 47l-58 -90h-284z" />
<glyph unicode="3" horiz-adv-x="1392" d="M123 0v717h143q0 -150 32 -261.5t82 -186t115.5 -111.5t133.5 -37q37 0 79 22.5t75.5 63.5t56 100.5t20.5 130.5q-2 72 -22.5 123t-50 85t-66.5 50.5t-72 16.5h-129v159h115q115 0 162 57.5t47 178.5q0 55 -18.5 101t-47 80t-63.5 53.5t-68 19.5q-109 0 -181.5 -58.5 t-115.5 -140.5t-61.5 -170t-20.5 -147h-145v629h135v-86q96 78 208 105.5t234 27.5q82 0 177.5 -17.5t178.5 -57.5t142 -108.5t72 -169.5q8 -70 -7.5 -129t-51 -105t-89 -77t-116.5 -41q61 -6 117.5 -33.5t98.5 -74.5t66.5 -110.5t24.5 -141.5q0 -139 -52.5 -234.5 t-143.5 -156t-212 -87t-258 -26.5q-117 0 -225.5 30.5t-163.5 90.5v-74h-135z" />
<glyph unicode="4" horiz-adv-x="1544" d="M-23 481l719 994h570v-109h-84v-713l127 49l-19 62l119 37l141 -393l-125 -46l-24 70l-232 -61v-262h84v-109h-596v109h84v239q-47 -2 -113.5 2t-138 19.5t-138 42t-113.5 71.5l-88 -125zM334 616q45 -10 96 -16t105.5 -8t106.5 1t99 9v578z" />
<glyph unicode="5" horiz-adv-x="1398" d="M133 0v612h162q0 -88 21.5 -178t64.5 -162.5t105.5 -119t142.5 -46.5q29 0 66.5 13.5t70.5 43.5t55.5 78t22.5 119q0 78 -18.5 152t-58.5 130t-104.5 91t-156.5 35q-59 0 -127 -16.5t-96 -42.5h-111l-39 36v730h1030l80 -422h-80l-51 67h-764v-225q18 16 89 37.5t166 35 t199.5 12.5t190.5 -32q92 -35 153.5 -86t98.5 -112.5t53.5 -129t16.5 -135.5q2 -143 -45 -243.5t-128 -165t-190.5 -94t-232.5 -29.5q-133 0 -251 31.5t-210 119.5v-104h-125z" />
<glyph unicode="6" horiz-adv-x="1415" d="M72 680q0 184 41 339t129 266.5t222 174t322 62.5q43 0 93.5 -8.5t100.5 -24.5t93 -42t72 -61v82h135v-518h-135v60q0 66 -32 127t-81 108t-107.5 75t-111.5 28q-84 0 -142.5 -54.5t-94 -131.5t-48 -160.5t-2.5 -141.5q27 31 65 52.5t80 33.5t87 18.5t86 6.5 q117 0 211 -38t159.5 -107.5t98 -164.5t28.5 -210q-4 -119 -54 -212.5t-132 -157t-187.5 -96t-222.5 -32.5q-164 0 -289.5 57.5t-210.5 156.5t-129 231t-44 282zM549 451q0 -176 55 -258t127 -82q41 0 76 17t59.5 57t39 106t16.5 160q2 92 -11.5 159.5t-40 110.5t-62.5 64.5 t-77 21.5q-37 0 -69.5 -24.5t-57 -70.5t-40 -113t-15.5 -148z" />
<glyph unicode="7" horiz-adv-x="1398" d="M90 809v664h123v-70q123 72 239.5 95.5t227.5 23.5q63 -2 139 -10.5t152 -32.5q35 -10 59.5 -21.5t42.5 -21.5l55 67q49 -20 93.5 -31.5t79 -18.5t62.5 -13.5t46 -16.5q-25 -6 -62.5 -52t-79.5 -113.5t-85 -146.5t-76 -148l-401 -863h133v-100h-732l865 1264 q-66 53 -140.5 61t-150.5 -14.5t-149.5 -68.5t-134 -101.5t-105.5 -111.5t-66 -97v-123h-135z" />
<glyph unicode="8" horiz-adv-x="1556" d="M82 467q0 88 30.5 163t82 134t119 102t141.5 70q-104 29 -172 97.5t-64 158.5q4 76 51 137.5t124 104.5t175.5 65.5t204.5 22.5t205.5 -22.5t176.5 -65.5t124 -104.5t51 -137.5q4 -90 -63.5 -158.5t-165.5 -97.5q74 -27 141.5 -70t118.5 -102t82 -134t31 -163 q0 -135 -60.5 -232.5t-159 -160t-224.5 -92t-257 -29.5q-127 0 -251 29.5t-222 92t-158.5 160t-60.5 232.5zM555 485q-4 -96 17.5 -165.5t55.5 -115.5t72.5 -67.5t73.5 -21.5q37 0 78 21.5t75 67.5t55.5 115.5t21.5 165.5q-4 96 -26 164t-54.5 110t-72.5 61.5t-77 19.5 q-35 0 -71.5 -19.5t-68.5 -61.5t-54.5 -109.5t-24.5 -164.5zM633 1188q-2 -47 10 -81t31.5 -56.5t46.5 -33.5t53 -11q31 0 58.5 11t49 33.5t34 56.5t10.5 81q-4 98 -48 137t-104 39q-53 0 -96 -39t-45 -137z" />
<glyph unicode="9" horiz-adv-x="1421" d="M80 1030q0 119 49 211t132 154.5t190.5 94.5t222.5 32q164 0 290 -56.5t212 -152.5t130 -227.5t44 -280.5q0 -184 -41 -340t-128 -269.5t-222.5 -178t-321.5 -64.5q-43 0 -93 8t-100.5 24.5t-94.5 41t-73 59.5v-86h-135v555h135v-61q0 -66 32 -131.5t81 -117.5t106.5 -85 t110.5 -33q84 0 143.5 57.5t95.5 138t48 168t2 144.5q-51 -53 -135 -76.5t-172 -23.5q-113 0 -206 30.5t-160.5 92t-104.5 154.5t-37 218zM504 1024q-4 -182 51 -259t137 -77q74 0 129.5 85t55.5 251q0 176 -55.5 257t-129.5 81q-82 0 -133 -75t-55 -263z" />
<glyph unicode=":" horiz-adv-x="555" d="M102 0v346h351v-346h-351zM102 674v346h351v-346h-351z" />
<glyph unicode=";" horiz-adv-x="555" d="M102 0v346h351v-346l-125 -201h-88l51 201h-189zM102 674v346h351v-346h-351z" />
<glyph unicode="&#x3c;" horiz-adv-x="995" d="M100 631v219l797 450v-292l-555 -267l555 -268v-291z" />
<glyph unicode="=" horiz-adv-x="980" d="M100 395v254h781v-254h-781zM100 829v254h781v-254h-781z" />
<glyph unicode="&#x3e;" horiz-adv-x="995" d="M100 182v291l553 268l-553 267v292l797 -450v-219z" />
<glyph unicode="?" horiz-adv-x="1402" d="M102 891v584h117v-72q27 25 80 48.5t120.5 39.5t143.5 26.5t150 10.5q100 0 207.5 -20.5t196.5 -69.5t146.5 -130t57.5 -200q0 -111 -66.5 -191.5t-216.5 -150.5q-53 -25 -111.5 -47.5t-109.5 -48t-84 -57t-33 -74.5v-43h-317v75q0 98 26.5 167t69.5 118t100.5 83 t118.5 60q88 39 138.5 89.5t44.5 105.5q-8 76 -62.5 106.5t-126.5 30.5q-49 0 -110.5 -17.5t-124 -66.5t-120.5 -135t-99 -221h-136zM367 0v346h350v-346h-350z" />
<glyph unicode="@" horiz-adv-x="1710" d="M70 735q0 180 63.5 325.5t175 248t262 159t324.5 56.5q160 0 296 -52.5t235.5 -143.5t156.5 -215t57 -267q0 -109 -38.5 -211.5t-109.5 -182t-172 -129t-224 -49.5q-25 0 -50.5 6.5t-50 17.5t-45 25.5t-30.5 30.5q-29 -29 -88.5 -54.5t-133.5 -25.5q-86 0 -152.5 35 t-94.5 107q-33 78 -33 162t22.5 162.5t63.5 148t90 119.5q66 63 144.5 98t160.5 35q43 0 85 -17.5t63 -48.5l8 49h252l-123 -653q-2 -12 -4 -25.5t-1 -23.5t6 -17.5t19 -7.5q66 0 115 42t81 102.5t47 128t15 121.5q0 141 -45 240t-124 162.5t-184 93.5t-228 30 q-131 0 -240 -48t-187.5 -131t-121.5 -193.5t-43 -235.5q0 -127 46 -235.5t126 -187.5t186.5 -124t226.5 -47q63 -4 131 4t132.5 29.5t121 56.5t97.5 86h168q-117 -158 -286 -242t-355 -84q-156 0 -302.5 50.5t-260 148.5t-182 241.5t-68.5 329.5zM680 548.5 q6 -65.5 35 -102.5q18 -23 45.5 -28.5t57.5 -0.5t57.5 17t44.5 29l100 489q-20 41 -76 41q-37 0 -84 -18.5t-84 -59.5q-31 -35 -55.5 -97t-35.5 -133t-5 -136.5z" />
<glyph unicode="A" horiz-adv-x="1560" d="M61 0v109h84l377 1257h-108v109h721v-109h-109l389 -1257h84v-109h-596v109h84l-74 247h-440l-76 -247h84v-109h-420zM547 610h291l-148 500z" />
<glyph unicode="B" d="M102 0v109h84v1257h-84v109h787q19 1 37 1q86 0 164 -16q96 -18 169.5 -56t118.5 -96.5t52 -133.5v-11q0 -36 -12 -72q-14 -42 -45.5 -81t-81.5 -70t-120 -49q76 -20 139.5 -60t108.5 -94.5t71 -121t26 -140.5q0 -143 -66 -243.5t-180 -159.5q-114 -58 -268 -76 q-68 -8 -142 -9q-91 0 -190 13h-568zM623 172q38 -4 73 -4q61 0 113 12q82 18 138.5 58.5t86 100.5t29.5 134q0 57 -24.5 128t-90.5 118q-37 25 -78 38t-83 17t-83.5 4h-80.5v-606zM623 985q53 0 121 -1h9q63 0 119 12q60 14 101 49.5t41 107.5q0 70 -41 104.5t-101 48.5 q-49 11 -102 11q-12 0 -24 -1q-68 -3 -123 -5v-326z" />
<glyph unicode="C" horiz-adv-x="1464" d="M76 739q0 203 64.5 350.5t167 244t228.5 142.5t250 46q82 0 139.5 -9.5t98.5 -24.5t71.5 -35.5t61.5 -43.5l60 66h114v-576h-215q1 15 1 31q1 58 -17 122q-22 81 -65.5 150.5t-104 114.5t-129.5 45q-47 0 -95.5 -29.5t-88 -101.5t-64.5 -191.5t-25 -300.5 q0 -168 19.5 -282.5t53.5 -186t82.5 -107.5t107.5 -48q80 16 140 71.5t99 135.5q38 78 56 174q13 71 14 143q0 24 -2 49l299 -147q0 -5 1 -11q0 -127 -47 -231q-48 -109 -134.5 -185.5t-200 -118.5t-238.5 -42q-135 0 -262 44t-224 139t-156.5 243.5t-59.5 359.5z" />
<glyph unicode="D" horiz-adv-x="1579" d="M102 0v109h84v1257h-84v109h566q152 0 303 -45.5t273 -136.5t198 -229.5t76 -324.5q0 -190 -70 -329.5t-183.5 -230.5t-256 -135t-285.5 -44h-621zM625 164q86 0 165.5 47t140 125t97.5 181t37 216q0 111 -37 215.5t-97.5 184t-140 129t-165.5 49.5v-1147z" />
<glyph unicode="E" horiz-adv-x="1376" d="M102 0v109h84v1257h-84v109h1141v-580h-137q-12 88 -56 168t-110 137t-148 88q-66 25 -138 25q-19 0 -38 -2v-369h310v-217h-310v-561q12 -1 24 -1q74 1 145 33q83 38 148.5 105.5t108.5 158.5t48 191h153v-651h-1141z" />
<glyph unicode="F" horiz-adv-x="1337" d="M102 0v109h84v1257h-84v109h1153v-580h-137q-14 90 -58 169t-109.5 136t-149.5 87q-70 25 -147 25q-15 0 -31 -1v-369h323v-217h-323v-616h84v-109h-605z" />
<glyph unicode="G" horiz-adv-x="1499" d="M76 741q0 203 64.5 350.5t167 243t229.5 141.5t251 46q145 0 230.5 -35t140.5 -78l58 66h114v-576h-215q1 16 1 32q0 58 -17 121q-21 81 -65 150.5t-104.5 114.5t-129.5 45q-47 0 -94.5 -29.5t-87 -100.5t-64.5 -190.5t-25 -300.5q0 -168 15.5 -282.5t45.5 -186 t74 -107.5t99 -48q25 -4 52.5 -1t52 14t41 30.5t16.5 48.5v487h-129v109h637v-109h-88v-399q0 -61 -42 -122.5t-116 -111t-173.5 -79t-213.5 -29.5q-164 0 -297 50t-228.5 149.5t-147.5 247t-52 339.5z" />
<glyph unicode="H" horiz-adv-x="1570" d="M102 0v109h84v1257h-84v109h607v-109h-84v-424h321v424h-84v109h606v-109h-84v-1257h84v-109h-606v109h84v616h-321v-616h84v-109h-607z" />
<glyph unicode="I" horiz-adv-x="808" d="M102 0v109h84v1257h-84v109h605v-109h-84v-1257h84v-109h-605z" />
<glyph unicode="J" horiz-adv-x="1351" d="M96 0v805h180q0 -150 24 -272.5t66 -209.5t97 -134.5t117 -47.5q57 0 91 36t51 88t22.5 110.5t5.5 103.5v887h-84v109h604v-109h-84v-903q0 -123 -41 -219.5t-112.5 -163t-171 -102t-218.5 -35.5q-94 0 -158.5 16t-111.5 42t-83 57.5t-73 62.5v-121h-121z" />
<glyph unicode="K" horiz-adv-x="1579" d="M102 0v109h84v1257h-84v109h605v-109h-84v-573l460 573h-84v109h453v-109h-106l-244 -262l358 -995h84v-109h-565l-141 731l-215 -266v-356h84v-109h-605z" />
<glyph unicode="L" horiz-adv-x="1329" d="M102 0v109h84v1257h-84v109h603v-109h-84v-1192q92 0 177 38t147.5 124t96.5 223q28 111 29 263q0 35 -2 73h162v-895h-1129z" />
<glyph unicode="M" horiz-adv-x="1787" d="M102 0v109h84v1257h-84v109h473l340 -482l314 482h457v-109h-84v-1257h84v-109h-603v109h84v852l-358 -560l-391 555v-847h84v-109h-400z" />
<glyph unicode="N" horiz-adv-x="1454" d="M102 0v109h84v1257h-84v109h500l457 -693v584h-84v109h387v-109h-84v-1366h-242l-651 997v-888h84v-109h-367z" />
<glyph unicode="O" d="M76 737q0 180 57 325.5t153.5 247t225.5 157t274 55.5q143 0 273.5 -55.5t226.5 -157t153.5 -247t57.5 -325.5t-57.5 -325.5t-153.5 -247t-226 -156.5t-274 -55q-145 0 -274 55t-225.5 156.5t-153.5 247t-57 325.5zM555 737q0 -160 18.5 -277.5t50 -194.5t73.5 -114.5 t89 -37.5t89.5 37.5t74 114.5t50 194.5t18.5 277.5t-18.5 278t-50 194.5t-73.5 114.5t-90 38q-47 0 -89 -38t-73.5 -114.5t-50 -194.5t-18.5 -278z" />
<glyph unicode="P" horiz-adv-x="1511" d="M102 0v109h84v1257h-84v109h537q94 7 178 7q97 0 181 -10q156 -18 264 -68t163.5 -129t55.5 -183q0 -117 -69 -202t-186 -133q-118 -47 -274 -57q-33 -2 -67 -3q-125 0 -262 28v-616h84v-109h-605zM623 897q68 -11 125 -11q38 0 72 5q84 12 139 44t82.5 76t27.5 87 q0 68 -39 111.5t-102.5 68.5t-143.5 32q-43 4 -86 4q-37 0 -75 -3v-414z" />
<glyph unicode="Q" d="M76 737q0 180 57 325.5t153.5 247t225.5 157t274 55.5q143 0 273.5 -55.5t226.5 -157t153.5 -247t57.5 -325.5q0 -223 -83 -389t-220 -266q18 -53 57 -86t111 -33q49 0 93 32t48 89q31 -35 47.5 -71t18.5 -62q1 -11 1 -22q0 -40 -12 -79q-14 -49 -47.5 -87.5t-89 -63.5 t-131.5 -25q-141 0 -234 80t-124 215q-76 -16 -146 -16q-145 0 -274 55t-225.5 156.5t-153.5 247t-57 325.5zM555 737q0 -160 18.5 -278.5t50 -197.5t73.5 -117t89 -38q61 0 109 60q-16 70 -63 114q-44 42 -143 42h-9q66 51 144 65q25 4 51 4q55 0 112 -20q16 72 23.5 164 t7.5 202q0 160 -18.5 278t-50 194.5t-73.5 114.5t-90 38q-47 0 -89 -38t-73.5 -114.5t-50 -194.5t-18.5 -278z" />
<glyph unicode="R" horiz-adv-x="1583" d="M102 0v109h84v1257h-84v109h555q113 7 207 7q115 0 203 -10q160 -20 252 -67t127 -116.5t37 -151.5q0 -41 -11.5 -92.5t-50.5 -99.5t-112.5 -86t-196.5 -50l336 -700h84v-109h-559l-205 784h-145v-675h84v-109h-605zM623 993q53 -3 100 -3q332 0 332 161q0 119 -172 149 q-51 10 -117 12h-37q-50 0 -106 -3v-316z" />
<glyph unicode="S" horiz-adv-x="1380" d="M96 0v715h131v-37q0 -86 42 -175t103.5 -163t131 -125t125.5 -61q60 -11 104 -11q27 0 47 4q56 11 81.5 41.5t25.5 73.5t-13 86q-23 74 -81 127t-131.5 94t-151.5 74t-139 64q-125 61 -193 156q-66 95 -74 199q-1 12 -1 25q1 91 49 179q56 100 174 168q92 52 210 72 q98 17 190 17q18 0 36 -1q59 0 114.5 -12.5t102.5 -30t85 -38t60 -38.5v72h121v-584h-137q-18 92 -57 174t-95.5 143.5t-127 97t-152.5 35.5q-66 0 -111 -26.5t-55 -68.5q-2 -10 -2 -20q0 -34 26 -73q34 -51 128 -98q55 -31 121.5 -61.5t135 -65.5t134 -78t119 -95.5 t89.5 -117.5t46 -145q4 -31 4 -60q0 -88 -32 -162q-42 -100 -121 -170.5t-186.5 -108.5t-226.5 -38q-96 0 -176 14.5t-145.5 37t-116.5 52t-88 58.5v-115h-123z" />
<glyph unicode="T" horiz-adv-x="1492" d="M86 809v666h1321v-666h-168q0 88 -15.5 176t-49.5 157q-34 70 -86 112q-48 38 -112 38h-13v-1183h84v-109h-601v109h84v1183h-13q-66 0 -113 -38q-52 -42 -85.5 -111.5t-49 -157.5t-15.5 -176h-168z" />
<glyph unicode="U" horiz-adv-x="1497" d="M82 1366v109h610v-109h-84v-860q0 -53 12.5 -99.5t41 -81t75.5 -54t117 -19.5t117 20.5t75.5 55t40 81t11.5 99.5v858h-84v109h401v-109h-84v-860q0 -158 -46 -263.5t-123 -170t-176 -92t-204 -27.5q-141 0 -254.5 31.5t-194.5 97t-124 166t-43 237.5v881h-84z" />
<glyph unicode="V" horiz-adv-x="1654" d="M61 1366v109h689v-109h-84l321 -674l279 674h-84v109h411v-109h-84l-530 -1257h108v-109h-438v109h109l-613 1257h-84z" />
<glyph unicode="W" horiz-adv-x="2201" d="M68 1366v109h639v-109h-84l225 -614l219 614h-84v109h514v-109h-84l225 -614l224 614h-84v109h358v-109h-84l-444 -1257h108v-109h-444v109h108l-264 725l-268 -725h108v-109h-444v109h109l-469 1257h-84z" />
<glyph unicode="X" horiz-adv-x="1490" d="M72 0v109h84l393 536l-393 721h-84v109h661v-109h-84l182 -336l246 336h-84v109h426v-109h-84l-389 -547l389 -710h84v-109h-661v109h84l-174 319l-228 -319h84v-109h-452z" />
<glyph unicode="Y" horiz-adv-x="1687" d="M61 1366v109h723v-109h-84l254 -555l285 555h-84v109h471v-109h-84l-446 -741v-516h84v-109h-629v109h84v516l-490 741h-84z" />
<glyph unicode="Z" horiz-adv-x="1409" d="M47 0l741 1311q-90 0 -175 -18.5t-156.5 -64.5t-124.5 -127t-78 -206h-137v580h1212l-741 -1309q26 -3 52 -3l26 1q39 2 61 6q119 16 207 105.5t145 230.5q16 47 37 123t21 180h139v-809h-1229z" />
<glyph unicode="[" horiz-adv-x="516" d="M102 -221v1921h435v-123h-136v-1679h136v-119h-435z" />
<glyph unicode="\" horiz-adv-x="555" d="M0 1532h266l289 -1581h-266z" />
<glyph unicode="]" horiz-adv-x="516" d="M-20 -102h135v1679h-135v123h434v-1921h-434v119z" />
<glyph unicode="^" horiz-adv-x="864" d="M80 1139l237 307h232l235 -307h-241l-109 155l-110 -155h-244z" />
<glyph unicode="_" horiz-adv-x="1183" d="M100 0h985v-213h-985v213z" />
<glyph unicode="`" horiz-adv-x="768" d="M158 1888h272l238 -307h-183z" />
<glyph unicode="a" horiz-adv-x="1560" d="M61 0v109h84l377 1257h-108v109h721v-109h-109l389 -1257h84v-109h-596v109h84l-74 247h-440l-76 -247h84v-109h-420zM547 610h291l-148 500z" />
<glyph unicode="b" d="M102 0v109h84v1257h-84v109h787q19 1 37 1q86 0 164 -16q96 -18 169.5 -56t118.5 -96.5t52 -133.5v-11q0 -36 -12 -72q-14 -42 -45.5 -81t-81.5 -70t-120 -49q76 -20 139.5 -60t108.5 -94.5t71 -121t26 -140.5q0 -143 -66 -243.5t-180 -159.5q-114 -58 -268 -76 q-68 -8 -142 -9q-91 0 -190 13h-568zM623 172q38 -4 73 -4q61 0 113 12q82 18 138.5 58.5t86 100.5t29.5 134q0 57 -24.5 128t-90.5 118q-37 25 -78 38t-83 17t-83.5 4h-80.5v-606zM623 985q53 0 121 -1h9q63 0 119 12q60 14 101 49.5t41 107.5q0 70 -41 104.5t-101 48.5 q-49 11 -102 11q-12 0 -24 -1q-68 -3 -123 -5v-326z" />
<glyph unicode="c" horiz-adv-x="1464" d="M76 739q0 203 64.5 350.5t167 244t228.5 142.5t250 46q82 0 139.5 -9.5t98.5 -24.5t71.5 -35.5t61.5 -43.5l60 66h114v-576h-215q1 15 1 31q1 58 -17 122q-22 81 -65.5 150.5t-104 114.5t-129.5 45q-47 0 -95.5 -29.5t-88 -101.5t-64.5 -191.5t-25 -300.5 q0 -168 19.5 -282.5t53.5 -186t82.5 -107.5t107.5 -48q80 16 140 71.5t99 135.5q38 78 56 174q13 71 14 143q0 24 -2 49l299 -147q0 -5 1 -11q0 -127 -47 -231q-48 -109 -134.5 -185.5t-200 -118.5t-238.5 -42q-135 0 -262 44t-224 139t-156.5 243.5t-59.5 359.5z" />
<glyph unicode="d" horiz-adv-x="1579" d="M102 0v109h84v1257h-84v109h566q152 0 303 -45.5t273 -136.5t198 -229.5t76 -324.5q0 -190 -70 -329.5t-183.5 -230.5t-256 -135t-285.5 -44h-621zM625 164q86 0 165.5 47t140 125t97.5 181t37 216q0 111 -37 215.5t-97.5 184t-140 129t-165.5 49.5v-1147z" />
<glyph unicode="e" horiz-adv-x="1376" d="M102 0v109h84v1257h-84v109h1141v-580h-137q-12 88 -56 168t-110 137t-148 88q-66 25 -138 25q-19 0 -38 -2v-369h310v-217h-310v-561q12 -1 24 -1q74 1 145 33q83 38 148.5 105.5t108.5 158.5t48 191h153v-651h-1141z" />
<glyph unicode="f" horiz-adv-x="1337" d="M102 0v109h84v1257h-84v109h1153v-580h-137q-14 90 -58 169t-109.5 136t-149.5 87q-70 25 -147 25q-15 0 -31 -1v-369h323v-217h-323v-616h84v-109h-605z" />
<glyph unicode="g" horiz-adv-x="1499" d="M76 741q0 203 64.5 350.5t167 243t229.5 141.5t251 46q145 0 230.5 -35t140.5 -78l58 66h114v-576h-215q1 16 1 32q0 58 -17 121q-21 81 -65 150.5t-104.5 114.5t-129.5 45q-47 0 -94.5 -29.5t-87 -100.5t-64.5 -190.5t-25 -300.5q0 -168 15.5 -282.5t45.5 -186 t74 -107.5t99 -48q25 -4 52.5 -1t52 14t41 30.5t16.5 48.5v487h-129v109h637v-109h-88v-399q0 -61 -42 -122.5t-116 -111t-173.5 -79t-213.5 -29.5q-164 0 -297 50t-228.5 149.5t-147.5 247t-52 339.5z" />
<glyph unicode="h" horiz-adv-x="1570" d="M102 0v109h84v1257h-84v109h607v-109h-84v-424h321v424h-84v109h606v-109h-84v-1257h84v-109h-606v109h84v616h-321v-616h84v-109h-607z" />
<glyph unicode="i" horiz-adv-x="808" d="M102 0v109h84v1257h-84v109h605v-109h-84v-1257h84v-109h-605z" />
<glyph unicode="j" horiz-adv-x="1351" d="M96 0v805h180q0 -150 24 -272.5t66 -209.5t97 -134.5t117 -47.5q57 0 91 36t51 88t22.5 110.5t5.5 103.5v887h-84v109h604v-109h-84v-903q0 -123 -41 -219.5t-112.5 -163t-171 -102t-218.5 -35.5q-94 0 -158.5 16t-111.5 42t-83 57.5t-73 62.5v-121h-121z" />
<glyph unicode="k" horiz-adv-x="1579" d="M102 0v109h84v1257h-84v109h605v-109h-84v-573l460 573h-84v109h453v-109h-106l-244 -262l358 -995h84v-109h-565l-141 731l-215 -266v-356h84v-109h-605z" />
<glyph unicode="l" horiz-adv-x="1329" d="M102 0v109h84v1257h-84v109h603v-109h-84v-1192q92 0 177 38t147.5 124t96.5 223q28 111 29 263q0 35 -2 73h162v-895h-1129z" />
<glyph unicode="m" horiz-adv-x="1787" d="M102 0v109h84v1257h-84v109h473l340 -482l314 482h457v-109h-84v-1257h84v-109h-603v109h84v852l-358 -560l-391 555v-847h84v-109h-400z" />
<glyph unicode="n" horiz-adv-x="1454" d="M102 0v109h84v1257h-84v109h500l457 -693v584h-84v109h387v-109h-84v-1366h-242l-651 997v-888h84v-109h-367z" />
<glyph unicode="o" d="M76 737q0 180 57 325.5t153.5 247t225.5 157t274 55.5q143 0 273.5 -55.5t226.5 -157t153.5 -247t57.5 -325.5t-57.5 -325.5t-153.5 -247t-226 -156.5t-274 -55q-145 0 -274 55t-225.5 156.5t-153.5 247t-57 325.5zM555 737q0 -160 18.5 -277.5t50 -194.5t73.5 -114.5 t89 -37.5t89.5 37.5t74 114.5t50 194.5t18.5 277.5t-18.5 278t-50 194.5t-73.5 114.5t-90 38q-47 0 -89 -38t-73.5 -114.5t-50 -194.5t-18.5 -278z" />
<glyph unicode="p" horiz-adv-x="1511" d="M102 0v109h84v1257h-84v109h537q94 7 178 7q98 0 181 -10q157 -18 264.5 -68t163 -129t55.5 -183q0 -117 -69 -202t-186.5 -133t-273.5 -57q-33 -3 -67 -3q-125 0 -262 28v-616h84v-109h-605zM623 897q68 -11 125 -11q38 0 72 5q83 12 138.5 44t83 76t27.5 87 q0 68 -39 111.5t-102.5 68.5t-143.5 32q-42 4 -86 4q-37 0 -75 -3v-414z" />
<glyph unicode="q" d="M76 737q0 180 57 325.5t153.5 247t225.5 157t274 55.5q143 0 273.5 -55.5t226.5 -157t153.5 -247t57.5 -325.5q0 -223 -83 -389t-220 -266q18 -53 57 -86t111 -33q49 0 93 32t48 89q31 -35 47.5 -71t18.5 -62q1 -11 1 -22q0 -40 -12 -79q-14 -49 -47.5 -87.5t-89 -63.5 t-131.5 -25q-141 0 -234 80t-124 215q-76 -16 -146 -16q-145 0 -274 55t-225.5 156.5t-153.5 247t-57 325.5zM555 737q0 -160 18.5 -278.5t50 -197.5t73.5 -117t89 -38q61 0 109 60q-16 70 -63 114q-44 42 -143 42h-9q66 51 144 65q25 4 51 4q55 0 112 -20q16 72 23.5 164 t7.5 202q0 160 -18.5 278t-50 194.5t-73.5 114.5t-90 38q-47 0 -89 -38t-73.5 -114.5t-50 -194.5t-18.5 -278z" />
<glyph unicode="r" horiz-adv-x="1583" d="M102 0v109h84v1257h-84v109h555q113 7 207 7q115 0 203 -10q160 -20 252 -67t127 -116.5t37 -151.5q0 -41 -11.5 -92.5t-50.5 -99.5t-112.5 -86t-196.5 -50l336 -700h84v-109h-559l-205 784h-145v-675h84v-109h-605zM623 993q53 -3 100 -3q332 0 332 161q0 119 -172 149 q-51 10 -117 12h-37q-50 0 -106 -3v-316z" />
<glyph unicode="s" horiz-adv-x="1380" d="M96 0v715h131v-37q0 -86 42 -175t103.5 -163t131 -125t125.5 -61q60 -11 104 -11q27 0 47 4q56 11 81.5 41.5t25.5 73.5t-13 86q-23 74 -81 127t-131.5 94t-151.5 74t-139 64q-125 61 -193 156q-66 95 -74 199q-1 12 -1 25q1 91 49 179q56 100 174 168q92 52 210 72 q98 17 190 17q18 0 36 -1q59 0 114.5 -12.5t102.5 -30t85 -38t60 -38.5v72h121v-584h-137q-18 92 -57 174t-95.5 143.5t-127 97t-152.5 35.5q-66 0 -111 -26.5t-55 -68.5q-2 -10 -2 -20q0 -34 26 -73q34 -51 128 -98q55 -31 121.5 -61.5t135 -65.5t134 -78t119 -95.5 t89.5 -117.5t46 -145q4 -31 4 -60q0 -88 -32 -162q-42 -100 -121 -170.5t-186.5 -108.5t-226.5 -38q-96 0 -176 14.5t-145.5 37t-116.5 52t-88 58.5v-115h-123z" />
<glyph unicode="t" horiz-adv-x="1492" d="M86 809v666h1321v-666h-168q0 88 -15.5 176t-49.5 157q-34 70 -86 112q-48 38 -112 38h-13v-1183h84v-109h-601v109h84v1183h-13q-66 0 -113 -38q-52 -42 -85.5 -111.5t-49 -157.5t-15.5 -176h-168z" />
<glyph unicode="u" horiz-adv-x="1497" d="M82 1366v109h610v-109h-84v-860q0 -53 12.5 -99.5t41 -81t75.5 -54t117 -19.5t117 20.5t75.5 55t40 81t11.5 99.5v858h-84v109h401v-109h-84v-860q0 -158 -46 -263.5t-123 -170t-176 -92t-204 -27.5q-141 0 -254.5 31.5t-194.5 97t-124 166t-43 237.5v881h-84z" />
<glyph unicode="v" horiz-adv-x="1654" d="M61 1366v109h689v-109h-84l321 -674l279 674h-84v109h411v-109h-84l-530 -1257h108v-109h-438v109h109l-613 1257h-84z" />
<glyph unicode="w" horiz-adv-x="2201" d="M68 1366v109h639v-109h-84l225 -614l219 614h-84v109h514v-109h-84l225 -614l224 614h-84v109h358v-109h-84l-444 -1257h108v-109h-444v109h108l-264 725l-268 -725h108v-109h-444v109h109l-469 1257h-84z" />
<glyph unicode="x" horiz-adv-x="1490" d="M72 0v109h84l393 536l-393 721h-84v109h661v-109h-84l182 -336l246 336h-84v109h426v-109h-84l-389 -547l389 -710h84v-109h-661v109h84l-174 319l-228 -319h84v-109h-452z" />
<glyph unicode="y" horiz-adv-x="1687" d="M61 1366v109h723v-109h-84l254 -555l285 555h-84v109h471v-109h-84l-446 -741v-516h84v-109h-629v109h84v516l-490 741h-84z" />
<glyph unicode="z" horiz-adv-x="1409" d="M47 0l741 1311q-90 0 -175 -18.5t-156.5 -64.5t-124.5 -127t-78 -206h-137v580h1212l-741 -1309q26 -3 52 -3l26 1q39 2 61 6q119 16 207 105.5t145 230.5q16 47 37 123t21 180h139v-809h-1229z" />
<glyph unicode="{" horiz-adv-x="768" d="M61 643v186q55 6 102.5 29t79 65t43 104.5t-4.5 146.5q-35 172 1.5 280.5t120.5 166.5t205 71.5t252 -6.5v-130q-123 0 -175 -33.5t-65.5 -96t-4 -150.5t9.5 -197q-2 -59 -22.5 -113.5t-55.5 -100.5t-81 -79.5t-101 -48.5q55 -16 101 -50t81 -80t55.5 -101t22.5 -113 q0 -109 -9.5 -196.5t4 -149t65.5 -95.5t175 -34v-131q-131 -23 -252 -8.5t-205 73t-120.5 168t-1.5 279.5q16 84 4.5 146.5t-43 104.5t-78.5 64.5t-103 28.5z" />
<glyph unicode="|" horiz-adv-x="509" d="M123 -387v1978h264v-1978h-264z" />
<glyph unicode="}" horiz-adv-x="768" d="M-92 -82q123 0 175 34t65.5 95.5t4 149.5t-9.5 196q2 57 22.5 112.5t55.5 101.5t81 80t101 50q-55 14 -101 48t-81 80t-55.5 100.5t-22.5 113.5q0 109 9.5 197t-4 150.5t-65.5 96t-175 33.5v130q131 20 252 6.5t205 -71.5t120.5 -166.5t1.5 -280.5q-16 -84 -4.5 -146.5 t43 -104.5t78.5 -64.5t103 -29.5v-186q-55 -6 -102.5 -28.5t-79 -64.5t-43 -104.5t4.5 -146.5q35 -170 -1.5 -279.5t-120.5 -168t-205 -73t-252 8.5v131z" />
<glyph unicode="~" horiz-adv-x="935" d="M89 1246.5q3 58.5 22.5 106.5t57.5 76.5t93 16.5l416 -100q18 -4 29.5 5t16.5 25.5t6 37t1 38.5h105q18 -68 12 -127t-29.5 -102t-61.5 -65.5t-87 -14.5l-416 102q-20 4 -30.5 -6t-15.5 -26.5t-5 -37v-36.5h-105q-12 49 -9 107.5z" />
<glyph unicode="&#xa1;" horiz-adv-x="724" d="M102 31l111 850h299l111 -850v-109h-521v109zM186 1051v346h351v-346h-351z" />
<glyph unicode="&#xa2;" horiz-adv-x="1095" d="M102 829q0 139 45.5 242t117 169.5t161.5 99t180 32.5q102 0 168 -20.5t119 -65.5l100 68v-498h-100q-2 84 -26.5 148.5t-59.5 108.5t-75 66.5t-73 22.5q-68 0 -126 -92t-64 -276q-4 -92 12.5 -161t42 -118t55 -77.5t56.5 -41.5q27 -12 68.5 -7t83.5 26.5t78 58.5t48 86 l86 -137q-47 -74 -144 -125t-228 -51q-104 0 -199.5 33.5t-168.5 101t-115 170t-42 237.5zM475 82q0 55 39 94t94 39t94 -39t39 -94t-38.5 -94t-94.5 -39q-55 0 -94 39t-39 94z" />
<glyph unicode="&#xa3;" horiz-adv-x="1536" d="M51 844h148q-39 127 -34 237.5t58 198.5q72 115 207 178.5t297 63.5q121 0 224.5 -29t168.5 -84l51 66h205v-576h-305l4 35q0 82 -15.5 158.5t-49 136t-87 96.5t-128.5 37q-78 0 -127.5 -36t-67.5 -103.5t-4 -163.5t63 -215h263l55 -217h-258q4 -68 -13.5 -131.5 t-50 -122t-75.5 -108.5t-93 -91h347q37 0 79.5 19.5t80.5 59.5t63.5 102.5t27.5 150.5l345 -60l-29 -147q-20 -90 -53 -147.5t-75 -91t-93.5 -47t-108.5 -13.5h-1003v170h82q49 61 80.5 115.5t46 107.5t11.5 109.5t-22 124.5h-160z" />
<glyph unicode="&#xa4;" horiz-adv-x="1595" d="M55 463v199h164v155h-164v199h199q59 190 195 319q100 96 218.5 141.5t260.5 45.5q59 0 103 -3t84 -13.5t83 -34t100 -62.5l62 66h113v-576h-226l4 35q0 82 -24.5 158.5t-67.5 136t-99 96.5t-120 37q-90 0 -158.5 -92t-91.5 -254h393v-199h-409q-18 -72 0 -155h409v-199 h-393q23 -166 91.5 -256t158.5 -90q66 0 122 39t98 100t66.5 138t24.5 151l-4 35h226v-574h-113l-62 64q-55 -39 -97 -61.5t-83 -34t-86 -14.5t-104 -3q-283 0 -479 190q-137 131 -195 316h-199z" />
<glyph unicode="&#xa5;" horiz-adv-x="1687" d="M59 1366v109h725v-109h-86l256 -553l285 553h-82v109h471v-109h-86l-338 -561h260v-199h-368v-147h368v-199h-368v-151h82v-109h-627v109h84v151h-361v199h361v147h-361v199h244l-373 561h-86z" />
<glyph unicode="&#xa6;" horiz-adv-x="509" d="M123 -387v813h264v-813h-264zM123 778v813h264v-813h-264z" />
<glyph unicode="&#xa7;" horiz-adv-x="1241" d="M102 664q0 68 12.5 131t45.5 112t87 81t140 38q-27 88 -16.5 169t53.5 142.5t117.5 98.5t179.5 37q104 0 173 -24t116 -71v64h86v-373h-197q-2 45 -9 86t-23.5 74t-44 52t-70.5 19q-61 0 -89 -33.5t-28 -86.5q0 -80 37 -135.5t93 -97.5t121.5 -77.5t122 -81t93.5 -105.5 t37 -151q0 -90 -22.5 -148t-61.5 -96t-94.5 -58.5t-118.5 -32.5q27 -57 35 -110.5t2 -102.5q-14 -111 -108.5 -181.5t-260.5 -70.5q-109 0 -180.5 26.5t-118.5 71.5v-68h-86v373h199q0 -45 7 -87t24.5 -73.5t45 -51t70.5 -19.5q61 0 91 28.5t34 69.5q4 76 -33 125t-92 86 t-117.5 67.5t-109.5 67.5q-74 55 -108 131t-34 185zM358 731q0 -76 34 -126t89 -85q29 -18 63 -34.5t69.5 -36t72.5 -46t72 -63.5q59 12 82.5 56t19.5 106q-4 49 -46 89t-103 75q-68 39 -138.5 84.5t-113.5 119.5q-53 -4 -77 -45t-24 -94z" />
<glyph unicode="&#xa8;" horiz-adv-x="1028" d="M201 1284q0 61 43 107.5t114 46.5q76 0 118 -46.5t42 -107.5q0 -66 -42 -113t-118 -47q-72 0 -114.5 47.5t-42.5 112.5zM621 1284q0 61 43 107.5t116 46.5q76 0 117 -46.5t41 -107.5q0 -66 -41 -113t-117 -47q-74 0 -116.5 47.5t-42.5 112.5z" />
<glyph unicode="&#xa9;" horiz-adv-x="1626" d="M61 741q0 162 60.5 299.5t164 236.5t239.5 155.5t290 56.5q152 0 288 -56.5t238.5 -155.5t163 -236.5t60.5 -299.5q0 -164 -60.5 -302t-163 -238.5t-238.5 -156.5t-288 -56q-154 0 -290 56t-239.5 156.5t-164 239t-60.5 301.5zM213 741q0 -135 46 -249.5t127 -197.5 t191.5 -130t237.5 -47q125 0 234.5 47t190.5 130t127 197.5t46 249.5q0 133 -46 247t-127 197t-190.5 130t-234.5 47q-127 0 -237.5 -47t-191.5 -130t-127 -197t-46 -247zM399 743q0 98 30 182.5t86 144.5t137 95t182 35q70 0 133 -20.5t112 -60.5t82 -97t43 -133h-133 q-16 82 -79.5 132t-155.5 50q-70 0 -123.5 -25.5t-89 -69.5t-54 -103.5t-18.5 -127.5t20.5 -128t57.5 -106t90 -73.5t121 -27.5q94 0 156.5 52t74.5 138h135q-14 -74 -48 -133t-82 -100t-108.5 -63.5t-127.5 -22.5q-100 0 -181 35.5t-138.5 97t-89.5 146.5t-32 183z" />
<glyph unicode="&#xaa;" horiz-adv-x="1050" d="M61 737q0 76 33 147.5t100.5 132t169 107.5t236.5 72v59q0 66 -38 106t-109 21q-35 -8 -70 -34.5t-65.5 -63.5t-55 -78t-39.5 -78h-90v361h94v-68q86 61 169 81t175 20q59 0 121 -18.5t113 -55.5t83 -94.5t32 -132.5v-523q0 -16 2 -34.5t9 -34t21.5 -25.5t36.5 -10v-86 h-348q-25 23 -33 54.5t-8 66.5q-35 -72 -108.5 -113t-167.5 -41q-129 0 -196 69.5t-67 192.5zM379 848.5q-14 -66.5 7.5 -116.5t76.5 -50q20 0 44.5 6t45 20.5t34 38t13.5 58.5v266q-98 -29 -152.5 -92.5t-68.5 -130z" />
<glyph unicode="&#xab;" horiz-adv-x="1212" d="M82 453v258l502 444v-307l-287 -230v-77l287 -226v-307zM608 453v258l502 444v-307l-283 -230v-77l283 -226v-307z" />
<glyph unicode="&#xac;" horiz-adv-x="1120" d="M102 672v225h916v-584h-250v359h-666z" />
<glyph unicode="&#xad;" horiz-adv-x="999" d="M100 604v275h801v-275h-801z" />
<glyph unicode="&#xae;" horiz-adv-x="1626" d="M61 741q0 162 60.5 299.5t164 236.5t239.5 155.5t290 56.5q152 0 288 -56.5t238.5 -155.5t163 -236.5t60.5 -299.5q0 -164 -60.5 -302t-163 -238.5t-238.5 -156.5t-288 -56q-154 0 -290 56t-239.5 156.5t-164 239t-60.5 301.5zM213 741q0 -135 46 -249.5t127 -197.5 t191.5 -130t237.5 -47q125 0 234.5 47t190.5 130t127 197.5t46 249.5q0 133 -46 247t-127 197t-190.5 130t-234.5 47q-127 0 -237.5 -47t-191.5 -130t-127 -197t-46 -247zM528 307v867h326q150 0 223.5 -59.5t73.5 -188.5q-4 -117 -62.5 -171.5t-154.5 -66.5l244 -381h-146 l-227 377h-150v-377h-127zM655 788h158q41 0 79 3.5t67.5 18.5t47 44t17.5 82q0 43 -16.5 68.5t-44 40t-61.5 19.5t-66 5h-181v-281z" />
<glyph unicode="&#xaf;" horiz-adv-x="874" d="M61 1595v164h752v-164h-752z" />
<glyph unicode="&#xb0;" horiz-adv-x="698" d="M86 1303q0 55 20.5 103t56.5 84t84 56.5t101 20.5q55 0 103.5 -20.5t84 -56.5t56 -84t20.5 -103q0 -53 -20.5 -101.5t-56 -83.5t-84 -55.5t-103.5 -20.5q-53 0 -101 20.5t-84 55.5t-56.5 83t-20.5 102zM244 1305q0 -43 30.5 -74t73.5 -31t75 31t32 74t-32 73.5t-75 30.5 t-73.5 -30.5t-30.5 -73.5z" />
<glyph unicode="&#xb1;" horiz-adv-x="1150" d="M121 166v211h334v254h-334v231h334v336h239v-336h336v-231h-336v-254h336v-211h-909z" />
<glyph unicode="&#xb2;" horiz-adv-x="1288" d="M72 221l446 623q33 47 69 103.5t67.5 112.5t52 108.5t22.5 93.5t-21.5 65.5t-78.5 24.5q-47 0 -107.5 -29t-114 -87t-89 -148.5t-33.5 -213.5h-144v601h117v-78q76 61 186.5 90t219.5 29q59 0 141 -12.5t158.5 -43t135 -85t70.5 -138.5q6 -49 -3 -99.5t-48 -86.5 l-614 -574q35 -57 111.5 -75.5t160.5 -4t160 57.5t111 108v340h129v-682h-129v84q-86 -72 -192.5 -98.5t-211.5 -26.5q-53 0 -98 11.5t-82 28t-62.5 38t-38.5 39.5l-49 -76h-241z" />
<glyph unicode="&#xb3;" horiz-adv-x="1220" d="M123 223v522h123q23 -211 108.5 -315t202.5 -104q33 0 67.5 19.5t64.5 54t48.5 83.5t16.5 111q-2 61 -18.5 105t-42 73t-56.5 42t-62 13h-118v138h106q98 0 137 48t39 150q0 47 -15 87t-40 69t-54.5 45t-56.5 16q-63 0 -112 -25.5t-85 -66.5t-59.5 -93t-37.5 -110h-144 v392h115v-74q82 66 175 89.5t198 23.5q70 0 149.5 -14.5t149 -49.5t120 -92t60.5 -143q8 -59 -6.5 -109.5t-44 -89.5t-74.5 -65.5t-98 -34.5q51 -4 99 -29t83 -65t56.5 -94t21.5 -120q0 -117 -45 -198.5t-122 -133t-179.5 -74t-219.5 -22.5q-100 0 -194 25.5t-141 77.5v-62 h-115z" />
<glyph unicode="&#xb4;" horiz-adv-x="768" d="M201 1581l237 307h273l-328 -307h-182z" />
<glyph unicode="&#xb5;" horiz-adv-x="1495" d="M20 1044v109h629v-109h-84l47 -538q16 -188 72.5 -266t187.5 -50v854h-84v109h551v-109h-84v-776q0 -47 5.5 -77.5t15.5 -48t24.5 -24.5t32.5 -7q27 -2 57.5 15t63.5 69l21 -123q-55 -53 -138.5 -83t-165.5 -28q-37 0 -75.5 5t-76.5 19.5t-71 42t-55 72.5 q-90 -96 -270 -120q10 -47 18 -102.5t12 -109t4 -99.5t-4 -75l-145 -86h-223q39 154 46 288t-4.5 251t-34 214t-40.5 177l-148 606h-84z" />
<glyph unicode="&#xb6;" horiz-adv-x="1443" d="M102 997q0 145 35 237.5t90.5 146t122 74t129.5 20.5h862v-109h-84v-1571h-286v1571h-176v-1571h-279v735q-90 0 -166 22.5t-131 77t-86 143.5t-31 224z" />
<glyph unicode="&#xb7;" horiz-adv-x="555" d="M102 571v346h351v-346h-351z" />
<glyph unicode="&#xb8;" horiz-adv-x="731" d="M100 -473l33 121q57 -39 104.5 -50.5t81 -5t52 27t18.5 48.5q0 41 -44 59.5t-146 0.5v307h178v-168q70 10 118 -7.5t78.5 -48t44 -67t13.5 -63.5q0 -41 -13.5 -81t-48 -74t-94 -54.5t-151.5 -20.5q-72 0 -127.5 23.5t-96.5 52.5z" />
<glyph unicode="&#xb9;" horiz-adv-x="684" d="M82 221v92h88v1016h-88v92q145 0 240 54h198v-1162h90v-92h-528z" />
<glyph unicode="&#xba;" horiz-adv-x="1071" d="M61 999q0 119 37 215.5t101.5 165t151.5 105.5t186 37q98 0 184 -38t150.5 -106.5t101.5 -165t37 -213.5q0 -119 -37 -216t-101.5 -165.5t-150.5 -105.5t-184 -37t-185.5 37t-152 105.5t-101.5 166t-37 215.5zM385 999q0 -78 12.5 -148.5t33 -123.5t48 -85t58.5 -32 t57.5 33t47 86t32.5 123.5t12 146.5t-12 147t-32.5 123t-47.5 83.5t-57 31.5q-31 0 -58.5 -31.5t-48 -83.5t-33 -123t-12.5 -147z" />
<glyph unicode="&#xbb;" horiz-adv-x="1212" d="M102 8v307l283 226v77l-283 230v307l502 -444v-258zM629 8v307l286 226v77l-286 230v307l501 -444v-258z" />
<glyph unicode="&#xbc;" horiz-adv-x="2588" d="M102 221v92h70v1069h-70v93h439v-1162h71v-92h-510zM676 -49l432 1581h246l-432 -1581h-246zM1196 410l612 843h484v-92h-72v-606l109 41l-17 53l101 31l120 -334l-106 -39l-21 60l-196 -52v-223h71v-92h-507v92h71v203q-41 0 -97 3t-116.5 15.5t-118 36t-96.5 60.5 l-74 -105zM1499 524q37 -10 81 -14t90 -6t91 0t84 8v492z" />
<glyph unicode="&#xbd;" horiz-adv-x="2584" d="M102 221v92h70v1069h-70v93h439v-1162h71v-92h-510zM676 -49l432 1581h246l-432 -1581h-246zM1370 0l447 623q33 47 68.5 103t67.5 112.5t52 108.5t22.5 93t-20 65.5t-80.5 24.5q-47 0 -107.5 -28.5t-113.5 -87t-89 -148.5t-34 -213h-143v600h116v-77q76 61 186.5 89.5 t219.5 28.5q59 0 141 -12t159 -43t135.5 -85t70.5 -138q6 -49 -3 -99.5t-48 -87.5l-615 -573q35 -57 112 -75.5t161 -4.5t159.5 57t110.5 109v340h129v-682h-129v84q-86 -72 -192.5 -98.5t-210.5 -26.5q-53 0 -98.5 11.5t-82.5 27.5t-62.5 37.5t-37.5 40.5l-49 -76h-242z " />
<glyph unicode="&#xbe;" horiz-adv-x="3028" d="M115 219v610h123q0 -127 26.5 -222t69.5 -158.5t98 -95t113 -31.5q33 0 67.5 19t64.5 54t48 85t16 112q-2 61 -18 105t-42 73t-56.5 42t-61.5 13h-110v136h98q98 0 137 49t39 151q0 47 -15.5 86t-40 67.5t-54 45t-56.5 16.5q-92 0 -154.5 -49t-99.5 -118.5t-52 -144.5 t-17 -126h-123v535h114v-74q82 68 177.5 91t199.5 23q70 0 151 -14t151.5 -49t120.5 -93.5t61 -144.5q8 -59 -6.5 -109t-44 -89t-74.5 -65.5t-99 -35.5q51 -4 99.5 -27.5t83 -63.5t56 -94t21.5 -120q0 -117 -45 -198.5t-121.5 -133t-179 -74t-219.5 -22.5 q-100 0 -192.5 25.5t-139.5 77.5v-64h-114zM1116 -49l432 1581h246l-432 -1581h-246zM1636 410l613 843h483v-92h-72v-606l109 41l-16 53l100 31l121 -334l-107 -39l-20 60l-197 -52v-223h72v-92h-508v92h72v203q-41 0 -97.5 3t-117 15.5t-118 36t-95.5 60.5l-74 -105z M1939 524q37 -10 81 -14t90.5 -6t91.5 0t84 8v492z" />
<glyph unicode="&#xbf;" horiz-adv-x="1308" d="M66 317q0 111 74.5 198t199.5 151q47 25 103.5 47t108.5 46.5t95 52.5t67.5 61.5t23.5 76.5t-38 97h254q49 -115 38 -212.5t-60 -176t-126 -137t-159 -95.5q-109 -47 -149.5 -111.5t-5.5 -138.5q16 -35 54 -54.5t87 -22.5t104.5 7.5t104.5 34t89 58t58 82.5l105 254h137 v-584h-123v72q-27 -25 -76 -47.5t-110.5 -38t-132 -24.5t-140.5 -9q-96 0 -199.5 21.5t-188.5 70.5t-140 128t-55 193zM649 1290q0 66 46 111t112 45t112 -45t46 -111t-46.5 -111.5t-111.5 -45.5q-66 0 -112 46t-46 111z" />
<glyph unicode="&#xc0;" horiz-adv-x="1560" d="M61 0v109h84l377 1257h-108v109h721v-109h-109l389 -1257h84v-109h-596v109h84l-74 247h-440l-76 -247h84v-109h-420zM357 1888h272l238 -307h-183zM547 610h291l-148 500z" />
<glyph unicode="&#xc1;" horiz-adv-x="1560" d="M61 0v109h84l377 1257h-108v109h721v-109h-109l389 -1257h84v-109h-596v109h84l-74 247h-440l-76 -247h84v-109h-420zM547 610h291l-148 500zM703 1581l237 307h273l-328 -307h-182z" />
<glyph unicode="&#xc2;" horiz-adv-x="1560" d="M61 0v109h84l377 1257h-108v109h721v-109h-109l389 -1257h84v-109h-596v109h84l-74 247h-440l-76 -247h84v-109h-420zM422 1581l237 307h232l235 -307h-241l-109 155l-110 -155h-244zM547 610h291l-148 500z" />
<glyph unicode="&#xc3;" horiz-adv-x="1560" d="M61 0v109h84l377 1257h-108v109h721v-109h-109l389 -1257h84v-109h-596v109h84l-74 247h-440l-76 -247h84v-109h-420zM394 1695.5q3 58.5 22.5 106.5t57.5 76.5t93 16.5l416 -100q18 -4 29.5 5t16.5 25.5t6 37t1 38.5h105q18 -68 12 -127t-29.5 -102t-61.5 -65.5 t-87 -14.5l-416 102q-20 4 -30.5 -6t-15.5 -26.5t-5 -37v-36.5h-105q-12 49 -9 107.5zM547 610h291l-148 500z" />
<glyph unicode="&#xc4;" horiz-adv-x="1560" d="M61 0v109h84l377 1257h-108v109h721v-109h-109l389 -1257h84v-109h-596v109h84l-74 247h-440l-76 -247h84v-109h-420zM404 1733q0 61 43 107.5t114 46.5q76 0 118 -46.5t42 -107.5q0 -66 -42 -113t-118 -47q-72 0 -114.5 47.5t-42.5 112.5zM547 610h291l-148 500z M824 1733q0 61 43 107.5t116 46.5q76 0 117 -46.5t41 -107.5q0 -66 -41 -113t-117 -47q-74 0 -116.5 47.5t-42.5 112.5z" />
<glyph unicode="&#xc5;" horiz-adv-x="1560" d="M61 0v109h84l377 1257h-108v109h721v-109h-109l389 -1257h84v-109h-596v109h84l-74 247h-440l-76 -247h84v-109h-420zM547 610h291l-148 500zM587 1739q0 72 49.5 121t120.5 49q72 0 121 -49t49 -121t-49 -120t-121 -48t-121 48t-49 120z" />
<glyph unicode="&#xc6;" horiz-adv-x="2232" d="M82 0v109h84l780 1257h-149v109h1312v-580h-137q-12 88 -56 168t-109.5 137t-148.5 88t-175 23v-369h309v-217h-309v-561q86 -6 169 31.5t148.5 105.5t108.5 159t47 191h153v-651h-569h-571v109h78v247h-461l-148 -247h84v-109h-440zM756 610h291v500z" />
<glyph unicode="&#xc7;" horiz-adv-x="1474" d="M76 739q0 203 64.5 350.5t167 244t228.5 142.5t250 46q82 0 139.5 -9.5t98.5 -24.5t71.5 -35.5t61.5 -43.5l60 66h114v-576h-225q6 72 -14.5 153t-62.5 150.5t-100.5 114.5t-127.5 45q-47 0 -95.5 -29.5t-88 -101.5t-64.5 -191.5t-25 -300.5q0 -168 19.5 -282.5 t53.5 -186t82 -107.5t108 -48q80 16 140 71.5t99 135t56.5 175t11.5 191.5l309 -151q2 -121 -39 -221.5t-114.5 -175t-173 -121t-210.5 -60.5v-113q70 10 118 -7t79 -48t44 -67.5t13 -63.5q0 -41 -13 -81t-48 -73.5t-94.5 -54t-151.5 -20.5q-72 0 -127 23.5t-96 51.5l33 121 q57 -39 104 -50t81 -5t52.5 26.5t18.5 49.5q0 41 -44 59.5t-147 -0.5v250q-123 12 -234.5 63.5t-196.5 146.5t-135 236.5t-50 335.5z" />
<glyph unicode="&#xc8;" horiz-adv-x="1376" d="M102 0v109h84v1257h-84v109h1141v-580h-137q-12 88 -56 168t-110 137t-148.5 88t-175.5 23v-369h310v-217h-310v-561q86 -6 169 31.5t148.5 105.5t108.5 159t48 191h153v-651h-1141zM342 1888h272l238 -307h-183z" />
<glyph unicode="&#xc9;" horiz-adv-x="1376" d="M102 0v109h84v1257h-84v109h1141v-580h-137q-12 88 -56 168t-110 137t-148.5 88t-175.5 23v-369h310v-217h-310v-561q86 -6 169 31.5t148.5 105.5t108.5 159t48 191h153v-651h-1141zM570 1581l237 307h273l-328 -307h-182z" />
<glyph unicode="&#xca;" horiz-adv-x="1376" d="M102 0v109h84v1257h-84v109h1141v-580h-137q-12 88 -56 168t-110 137t-148.5 88t-175.5 23v-369h310v-217h-310v-561q86 -6 169 31.5t148.5 105.5t108.5 159t48 191h153v-651h-1141zM340 1581l237 307h232l235 -307h-241l-109 155l-110 -155h-244z" />
<glyph unicode="&#xcb;" horiz-adv-x="1376" d="M102 0v109h84v1257h-84v109h1141v-580h-137q-12 88 -56 168t-110 137t-148.5 88t-175.5 23v-369h310v-217h-310v-561q86 -6 169 31.5t148.5 105.5t108.5 159t48 191h153v-651h-1141zM324 1730q0 61 43 107.5t114 46.5q76 0 118 -46.5t42 -107.5q0 -66 -42 -113t-118 -47 q-72 0 -114.5 47.5t-42.5 112.5zM744 1730q0 61 43 107.5t116 46.5q76 0 117 -46.5t41 -107.5q0 -66 -41 -113t-117 -47q-74 0 -116.5 47.5t-42.5 112.5z" />
<glyph unicode="&#xcc;" horiz-adv-x="808" d="M-4 1888h272l238 -307h-183zM102 0v109h84v1257h-84v109h605v-109h-84v-1257h84v-109h-605z" />
<glyph unicode="&#xcd;" horiz-adv-x="808" d="M102 0v109h84v1257h-84v109h605v-109h-84v-1257h84v-109h-605zM324 1581l237 307h273l-328 -307h-182z" />
<glyph unicode="&#xce;" horiz-adv-x="808" d="M53 1581l237 307h232l235 -307h-241l-109 155l-110 -155h-244zM102 0v109h84v1257h-84v109h605v-109h-84v-1257h84v-109h-605z" />
<glyph unicode="&#xcf;" horiz-adv-x="808" d="M37 1733q0 61 43 107.5t114 46.5q76 0 118 -46.5t42 -107.5q0 -66 -42 -113t-118 -47q-72 0 -114.5 47.5t-42.5 112.5zM102 0v109h84v1257h-84v109h605v-109h-84v-1257h84v-109h-605zM457 1733q0 61 43 107.5t116 46.5q76 0 117 -46.5t41 -107.5q0 -66 -41 -113t-117 -47 q-74 0 -116.5 47.5t-42.5 112.5z" />
<glyph unicode="&#xd0;" horiz-adv-x="1579" d="M61 616v222h125v528h-84v109h566q152 0 303 -45.5t273 -136.5t198 -229.5t76 -324.5q0 -190 -70 -329.5t-183.5 -230.5t-256 -135t-285.5 -44h-621v109h84v507h-125zM625 164q86 0 165.5 47t140 125t97.5 181.5t37 215.5q0 111 -37 215.5t-97.5 184t-140 129t-165.5 49.5 v-473h227v-222h-227v-452z" />
<glyph unicode="&#xd1;" horiz-adv-x="1447" d="M102 0v109h84v1257h-84v109h500l457 -693v584h-84v109h387v-109h-84v-1366h-242l-651 997v-888h84v-109h-367zM359 1697.5q3 58.5 22.5 106.5t57.5 76.5t93 16.5l416 -100q18 -4 29.5 5t16.5 25.5t6 37t1 38.5h105q18 -68 12 -127t-29.5 -102t-61.5 -65.5t-87 -14.5 l-416 102q-20 4 -30.5 -6t-15.5 -26.5t-5 -37v-36.5h-105q-12 49 -9 107.5z" />
<glyph unicode="&#xd2;" d="M76 737q0 180 57 325.5t153.5 247t225.5 157t274 55.5q143 0 273.5 -55.5t226.5 -157t153.5 -247t57.5 -325.5t-57.5 -325.5t-153.5 -247t-226 -156.5t-274 -55q-145 0 -274 55t-225.5 156.5t-153.5 247t-57 325.5zM369 1888h272l238 -307h-183zM555 737 q0 -160 18.5 -277.5t50 -194.5t73.5 -114.5t89 -37.5t89.5 37.5t74 114.5t50 194.5t18.5 277.5t-18.5 278t-50 194.5t-73.5 114.5t-90 38q-47 0 -89 -38t-73.5 -114.5t-50 -194.5t-18.5 -278z" />
<glyph unicode="&#xd3;" d="M76 737q0 180 57 325.5t153.5 247t225.5 157t274 55.5q143 0 273.5 -55.5t226.5 -157t153.5 -247t57.5 -325.5t-57.5 -325.5t-153.5 -247t-226 -156.5t-274 -55q-145 0 -274 55t-225.5 156.5t-153.5 247t-57 325.5zM555 737q0 -160 18.5 -277.5t50 -194.5t73.5 -114.5 t89 -37.5t89.5 37.5t74 114.5t50 194.5t18.5 277.5t-18.5 278t-50 194.5t-73.5 114.5t-90 38q-47 0 -89 -38t-73.5 -114.5t-50 -194.5t-18.5 -278zM697 1581l237 307h273l-328 -307h-182z" />
<glyph unicode="&#xd4;" d="M76 737q0 180 57 325.5t153.5 247t225.5 157t274 55.5q143 0 273.5 -55.5t226.5 -157t153.5 -247t57.5 -325.5t-57.5 -325.5t-153.5 -247t-226 -156.5t-274 -55q-145 0 -274 55t-225.5 156.5t-153.5 247t-57 325.5zM428 1581l237 307h232l235 -307h-241l-109 155 l-110 -155h-244zM555 737q0 -160 18.5 -277.5t50 -194.5t73.5 -114.5t89 -37.5t89.5 37.5t74 114.5t50 194.5t18.5 277.5t-18.5 278t-50 194.5t-73.5 114.5t-90 38q-47 0 -89 -38t-73.5 -114.5t-50 -194.5t-18.5 -278z" />
<glyph unicode="&#xd5;" d="M76 737q0 180 57 325.5t153.5 247t225.5 157t274 55.5q143 0 273.5 -55.5t226.5 -157t153.5 -247t57.5 -325.5t-57.5 -325.5t-153.5 -247t-226 -156.5t-274 -55q-145 0 -274 55t-225.5 156.5t-153.5 247t-57 325.5zM402 1695.5q3 58.5 22.5 106.5t57.5 76.5t93 16.5 l416 -100q18 -4 29.5 5t16.5 25.5t6 37t1 38.5h105q18 -68 12 -127t-29.5 -102t-61.5 -65.5t-87 -14.5l-416 102q-20 4 -30.5 -6t-15.5 -26.5t-5 -37v-36.5h-105q-12 49 -9 107.5zM555 737q0 -160 18.5 -277.5t50 -194.5t73.5 -114.5t89 -37.5t89.5 37.5t74 114.5t50 194.5 t18.5 277.5t-18.5 278t-50 194.5t-73.5 114.5t-90 38q-47 0 -89 -38t-73.5 -114.5t-50 -194.5t-18.5 -278z" />
<glyph unicode="&#xd6;" d="M76 737q0 180 57 325.5t153.5 247t225.5 157t274 55.5q143 0 273.5 -55.5t226.5 -157t153.5 -247t57.5 -325.5t-57.5 -325.5t-153.5 -247t-226 -156.5t-274 -55q-145 0 -274 55t-225.5 156.5t-153.5 247t-57 325.5zM418 1730q0 61 43 107.5t114 46.5q76 0 118 -46.5 t42 -107.5q0 -66 -42 -113t-118 -47q-72 0 -114.5 47.5t-42.5 112.5zM555 737q0 -160 18.5 -277.5t50 -194.5t73.5 -114.5t89 -37.5t89.5 37.5t74 114.5t50 194.5t18.5 277.5t-18.5 278t-50 194.5t-73.5 114.5t-90 38q-47 0 -89 -38t-73.5 -114.5t-50 -194.5t-18.5 -278z M838 1730q0 61 43 107.5t116 46.5q76 0 117 -46.5t41 -107.5q0 -66 -41 -113t-117 -47q-74 0 -116.5 47.5t-42.5 112.5z" />
<glyph unicode="&#xd7;" horiz-adv-x="1134" d="M100 453l291 295l-285 288l181 172l282 -288l281 284l178 -176l-287 -280l293 -293l-174 -179l-295 293l-291 -293z" />
<glyph unicode="&#xd8;" d="M76 737q0 180 57 325.5t153.5 247t225.5 157t274 55.5q100 0 192.5 -27t174.5 -78l86 119l111 -70l-93 -129q111 -102 175.5 -253.5t64.5 -346.5q0 -180 -57.5 -325.5t-153.5 -247t-226 -156.5t-274 -55q-117 0 -223 35t-194 102l-97 -135l-108 72l108 151 q-92 102 -144 242.5t-52 316.5zM555 737q0 -41 1 -85t3 -79l410 592q-33 104 -81 150.5t-102 46.5q-47 0 -89 -38t-73.5 -114.5t-50 -194.5t-18.5 -278zM586 383q29 -143 82 -206.5t118 -63.5q47 0 89.5 37.5t74 114.5t50 194.5t18.5 277.5q0 70 -4 135.5t-10 118.5z" />
<glyph unicode="&#xd9;" horiz-adv-x="1497" d="M82 1366v109h610v-109h-84v-860q0 -53 12.5 -99.5t41 -81t75.5 -54t117 -19.5t117 20.5t75.5 55t40 81t11.5 99.5v858h-84v109h401v-109h-84v-860q0 -158 -46 -263.5t-123 -170t-176 -92t-204 -27.5q-141 0 -254.5 31.5t-194.5 97t-124 166t-43 237.5v881h-84zM430 1888 h272l238 -307h-183z" />
<glyph unicode="&#xda;" horiz-adv-x="1497" d="M82 1366v109h610v-109h-84v-860q0 -53 12.5 -99.5t41 -81t75.5 -54t117 -19.5t117 20.5t75.5 55t40 81t11.5 99.5v858h-84v109h401v-109h-84v-860q0 -158 -46 -263.5t-123 -170t-176 -92t-204 -27.5q-141 0 -254.5 31.5t-194.5 97t-124 166t-43 237.5v881h-84zM754 1581 l237 307h273l-328 -307h-182z" />
<glyph unicode="&#xdb;" horiz-adv-x="1497" d="M82 1366v109h610v-109h-84v-860q0 -53 12.5 -99.5t41 -81t75.5 -54t117 -19.5t117 20.5t75.5 55t40 81t11.5 99.5v858h-84v109h401v-109h-84v-860q0 -158 -46 -263.5t-123 -170t-176 -92t-204 -27.5q-141 0 -254.5 31.5t-194.5 97t-124 166t-43 237.5v881h-84zM473 1581 l237 307h232l235 -307h-241l-109 155l-110 -155h-244z" />
<glyph unicode="&#xdc;" horiz-adv-x="1497" d="M82 1366v109h610v-109h-84v-860q0 -53 12.5 -99.5t41 -81t75.5 -54t117 -19.5t117 20.5t75.5 55t40 81t11.5 99.5v858h-84v109h401v-109h-84v-860q0 -158 -46 -263.5t-123 -170t-176 -92t-204 -27.5q-141 0 -254.5 31.5t-194.5 97t-124 166t-43 237.5v881h-84zM447 1730 q0 61 43 107.5t114 46.5q76 0 118 -46.5t42 -107.5q0 -66 -42 -113t-118 -47q-72 0 -114.5 47.5t-42.5 112.5zM867 1730q0 61 43 107.5t116 46.5q76 0 117 -46.5t41 -107.5q0 -66 -41 -113t-117 -47q-74 0 -116.5 47.5t-42.5 112.5z" />
<glyph unicode="&#xdd;" horiz-adv-x="1687" d="M61 1366v109h723v-109h-84l254 -555l285 555h-84v109h471v-109h-84l-446 -741v-516h84v-109h-629v109h84v516l-490 741h-84zM568 1888h272l238 -307h-183z" />
<glyph unicode="&#xde;" horiz-adv-x="1511" d="M102 0v109h84v1257h-84v109h605v-109h-84v-264q209 25 368.5 9.5t269 -66t165 -130t55.5 -184.5q0 -117 -69 -204t-186.5 -138t-273 -62.5t-329.5 23.5v-241h84v-109h-605zM623 522q113 -18 196.5 -6t139 45t83 78t27.5 88q0 68 -38 111t-100.5 67.5t-142 31.5t-165.5 -1 v-414z" />
<glyph unicode="&#xdf;" horiz-adv-x="1630" d="M102 0v109h84v1054q0 90 42 162t114 119q74 47 176.5 64.5t218.5 17.5q82 -2 179.5 -17.5t180.5 -55.5t140 -108.5t63 -175.5q4 -61 -15 -124.5t-58 -126.5q-25 -41 -46.5 -78t-13.5 -76q6 -35 33 -53.5t62 -34.5q41 -18 91 -42t96 -59.5t83 -85t49 -118.5 q14 -98 -6.5 -172t-70.5 -123t-127 -75t-173 -26q-82 0 -169 21.5t-161 77.5l-49 -74h-61v352h231v-94q0 -47 29 -76.5t70 -34.5q53 -4 81.5 24t28.5 79q0 43 -21.5 83t-56.5 68q-49 39 -114.5 66t-125 57.5t-100.5 70.5t-41 105q0 68 28 112t61.5 88t62.5 99.5t29 147.5 q0 104 -49.5 160.5t-159.5 56.5q-51 0 -93 -22.5t-42 -84.5v-1148h84v-109h-564z" />
<glyph unicode="&#xe0;" horiz-adv-x="1560" d="M61 0v109h84l377 1257h-108v109h721v-109h-109l389 -1257h84v-109h-596v109h84l-74 247h-440l-76 -247h84v-109h-420zM357 1888h272l238 -307h-183zM547 610h291l-148 500z" />
<glyph unicode="&#xe1;" horiz-adv-x="1560" d="M61 0v109h84l377 1257h-108v109h721v-109h-109l389 -1257h84v-109h-596v109h84l-74 247h-440l-76 -247h84v-109h-420zM547 610h291l-148 500zM703 1581l237 307h273l-328 -307h-182z" />
<glyph unicode="&#xe2;" horiz-adv-x="1560" d="M61 0v109h84l377 1257h-108v109h721v-109h-109l389 -1257h84v-109h-596v109h84l-74 247h-440l-76 -247h84v-109h-420zM422 1581l237 307h232l235 -307h-241l-109 155l-110 -155h-244zM547 610h291l-148 500z" />
<glyph unicode="&#xe3;" horiz-adv-x="1560" d="M61 0v109h84l377 1257h-108v109h721v-109h-109l389 -1257h84v-109h-596v109h84l-74 247h-440l-76 -247h84v-109h-420zM394 1695.5q3 58.5 22.5 106.5t57.5 76.5t93 16.5l416 -100q18 -4 29.5 5t16.5 25.5t6 37t1 38.5h105q18 -68 12 -127t-29.5 -102t-61.5 -65.5 t-87 -14.5l-416 102q-20 4 -30.5 -6t-15.5 -26.5t-5 -37v-36.5h-105q-12 49 -9 107.5zM547 610h291l-148 500z" />
<glyph unicode="&#xe4;" horiz-adv-x="1560" d="M61 0v109h84l377 1257h-108v109h721v-109h-109l389 -1257h84v-109h-596v109h84l-74 247h-440l-76 -247h84v-109h-420zM404 1733q0 61 43 107.5t114 46.5q76 0 118 -46.5t42 -107.5q0 -66 -42 -113t-118 -47q-72 0 -114.5 47.5t-42.5 112.5zM547 610h291l-148 500z M824 1733q0 61 43 107.5t116 46.5q76 0 117 -46.5t41 -107.5q0 -66 -41 -113t-117 -47q-74 0 -116.5 47.5t-42.5 112.5z" />
<glyph unicode="&#xe5;" horiz-adv-x="1560" d="M61 0v109h84l377 1257h-108v109h721v-109h-109l389 -1257h84v-109h-596v109h84l-74 247h-440l-76 -247h84v-109h-420zM547 610h291l-148 500zM587 1739q0 72 49.5 121t120.5 49q72 0 121 -49t49 -121t-49 -120t-121 -48t-121 48t-49 120z" />
<glyph unicode="&#xe6;" horiz-adv-x="2232" d="M82 0v109h84l780 1257h-149v109h1312v-580h-137q-12 88 -56 168t-109.5 137t-148.5 88t-175 23v-369h309v-217h-309v-561q86 -6 169 31.5t148.5 105.5t108.5 159t47 191h153v-651h-569h-571v109h78v247h-461l-148 -247h84v-109h-440zM756 610h291v500z" />
<glyph unicode="&#xe7;" horiz-adv-x="1474" d="M76 739q0 203 64.5 350.5t167 244t228.5 142.5t250 46q82 0 139.5 -9.5t98.5 -24.5t71.5 -35.5t61.5 -43.5l60 66h114v-576h-225q6 72 -14.5 153t-62.5 150.5t-100.5 114.5t-127.5 45q-47 0 -95.5 -29.5t-88 -101.5t-64.5 -191.5t-25 -300.5q0 -168 19.5 -282.5 t53.5 -186t82 -107.5t108 -48q80 16 140 71.5t99 135t56.5 175t11.5 191.5l309 -151q2 -121 -39 -221.5t-114.5 -175t-173 -121t-210.5 -60.5v-113q70 10 118 -7t79 -48t44 -67.5t13 -63.5q0 -41 -13 -81t-48 -73.5t-94.5 -54t-151.5 -20.5q-72 0 -127 23.5t-96 51.5l33 121 q57 -39 104 -50t81 -5t52.5 26.5t18.5 49.5q0 41 -44 59.5t-147 -0.5v250q-123 12 -234.5 63.5t-196.5 146.5t-135 236.5t-50 335.5z" />
<glyph unicode="&#xe8;" horiz-adv-x="1376" d="M102 0v109h84v1257h-84v109h1141v-580h-137q-12 88 -56 168t-110 137t-148.5 88t-175.5 23v-369h310v-217h-310v-561q86 -6 169 31.5t148.5 105.5t108.5 159t48 191h153v-651h-1141zM342 1888h272l238 -307h-183z" />
<glyph unicode="&#xe9;" horiz-adv-x="1376" d="M102 0v109h84v1257h-84v109h1141v-580h-137q-12 88 -56 168t-110 137t-148.5 88t-175.5 23v-369h310v-217h-310v-561q86 -6 169 31.5t148.5 105.5t108.5 159t48 191h153v-651h-1141zM570 1581l237 307h273l-328 -307h-182z" />
<glyph unicode="&#xea;" horiz-adv-x="1376" d="M102 0v109h84v1257h-84v109h1141v-580h-137q-12 88 -56 168t-110 137t-148.5 88t-175.5 23v-369h310v-217h-310v-561q86 -6 169 31.5t148.5 105.5t108.5 159t48 191h153v-651h-1141zM340 1581l237 307h232l235 -307h-241l-109 155l-110 -155h-244z" />
<glyph unicode="&#xeb;" horiz-adv-x="1376" d="M102 0v109h84v1257h-84v109h1141v-580h-137q-12 88 -56 168t-110 137t-148.5 88t-175.5 23v-369h310v-217h-310v-561q86 -6 169 31.5t148.5 105.5t108.5 159t48 191h153v-651h-1141zM324 1730q0 61 43 107.5t114 46.5q76 0 118 -46.5t42 -107.5q0 -66 -42 -113t-118 -47 q-72 0 -114.5 47.5t-42.5 112.5zM744 1730q0 61 43 107.5t116 46.5q76 0 117 -46.5t41 -107.5q0 -66 -41 -113t-117 -47q-74 0 -116.5 47.5t-42.5 112.5z" />
<glyph unicode="&#xec;" horiz-adv-x="808" d="M-4 1888h272l238 -307h-183zM102 0v109h84v1257h-84v109h605v-109h-84v-1257h84v-109h-605z" />
<glyph unicode="&#xed;" horiz-adv-x="808" d="M102 0v109h84v1257h-84v109h605v-109h-84v-1257h84v-109h-605zM324 1581l237 307h273l-328 -307h-182z" />
<glyph unicode="&#xee;" horiz-adv-x="808" d="M53 1581l237 307h232l235 -307h-241l-109 155l-110 -155h-244zM102 0v109h84v1257h-84v109h605v-109h-84v-1257h84v-109h-605z" />
<glyph unicode="&#xef;" horiz-adv-x="808" d="M37 1733q0 61 43 107.5t114 46.5q76 0 118 -46.5t42 -107.5q0 -66 -42 -113t-118 -47q-72 0 -114.5 47.5t-42.5 112.5zM102 0v109h84v1257h-84v109h605v-109h-84v-1257h84v-109h-605zM457 1733q0 61 43 107.5t116 46.5q76 0 117 -46.5t41 -107.5q0 -66 -41 -113t-117 -47 q-74 0 -116.5 47.5t-42.5 112.5z" />
<glyph unicode="&#xf0;" horiz-adv-x="1579" d="M61 616v222h125v528h-84v109h566q152 0 303 -45.5t273 -136.5t198 -229.5t76 -324.5q0 -190 -70 -329.5t-183.5 -230.5t-256 -135t-285.5 -44h-621v109h84v507h-125zM625 164q86 0 165.5 47t140 125t97.5 181.5t37 215.5q0 111 -37 215.5t-97.5 184t-140 129t-165.5 49.5 v-473h227v-222h-227v-452z" />
<glyph unicode="&#xf1;" horiz-adv-x="1447" d="M102 0v109h84v1257h-84v109h500l457 -693v584h-84v109h387v-109h-84v-1366h-242l-651 997v-888h84v-109h-367zM359 1697.5q3 58.5 22.5 106.5t57.5 76.5t93 16.5l416 -100q18 -4 29.5 5t16.5 25.5t6 37t1 38.5h105q18 -68 12 -127t-29.5 -102t-61.5 -65.5t-87 -14.5 l-416 102q-20 4 -30.5 -6t-15.5 -26.5t-5 -37v-36.5h-105q-12 49 -9 107.5z" />
<glyph unicode="&#xf2;" d="M76 737q0 180 57 325.5t153.5 247t225.5 157t274 55.5q143 0 273.5 -55.5t226.5 -157t153.5 -247t57.5 -325.5t-57.5 -325.5t-153.5 -247t-226 -156.5t-274 -55q-145 0 -274 55t-225.5 156.5t-153.5 247t-57 325.5zM369 1888h272l238 -307h-183zM555 737 q0 -160 18.5 -277.5t50 -194.5t73.5 -114.5t89 -37.5t89.5 37.5t74 114.5t50 194.5t18.5 277.5t-18.5 278t-50 194.5t-73.5 114.5t-90 38q-47 0 -89 -38t-73.5 -114.5t-50 -194.5t-18.5 -278z" />
<glyph unicode="&#xf3;" d="M76 737q0 180 57 325.5t153.5 247t225.5 157t274 55.5q143 0 273.5 -55.5t226.5 -157t153.5 -247t57.5 -325.5t-57.5 -325.5t-153.5 -247t-226 -156.5t-274 -55q-145 0 -274 55t-225.5 156.5t-153.5 247t-57 325.5zM555 737q0 -160 18.5 -277.5t50 -194.5t73.5 -114.5 t89 -37.5t89.5 37.5t74 114.5t50 194.5t18.5 277.5t-18.5 278t-50 194.5t-73.5 114.5t-90 38q-47 0 -89 -38t-73.5 -114.5t-50 -194.5t-18.5 -278zM697 1581l237 307h273l-328 -307h-182z" />
<glyph unicode="&#xf4;" d="M76 737q0 180 57 325.5t153.5 247t225.5 157t274 55.5q143 0 273.5 -55.5t226.5 -157t153.5 -247t57.5 -325.5t-57.5 -325.5t-153.5 -247t-226 -156.5t-274 -55q-145 0 -274 55t-225.5 156.5t-153.5 247t-57 325.5zM428 1581l237 307h232l235 -307h-241l-109 155 l-110 -155h-244zM555 737q0 -160 18.5 -277.5t50 -194.5t73.5 -114.5t89 -37.5t89.5 37.5t74 114.5t50 194.5t18.5 277.5t-18.5 278t-50 194.5t-73.5 114.5t-90 38q-47 0 -89 -38t-73.5 -114.5t-50 -194.5t-18.5 -278z" />
<glyph unicode="&#xf5;" d="M76 737q0 180 57 325.5t153.5 247t225.5 157t274 55.5q143 0 273.5 -55.5t226.5 -157t153.5 -247t57.5 -325.5t-57.5 -325.5t-153.5 -247t-226 -156.5t-274 -55q-145 0 -274 55t-225.5 156.5t-153.5 247t-57 325.5zM402 1695.5q3 58.5 22.5 106.5t57.5 76.5t93 16.5 l416 -100q18 -4 29.5 5t16.5 25.5t6 37t1 38.5h105q18 -68 12 -127t-29.5 -102t-61.5 -65.5t-87 -14.5l-416 102q-20 4 -30.5 -6t-15.5 -26.5t-5 -37v-36.5h-105q-12 49 -9 107.5zM555 737q0 -160 18.5 -277.5t50 -194.5t73.5 -114.5t89 -37.5t89.5 37.5t74 114.5t50 194.5 t18.5 277.5t-18.5 278t-50 194.5t-73.5 114.5t-90 38q-47 0 -89 -38t-73.5 -114.5t-50 -194.5t-18.5 -278z" />
<glyph unicode="&#xf6;" d="M76 737q0 180 57 325.5t153.5 247t225.5 157t274 55.5q143 0 273.5 -55.5t226.5 -157t153.5 -247t57.5 -325.5t-57.5 -325.5t-153.5 -247t-226 -156.5t-274 -55q-145 0 -274 55t-225.5 156.5t-153.5 247t-57 325.5zM418 1730q0 61 43 107.5t114 46.5q76 0 118 -46.5 t42 -107.5q0 -66 -42 -113t-118 -47q-72 0 -114.5 47.5t-42.5 112.5zM555 737q0 -160 18.5 -277.5t50 -194.5t73.5 -114.5t89 -37.5t89.5 37.5t74 114.5t50 194.5t18.5 277.5t-18.5 278t-50 194.5t-73.5 114.5t-90 38q-47 0 -89 -38t-73.5 -114.5t-50 -194.5t-18.5 -278z M838 1730q0 61 43 107.5t116 46.5q76 0 117 -46.5t41 -107.5q0 -66 -41 -113t-117 -47q-74 0 -116.5 47.5t-42.5 112.5z" />
<glyph unicode="&#xf7;" horiz-adv-x="1105" d="M123 625v254h860v-254h-860zM395 381q0 61 42 107.5t116 46.5t117 -46.5t43 -107.5q0 -63 -43 -111.5t-117 -48.5t-116 48t-42 112zM395 1128q0 61 42 107.5t116 46.5t117 -46t43 -108q0 -66 -43 -112.5t-117 -46.5t-116 47t-42 112z" />
<glyph unicode="&#xf8;" d="M76 737q0 180 57 325.5t153.5 247t225.5 157t274 55.5q100 0 192.5 -27t174.5 -78l86 119l111 -70l-93 -129q111 -102 175.5 -253.5t64.5 -346.5q0 -180 -57.5 -325.5t-153.5 -247t-226 -156.5t-274 -55q-117 0 -223 35t-194 102l-97 -135l-108 72l108 151 q-92 102 -144 242.5t-52 316.5zM555 737q0 -41 1 -85t3 -79l410 592q-33 104 -81 150.5t-102 46.5q-47 0 -89 -38t-73.5 -114.5t-50 -194.5t-18.5 -278zM586 383q29 -143 82 -206.5t118 -63.5q47 0 89.5 37.5t74 114.5t50 194.5t18.5 277.5q0 70 -4 135.5t-10 118.5z" />
<glyph unicode="&#xf9;" horiz-adv-x="1497" d="M82 1366v109h610v-109h-84v-860q0 -53 12.5 -99.5t41 -81t75.5 -54t117 -19.5t117 20.5t75.5 55t40 81t11.5 99.5v858h-84v109h401v-109h-84v-860q0 -158 -46 -263.5t-123 -170t-176 -92t-204 -27.5q-141 0 -254.5 31.5t-194.5 97t-124 166t-43 237.5v881h-84zM430 1888 h272l238 -307h-183z" />
<glyph unicode="&#xfa;" horiz-adv-x="1497" d="M82 1366v109h610v-109h-84v-860q0 -53 12.5 -99.5t41 -81t75.5 -54t117 -19.5t117 20.5t75.5 55t40 81t11.5 99.5v858h-84v109h401v-109h-84v-860q0 -158 -46 -263.5t-123 -170t-176 -92t-204 -27.5q-141 0 -254.5 31.5t-194.5 97t-124 166t-43 237.5v881h-84zM754 1581 l237 307h273l-328 -307h-182z" />
<glyph unicode="&#xfb;" horiz-adv-x="1497" d="M82 1366v109h610v-109h-84v-860q0 -53 12.5 -99.5t41 -81t75.5 -54t117 -19.5t117 20.5t75.5 55t40 81t11.5 99.5v858h-84v109h401v-109h-84v-860q0 -158 -46 -263.5t-123 -170t-176 -92t-204 -27.5q-141 0 -254.5 31.5t-194.5 97t-124 166t-43 237.5v881h-84zM473 1581 l237 307h232l235 -307h-241l-109 155l-110 -155h-244z" />
<glyph unicode="&#xfc;" horiz-adv-x="1497" d="M82 1366v109h610v-109h-84v-860q0 -53 12.5 -99.5t41 -81t75.5 -54t117 -19.5t117 20.5t75.5 55t40 81t11.5 99.5v858h-84v109h401v-109h-84v-860q0 -158 -46 -263.5t-123 -170t-176 -92t-204 -27.5q-141 0 -254.5 31.5t-194.5 97t-124 166t-43 237.5v881h-84zM447 1730 q0 61 43 107.5t114 46.5q76 0 118 -46.5t42 -107.5q0 -66 -42 -113t-118 -47q-72 0 -114.5 47.5t-42.5 112.5zM867 1730q0 61 43 107.5t116 46.5q76 0 117 -46.5t41 -107.5q0 -66 -41 -113t-117 -47q-74 0 -116.5 47.5t-42.5 112.5z" />
<glyph unicode="&#xfd;" horiz-adv-x="1687" d="M61 1366v109h723v-109h-84l254 -555l285 555h-84v109h471v-109h-84l-446 -741v-516h84v-109h-629v109h84v516l-490 741h-84zM568 1888h272l238 -307h-183z" />
<glyph unicode="&#xfe;" horiz-adv-x="1511" d="M102 0v109h84v1257h-84v109h605v-109h-84v-264q209 25 368.5 9.5t269 -66t165 -130t55.5 -184.5q0 -117 -69 -204t-186.5 -138t-273 -62.5t-329.5 23.5v-241h84v-109h-605zM623 522q113 -18 196.5 -6t139 45t83 78t27.5 88q0 68 -38 111t-100.5 67.5t-142 31.5t-165.5 -1 v-414z" />
<glyph unicode="&#xff;" horiz-adv-x="1687" d="M61 1366v109h723v-109h-84l254 -555l285 555h-84v109h471v-109h-84l-446 -741v-516h84v-109h-629v109h84v516l-490 741h-84zM590 1730q0 61 43 107.5t114 46.5q76 0 118 -46.5t42 -107.5q0 -66 -42 -113t-118 -47q-72 0 -114.5 47.5t-42.5 112.5zM1010 1730 q0 61 43 107.5t116 46.5q76 0 117 -46.5t41 -107.5q0 -66 -41 -113t-117 -47q-74 0 -116.5 47.5t-42.5 112.5z" />
<glyph unicode="&#x152;" horiz-adv-x="2238" d="M76 737q0 180 57 325.5t153.5 247t225.5 157t274 55.5q133 0 252 -47h1067v-580h-137q-12 88 -56 168t-109.5 137t-148.5 88t-175 23v-369h309v-217h-309v-561q86 -6 169 31.5t148.5 105.5t108.5 159t47 191h153v-651h-1067q-119 -47 -252 -47q-145 0 -274 55 t-225.5 156.5t-153.5 247t-57 325.5zM555 737q0 -160 18.5 -277.5t50 -194.5t73.5 -114.5t89 -37.5t89.5 37.5t74 114.5t50 194.5t18.5 277.5t-18.5 278t-50 194.5t-73.5 114.5t-90 38q-47 0 -89 -38t-73.5 -114.5t-50 -194.5t-18.5 -278z" />
<glyph unicode="&#x153;" horiz-adv-x="1935" d="M63 578q0 139 44.5 252.5t120 193.5t177 124t216.5 44q106 0 201.5 -38t168.5 -110l4 5q72 70 172.5 106.5t202.5 36.5q102 2 194.5 -38t157 -116.5t96 -189.5t13.5 -260h-635q-8 -100 6.5 -185.5t47 -147.5t78.5 -99t104 -39q109 18 180 115.5t100 263.5h109v-496h-111 v74q-27 -33 -69 -54.5t-89 -35t-95 -18.5t-85 -5q-109 0 -208 34t-177 107q-74 -70 -168 -105.5t-198 -35.5q-115 0 -216.5 44t-177 125t-120 194.5t-44.5 253.5zM442 578q0 -90 14.5 -173t39 -146.5t56.5 -100.5t69 -37t68.5 38t56 101.5t39 145.5t14.5 172t-14.5 173 t-39 145t-56.5 99t-68 37q-37 0 -69 -37t-56.5 -99t-39 -145t-14.5 -173zM1200 702h301q4 150 -38 239t-105 89q-61 0 -104.5 -89t-53.5 -239z" />
<glyph unicode="&#x178;" horiz-adv-x="1687" d="M61 1366v109h723v-109h-84l254 -555l285 555h-84v109h471v-109h-84l-446 -741v-516h84v-109h-629v109h84v516l-490 741h-84zM590 1730q0 61 43 107.5t114 46.5q76 0 118 -46.5t42 -107.5q0 -66 -42 -113t-118 -47q-72 0 -114.5 47.5t-42.5 112.5zM1010 1730 q0 61 43 107.5t116 46.5q76 0 117 -46.5t41 -107.5q0 -66 -41 -113t-117 -47q-74 0 -116.5 47.5t-42.5 112.5z" />
<glyph unicode="&#x2c6;" horiz-adv-x="864" d="M80 1139l237 307h232l235 -307h-241l-109 155l-110 -155h-244z" />
<glyph unicode="&#x2dc;" horiz-adv-x="935" d="M89 1246.5q3 58.5 22.5 106.5t57.5 76.5t93 16.5l416 -100q18 -4 29.5 5t16.5 25.5t6 37t1 38.5h105q18 -68 12 -127t-29.5 -102t-61.5 -65.5t-87 -14.5l-416 102q-20 4 -30.5 -6t-15.5 -26.5t-5 -37v-36.5h-105q-12 49 -9 107.5z" />
<glyph unicode="&#x2000;" horiz-adv-x="954" />
<glyph unicode="&#x2001;" horiz-adv-x="1909" />
<glyph unicode="&#x2002;" horiz-adv-x="954" />
<glyph unicode="&#x2003;" horiz-adv-x="1909" />
<glyph unicode="&#x2004;" horiz-adv-x="636" />
<glyph unicode="&#x2005;" horiz-adv-x="477" />
<glyph unicode="&#x2006;" horiz-adv-x="318" />
<glyph unicode="&#x2007;" horiz-adv-x="318" />
<glyph unicode="&#x2008;" horiz-adv-x="238" />
<glyph unicode="&#x2009;" horiz-adv-x="381" />
<glyph unicode="&#x200a;" horiz-adv-x="106" />
<glyph unicode="&#x2010;" horiz-adv-x="802" d="M102 514v303h598v-303h-598z" />
<glyph unicode="&#x2011;" horiz-adv-x="802" d="M102 514v303h598v-303h-598z" />
<glyph unicode="&#x2012;" horiz-adv-x="802" d="M102 514v303h598v-303h-598z" />
<glyph unicode="&#x2013;" horiz-adv-x="1239" d="M102 514v301h1035v-301h-1035z" />
<glyph unicode="&#x2014;" horiz-adv-x="1751" d="M102 514v301h1547v-301h-1547z" />
<glyph unicode="&#x2018;" horiz-adv-x="520" d="M102 1028v311l113 181h80l-47 -181h170v-311h-316z" />
<glyph unicode="&#x2019;" horiz-adv-x="520" d="M102 1163v312h316v-312l-113 -180h-80l47 180h-170z" />
<glyph unicode="&#x201a;" horiz-adv-x="555" d="M102 0v346h351v-346l-125 -201h-88l51 201h-189z" />
<glyph unicode="&#x201c;" horiz-adv-x="937" d="M102 1028v311l113 181h80l-47 -181h170v-311h-316zM520 1028v311l113 181h80l-47 -181h170v-311h-316z" />
<glyph unicode="&#x201d;" horiz-adv-x="937" d="M102 1163v312h316v-312l-113 -180h-80l47 180h-170zM520 1163v312h316v-312l-113 -180h-80l47 180h-170z" />
<glyph unicode="&#x201e;" horiz-adv-x="1110" d="M102 0v346h351v-346l-125 -201h-88l51 201h-189zM657 0v346h351v-346l-125 -201h-88l51 201h-189z" />
<glyph unicode="&#x2022;" horiz-adv-x="827" d="M102 715q0 63 25 119.5t67 98.5t98 66.5t122 24.5q63 0 119.5 -24.5t99.5 -66.5t67.5 -98.5t24.5 -119.5q0 -66 -24.5 -121t-67.5 -97t-99.5 -65.5t-119.5 -23.5q-66 0 -122 23.5t-98 65.5t-67 97t-25 121z" />
<glyph unicode="&#x2026;" horiz-adv-x="1767" d="M154 0v346h350v-346h-350zM709 0v346h350v-346h-350zM1264 0v346h350v-346h-350z" />
<glyph unicode="&#x202f;" horiz-adv-x="381" />
<glyph unicode="&#x2039;" horiz-adv-x="686" d="M82 453v258l502 444v-307l-287 -230v-77l287 -226v-307z" />
<glyph unicode="&#x203a;" horiz-adv-x="686" d="M102 8v307l287 226v77l-287 230v307l502 -444v-258z" />
<glyph unicode="&#x205f;" horiz-adv-x="477" />
<glyph unicode="&#x20ac;" horiz-adv-x="1533" d="M55 473v199h103q-4 41 -4 70.5t4 64.5h-103v199h138q29 94 77.5 179t116.5 150q100 96 219 141.5t260 45.5q59 0 103.5 -3t84.5 -13.5t83 -34t100 -62.5l61 66h113v-576h-225l4 35q0 82 -24.5 158.5t-67.5 136t-99.5 96.5t-119.5 37q-90 0 -159 -97.5t-91 -258.5h413 l-41 -199h-389q-10 -35 -10 -64.5t10 -70.5h365l-41 -199h-307q23 -166 91 -261t159 -95q66 0 122 39t98 100t66.5 138t24.5 151l-4 35h225v-574h-113l-61 64q-55 -39 -97 -61.5t-83 -34t-86 -14.5t-105 -3q-283 0 -479 190q-68 66 -117 149t-77 177h-138z" />
<glyph unicode="&#x2122;" horiz-adv-x="1355" d="M61 1384v101h469v-101h-170v-649h-124v649h-175zM610 735v750h166l178 -522l176 522h164v-750h-118v533l-177 -516h-90l-176 516v-533h-123z" />
<glyph unicode="&#x25fc;" horiz-adv-x="1474" d="M0 0v1475h1475v-1475h-1475z" />
</font>
</defs>
</svg>
