<?xml version="1.0" standalone="no"?>
<!DOCTYPE svg PUBLIC "-//W3C//DTD SVG 1.1//EN" "http://www.w3.org/Graphics/SVG/1.1/DTD/svg11.dtd" >
<svg xmlns="http://www.w3.org/2000/svg" xmlns:xlink="http://www.w3.org/1999/xlink" version="1.1">
<metadata></metadata>
<defs>
<font id="vonfontregular" horiz-adv-x="1139" >
<font-face units-per-em="2048" ascent="1638" descent="-410" />
<missing-glyph horiz-adv-x="569" />
<glyph horiz-adv-x="0" />
<glyph unicode="&#xd;" horiz-adv-x="569" />
<glyph unicode=" "  horiz-adv-x="569" />
<glyph unicode="&#x09;" horiz-adv-x="569" />
<glyph unicode="&#xa0;" horiz-adv-x="569" />
<glyph unicode="!" horiz-adv-x="403" d="M3 1093h182h125l-15 -114l-14 -54l-23 -325l-17 -205l-4 -108l-46 -53l-86 27l-6 169l-43 499l-12 71zM78 102q-5 43 20.5 73t62.5 30q50 -17 69.5 -38.5t19.5 -64.5q0 -42 -26 -72t-63 -30t-62.5 30t-20.5 72z" />
<glyph unicode="&#x22;" horiz-adv-x="727" />
<glyph unicode="#" horiz-adv-x="625" d="M-19 494l5 8v125q0 450 348 466l108 -22l24 -3l73 -56q8 9 -28 -121l-74 24l-28 7h-109l-78 -56q-168 -331 65 -715l86 25l3 275l-59 22l8 102q109 -29 220 6q48 -138 4 -123l-50 -17l2 -360v-81h-84l-29 38l-61 -38l-120 1l-115 79l-59 149l-25 85zM361 1038l111 20 q52 -72 184 -72h49q490 180 688 180l114 -10q84 -48 9 -93l-136 4l-798 -209l-36 16l-136 61z" />
<glyph unicode="$" horiz-adv-x="723" d="M-13 491l25 26h171v-78q87 70 182 68l64 -68l-25 -413l-11 -26q-76 -14 -111 52v129l24 181l-24 26h-49q-74 0 -74 -284l49 -78l-25 -26h-122l-49 52l49 77v310q-74 0 -74 52zM246 475l71 32l67 -16l41 -49q90 78 172 78l74 -78l-25 -413v-77l11 -13q18 -6 51 -24l20 -6 l-7 -43l-29 -11q102 13 -21 -6q-147 53 -147 206v129l24 181l-24 26h-49q-74 0 -74 -284l49 -78l-25 -26h-122l-49 52l49 77v310q-74 0 -57 33z" />
<glyph unicode="%" horiz-adv-x="465" d="M-4 475l71 32l67 -16l41 -49q90 78 172 78l74 -78l-25 -413v-77l11 -13q18 -6 51 -24l20 -6l-7 -43l-29 -11q102 13 -21 -6q-147 53 -147 206v129l24 181l-24 26h-49q-74 0 -74 -284l49 -78l-25 -26h-122l-49 52l49 77v310q-74 0 -57 33z" />
<glyph unicode="&#x26;" horiz-adv-x="568" d="M-316 1109l74 77h49l74 -77l-49 -78l73 -26l246 130h24v-594l49 -52l49 52h172q65 0 98 -181l-49 -390l48 -58q20 -77 -1 -89q-73 -14 -95.5 -6.5t-57.5 67.5l-41 136l25 392l-74 25q-123 0 -123 -335l49 -52l-49 -51h-172l49 387v103l-24 439h-245q-99 42 -99 181z" />
<glyph unicode="'" horiz-adv-x="391" />
<glyph unicode="(" horiz-adv-x="682" />
<glyph unicode=")" horiz-adv-x="682" />
<glyph unicode="*" horiz-adv-x="797" />
<glyph unicode="+" horiz-adv-x="503" d="M8 197q-53 82 0 148q605 60 423 -152l-211 2zM172 63q-87 497 56 457l69 -28l20 -213l3 -212q-81 -55 -148 -4z" />
<glyph unicode="," horiz-adv-x="200" d="M4 103q-5 -43 20.5 -73t71.5 -30q41 17 60.5 38.5t19.5 64.5q0 42 -26 72t-63 30t-62.5 -30t-20.5 -72zM38 -50l36 -51l58 27l26 61l17 62l1 41l-56 -25l-37 -48l3 -27l-13 -20l-13 -9z" />
<glyph unicode="-" horiz-adv-x="419" d="M3 197q-43 82 0 148q489 60 342 -152l-171 2z" />
<glyph unicode="." horiz-adv-x="250" d="M4 103q-5 42 20.5 72t62.5 30t63 -30t26 -72q0 -43 -19.5 -64.5t-60.5 -38.5q-46 0 -71.5 30t-20.5 73z" />
<glyph unicode="/" horiz-adv-x="569" d="M0 28l340 827l106 238l113 -52l-39 -110l-208 -486l-184 -449z" />
<glyph unicode="0" horiz-adv-x="465" d="M-198 796v51q142 0 295 309h49l49 -180l-98 -77l98 -514h25l122 514l-49 103l123 51q40 -103 172 -103h49q490 180 688 180l114 -10q84 -48 9 -93l-136 4l-798 -209l-24 25l-197 -718l49 -52v-25l-24 -26v-26l-123 26l-73 -26l-25 26l25 128l-123 668l-25 -26h-172z" />
<glyph unicode="1" horiz-adv-x="542" d="M-3392 133v99l95 99h118q70 -24 66 -184l-69 -39q135 -301 1912 -372h94q950 0 1508 174l-23 123l-13 318l-29 54q-123 75 -123 -247l14 -74l9 -84h-194l53 431v99l-24 422h-235q-94 41 -94 174l70 75h48l70 -75l-47 -74l71 -25l235 124h24v-571l28 -84l107 67l133 -51 q53 -20 67 -181l-29 -322h24l94 24h118q46 0 94 -148q-49 -149 -189 -149q-78 0 -165 74q-644 -248 -1743 -248q-1572 0 -2075 571zM543 -85v-52l98 -25l25 25v26l-50 51z" />
<glyph unicode="2" horiz-adv-x="3" d="M-4846 133v99l118 99h146q87 -24 29 -157l-85 -59q220 -308 2420 -379h116q1177 0 1868 174l291 123h147q57 0 116 -148q-61 -149 -234 -149q-96 0 -136 89q-865 -263 -2226 -263q-1947 0 -2570 571zM37 -106l79 -54l63 23v26l-62 51l-60 -25z" />
<glyph unicode="3" horiz-adv-x="3" d="M-3852 133v99l95 99h118q70 -24 66 -184l-69 -39q135 -301 1912 -372h94q950 0 1508 174l236 123h118q46 0 94 -148q-49 -149 -189 -149q-78 0 -165 74q-644 -248 -1743 -248q-1572 0 -2075 571zM37 -106l79 -54l63 23v26l-62 51l-60 -25z" />
<glyph unicode="4" horiz-adv-x="0" d="M-3303 133v99l82 99h102q60 -24 57 -184l-60 -39q117 -301 1647 -372h81q818 0 1299 174l202 123h102q40 0 81 -148q-42 -149 -163 -149q-67 0 -141 74q-555 -248 -1501 -248q-1354 0 -1788 571zM37 -106l79 -54l63 23v26l-62 51l-60 -25z" />
<glyph unicode="5" horiz-adv-x="3" d="M-2738 133v99l68 99h85q50 -24 47 -184l-50 -39q97 -301 1365 -372h67q678 0 1077 174l168 123h84q33 0 67 -148q-35 -149 -135 -149q-56 0 -117 74q-460 -248 -1244 -248q-1122 0 -1482 571zM37 -106l68 -54l54 23v26l-53 51l-52 -25z" />
<glyph unicode="6" horiz-adv-x="0" d="M-2263 95v93l56 92h70q109 -22 86 -181l-58 -40q49 -268 1094 -334h55q559 0 887 162l95 113l113 2q27 0 94 -125q-68 -152 -150 -152q-46 0 -97 69q-378 -232 -1024 -232q-925 0 -1221 533zM28 -108v-48l67 -24l47 11v63l-64 21z" />
<glyph unicode="7" horiz-adv-x="0" d="M-4319 133v99l106 99h131q78 -24 74 -184l-77 -39q150 -301 2126 -372h105q1056 0 1676 174l262 123h131q52 0 105 -148q-54 -149 -210 -149q-87 0 -183 74q-716 -248 -1938 -248q-1748 0 -2308 571zM37 -106l79 -54l63 23v26l-62 51l-60 -25z" />
<glyph unicode="8" horiz-adv-x="0" d="M-6180 133v99l149 99l104 -6q103 -25 76 -151l-67 -59q277 -308 3045 -379h146q1481 0 2350 174l367 123h184q72 0 146 -148q-77 -149 -294 -149q-121 0 -171 89q-1088 -263 -2801 -263q-2450 0 -3234 571zM-36 -106l99 -54l80 23v26l-78 51l-75 -25z" />
<glyph unicode="9" />
<glyph unicode=":" horiz-adv-x="240" d="M4 143q-5 42 20.5 72t62.5 30t63 -30t26 -72q0 -43 -19.5 -64.5t-60.5 -38.5q-46 0 -71.5 30t-20.5 73zM4 393q-5 42 20.5 72t62.5 30t63 -30t26 -72q0 -43 -19.5 -64.5t-60.5 -38.5q-46 0 -71.5 30t-20.5 73z" />
<glyph unicode=";" horiz-adv-x="247" d="M4 103q-5 -43 20.5 -73t71.5 -30q41 17 60.5 38.5t19.5 64.5q0 42 -26 72t-63 30t-62.5 -30t-20.5 -72zM4 336q-4 42 21 72t62 30t63 -30t26 -72q0 -43 -19.5 -64.5t-60.5 -38.5q-46 0 -71 30t-21 73zM38 -50l36 -51l58 27l26 61l17 62l1 41l-56 -25l-37 -48l3 -27 l-13 -20l-13 -9z" />
<glyph unicode="&#x3c;" horiz-adv-x="1196" />
<glyph unicode="=" horiz-adv-x="439" d="M3 97q-43 82 0 148q489 60 342 -152l-171 2zM3 297q-43 82 0 148q489 60 342 -152l-171 2z" />
<glyph unicode="&#x3e;" horiz-adv-x="1196" />
<glyph unicode="?" />
<glyph unicode="@" horiz-adv-x="2079" />
<glyph unicode="A" horiz-adv-x="768" d="M-12 102l84 21l56 199l123 638l-56 6l5 140l120 -13l96 -6l67 19l12 -120l-51 -17l8 -32l213 -826l72 -1l-3 -46l24 -64h-334l-3 90l51 22l-149 622l4 1l-100 -612l81 -5l2 -118l-83 5q-117 -5 -224 -5zM248 432v93h192v-93h-192z" />
<glyph unicode="B" horiz-adv-x="573" d="M-15 1017q-9 24 -9 41q0 46 63 51l249 3q228 -55 228 -244q0 -85 -47 -198l-96 -115l105 -78l74 -146l-4 -135l-72 -113l-115 -82l-326 -1l-40 33q-1 72 70 72h2l24 774v129zM233 98l50 -2q142 109 142 204q0 108 -185 197l13 166q119 79 119 172q0 54 -40 113h-73v-129 l-25 -697z" />
<glyph unicode="C" horiz-adv-x="543" d="M-44 559l4 161q6 357 354 373l108 -22l18 22l96 -30q-9 -42 -60 -205l-92 17l5 47l-112 10l-71 -39q-63 -163 -63 -318q0 -209 114 -403l82 -20l47 19l49 54l69 -8q23 -16 23 -49.5t-23 -85.5l-78 -82l-239 1l-115 79l-59 149l-25 85l-27 180z" />
<glyph unicode="D" horiz-adv-x="624" d="M-10 1017q-9 24 -9 41q0 46 63 51l249 3q294 0 294 -465v-129l5 -8l-27 -186l-25 -88l-59 -153l-115 -82l-326 -1l-40 33q-1 72 70 72h2l24 774v129zM233 98l50 -2q148 0 148 439v78q-18 335 -99 335h-73v-129l-25 -697z" />
<glyph unicode="E" horiz-adv-x="697" d="M-40 1025l1 68h414l-4 -82l-101 -5l-3 -342l2 -75v-499l78 -20l-12 -70h-59h-277l-5 70l89 32l6 907q-17 -4 -36 -4q-43 0 -93 20zM159 583l149 -2l38 6l39 10l32 -14l-16 20l34 42l6 41l64 -4v-180h-18h-226l-44 57zM164 533l53 57h270h18l1 -178l-71 -4l-10 39l-8 15 l-24 20l-28 13l-46 10l-46 6l-87 5zM184 113l208 -3l54 8l20 -30l-3 33l99 57l9 22l12 47l84 4l1 -251h-25h-317l-62 80zM234 1011l62 80l292 2l52 -52l-3 -201l-84 4l-12 47l-9 22l-29 27l-33 18l-54 15l-54 8l-103 7z" />
<glyph unicode="F" horiz-adv-x="568" d="M-40 1025l1 68h329l81 -82l-101 -5l-3 -342l2 -75l-3 -493l98 -16l-7 -80l-96 15l-262 -15l-5 70l89 32l4 880q-56 15 -127 43zM159 583l149 -2l38 6l39 10l23 13l21 20l6 15l6 41l64 -4v-180h-18h-226l-44 57zM164 533l53 57h270h18l1 -178l-71 -4l-30 60l19 14h-31 l-28 13l-46 10l-46 6l-87 5zM234 1011l58 82l321 -2h25l-1 -251l-84 4l-12 47l-9 22l-24 53l-38 -8l-54 15l-54 8l-103 7z" />
<glyph unicode="G" horiz-adv-x="575" d="M-19 494l5 8v125q0 450 348 466l108 -22l18 22l96 -30q-9 -42 -60 -205l-92 17l5 47h-109l-78 -56q-70 -139 -70 -287q0 -205 135 -428l86 25l3 275l-59 22l8 102q49 -13 99 -13q60 0 121 19q25 -72 25 -102q0 -22 -13 -22q-4 0 -8 1l-50 -17l2 -360v-81h-84l-29 38 l-61 -38l-120 1l-115 79l-59 149l-25 85z" />
<glyph unicode="H" horiz-adv-x="852" d="M-30 1028l1 69h473l-5 -82l-76 14l-23 -441l8 -5l4 -493l59 -19l-14 -71h-67h-316l-6 71l103 32l6 909q-19 -3 -39 -3q-50 0 -108 19zM250 535l64 117h284l13 -110zM500 1028v69h323l-3 -82l-78 -5l-7 -835l5 416v-501l61 -19l-10 -71h-45h-216l-4 71l70 32l4 909 q-13 -3 -26 -3q-34 0 -74 19z" />
<glyph unicode="I" horiz-adv-x="366" d="M-30 1025l1 68h391l-3 -82l-96 -5l-8 -832l7 415v-499l73 -20l-11 -70h-56h-261l-6 70l85 32l6 907q-16 -4 -34 -4q-41 0 -88 20z" />
<glyph unicode="J" horiz-adv-x="328" d="M-282 -219q63 145 110 145h3l122 -12l98 -76l22 39l25 412q15 174 77 174h4l71 -136l-13 -393l-36 -103q-39 -91 -69.5 -128t-70.5 -56q-68 -40 -138 -40q-12 0 -24 1q-145 14 -181 173zM-149 -203v-52l99 -25l24 25v26l-49 52zM-29 1025l1 68h390l-3 -82l-96 -5l-4 -341 l-6 -166l-6 -412l-4 -34l-46 -83l7 30h-132l7 39l7 63l6 907q-16 -4 -34 -4q-41 0 -87 20z" />
<glyph unicode="K" horiz-adv-x="698" d="M-50 1025l1 68h319l-15 -78l-41 -9l-6 -252l5 -165v-499l73 -20l-11 -70h-56h-261l-6 70l85 32l6 907q-16 -4 -31 -4q-35 0 -62 20zM57 160l9 41l1 14l15 21l-17 85l348 632l-51 6l-1 131l32 4q100 -29 189 -29q43 0 84 7l-4 -108l-82 -22zM97 578l190 2q83 -9 161 -141 l124 -352l37 8q64 -16 64 -56q0 -13 -7 -29q-3 -28 -68 -39q-10 -2 -20 -2q-55 0 -108 53l-53 77l-130 308l-82 42z" />
<glyph unicode="L" horiz-adv-x="673" d="M-30 1025l1 68h391l-3 -82l-96 -5l-8 -832l7 415v-499l73 -20l-11 -70h-56h-261l-6 70l85 32l6 907q-16 -4 -34 -4q-41 0 -88 20zM0 102h86l6 889q-55 6 -92 16v86h334l-5 -82l-66 -5l-8 -832l7 415v-499l73 -20l-11 -70h-56h-261zM234 80l25 23l103 7l54 8l54 15l33 18 l29 27l9 22l12 47l84 4l1 -251h-25h-317z" />
<glyph unicode="M" horiz-adv-x="1064" d="M-2 0l4 104l57 14l138 790l-79 37l-11 101l159 8l128 17l17 -27l7 -27v-28l-49 -55l197 -766l41 -20l-186 -7l-126 520h-24l-73 -542l51 -14zM-2 0l87 120l113 788l-2 102l15 13l61 21l123 27v-27l24 -27v-28l-49 -55l197 -766l45 -16l69 -39l-20 -104q-116 -9 -271 -18 l-42 100l71 23l-123 547h-24l-92 -540l80 -8l1 -113h-263zM451 201l123 712l-63 38l7 100l130 -1l123 26v-26l24 -28l2 -62l-51 -21l197 -796l88 -5l8 -56l2 -82h-285l-27 105l66 14l-123 547h-24l-63 -547q-146 42 -146 68q0 8 12 14z" />
<glyph unicode="N" horiz-adv-x="700" d="M0 0l103 39l61 775l-70 143h-28l56 32l116 49l5 -26l-25 -22l-81 -55l102 -36l329 -753l-4 -7l91 -27l-6 -112h-44h-143l-5 29l-18 74l-222 514l-24 -4l22 -532l68 -9l13 -72h-296zM1 966l2 127h124h110h48l7 -54l-1 -66l-53 -26l294 -784l-29 49l-67 -76l-220 514 l-24 -5l26 -556l29 -42l-244 -47l1 101l78 -5l-11 858zM360 1093h133h98h42h37l-3 -59l-6 -60l-59 -9l-4 -70l-2 -782q-151 35 -151 66q0 8 10 15l-12 778l-69 7z" />
<glyph unicode="O" horiz-adv-x="796" d="M8 485v160q0 422 402 487q343 -111 343 -432v-270q0 -292 -287 -430h-171q-173 0 -287 485zM177 459q99 -304 230 -304l87 64l57 293l-34 319l-110 116q-180 0 -230 -488z" />
<glyph unicode="P" horiz-adv-x="372" d="M-15 1017q-9 24 -9 41q0 46 63 51l249 3q234 -57 234 -254q0 -82 -40 -188l-86 -87l-133 -48l-24 -429l87 -15l-25 -91h-266l-40 33q-1 72 70 72h2l24 774v129zM234 122v30l9 385l10 126q134 73 134 163q0 58 -55 122h-73v-129z" />
<glyph unicode="Q" horiz-adv-x="805" d="M8 485v160q0 422 402 487q343 -111 343 -432v-270q0 -292 -287 -430h-171q-173 0 -287 485zM177 459q99 -304 230 -304l87 64l57 293l-34 319l-110 116q-180 0 -230 -488zM340 288l26 69l60 4l52 -12l120 -134l125 -86l39 -17l30 -13l4 -47l-13 -52l-17 -30h-90l-39 30 l-155 176l-73 91l-30 -5z" />
<glyph unicode="R" horiz-adv-x="534" d="M-15 1017q-9 24 -9 41q0 46 63 51l249 3q234 -57 234 -254q0 -82 -40 -188l-86 -87l-133 -48l-24 -429l6 -2l-9 -104h-201l-40 33q-1 72 70 72h2l24 774v129zM223 577h164q63 0 111 -224l-64 -370l60 -92l75 80l100 -1q54 0 94 -116q-49 -155 -187 -155q-80 0 -151 54 q-37 23 -62.5 63t-54.5 134l24 115l3 336l-88 72zM234 77v32l10 406l14 114q147 88 147 187q0 64 -62 132h-81v-136zM571 -178l25 -21h26l52 42l-26 62h-52z" />
<glyph unicode="S" horiz-adv-x="843" d="M3 791q0 328 363 328h121l40 -30l41 30h39l81 -59v-179l-36 -122q-89 14 -130 22l3 139l-146 29q-166 -6 -165 -143q0 -29 7 -64q35 -113 128 -113q14 0 29 2l89 -4l75 -54l67 -70l9 -109q-2 26 -84 50l-254 29q-277 59 -277 309v9zM4 44l25 277l107 20q39 -80 39 -97 q0 -4 -2 -4l118 -65l145 -13q134 67 139 139q8 22 8 42q0 118 -296 131l64 34l-108 29l-40 18l-47 36q-3 14 30 14q50 0 181 -33l114 55q283 -33 283 -251q0 -47 -13 -103q0 -273 -319 -273h-122h-39l-110 48l-31 -48z" />
<glyph unicode="T" horiz-adv-x="655" d="M-1 1093h25h317l62 -80l-25 -23l-103 -7l-54 -8l-53 -15l-33 -18l-29 -27l-9 -22l-12 -47l-85 -4zM190 0v68q67 28 116 34v889l-85 32l5 70h262h55l12 -70l-73 -20v-499l-72 -195l73 -222l125 -25l-4 -62h-414zM220 1v85q13 -2 24 -2q38 0 67 18l-5 889h-86l6 102h262h55 l12 -70l-73 -20v-499l-2 -112l3 -305l65 -5l6 -82zM344 1013l62 80h317h25l-1 -251l-85 4l-12 47l-9 22l-29 27l-33 18l-53 15l-89 3l-68 12z" />
<glyph unicode="U" horiz-adv-x="723" d="M-97 954l105 -18l-13 -636q13 -160 113 -234q102 -68 215 -68q98 0 203 51q110 97 114 297v155v235v209l69 12l-17 136h-258l-18 -139l69 -9l-17 -665l-56 -80q-50 -18 -96 -18q-43 0 -80 16l-61 110l-13 625l82 16l13 144h-137l-77 -15l-140 15v-139z" />
<glyph unicode="V" horiz-adv-x="456" d="M-178 805v52q142 0 295 309h49l49 -180l-98 -78l98 -516h24l123 516l-49 103l123 52q52 -75 172 -103l24 -21l-77 -106l-45 24l-197 -723l49 -52v-26l-24 -26v-25l-123 25l-74 -25l-24 25l24 129l-123 672l-24 -26h-172z" />
<glyph unicode="W" horiz-adv-x="835" d="M-178 805v52q142 0 295 309h49l49 -180l-98 -78l98 -516h24l126 490l186 -6l-41 -19l-197 -723l49 -52v-26l-24 -26v-25l-123 25l-74 -25l-24 25l24 129l-123 672l-24 -26h-172zM-178 805v52q142 0 295 309h49l49 -180l-98 -78l98 -516h24l123 516l-71 21l42 95 q101 -24 186 -24q45 0 85 7l20 -98l-69 -37l-45 -15l-197 -723l49 -52v-26l-24 -26v-25l-123 25l-74 -25l-24 25l24 129l-123 672l-24 -26h-172zM395 826q-12 6 -12 13q0 25 146 64l63 -516h24l123 516l-49 103l123 52q52 -75 172 -103l24 -21l-77 -106l-45 24l-197 -723 l49 -52v-26l-24 -26v-25l-123 25l-74 -25l-24 25l24 129z" />
<glyph unicode="X" horiz-adv-x="743" d="M0 926v167q170 1 256 1l92 4l-2 -169l-62 -5l391 -810l48 -9l-16 -105l-241 1l26 97l-311 711l-44 114zM3 0v97l56 16l404 839l-58 5v136h159h137l-3 -147l-85 -2l-54 -145l-321 -672l-2 -127h-233zM215 100l80 -3v-97h-63zM433 0v102h63v-102h-63z" />
<glyph unicode="Y" horiz-adv-x="478" d="M-153 991l34 36q40 -9 77 -9q144 0 249 140l66 -113l-90 -109l11 -64l172 -460l-94 -16l-224 501l-108 -28zM3 97l56 16l405 839l-59 5v136h160h137l-4 -147l-85 -2l-53 -145l-322 -672l-1 -127h-233zM215 100l80 -3v-97h-63z" />
<glyph unicode="Z" horiz-adv-x="730" d="M0 806l3 286h31l463 1l3 -86l-30 -25l-127 -7l-66 -9l-66 -15l-41 -20l-35 -28l-11 -24l-26 -72zM4 0v114l55 -1l410 857l-64 9v114h160h137l-4 -147l-85 -2l-53 -145l-322 -672l28 -127h-262zM193 0l10 80l31 23l126 7l67 8l66 15l40 18l36 27l11 22l15 47l104 4l1 -251 h-30h-477z" />
<glyph unicode="[" horiz-adv-x="569" />
<glyph unicode="\" horiz-adv-x="569" />
<glyph unicode="]" horiz-adv-x="569" />
<glyph unicode="^" horiz-adv-x="961" />
<glyph unicode="_" />
<glyph unicode="`" horiz-adv-x="682" />
<glyph unicode="a" horiz-adv-x="525" d="M0 184q0 203 221 203h74l24 -19l25 19h24l49 -36v-111h-24q-49 0 -49 55l-46 -25l-73 17q-102 -11 -102 -84q27 -104 83 -104q13 0 28 6l36 8l123 -21l24 -18v-19q-24 -55 -147 -55h-98q-172 82 -172 184zM70 495q53 71 165 71q17 0 35 -2q159 -45 160 -174v-108 l-25 -152l26 -22h53l1 -86q-43 -22 -96 -22l-113 106l22 306l-1 65h-84q5 -19 5 -31q0 -30 -27 -30l-36 -8l-66 31z" />
<glyph unicode="b" horiz-adv-x="546" d="M0 15l1 127l39 -1l8 503l-1 -23l-3 216l-44 16l4 103l232 3l10 -99q4 5 4 7q0 1 -1 1q-7 0 -72 -53l12 -671l50 -51l-108 -83h-88zM88 94v24l63 112l65 -51l53 -21q15 -8 28 -8q55 0 82 135q0 95 -101 109l-93 -15l-25 25q0 -71 -48 -71h-24v143l49 47h23l16 -18l48 15 l58 3q219 0 219 -262q0 -131 -133 -233l-134 -5q-114 46 -146 71z" />
<glyph unicode="c" horiz-adv-x="456" d="M0 258q0 284 221 284h74l24 -26l13 26l73 -10l28 -39l-36 -143l-46 9l-43 12l8 38l-20 27l-75 3q-98 -52 -98 -155q34 -181 98 -181h49l123 26l24 -26v-26q-24 -77 -147 -77h-98q-172 115 -172 258z" />
<glyph unicode="d" horiz-adv-x="525" d="M0 251q0 262 219 262l58 -3l48 -15l16 18h23l49 -47v-143h-24q-48 0 -48 71l-25 -25l-93 15q-101 -14 -101 -109q27 -135 82 -135q13 0 28 8l53 21l65 51l63 -112v-24q-32 -25 -152 -84l-130 10q-131 110 -131 241zM262 83l50 51l12 671q-5 40 -5 62v7l-2 66l181 6 l3 -103l-44 -16l-3 -216l-1 23l8 -503l40 1v-127l-43 -5h-88z" />
<glyph unicode="e" horiz-adv-x="456" d="M0 258q0 284 221 284h74l26 -2l28 -8l55 -52l24 -80l-23 -110l-11 28q-13 -7 -25 -7q-36 0 -56 70l-18 45l-79 4q-93 -43 -93 -146q34 -181 98 -181l74 2l57 62l64 -13l9 -51q-32 -103 -155 -103h-98q-172 115 -172 258zM115 241l5 82l170 16l138 60l-10 -80l-16 -47z " />
<glyph unicode="f" horiz-adv-x="370" d="M-81 -256l5 52l54 45l24 -2q42 -4 42 -62q0 -9 -1 -20l25 -3l8 77l15 351l67 37l34 -26l16 -39l5 -182l-13 -128q-16 -152 -168 -189q-113 29 -113 83v6zM-34 473l10 80l245 -22l140 -10l-11 -93l-120 9l-17 -326l1 -111l-13 -166l-14 -51l-117 -8l8 239l5 77l18 351 q-71 2 -98 20zM109 693l13 151q16 180 168 224q120 -37 129 -113l-18 -95l-49 -32l-39 -2q-35 20 -35 46t31 57l-50 4l-13 -73l-15 -415l-67 -43l-34 30l-16 45z" />
<glyph unicode="g" horiz-adv-x="532" d="M-13 -220q13 103 130 150l80 20l81 3l32 17l16 318q15 174 68 174h4l64 -136l-11 -421l-33 -75q-34 -91 -61.5 -128t-63.5 -56q-61 -40 -124 -40q-10 0 -21 1q-129 14 -161 173zM0 278q0 131 133 233l134 5q114 -46 146 -71v-24l-63 -112l-55 60l-63 17q-13 6 -25 6 q-58 0 -85 -138q0 -95 101 -109l93 15l25 -25q0 71 48 71h24v-143l-49 -47h-23l-16 18l-48 -15l-58 -3q-219 0 -219 262zM105 -202v-52q36 -16 67 -16q59 0 100 57l11 72l-92 -11zM262 449l95 75l74 5l70 -5v-123l-40 1l-11 -388l38 11q67 112 112 112q14 0 25 -10 q14 -12 14 -30q0 -49 -97 -143l-74 -34l-148 -125l-8 604z" />
<glyph unicode="h" horiz-adv-x="581" d="M-316 1109l74 77h49l74 -77l-49 -78l73 -26l246 130h24v-594l49 -52l49 52h172q65 0 98 -181l-49 -413l18 -40l105 66h123q48 0 98 -155q-51 -155 -196 -155q-83 0 -158 54q-38 23 -65 63t-57 134l-15 106l25 392l-74 25q-123 0 -123 -335l49 -52l-49 -51h-172l49 387 v103l-24 439h-245q-99 42 -99 181zM612 -176v-52l99 -25l24 25v26l-49 52z" />
<glyph unicode="i" horiz-adv-x="323" d="M0 468l3 40l160 26l71 -23l-5 -206v-5l6 -212l65 -8l3 -80h-69h-231v60l80 31l13 329q-26 -4 -45 -4q-48 0 -48 29zM75 683q-1 7 -1 13q0 33 22 59q26 30 62 30q37 0 63 -30t26 -72q0 -43 -19.5 -64.5t-69.5 -38.5q-36 0 -62 30q-21 25 -22 59q0 7 1 14z" />
<glyph unicode="j" horiz-adv-x="284" d="M-81 -256l5 52l54 45l24 -2q42 -4 42 -62q0 -9 -1 -20l25 -3l8 77l15 351l67 37l34 -26l16 -39l5 -182l-13 -128q-16 -152 -168 -189q-113 29 -113 83v6zM0 468l3 40l160 26l71 -23l-17 -206l5 -88l-9 -106l1 -111l-13 -166l-14 -51l-117 -8l8 239l5 77l13 329 q-26 -4 -45 -4q-48 0 -48 29zM75 683q-1 7 -1 13q0 34 22 59q25 30 62 30t63 -30t26 -72q0 -43 -19.5 -64.5t-60.5 -38.5q-46 0 -71 30q-22 25 -22 59q0 7 1 14z" />
<glyph unicode="k" horiz-adv-x="460" d="M-336 1109l74 77h49l74 -77l-49 -78l73 -26l198 88h72l4 -569l19 -40q-20 -40 -20 -301q0 -45 1 -98l5 -85h-184v65l28 20l24 404l-24 439l-137 -21q-207 63 -207 202zM123 536l142 -21q78 -28 124 -174l39 -371h38q45 -24 45 -50q0 -19 -24 -41q1 -3 1 -5q0 -24 -46 -24 h-15q-66 4 -113 80l-34 87l-36 349l-89 40zM148 568l102 96l15 27l-25 4l10 75l85 -2l57 -20l72 -21l-4 -33l-10 -23l-16 -32l-54 9l-70 -66l-49 -42l-85 -135z" />
<glyph unicode="l" horiz-adv-x="307" d="M-35 980l8 74l144 39h116l-12 -907l5 442l-2 -508l48 -20l2 -100h-43h-183l-13 77l49 52v815q-67 -13 -81 -13q-3 0 -3 1z" />
<glyph unicode="m" horiz-adv-x="744" d="M-13 491l25 26h171v-78q85 68 177 68h5l64 -68l-25 -413l-11 -26q-13 -2 -25 -2q-57 0 -86 54v129l24 181l-24 26h-49q-74 0 -74 -284l49 -78l-25 -26h-122l-49 52l49 77v310q-74 0 -74 52zM246 475l71 32l67 -16l41 -49q90 78 172 78l74 -78l-25 -413v-77h25q0 77 49 77 h25l49 -51v-52q0 -58 -123 -77q-147 53 -147 206v129l24 181l-24 26h-49q-74 0 -74 -284l49 -78l-25 -26h-122l-49 52l49 77v310q-60 0 -60 22q0 5 3 11z" />
<glyph unicode="n" horiz-adv-x="478" d="M-13 491l25 26h171v-78q90 78 172 78l74 -78l-25 -413v-77h25q0 77 49 77h25l49 -51v-52q0 -58 -123 -77q-147 53 -147 206v129l24 181l-24 26h-49q-74 0 -74 -284l49 -78l-25 -26h-122l-49 52l49 77v310q-74 0 -74 52z" />
<glyph unicode="o" horiz-adv-x="352" d="M8 232v77q0 202 172 233q147 -53 147 -207v-129q0 -140 -123 -206h-73q-74 0 -123 232zM106 232q32 -129 74 -129h24l25 206l-25 130h-24q-58 0 -74 -207z" />
<glyph unicode="p" horiz-adv-x="549" d="M0 -314l44 16l3 216l1 -23l-8 503l-39 -1l-1 127l43 5h88l108 -83l-50 -51l-12 -671q65 -53 72 -53q1 0 1 1q0 2 -4 7l-10 -99l-232 4zM88 63v143h24q48 0 48 -71l25 25l93 -15q101 14 101 109q-27 135 -82 135q-13 0 -28 -8l-53 -21l-65 -51l-63 112v24q32 25 146 71 l134 -5q133 -102 133 -233q0 -262 -219 -262l-58 3l-48 15l-16 -18h-23z" />
<glyph unicode="q" horiz-adv-x="538" d="M0 278q0 131 133 233l134 5q114 -46 146 -71v-24l-63 -112l-55 60l-63 17q-13 6 -25 6q-58 0 -85 -138q0 -95 101 -109l93 15l25 -25q0 71 48 71h24v-143l-49 -47h-23l-16 18l-48 -15l-58 -3q-219 0 -219 262zM262 446l95 78l74 5l70 -5v-127l-40 1l-8 -503l1 23l3 -216 l44 -16l-3 -102l-154 -4l-20 4q-4 34 -4 69t4 71l-12 671z" />
<glyph unicode="r" horiz-adv-x="443" d="M-13 491l25 26h171v-78q84 72 166 72h13q54 -36 54 -90q0 -21 -8 -45q-8 -18 -30 -29l-52 7l-31 44l-62 -10q-49 -11 -49 -231q0 -24 1 -51l43 -28v-78h-225v77l58 52v310q-74 0 -74 52z" />
<glyph unicode="s" horiz-adv-x="477" d="M0 0l18 163l61 10q27 -50 21 -51l64 -15l79 -9q84 18 87 55q4 11 4 21q0 60 -169 67l37 17l-62 15l-23 9l-27 18q-2 7 17 7q28 0 104 -17l65 28q181 -18 180 -130q0 -10 -1 -21q0 -167 -207 -167h-70h-22l-42 19l-4 -19h-110zM3 401q0 167 207 167h70l24 -3l30 -19l14 22 l84 -20l-15 -99l-14 -68q-52 7 -69 7q-9 0 -8 -2l-22 50l-81 15q-13 2 -24 2q-59 0 -58 -57q0 -9 1 -19q7 -58 59 -58q8 0 16 1l51 -2l42 -27l39 -36l5 -55h4h1q0 1 -66 6l-154 12q-136 51 -136 178v5z" />
<glyph unicode="t" horiz-adv-x="267" d="M-287 1058v26l74 77h49q49 0 49 -103l74 -26l221 129l24 -26v-464h197l49 -52l-25 -26v-26l-172 26h-49v-103l-24 -232l49 -233l-25 -25h-123l-73 77l49 52v464h-25l-196 -26l-24 26v52l24 26v26l172 -26h49v258q-344 18 -344 129z" />
<glyph unicode="u" horiz-adv-x="510" d="M-27 410q-2 13 -2 23q0 76 118 76q24 0 53 -3l24 -26h25l-25 -180v-155l50 -52h24l49 52v258l15 90l133 -13v-25l-25 -310l49 -129l-24 -26h-25l-74 26l-147 -26h-49q-73 20 -123 181l25 154v78z" />
<glyph unicode="v" horiz-adv-x="534" d="M-53 499q97 21 182 79l42 -38l11 -45l-48 -36l93 -251h24l112 255l-48 20l10 75q125 -21 184 -21q23 0 36 3l-5 -69l-13 -33l-46 -2l-156 -367l6 -69h-183l1 34l16 16l-135 394l-24 -14l-45 5z" />
<glyph unicode="w" horiz-adv-x="833" d="M-53 499q97 21 182 79l42 -38l11 -45l-48 -36l93 -251h24l112 255l-48 20l22 43q65 1 103 1q51 0 51 -2h-1l5 -56l4 -43l-43 -17l-131 -340l6 -69h-183l1 34l16 16l-135 394l-24 -14l-45 5zM266 426l6 110q47 -7 122 -20l47 -3l11 -18l-48 -36l93 -251h24l112 255l-48 20 l10 75q125 -21 184 -21q23 0 36 3l-5 -69l-13 -33l-46 -2l-158 -365l28 -31l-5 -40h-190l9 50l-107 336l-17 34z" />
<glyph unicode="x" horiz-adv-x="627" d="M3 70l42 10l339 347l-46 4l6 73h134q69 -4 108 -12l-10 -77l-80 -3l-22 -38l-272 -315l-1 -59h-197zM3 506q124 6 195 6h19l78 2l-1 -79l-43 -22l304 -343l51 -4l-7 -66h-204l4 63l-245 316l-33 19l-100 6zM197 0v63h53v-63h-53zM367 0v63h53v-63h-53z" />
<glyph unicode="y" horiz-adv-x="503" d="M-62 -171l21 48l65 26l22 -9q27 -12 27 -42q0 -20 -13 -49l22 -10l32 71l122 328l75 15l25 -35l3 -42l-52 -175l-51 -117q-57 -129 -194 -129q-12 0 -24 1q-85 53 -85 98q0 11 5 21zM-37 536h26q69 0 147 13l48 6l3 -80l-52 -16l93 -251h24l112 255l-48 20l10 75 q125 -21 184 -21q23 0 36 3l-5 -69l-13 -33l-46 -2l-156 -367l-27 -69l-123 -60l4 60l-14 50l-140 403l-22 4l-28 -4z" />
<glyph unicode="z" horiz-adv-x="564" d="M0 90l61 -2l282 363l-47 4v53l169 -7q62 0 55 -3l-7 -95l-37 2l-25 -24l-236 -308l-20 -73h-192zM0 320l2 187h23l339 1l2 -67l-22 -19l-93 -6l-48 -7l-48 -11l-30 -16l-26 -22l-8 -19l-15 -19zM141 0l6 43l61 22l56 5l49 5l48 10l29 11l26 17l9 14l11 30l76 3v-160h-22 h-349z" />
<glyph unicode="{" horiz-adv-x="684" />
<glyph unicode="|" horiz-adv-x="532" />
<glyph unicode="}" horiz-adv-x="684" />
<glyph unicode="~" horiz-adv-x="1196" />
<glyph unicode="&#xa1;" horiz-adv-x="682" />
<glyph unicode="&#xa2;" />
<glyph unicode="&#xa3;" />
<glyph unicode="&#xa4;" />
<glyph unicode="&#xa5;" />
<glyph unicode="&#xa6;" horiz-adv-x="532" />
<glyph unicode="&#xa7;" />
<glyph unicode="&#xa8;" horiz-adv-x="682" />
<glyph unicode="&#xa9;" horiz-adv-x="1509" />
<glyph unicode="&#xaa;" horiz-adv-x="758" />
<glyph unicode="&#xab;" />
<glyph unicode="&#xac;" horiz-adv-x="1196" />
<glyph unicode="&#xad;" horiz-adv-x="419" d="M3 197q-43 82 0 148q489 60 342 -152l-171 2z" />
<glyph unicode="&#xae;" horiz-adv-x="1509" />
<glyph unicode="&#xaf;" horiz-adv-x="1131" />
<glyph unicode="&#xb0;" horiz-adv-x="819" />
<glyph unicode="&#xb1;" horiz-adv-x="1124" />
<glyph unicode="&#xb2;" horiz-adv-x="682" />
<glyph unicode="&#xb3;" horiz-adv-x="682" />
<glyph unicode="&#xb4;" horiz-adv-x="682" />
<glyph unicode="&#xb5;" horiz-adv-x="1180" />
<glyph unicode="&#xb6;" horiz-adv-x="1100" />
<glyph unicode="&#xb7;" horiz-adv-x="569" />
<glyph unicode="&#xb8;" horiz-adv-x="682" />
<glyph unicode="&#xb9;" horiz-adv-x="682" />
<glyph unicode="&#xba;" horiz-adv-x="748" />
<glyph unicode="&#xbb;" />
<glyph unicode="&#xbc;" horiz-adv-x="1708" />
<glyph unicode="&#xbd;" horiz-adv-x="1708" />
<glyph unicode="&#xbe;" horiz-adv-x="1708" />
<glyph unicode="&#xbf;" horiz-adv-x="1251" />
<glyph unicode="&#xc0;" horiz-adv-x="1366" />
<glyph unicode="&#xc1;" horiz-adv-x="1366" />
<glyph unicode="&#xc2;" horiz-adv-x="1366" />
<glyph unicode="&#xc3;" horiz-adv-x="1366" />
<glyph unicode="&#xc4;" horiz-adv-x="1366" />
<glyph unicode="&#xc5;" horiz-adv-x="1366" />
<glyph unicode="&#xc6;" horiz-adv-x="2048" />
<glyph unicode="&#xc7;" horiz-adv-x="1479" />
<glyph unicode="&#xc8;" horiz-adv-x="1366" />
<glyph unicode="&#xc9;" horiz-adv-x="1366" />
<glyph unicode="&#xca;" horiz-adv-x="1366" />
<glyph unicode="&#xcb;" horiz-adv-x="1366" />
<glyph unicode="&#xcc;" horiz-adv-x="569" />
<glyph unicode="&#xcd;" horiz-adv-x="569" />
<glyph unicode="&#xce;" horiz-adv-x="569" />
<glyph unicode="&#xcf;" horiz-adv-x="569" />
<glyph unicode="&#xd0;" horiz-adv-x="1479" />
<glyph unicode="&#xd1;" horiz-adv-x="1479" />
<glyph unicode="&#xd2;" horiz-adv-x="1593" />
<glyph unicode="&#xd3;" horiz-adv-x="1593" />
<glyph unicode="&#xd4;" horiz-adv-x="1593" />
<glyph unicode="&#xd5;" horiz-adv-x="1593" />
<glyph unicode="&#xd6;" horiz-adv-x="1593" />
<glyph unicode="&#xd7;" horiz-adv-x="1196" />
<glyph unicode="&#xd8;" horiz-adv-x="1593" />
<glyph unicode="&#xd9;" horiz-adv-x="1479" />
<glyph unicode="&#xda;" horiz-adv-x="1479" />
<glyph unicode="&#xdb;" horiz-adv-x="1479" />
<glyph unicode="&#xdc;" horiz-adv-x="1479" />
<glyph unicode="&#xdd;" horiz-adv-x="1366" />
<glyph unicode="&#xde;" horiz-adv-x="1366" />
<glyph unicode="&#xdf;" horiz-adv-x="1251" />
<glyph unicode="&#xe0;" />
<glyph unicode="&#xe1;" />
<glyph unicode="&#xe2;" />
<glyph unicode="&#xe3;" />
<glyph unicode="&#xe4;" />
<glyph unicode="&#xe5;" />
<glyph unicode="&#xe6;" horiz-adv-x="1821" />
<glyph unicode="&#xe7;" horiz-adv-x="1024" />
<glyph unicode="&#xe8;" />
<glyph unicode="&#xe9;" />
<glyph unicode="&#xea;" />
<glyph unicode="&#xeb;" />
<glyph unicode="&#xec;" horiz-adv-x="569" />
<glyph unicode="&#xed;" horiz-adv-x="569" />
<glyph unicode="&#xee;" horiz-adv-x="569" />
<glyph unicode="&#xef;" horiz-adv-x="569" />
<glyph unicode="&#xf0;" />
<glyph unicode="&#xf1;" />
<glyph unicode="&#xf2;" />
<glyph unicode="&#xf3;" />
<glyph unicode="&#xf4;" />
<glyph unicode="&#xf5;" />
<glyph unicode="&#xf6;" />
<glyph unicode="&#xf7;" horiz-adv-x="1124" />
<glyph unicode="&#xf8;" horiz-adv-x="1251" />
<glyph unicode="&#xf9;" />
<glyph unicode="&#xfa;" />
<glyph unicode="&#xfb;" />
<glyph unicode="&#xfc;" />
<glyph unicode="&#xfd;" horiz-adv-x="1024" />
<glyph unicode="&#xfe;" />
<glyph unicode="&#xff;" horiz-adv-x="1024" />
<glyph unicode="&#x152;" horiz-adv-x="2048" />
<glyph unicode="&#x153;" horiz-adv-x="1933" />
<glyph unicode="&#x178;" horiz-adv-x="1366" />
<glyph unicode="&#x2c6;" horiz-adv-x="682" />
<glyph unicode="&#x2dc;" horiz-adv-x="682" />
<glyph unicode="&#x2000;" horiz-adv-x="682" />
<glyph unicode="&#x2001;" horiz-adv-x="1365" />
<glyph unicode="&#x2002;" horiz-adv-x="682" />
<glyph unicode="&#x2003;" horiz-adv-x="1365" />
<glyph unicode="&#x2004;" horiz-adv-x="455" />
<glyph unicode="&#x2005;" horiz-adv-x="341" />
<glyph unicode="&#x2006;" horiz-adv-x="227" />
<glyph unicode="&#x2007;" horiz-adv-x="227" />
<glyph unicode="&#x2008;" horiz-adv-x="170" />
<glyph unicode="&#x2009;" horiz-adv-x="273" />
<glyph unicode="&#x200a;" horiz-adv-x="75" />
<glyph unicode="&#x2010;" horiz-adv-x="419" d="M3 197q-43 82 0 148q489 60 342 -152l-171 2z" />
<glyph unicode="&#x2011;" horiz-adv-x="419" d="M3 197q-43 82 0 148q489 60 342 -152l-171 2z" />
<glyph unicode="&#x2012;" horiz-adv-x="419" d="M3 197q-43 82 0 148q489 60 342 -152l-171 2z" />
<glyph unicode="&#x2013;" />
<glyph unicode="&#x2014;" horiz-adv-x="2048" />
<glyph unicode="&#x2018;" horiz-adv-x="455" />
<glyph unicode="&#x2019;" horiz-adv-x="455" />
<glyph unicode="&#x201a;" horiz-adv-x="455" />
<glyph unicode="&#x201c;" horiz-adv-x="682" />
<glyph unicode="&#x201d;" horiz-adv-x="682" />
<glyph unicode="&#x201e;" horiz-adv-x="682" />
<glyph unicode="&#x2022;" horiz-adv-x="717" />
<glyph unicode="&#x2026;" horiz-adv-x="2048" />
<glyph unicode="&#x202f;" horiz-adv-x="273" />
<glyph unicode="&#x2039;" horiz-adv-x="682" />
<glyph unicode="&#x203a;" horiz-adv-x="682" />
<glyph unicode="&#x205f;" horiz-adv-x="341" />
<glyph unicode="&#x20ac;" />
<glyph unicode="&#x2122;" horiz-adv-x="2048" />
<glyph unicode="&#x25fc;" horiz-adv-x="515" d="M0 0v515h515v-515h-515z" />
</font>
</defs>
</svg>
